<svg width="606" height="217" viewBox="0 0 606 217" fill="none" xmlns="http://www.w3.org/2000/svg">
<path d="M135.104 53.4131H124.381L121.973 60.0928H118.492L128.266 34.499H131.219L141.01 60.0928H137.547L135.104 53.4131ZM125.4 50.6357H134.102L129.742 38.665L125.4 50.6357ZM163.07 51.9717C162.754 54.6787 161.752 56.7705 160.064 58.2471C158.389 59.7119 156.156 60.4443 153.367 60.4443C150.344 60.4443 147.918 59.3604 146.09 57.1924C144.273 55.0244 143.365 52.124 143.365 48.4912V46.0303C143.365 43.6514 143.787 41.5596 144.631 39.7549C145.486 37.9502 146.693 36.5674 148.252 35.6064C149.811 34.6338 151.615 34.1475 153.666 34.1475C156.385 34.1475 158.564 34.9092 160.205 36.4326C161.846 37.9443 162.801 40.042 163.07 42.7256H159.678C159.385 40.6865 158.746 39.21 157.762 38.2959C156.789 37.3818 155.424 36.9248 153.666 36.9248C151.51 36.9248 149.816 37.7217 148.586 39.3154C147.367 40.9092 146.758 43.1768 146.758 46.1182V48.5967C146.758 51.374 147.338 53.583 148.498 55.2236C149.658 56.8643 151.281 57.6846 153.367 57.6846C155.242 57.6846 156.678 57.2627 157.674 56.4189C158.682 55.5635 159.35 54.0811 159.678 51.9717H163.07ZM186.52 51.9717C186.203 54.6787 185.201 56.7705 183.514 58.2471C181.838 59.7119 179.605 60.4443 176.816 60.4443C173.793 60.4443 171.367 59.3604 169.539 57.1924C167.723 55.0244 166.814 52.124 166.814 48.4912V46.0303C166.814 43.6514 167.236 41.5596 168.08 39.7549C168.936 37.9502 170.143 36.5674 171.701 35.6064C173.26 34.6338 175.064 34.1475 177.115 34.1475C179.834 34.1475 182.014 34.9092 183.654 36.4326C185.295 37.9443 186.25 40.042 186.52 42.7256H183.127C182.834 40.6865 182.195 39.21 181.211 38.2959C180.238 37.3818 178.873 36.9248 177.115 36.9248C174.959 36.9248 173.266 37.7217 172.035 39.3154C170.816 40.9092 170.207 43.1768 170.207 46.1182V48.5967C170.207 51.374 170.787 53.583 171.947 55.2236C173.107 56.8643 174.73 57.6846 176.816 57.6846C178.691 57.6846 180.127 57.2627 181.123 56.4189C182.131 55.5635 182.799 54.0811 183.127 51.9717H186.52ZM205.609 48.2627H194.518V57.333H207.402V60.0928H191.143V34.499H207.227V37.2764H194.518V45.5029H205.609V48.2627ZM219.145 48.6846C216.25 47.8525 214.141 46.833 212.816 45.626C211.504 44.4072 210.848 42.9072 210.848 41.126C210.848 39.1104 211.65 37.4463 213.256 36.1338C214.873 34.8096 216.971 34.1475 219.549 34.1475C221.307 34.1475 222.871 34.4873 224.242 35.167C225.625 35.8467 226.691 36.7842 227.441 37.9795C228.203 39.1748 228.584 40.4814 228.584 41.8994H225.191C225.191 40.3525 224.699 39.1396 223.715 38.2607C222.73 37.3701 221.342 36.9248 219.549 36.9248C217.885 36.9248 216.584 37.2939 215.646 38.0322C214.721 38.7588 214.258 39.7725 214.258 41.0732C214.258 42.1162 214.697 43.001 215.576 43.7275C216.467 44.4424 217.973 45.0986 220.094 45.6963C222.227 46.2939 223.891 46.9561 225.086 47.6826C226.293 48.3975 227.184 49.2354 227.758 50.1963C228.344 51.1572 228.637 52.2881 228.637 53.5889C228.637 55.6631 227.828 57.3271 226.211 58.5811C224.594 59.8232 222.432 60.4443 219.725 60.4443C217.967 60.4443 216.326 60.1104 214.803 59.4424C213.279 58.7627 212.102 57.8369 211.27 56.665C210.449 55.4932 210.039 54.1631 210.039 52.6748H213.432C213.432 54.2217 214 55.4463 215.137 56.3486C216.285 57.2393 217.814 57.6846 219.725 57.6846C221.506 57.6846 222.871 57.3213 223.82 56.5947C224.77 55.8682 225.244 54.8779 225.244 53.624C225.244 52.3701 224.805 51.4033 223.926 50.7236C223.047 50.0322 221.453 49.3525 219.145 48.6846ZM240.52 48.6846C237.625 47.8525 235.516 46.833 234.191 45.626C232.879 44.4072 232.223 42.9072 232.223 41.126C232.223 39.1104 233.025 37.4463 234.631 36.1338C236.248 34.8096 238.346 34.1475 240.924 34.1475C242.682 34.1475 244.246 34.4873 245.617 35.167C247 35.8467 248.066 36.7842 248.816 37.9795C249.578 39.1748 249.959 40.4814 249.959 41.8994H246.566C246.566 40.3525 246.074 39.1396 245.09 38.2607C244.105 37.3701 242.717 36.9248 240.924 36.9248C239.26 36.9248 237.959 37.2939 237.021 38.0322C236.096 38.7588 235.633 39.7725 235.633 41.0732C235.633 42.1162 236.072 43.001 236.951 43.7275C237.842 44.4424 239.348 45.0986 241.469 45.6963C243.602 46.2939 245.266 46.9561 246.461 47.6826C247.668 48.3975 248.559 49.2354 249.133 50.1963C249.719 51.1572 250.012 52.2881 250.012 53.5889C250.012 55.6631 249.203 57.3271 247.586 58.5811C245.969 59.8232 243.807 60.4443 241.1 60.4443C239.342 60.4443 237.701 60.1104 236.178 59.4424C234.654 58.7627 233.477 57.8369 232.645 56.665C231.824 55.4932 231.414 54.1631 231.414 52.6748H234.807C234.807 54.2217 235.375 55.4463 236.512 56.3486C237.66 57.2393 239.189 57.6846 241.1 57.6846C242.881 57.6846 244.246 57.3213 245.195 56.5947C246.145 55.8682 246.619 54.8779 246.619 53.624C246.619 52.3701 246.18 51.4033 245.301 50.7236C244.422 50.0322 242.828 49.3525 240.52 48.6846ZM277.398 48.79H266.658V60.0928H263.283V34.499H279.139V37.2764H266.658V46.0303H277.398V48.79ZM292.568 49.7393H286.557V60.0928H283.164V34.499H291.637C294.52 34.499 296.734 35.1553 298.281 36.4678C299.84 37.7803 300.619 39.6904 300.619 42.1982C300.619 43.792 300.186 45.1807 299.318 46.3643C298.463 47.5479 297.268 48.4326 295.732 49.0186L301.744 59.8818V60.0928H298.123L292.568 49.7393ZM286.557 46.9795H291.742C293.418 46.9795 294.748 46.5459 295.732 45.6787C296.729 44.8115 297.227 43.6514 297.227 42.1982C297.227 40.6162 296.752 39.4033 295.803 38.5596C294.865 37.7158 293.506 37.2881 291.725 37.2764H286.557V46.9795ZM325.053 48.1221C325.053 50.6299 324.631 52.8213 323.787 54.6963C322.943 56.5596 321.748 57.9834 320.201 58.9678C318.654 59.9521 316.85 60.4443 314.787 60.4443C312.771 60.4443 310.984 59.9521 309.426 58.9678C307.867 57.9717 306.654 56.5596 305.787 54.7314C304.932 52.8916 304.492 50.7646 304.469 48.3506V46.5049C304.469 44.0439 304.896 41.8701 305.752 39.9834C306.607 38.0967 307.814 36.6553 309.373 35.6592C310.943 34.6514 312.736 34.1475 314.752 34.1475C316.803 34.1475 318.607 34.6455 320.166 35.6416C321.736 36.626 322.943 38.0615 323.787 39.9482C324.631 41.8232 325.053 44.0088 325.053 46.5049V48.1221ZM321.695 46.4697C321.695 43.4346 321.086 41.1084 319.867 39.4912C318.648 37.8623 316.943 37.0479 314.752 37.0479C312.619 37.0479 310.938 37.8623 309.707 39.4912C308.488 41.1084 307.861 43.3584 307.826 46.2412V48.1221C307.826 51.0635 308.441 53.3779 309.672 55.0654C310.914 56.7412 312.619 57.5791 314.787 57.5791C316.967 57.5791 318.654 56.7881 319.85 55.2061C321.045 53.6123 321.66 51.333 321.695 48.3682V46.4697ZM334.475 34.499L342.842 55.3818L351.209 34.499H355.586V60.0928H352.211V50.126L352.527 39.3682L344.125 60.0928H341.541L333.156 39.4209L333.49 50.126V60.0928H330.115V34.499H334.475ZM384.607 53.4131H373.885L371.477 60.0928H367.996L377.77 34.499H380.723L390.514 60.0928H387.051L384.607 53.4131ZM374.904 50.6357H383.605L379.246 38.665L374.904 50.6357ZM413.629 60.0928H410.236L397.352 40.3701V60.0928H393.959V34.499H397.352L410.271 54.3096V34.499H413.629V60.0928ZM426.936 47.3486L433.615 34.499H437.447L428.623 50.5479V60.0928H425.248V50.5479L416.424 34.499H420.291L426.936 47.3486ZM446.588 52.0244L447.08 55.3994L447.801 52.3584L452.863 34.499H455.711L460.65 52.3584L461.354 55.4521L461.898 52.0068L465.871 34.499H469.264L463.059 60.0928H459.982L454.709 41.4424L454.305 39.4912L453.9 41.4424L448.434 60.0928H445.357L439.17 34.499H442.545L446.588 52.0244ZM492.695 60.0928H489.303V48.2627H476.4V60.0928H473.025V34.499H476.4V45.5029H489.303V34.499H492.695V60.0928ZM513.156 48.2627H502.064V57.333H514.949V60.0928H498.689V34.499H514.773V37.2764H502.064V45.5029H513.156V48.2627ZM528.537 49.7393H522.525V60.0928H519.133V34.499H527.605C530.488 34.499 532.703 35.1553 534.25 36.4678C535.809 37.7803 536.588 39.6904 536.588 42.1982C536.588 43.792 536.154 45.1807 535.287 46.3643C534.432 47.5479 533.236 48.4326 531.701 49.0186L537.713 59.8818V60.0928H534.092L528.537 49.7393ZM522.525 46.9795H527.711C529.387 46.9795 530.717 46.5459 531.701 45.6787C532.697 44.8115 533.195 43.6514 533.195 42.1982C533.195 40.6162 532.721 39.4033 531.771 38.5596C530.834 37.7158 529.475 37.2881 527.693 37.2764H522.525V46.9795ZM555.801 48.2627H544.709V57.333H557.594V60.0928H541.334V34.499H557.418V37.2764H544.709V45.5029H555.801V48.2627Z" fill="#3B668D"/>
<path d="M129.962 89.848V91H121.052V78.4H129.692V79.552H122.384V84.034H128.9V85.168H122.384V89.848H129.962ZM135.994 81.46C137.23 81.46 138.178 81.772 138.838 82.396C139.498 83.008 139.828 83.92 139.828 85.132V91H138.604V89.524C138.316 90.016 137.89 90.4 137.326 90.676C136.774 90.952 136.114 91.09 135.346 91.09C134.29 91.09 133.45 90.838 132.826 90.334C132.202 89.83 131.89 89.164 131.89 88.336C131.89 87.532 132.178 86.884 132.754 86.392C133.342 85.9 134.272 85.654 135.544 85.654H138.55V85.078C138.55 84.262 138.322 83.644 137.866 83.224C137.41 82.792 136.744 82.576 135.868 82.576C135.268 82.576 134.692 82.678 134.14 82.882C133.588 83.074 133.114 83.344 132.718 83.692L132.142 82.738C132.622 82.33 133.198 82.018 133.87 81.802C134.542 81.574 135.25 81.46 135.994 81.46ZM135.544 90.082C136.264 90.082 136.882 89.92 137.398 89.596C137.914 89.26 138.298 88.78 138.55 88.156V86.608H135.58C133.96 86.608 133.15 87.172 133.15 88.3C133.15 88.852 133.36 89.29 133.78 89.614C134.2 89.926 134.788 90.082 135.544 90.082ZM145.838 91.09C145.07 91.09 144.332 90.982 143.624 90.766C142.928 90.538 142.382 90.256 141.986 89.92L142.562 88.912C142.958 89.224 143.456 89.482 144.056 89.686C144.656 89.878 145.28 89.974 145.928 89.974C146.792 89.974 147.428 89.842 147.836 89.578C148.256 89.302 148.466 88.918 148.466 88.426C148.466 88.078 148.352 87.808 148.124 87.616C147.896 87.412 147.608 87.262 147.26 87.166C146.912 87.058 146.45 86.956 145.874 86.86C145.106 86.716 144.488 86.572 144.02 86.428C143.552 86.272 143.15 86.014 142.814 85.654C142.49 85.294 142.328 84.796 142.328 84.16C142.328 83.368 142.658 82.72 143.318 82.216C143.978 81.712 144.896 81.46 146.072 81.46C146.684 81.46 147.296 81.544 147.908 81.712C148.52 81.868 149.024 82.078 149.42 82.342L148.862 83.368C148.082 82.828 147.152 82.558 146.072 82.558C145.256 82.558 144.638 82.702 144.218 82.99C143.81 83.278 143.606 83.656 143.606 84.124C143.606 84.484 143.72 84.772 143.948 84.988C144.188 85.204 144.482 85.366 144.83 85.474C145.178 85.57 145.658 85.672 146.27 85.78C147.026 85.924 147.632 86.068 148.088 86.212C148.544 86.356 148.934 86.602 149.258 86.95C149.582 87.298 149.744 87.778 149.744 88.39C149.744 89.218 149.396 89.878 148.7 90.37C148.016 90.85 147.062 91.09 145.838 91.09ZM152.106 81.532H153.384V91H152.106V81.532ZM152.754 79.462C152.49 79.462 152.268 79.372 152.088 79.192C151.908 79.012 151.818 78.796 151.818 78.544C151.818 78.304 151.908 78.094 152.088 77.914C152.268 77.734 152.49 77.644 152.754 77.644C153.018 77.644 153.24 77.734 153.42 77.914C153.6 78.082 153.69 78.286 153.69 78.526C153.69 78.79 153.6 79.012 153.42 79.192C153.24 79.372 153.018 79.462 152.754 79.462ZM156.94 77.644H158.218V91H156.94V77.644ZM169.73 81.532L164.996 92.134C164.612 93.022 164.168 93.652 163.664 94.024C163.16 94.396 162.554 94.582 161.846 94.582C161.39 94.582 160.964 94.51 160.568 94.366C160.172 94.222 159.83 94.006 159.542 93.718L160.136 92.764C160.616 93.244 161.192 93.484 161.864 93.484C162.296 93.484 162.662 93.364 162.962 93.124C163.274 92.884 163.562 92.476 163.826 91.9L164.24 90.982L160.01 81.532H161.342L164.906 89.578L168.47 81.532H169.73ZM179.553 81.46C180.789 81.46 181.737 81.772 182.397 82.396C183.057 83.008 183.387 83.92 183.387 85.132V91H182.163V89.524C181.875 90.016 181.449 90.4 180.885 90.676C180.333 90.952 179.673 91.09 178.905 91.09C177.849 91.09 177.009 90.838 176.385 90.334C175.761 89.83 175.449 89.164 175.449 88.336C175.449 87.532 175.737 86.884 176.313 86.392C176.901 85.9 177.831 85.654 179.103 85.654H182.109V85.078C182.109 84.262 181.881 83.644 181.425 83.224C180.969 82.792 180.303 82.576 179.427 82.576C178.827 82.576 178.251 82.678 177.699 82.882C177.147 83.074 176.673 83.344 176.277 83.692L175.701 82.738C176.181 82.33 176.757 82.018 177.429 81.802C178.101 81.574 178.809 81.46 179.553 81.46ZM179.103 90.082C179.823 90.082 180.441 89.92 180.957 89.596C181.473 89.26 181.857 88.78 182.109 88.156V86.608H179.139C177.519 86.608 176.709 87.172 176.709 88.3C176.709 88.852 176.919 89.29 177.339 89.614C177.759 89.926 178.347 90.082 179.103 90.082ZM190.817 91.09C189.881 91.09 189.041 90.886 188.297 90.478C187.565 90.07 186.989 89.5 186.569 88.768C186.149 88.024 185.939 87.19 185.939 86.266C185.939 85.342 186.149 84.514 186.569 83.782C186.989 83.05 187.565 82.48 188.297 82.072C189.041 81.664 189.881 81.46 190.817 81.46C191.633 81.46 192.359 81.622 192.995 81.946C193.643 82.258 194.153 82.72 194.525 83.332L193.571 83.98C193.259 83.512 192.863 83.164 192.383 82.936C191.903 82.696 191.381 82.576 190.817 82.576C190.133 82.576 189.515 82.732 188.963 83.044C188.423 83.344 187.997 83.776 187.685 84.34C187.385 84.904 187.235 85.546 187.235 86.266C187.235 86.998 187.385 87.646 187.685 88.21C187.997 88.762 188.423 89.194 188.963 89.506C189.515 89.806 190.133 89.956 190.817 89.956C191.381 89.956 191.903 89.842 192.383 89.614C192.863 89.386 193.259 89.038 193.571 88.57L194.525 89.218C194.153 89.83 193.643 90.298 192.995 90.622C192.347 90.934 191.621 91.09 190.817 91.09ZM200.802 91.09C199.866 91.09 199.026 90.886 198.282 90.478C197.55 90.07 196.974 89.5 196.554 88.768C196.134 88.024 195.924 87.19 195.924 86.266C195.924 85.342 196.134 84.514 196.554 83.782C196.974 83.05 197.55 82.48 198.282 82.072C199.026 81.664 199.866 81.46 200.802 81.46C201.618 81.46 202.344 81.622 202.98 81.946C203.628 82.258 204.138 82.72 204.51 83.332L203.556 83.98C203.244 83.512 202.848 83.164 202.368 82.936C201.888 82.696 201.366 82.576 200.802 82.576C200.118 82.576 199.5 82.732 198.948 83.044C198.408 83.344 197.982 83.776 197.67 84.34C197.37 84.904 197.22 85.546 197.22 86.266C197.22 86.998 197.37 87.646 197.67 88.21C197.982 88.762 198.408 89.194 198.948 89.506C199.5 89.806 200.118 89.956 200.802 89.956C201.366 89.956 201.888 89.842 202.368 89.614C202.848 89.386 203.244 89.038 203.556 88.57L204.51 89.218C204.138 89.83 203.628 90.298 202.98 90.622C202.332 90.934 201.606 91.09 200.802 91.09ZM215.106 86.662H207.186C207.258 87.646 207.636 88.444 208.32 89.056C209.004 89.656 209.868 89.956 210.912 89.956C211.5 89.956 212.04 89.854 212.532 89.65C213.024 89.434 213.45 89.122 213.81 88.714L214.53 89.542C214.11 90.046 213.582 90.43 212.946 90.694C212.322 90.958 211.632 91.09 210.876 91.09C209.904 91.09 209.04 90.886 208.284 90.478C207.54 90.058 206.958 89.482 206.538 88.75C206.118 88.018 205.908 87.19 205.908 86.266C205.908 85.342 206.106 84.514 206.502 83.782C206.91 83.05 207.462 82.48 208.158 82.072C208.866 81.664 209.658 81.46 210.534 81.46C211.41 81.46 212.196 81.664 212.892 82.072C213.588 82.48 214.134 83.05 214.53 83.782C214.926 84.502 215.124 85.33 215.124 86.266L215.106 86.662ZM210.534 82.558C209.622 82.558 208.854 82.852 208.23 83.44C207.618 84.016 207.27 84.772 207.186 85.708H213.9C213.816 84.772 213.462 84.016 212.838 83.44C212.226 82.852 211.458 82.558 210.534 82.558ZM220.263 91.09C219.495 91.09 218.757 90.982 218.049 90.766C217.353 90.538 216.807 90.256 216.411 89.92L216.987 88.912C217.383 89.224 217.881 89.482 218.481 89.686C219.081 89.878 219.705 89.974 220.353 89.974C221.217 89.974 221.853 89.842 222.261 89.578C222.681 89.302 222.891 88.918 222.891 88.426C222.891 88.078 222.777 87.808 222.549 87.616C222.321 87.412 222.033 87.262 221.685 87.166C221.337 87.058 220.875 86.956 220.299 86.86C219.531 86.716 218.913 86.572 218.445 86.428C217.977 86.272 217.575 86.014 217.239 85.654C216.915 85.294 216.753 84.796 216.753 84.16C216.753 83.368 217.083 82.72 217.743 82.216C218.403 81.712 219.321 81.46 220.497 81.46C221.109 81.46 221.721 81.544 222.333 81.712C222.945 81.868 223.449 82.078 223.845 82.342L223.287 83.368C222.507 82.828 221.577 82.558 220.497 82.558C219.681 82.558 219.063 82.702 218.643 82.99C218.235 83.278 218.031 83.656 218.031 84.124C218.031 84.484 218.145 84.772 218.373 84.988C218.613 85.204 218.907 85.366 219.255 85.474C219.603 85.57 220.083 85.672 220.695 85.78C221.451 85.924 222.057 86.068 222.513 86.212C222.969 86.356 223.359 86.602 223.683 86.95C224.007 87.298 224.169 87.778 224.169 88.39C224.169 89.218 223.821 89.878 223.125 90.37C222.441 90.85 221.487 91.09 220.263 91.09ZM229.07 91.09C228.302 91.09 227.564 90.982 226.856 90.766C226.16 90.538 225.614 90.256 225.218 89.92L225.794 88.912C226.19 89.224 226.688 89.482 227.288 89.686C227.888 89.878 228.512 89.974 229.16 89.974C230.024 89.974 230.66 89.842 231.068 89.578C231.488 89.302 231.698 88.918 231.698 88.426C231.698 88.078 231.584 87.808 231.356 87.616C231.128 87.412 230.84 87.262 230.492 87.166C230.144 87.058 229.682 86.956 229.106 86.86C228.338 86.716 227.72 86.572 227.252 86.428C226.784 86.272 226.382 86.014 226.046 85.654C225.722 85.294 225.56 84.796 225.56 84.16C225.56 83.368 225.89 82.72 226.55 82.216C227.21 81.712 228.128 81.46 229.304 81.46C229.916 81.46 230.528 81.544 231.14 81.712C231.752 81.868 232.256 82.078 232.652 82.342L232.094 83.368C231.314 82.828 230.384 82.558 229.304 82.558C228.488 82.558 227.87 82.702 227.45 82.99C227.042 83.278 226.838 83.656 226.838 84.124C226.838 84.484 226.952 84.772 227.18 84.988C227.42 85.204 227.714 85.366 228.062 85.474C228.41 85.57 228.89 85.672 229.502 85.78C230.258 85.924 230.864 86.068 231.32 86.212C231.776 86.356 232.166 86.602 232.49 86.95C232.814 87.298 232.976 87.778 232.976 88.39C232.976 89.218 232.628 89.878 231.932 90.37C231.248 90.85 230.294 91.09 229.07 91.09ZM248.006 81.532L243.272 92.134C242.888 93.022 242.444 93.652 241.94 94.024C241.436 94.396 240.83 94.582 240.122 94.582C239.666 94.582 239.24 94.51 238.844 94.366C238.448 94.222 238.106 94.006 237.818 93.718L238.412 92.764C238.892 93.244 239.468 93.484 240.14 93.484C240.572 93.484 240.938 93.364 241.238 93.124C241.55 92.884 241.838 92.476 242.102 91.9L242.516 90.982L238.286 81.532H239.618L243.182 89.578L246.746 81.532H248.006ZM253.412 91.09C252.5 91.09 251.678 90.886 250.946 90.478C250.214 90.058 249.638 89.482 249.218 88.75C248.798 88.018 248.588 87.19 248.588 86.266C248.588 85.342 248.798 84.514 249.218 83.782C249.638 83.05 250.214 82.48 250.946 82.072C251.678 81.664 252.5 81.46 253.412 81.46C254.324 81.46 255.146 81.664 255.878 82.072C256.61 82.48 257.18 83.05 257.588 83.782C258.008 84.514 258.218 85.342 258.218 86.266C258.218 87.19 258.008 88.018 257.588 88.75C257.18 89.482 256.61 90.058 255.878 90.478C255.146 90.886 254.324 91.09 253.412 91.09ZM253.412 89.956C254.084 89.956 254.684 89.806 255.212 89.506C255.752 89.194 256.172 88.756 256.472 88.192C256.772 87.628 256.922 86.986 256.922 86.266C256.922 85.546 256.772 84.904 256.472 84.34C256.172 83.776 255.752 83.344 255.212 83.044C254.684 82.732 254.084 82.576 253.412 82.576C252.74 82.576 252.134 82.732 251.594 83.044C251.066 83.344 250.646 83.776 250.334 84.34C250.034 84.904 249.884 85.546 249.884 86.266C249.884 86.986 250.034 87.628 250.334 88.192C250.646 88.756 251.066 89.194 251.594 89.506C252.134 89.806 252.74 89.956 253.412 89.956ZM269.359 81.532V91H268.135V89.272C267.799 89.848 267.337 90.298 266.749 90.622C266.161 90.934 265.489 91.09 264.733 91.09C263.497 91.09 262.519 90.748 261.799 90.064C261.091 89.368 260.737 88.354 260.737 87.022V81.532H262.015V86.896C262.015 87.892 262.261 88.648 262.753 89.164C263.245 89.68 263.947 89.938 264.859 89.938C265.855 89.938 266.641 89.638 267.217 89.038C267.793 88.426 268.081 87.58 268.081 86.5V81.532H269.359ZM274.162 83.386C274.462 82.75 274.906 82.27 275.494 81.946C276.094 81.622 276.832 81.46 277.708 81.46V82.702L277.402 82.684C276.406 82.684 275.626 82.99 275.062 83.602C274.498 84.214 274.216 85.072 274.216 86.176V91H272.938V81.532H274.162V83.386ZM288.006 78.634C287.454 78.634 287.034 78.784 286.746 79.084C286.47 79.384 286.332 79.828 286.332 80.416V81.532H289.248V82.612H286.368V91H285.09V82.612H283.398V81.532H285.09V80.362C285.09 79.498 285.336 78.814 285.828 78.31C286.332 77.806 287.04 77.554 287.952 77.554C288.312 77.554 288.66 77.608 288.996 77.716C289.332 77.812 289.614 77.956 289.842 78.148L289.41 79.102C289.038 78.79 288.57 78.634 288.006 78.634ZM292.416 81.532H293.694V91H292.416V81.532ZM293.064 79.462C292.8 79.462 292.578 79.372 292.398 79.192C292.218 79.012 292.128 78.796 292.128 78.544C292.128 78.304 292.218 78.094 292.398 77.914C292.578 77.734 292.8 77.644 293.064 77.644C293.328 77.644 293.55 77.734 293.73 77.914C293.91 78.082 294 78.286 294 78.526C294 78.79 293.91 79.012 293.73 79.192C293.55 79.372 293.328 79.462 293.064 79.462ZM297.266 77.644H298.544V91H297.266V77.644ZM310.344 86.662H302.424C302.496 87.646 302.874 88.444 303.558 89.056C304.242 89.656 305.106 89.956 306.15 89.956C306.738 89.956 307.278 89.854 307.77 89.65C308.262 89.434 308.688 89.122 309.048 88.714L309.768 89.542C309.348 90.046 308.82 90.43 308.184 90.694C307.56 90.958 306.87 91.09 306.114 91.09C305.142 91.09 304.278 90.886 303.522 90.478C302.778 90.058 302.196 89.482 301.776 88.75C301.356 88.018 301.146 87.19 301.146 86.266C301.146 85.342 301.344 84.514 301.74 83.782C302.148 83.05 302.7 82.48 303.396 82.072C304.104 81.664 304.896 81.46 305.772 81.46C306.648 81.46 307.434 81.664 308.13 82.072C308.826 82.48 309.372 83.05 309.768 83.782C310.164 84.502 310.362 85.33 310.362 86.266L310.344 86.662ZM305.772 82.558C304.86 82.558 304.092 82.852 303.468 83.44C302.856 84.016 302.508 84.772 302.424 85.708H309.138C309.054 84.772 308.7 84.016 308.076 83.44C307.464 82.852 306.696 82.558 305.772 82.558ZM315.502 91.09C314.734 91.09 313.996 90.982 313.288 90.766C312.592 90.538 312.046 90.256 311.65 89.92L312.226 88.912C312.622 89.224 313.12 89.482 313.72 89.686C314.32 89.878 314.944 89.974 315.592 89.974C316.456 89.974 317.092 89.842 317.5 89.578C317.92 89.302 318.13 88.918 318.13 88.426C318.13 88.078 318.016 87.808 317.788 87.616C317.56 87.412 317.272 87.262 316.924 87.166C316.576 87.058 316.114 86.956 315.538 86.86C314.77 86.716 314.152 86.572 313.684 86.428C313.216 86.272 312.814 86.014 312.478 85.654C312.154 85.294 311.992 84.796 311.992 84.16C311.992 83.368 312.322 82.72 312.982 82.216C313.642 81.712 314.56 81.46 315.736 81.46C316.348 81.46 316.96 81.544 317.572 81.712C318.184 81.868 318.688 82.078 319.084 82.342L318.526 83.368C317.746 82.828 316.816 82.558 315.736 82.558C314.92 82.558 314.302 82.702 313.882 82.99C313.474 83.278 313.27 83.656 313.27 84.124C313.27 84.484 313.384 84.772 313.612 84.988C313.852 85.204 314.146 85.366 314.494 85.474C314.842 85.57 315.322 85.672 315.934 85.78C316.69 85.924 317.296 86.068 317.752 86.212C318.208 86.356 318.598 86.602 318.922 86.95C319.246 87.298 319.408 87.778 319.408 88.39C319.408 89.218 319.06 89.878 318.364 90.37C317.68 90.85 316.726 91.09 315.502 91.09ZM329.613 78.634C329.061 78.634 328.641 78.784 328.353 79.084C328.077 79.384 327.939 79.828 327.939 80.416V81.532H330.855V82.612H327.975V91H326.697V82.612H325.005V81.532H326.697V80.362C326.697 79.498 326.943 78.814 327.435 78.31C327.939 77.806 328.647 77.554 329.559 77.554C329.919 77.554 330.267 77.608 330.603 77.716C330.939 77.812 331.221 77.956 331.449 78.148L331.017 79.102C330.645 78.79 330.177 78.634 329.613 78.634ZM335.246 83.386C335.546 82.75 335.99 82.27 336.578 81.946C337.178 81.622 337.916 81.46 338.792 81.46V82.702L338.486 82.684C337.49 82.684 336.71 82.99 336.146 83.602C335.582 84.214 335.3 85.072 335.3 86.176V91H334.022V81.532H335.246V83.386ZM344.888 91.09C343.976 91.09 343.154 90.886 342.422 90.478C341.69 90.058 341.114 89.482 340.694 88.75C340.274 88.018 340.064 87.19 340.064 86.266C340.064 85.342 340.274 84.514 340.694 83.782C341.114 83.05 341.69 82.48 342.422 82.072C343.154 81.664 343.976 81.46 344.888 81.46C345.8 81.46 346.622 81.664 347.354 82.072C348.086 82.48 348.656 83.05 349.064 83.782C349.484 84.514 349.694 85.342 349.694 86.266C349.694 87.19 349.484 88.018 349.064 88.75C348.656 89.482 348.086 90.058 347.354 90.478C346.622 90.886 345.8 91.09 344.888 91.09ZM344.888 89.956C345.56 89.956 346.16 89.806 346.688 89.506C347.228 89.194 347.648 88.756 347.948 88.192C348.248 87.628 348.398 86.986 348.398 86.266C348.398 85.546 348.248 84.904 347.948 84.34C347.648 83.776 347.228 83.344 346.688 83.044C346.16 82.732 345.56 82.576 344.888 82.576C344.216 82.576 343.61 82.732 343.07 83.044C342.542 83.344 342.122 83.776 341.81 84.34C341.51 84.904 341.36 85.546 341.36 86.266C341.36 86.986 341.51 87.628 341.81 88.192C342.122 88.756 342.542 89.194 343.07 89.506C343.61 89.806 344.216 89.956 344.888 89.956ZM364.111 81.46C365.299 81.46 366.229 81.802 366.901 82.486C367.585 83.17 367.927 84.178 367.927 85.51V91H366.649V85.636C366.649 84.652 366.409 83.902 365.929 83.386C365.461 82.87 364.795 82.612 363.931 82.612C362.947 82.612 362.173 82.918 361.609 83.53C361.045 84.13 360.763 84.964 360.763 86.032V91H359.485V85.636C359.485 84.652 359.245 83.902 358.765 83.386C358.297 82.87 357.625 82.612 356.749 82.612C355.777 82.612 355.003 82.918 354.427 83.53C353.863 84.13 353.581 84.964 353.581 86.032V91H352.303V81.532H353.527V83.26C353.863 82.684 354.331 82.24 354.931 81.928C355.531 81.616 356.221 81.46 357.001 81.46C357.793 81.46 358.477 81.628 359.053 81.964C359.641 82.3 360.079 82.798 360.367 83.458C360.715 82.834 361.213 82.348 361.861 82C362.521 81.64 363.271 81.46 364.111 81.46ZM379.416 81.46C380.652 81.46 381.6 81.772 382.26 82.396C382.92 83.008 383.25 83.92 383.25 85.132V91H382.026V89.524C381.738 90.016 381.312 90.4 380.748 90.676C380.196 90.952 379.536 91.09 378.768 91.09C377.712 91.09 376.872 90.838 376.248 90.334C375.624 89.83 375.312 89.164 375.312 88.336C375.312 87.532 375.6 86.884 376.176 86.392C376.764 85.9 377.694 85.654 378.966 85.654H381.972V85.078C381.972 84.262 381.744 83.644 381.288 83.224C380.832 82.792 380.166 82.576 379.29 82.576C378.69 82.576 378.114 82.678 377.562 82.882C377.01 83.074 376.536 83.344 376.14 83.692L375.564 82.738C376.044 82.33 376.62 82.018 377.292 81.802C377.964 81.574 378.672 81.46 379.416 81.46ZM378.966 90.082C379.686 90.082 380.304 89.92 380.82 89.596C381.336 89.26 381.72 88.78 381.972 88.156V86.608H379.002C377.382 86.608 376.572 87.172 376.572 88.3C376.572 88.852 376.782 89.29 377.202 89.614C377.622 89.926 378.21 90.082 378.966 90.082ZM391.545 81.46C392.733 81.46 393.675 81.808 394.371 82.504C395.079 83.188 395.433 84.19 395.433 85.51V91H394.155V85.636C394.155 84.652 393.909 83.902 393.417 83.386C392.925 82.87 392.223 82.612 391.311 82.612C390.291 82.612 389.481 82.918 388.881 83.53C388.293 84.13 387.999 84.964 387.999 86.032V91H386.721V81.532H387.945V83.278C388.293 82.702 388.773 82.258 389.385 81.946C390.009 81.622 390.729 81.46 391.545 81.46ZM406.683 81.532L401.949 92.134C401.565 93.022 401.121 93.652 400.617 94.024C400.113 94.396 399.507 94.582 398.799 94.582C398.343 94.582 397.917 94.51 397.521 94.366C397.125 94.222 396.783 94.006 396.495 93.718L397.089 92.764C397.569 93.244 398.145 93.484 398.817 93.484C399.249 93.484 399.615 93.364 399.915 93.124C400.227 92.884 400.515 92.476 400.779 91.9L401.193 90.982L396.963 81.532H398.295L401.859 89.578L405.423 81.532H406.683ZM422.291 81.532L418.709 91H417.503L414.515 83.242L411.527 91H410.321L406.757 81.532H407.981L410.951 89.578L413.993 81.532H415.091L418.115 89.578L421.121 81.532H422.291ZM429.04 81.46C430.228 81.46 431.17 81.808 431.866 82.504C432.574 83.188 432.928 84.19 432.928 85.51V91H431.65V85.636C431.65 84.652 431.404 83.902 430.912 83.386C430.42 82.87 429.718 82.612 428.806 82.612C427.786 82.612 426.976 82.918 426.376 83.53C425.788 84.13 425.494 84.964 425.494 86.032V91H424.216V77.644H425.494V83.188C425.842 82.636 426.322 82.21 426.934 81.91C427.546 81.61 428.248 81.46 429.04 81.46ZM444.676 86.662H436.756C436.828 87.646 437.206 88.444 437.89 89.056C438.574 89.656 439.438 89.956 440.482 89.956C441.07 89.956 441.61 89.854 442.102 89.65C442.594 89.434 443.02 89.122 443.38 88.714L444.1 89.542C443.68 90.046 443.152 90.43 442.516 90.694C441.892 90.958 441.202 91.09 440.446 91.09C439.474 91.09 438.61 90.886 437.854 90.478C437.11 90.058 436.528 89.482 436.108 88.75C435.688 88.018 435.478 87.19 435.478 86.266C435.478 85.342 435.676 84.514 436.072 83.782C436.48 83.05 437.032 82.48 437.728 82.072C438.436 81.664 439.228 81.46 440.104 81.46C440.98 81.46 441.766 81.664 442.462 82.072C443.158 82.48 443.704 83.05 444.1 83.782C444.496 84.502 444.694 85.33 444.694 86.266L444.676 86.662ZM440.104 82.558C439.192 82.558 438.424 82.852 437.8 83.44C437.188 84.016 436.84 84.772 436.756 85.708H443.47C443.386 84.772 443.032 84.016 442.408 83.44C441.796 82.852 441.028 82.558 440.104 82.558ZM448.52 83.386C448.82 82.75 449.264 82.27 449.852 81.946C450.452 81.622 451.19 81.46 452.066 81.46V82.702L451.76 82.684C450.764 82.684 449.984 82.99 449.42 83.602C448.856 84.214 448.574 85.072 448.574 86.176V91H447.296V81.532H448.52V83.386ZM462.536 86.662H454.616C454.688 87.646 455.066 88.444 455.75 89.056C456.434 89.656 457.298 89.956 458.342 89.956C458.93 89.956 459.47 89.854 459.962 89.65C460.454 89.434 460.88 89.122 461.24 88.714L461.96 89.542C461.54 90.046 461.012 90.43 460.376 90.694C459.752 90.958 459.062 91.09 458.306 91.09C457.334 91.09 456.47 90.886 455.714 90.478C454.97 90.058 454.388 89.482 453.968 88.75C453.548 88.018 453.338 87.19 453.338 86.266C453.338 85.342 453.536 84.514 453.932 83.782C454.34 83.05 454.892 82.48 455.588 82.072C456.296 81.664 457.088 81.46 457.964 81.46C458.84 81.46 459.626 81.664 460.322 82.072C461.018 82.48 461.564 83.05 461.96 83.782C462.356 84.502 462.554 85.33 462.554 86.266L462.536 86.662ZM457.964 82.558C457.052 82.558 456.284 82.852 455.66 83.44C455.048 84.016 454.7 84.772 454.616 85.708H461.33C461.246 84.772 460.892 84.016 460.268 83.44C459.656 82.852 458.888 82.558 457.964 82.558ZM483.762 81.532L480.18 91H478.974L475.986 83.242L472.998 91H471.792L468.228 81.532H469.452L472.422 89.578L475.464 81.532H476.562L479.586 89.578L482.592 81.532H483.762ZM485.686 81.532H486.964V91H485.686V81.532ZM486.334 79.462C486.07 79.462 485.848 79.372 485.668 79.192C485.488 79.012 485.398 78.796 485.398 78.544C485.398 78.304 485.488 78.094 485.668 77.914C485.848 77.734 486.07 77.644 486.334 77.644C486.598 77.644 486.82 77.734 487 77.914C487.18 78.082 487.27 78.286 487.27 78.526C487.27 78.79 487.18 79.012 487 79.192C486.82 79.372 486.598 79.462 486.334 79.462ZM495.506 90.424C495.266 90.64 494.966 90.808 494.606 90.928C494.258 91.036 493.892 91.09 493.508 91.09C492.62 91.09 491.936 90.85 491.456 90.37C490.976 89.89 490.736 89.212 490.736 88.336V82.612H489.044V81.532H490.736V79.462H492.014V81.532H494.894V82.612H492.014V88.264C492.014 88.828 492.152 89.26 492.428 89.56C492.716 89.848 493.124 89.992 493.652 89.992C493.916 89.992 494.168 89.95 494.408 89.866C494.66 89.782 494.876 89.662 495.056 89.506L495.506 90.424ZM502.657 81.46C503.845 81.46 504.787 81.808 505.483 82.504C506.191 83.188 506.545 84.19 506.545 85.51V91H505.267V85.636C505.267 84.652 505.021 83.902 504.529 83.386C504.037 82.87 503.335 82.612 502.423 82.612C501.403 82.612 500.593 82.918 499.993 83.53C499.405 84.13 499.111 84.964 499.111 86.032V91H497.833V77.644H499.111V83.188C499.459 82.636 499.939 82.21 500.551 81.91C501.163 81.61 501.865 81.46 502.657 81.46ZM129.422 104.644V118H128.198V116.128C127.814 116.764 127.304 117.25 126.668 117.586C126.044 117.922 125.336 118.09 124.544 118.09C123.656 118.09 122.852 117.886 122.132 117.478C121.412 117.07 120.848 116.5 120.44 115.768C120.032 115.036 119.828 114.202 119.828 113.266C119.828 112.33 120.032 111.496 120.44 110.764C120.848 110.032 121.412 109.468 122.132 109.072C122.852 108.664 123.656 108.46 124.544 108.46C125.312 108.46 126.002 108.622 126.614 108.946C127.238 109.258 127.748 109.72 128.144 110.332V104.644H129.422ZM124.652 116.956C125.312 116.956 125.906 116.806 126.434 116.506C126.974 116.194 127.394 115.756 127.694 115.192C128.006 114.628 128.162 113.986 128.162 113.266C128.162 112.546 128.006 111.904 127.694 111.34C127.394 110.776 126.974 110.344 126.434 110.044C125.906 109.732 125.312 109.576 124.652 109.576C123.98 109.576 123.374 109.732 122.834 110.044C122.306 110.344 121.886 110.776 121.574 111.34C121.274 111.904 121.124 112.546 121.124 113.266C121.124 113.986 121.274 114.628 121.574 115.192C121.886 115.756 122.306 116.194 122.834 116.506C123.374 116.806 123.98 116.956 124.652 116.956ZM141.225 113.662H133.305C133.377 114.646 133.755 115.444 134.439 116.056C135.123 116.656 135.987 116.956 137.031 116.956C137.619 116.956 138.159 116.854 138.651 116.65C139.143 116.434 139.569 116.122 139.929 115.714L140.649 116.542C140.229 117.046 139.701 117.43 139.065 117.694C138.441 117.958 137.751 118.09 136.995 118.09C136.023 118.09 135.159 117.886 134.403 117.478C133.659 117.058 133.077 116.482 132.657 115.75C132.237 115.018 132.027 114.19 132.027 113.266C132.027 112.342 132.225 111.514 132.621 110.782C133.029 110.05 133.581 109.48 134.277 109.072C134.985 108.664 135.777 108.46 136.653 108.46C137.529 108.46 138.315 108.664 139.011 109.072C139.707 109.48 140.253 110.05 140.649 110.782C141.045 111.502 141.243 112.33 141.243 113.266L141.225 113.662ZM136.653 109.558C135.741 109.558 134.973 109.852 134.349 110.44C133.737 111.016 133.389 111.772 133.305 112.708H140.019C139.935 111.772 139.581 111.016 138.957 110.44C138.345 109.852 137.577 109.558 136.653 109.558ZM146.383 118.09C145.615 118.09 144.877 117.982 144.169 117.766C143.473 117.538 142.927 117.256 142.531 116.92L143.107 115.912C143.503 116.224 144.001 116.482 144.601 116.686C145.201 116.878 145.825 116.974 146.473 116.974C147.337 116.974 147.973 116.842 148.381 116.578C148.801 116.302 149.011 115.918 149.011 115.426C149.011 115.078 148.897 114.808 148.669 114.616C148.441 114.412 148.153 114.262 147.805 114.166C147.457 114.058 146.995 113.956 146.419 113.86C145.651 113.716 145.033 113.572 144.565 113.428C144.097 113.272 143.695 113.014 143.359 112.654C143.035 112.294 142.873 111.796 142.873 111.16C142.873 110.368 143.203 109.72 143.863 109.216C144.523 108.712 145.441 108.46 146.617 108.46C147.229 108.46 147.841 108.544 148.453 108.712C149.065 108.868 149.569 109.078 149.965 109.342L149.407 110.368C148.627 109.828 147.697 109.558 146.617 109.558C145.801 109.558 145.183 109.702 144.763 109.99C144.355 110.278 144.151 110.656 144.151 111.124C144.151 111.484 144.265 111.772 144.493 111.988C144.733 112.204 145.027 112.366 145.375 112.474C145.723 112.57 146.203 112.672 146.814 112.78C147.571 112.924 148.177 113.068 148.633 113.212C149.089 113.356 149.479 113.602 149.803 113.95C150.127 114.298 150.289 114.778 150.289 115.39C150.289 116.218 149.941 116.878 149.245 117.37C148.561 117.85 147.607 118.09 146.383 118.09ZM156.161 113.248L153.929 115.3V118H152.651V104.644H153.929V113.698L159.581 108.532H161.165L157.115 112.402L161.543 118H159.977L156.161 113.248ZM168.448 117.424C168.208 117.64 167.908 117.808 167.548 117.928C167.2 118.036 166.834 118.09 166.45 118.09C165.562 118.09 164.878 117.85 164.398 117.37C163.918 116.89 163.678 116.212 163.678 115.336V109.612H161.986V108.532H163.678V106.462H164.956V108.532H167.836V109.612H164.956V115.264C164.956 115.828 165.094 116.26 165.37 116.56C165.658 116.848 166.066 116.992 166.594 116.992C166.858 116.992 167.11 116.95 167.35 116.866C167.602 116.782 167.818 116.662 167.998 116.506L168.448 117.424ZM174.31 118.09C173.398 118.09 172.576 117.886 171.844 117.478C171.112 117.058 170.536 116.482 170.116 115.75C169.696 115.018 169.486 114.19 169.486 113.266C169.486 112.342 169.696 111.514 170.116 110.782C170.536 110.05 171.112 109.48 171.844 109.072C172.576 108.664 173.398 108.46 174.31 108.46C175.222 108.46 176.044 108.664 176.776 109.072C177.508 109.48 178.078 110.05 178.486 110.782C178.906 111.514 179.116 112.342 179.116 113.266C179.116 114.19 178.906 115.018 178.486 115.75C178.078 116.482 177.508 117.058 176.776 117.478C176.044 117.886 175.222 118.09 174.31 118.09ZM174.31 116.956C174.982 116.956 175.582 116.806 176.11 116.506C176.65 116.194 177.07 115.756 177.37 115.192C177.67 114.628 177.82 113.986 177.82 113.266C177.82 112.546 177.67 111.904 177.37 111.34C177.07 110.776 176.65 110.344 176.11 110.044C175.582 109.732 174.982 109.576 174.31 109.576C173.638 109.576 173.032 109.732 172.492 110.044C171.964 110.344 171.544 110.776 171.232 111.34C170.932 111.904 170.782 112.546 170.782 113.266C170.782 113.986 170.932 114.628 171.232 115.192C171.544 115.756 171.964 116.194 172.492 116.506C173.032 116.806 173.638 116.956 174.31 116.956ZM186.603 108.46C187.491 108.46 188.295 108.664 189.015 109.072C189.735 109.468 190.299 110.032 190.707 110.764C191.115 111.496 191.319 112.33 191.319 113.266C191.319 114.214 191.115 115.054 190.707 115.786C190.299 116.518 189.735 117.088 189.015 117.496C188.307 117.892 187.503 118.09 186.603 118.09C185.835 118.09 185.139 117.934 184.515 117.622C183.903 117.298 183.399 116.83 183.003 116.218V121.492H181.725V108.532H182.949V110.404C183.333 109.78 183.837 109.3 184.461 108.964C185.097 108.628 185.811 108.46 186.603 108.46ZM186.513 116.956C187.173 116.956 187.773 116.806 188.313 116.506C188.853 116.194 189.273 115.756 189.573 115.192C189.885 114.628 190.041 113.986 190.041 113.266C190.041 112.546 189.885 111.91 189.573 111.358C189.273 110.794 188.853 110.356 188.313 110.044C187.773 109.732 187.173 109.576 186.513 109.576C185.841 109.576 185.235 109.732 184.695 110.044C184.167 110.356 183.747 110.794 183.435 111.358C183.135 111.91 182.985 112.546 182.985 113.266C182.985 113.986 183.135 114.628 183.435 115.192C183.747 115.756 184.167 116.194 184.695 116.506C185.235 116.806 185.841 116.956 186.513 116.956ZM201.948 108.46C203.184 108.46 204.132 108.772 204.792 109.396C205.452 110.008 205.782 110.92 205.782 112.132V118H204.558V116.524C204.27 117.016 203.844 117.4 203.28 117.676C202.728 117.952 202.068 118.09 201.3 118.09C200.244 118.09 199.404 117.838 198.78 117.334C198.156 116.83 197.844 116.164 197.844 115.336C197.844 114.532 198.132 113.884 198.708 113.392C199.296 112.9 200.226 112.654 201.498 112.654H204.504V112.078C204.504 111.262 204.276 110.644 203.82 110.224C203.364 109.792 202.698 109.576 201.822 109.576C201.222 109.576 200.646 109.678 200.094 109.882C199.542 110.074 199.068 110.344 198.672 110.692L198.096 109.738C198.576 109.33 199.152 109.018 199.824 108.802C200.496 108.574 201.204 108.46 201.948 108.46ZM201.498 117.082C202.218 117.082 202.836 116.92 203.352 116.596C203.868 116.26 204.252 115.78 204.504 115.156V113.608H201.534C199.914 113.608 199.104 114.172 199.104 115.3C199.104 115.852 199.314 116.29 199.734 116.614C200.154 116.926 200.742 117.082 201.498 117.082ZM214.131 108.46C215.019 108.46 215.823 108.664 216.543 109.072C217.263 109.468 217.827 110.032 218.235 110.764C218.643 111.496 218.847 112.33 218.847 113.266C218.847 114.214 218.643 115.054 218.235 115.786C217.827 116.518 217.263 117.088 216.543 117.496C215.835 117.892 215.031 118.09 214.131 118.09C213.363 118.09 212.667 117.934 212.043 117.622C211.431 117.298 210.927 116.83 210.531 116.218V121.492H209.253V108.532H210.477V110.404C210.861 109.78 211.365 109.3 211.989 108.964C212.625 108.628 213.339 108.46 214.131 108.46ZM214.041 116.956C214.701 116.956 215.301 116.806 215.841 116.506C216.381 116.194 216.801 115.756 217.101 115.192C217.413 114.628 217.569 113.986 217.569 113.266C217.569 112.546 217.413 111.91 217.101 111.358C216.801 110.794 216.381 110.356 215.841 110.044C215.301 109.732 214.701 109.576 214.041 109.576C213.369 109.576 212.763 109.732 212.223 110.044C211.695 110.356 211.275 110.794 210.963 111.358C210.663 111.91 210.513 112.546 210.513 113.266C210.513 113.986 210.663 114.628 210.963 115.192C211.275 115.756 211.695 116.194 212.223 116.506C212.763 116.806 213.369 116.956 214.041 116.956ZM226.33 108.46C227.218 108.46 228.022 108.664 228.742 109.072C229.462 109.468 230.026 110.032 230.434 110.764C230.842 111.496 231.046 112.33 231.046 113.266C231.046 114.214 230.842 115.054 230.434 115.786C230.026 116.518 229.462 117.088 228.742 117.496C228.034 117.892 227.23 118.09 226.33 118.09C225.562 118.09 224.866 117.934 224.242 117.622C223.63 117.298 223.126 116.83 222.73 116.218V121.492H221.452V108.532H222.676V110.404C223.06 109.78 223.564 109.3 224.188 108.964C224.824 108.628 225.538 108.46 226.33 108.46ZM226.24 116.956C226.9 116.956 227.5 116.806 228.04 116.506C228.58 116.194 229 115.756 229.3 115.192C229.612 114.628 229.768 113.986 229.768 113.266C229.768 112.546 229.612 111.91 229.3 111.358C229 110.794 228.58 110.356 228.04 110.044C227.5 109.732 226.9 109.576 226.24 109.576C225.568 109.576 224.962 109.732 224.422 110.044C223.894 110.356 223.474 110.794 223.162 111.358C222.862 111.91 222.712 112.546 222.712 113.266C222.712 113.986 222.862 114.628 223.162 115.192C223.474 115.756 223.894 116.194 224.422 116.506C224.962 116.806 225.568 116.956 226.24 116.956ZM236.189 118.09C235.421 118.09 234.683 117.982 233.975 117.766C233.279 117.538 232.733 117.256 232.337 116.92L232.913 115.912C233.309 116.224 233.807 116.482 234.407 116.686C235.007 116.878 235.631 116.974 236.279 116.974C237.143 116.974 237.779 116.842 238.187 116.578C238.607 116.302 238.817 115.918 238.817 115.426C238.817 115.078 238.703 114.808 238.475 114.616C238.247 114.412 237.959 114.262 237.611 114.166C237.263 114.058 236.801 113.956 236.225 113.86C235.457 113.716 234.839 113.572 234.371 113.428C233.903 113.272 233.501 113.014 233.165 112.654C232.841 112.294 232.679 111.796 232.679 111.16C232.679 110.368 233.009 109.72 233.669 109.216C234.329 108.712 235.247 108.46 236.423 108.46C237.035 108.46 237.647 108.544 238.259 108.712C238.871 108.868 239.375 109.078 239.771 109.342L239.213 110.368C238.433 109.828 237.503 109.558 236.423 109.558C235.607 109.558 234.989 109.702 234.569 109.99C234.161 110.278 233.957 110.656 233.957 111.124C233.957 111.484 234.071 111.772 234.299 111.988C234.539 112.204 234.833 112.366 235.181 112.474C235.529 112.57 236.009 112.672 236.621 112.78C237.377 112.924 237.983 113.068 238.439 113.212C238.895 113.356 239.285 113.602 239.609 113.95C239.933 114.298 240.095 114.778 240.095 115.39C240.095 116.218 239.747 116.878 239.051 117.37C238.367 117.85 237.413 118.09 236.189 118.09ZM250.301 105.634C249.749 105.634 249.329 105.784 249.041 106.084C248.765 106.384 248.627 106.828 248.627 107.416V108.532H251.543V109.612H248.663V118H247.385V109.612H245.693V108.532H247.385V107.362C247.385 106.498 247.631 105.814 248.123 105.31C248.627 104.806 249.335 104.554 250.247 104.554C250.607 104.554 250.955 104.608 251.291 104.716C251.627 104.812 251.909 104.956 252.137 105.148L251.705 106.102C251.333 105.79 250.865 105.634 250.301 105.634ZM256.98 118.09C256.068 118.09 255.246 117.886 254.514 117.478C253.782 117.058 253.206 116.482 252.786 115.75C252.366 115.018 252.156 114.19 252.156 113.266C252.156 112.342 252.366 111.514 252.786 110.782C253.206 110.05 253.782 109.48 254.514 109.072C255.246 108.664 256.068 108.46 256.98 108.46C257.892 108.46 258.714 108.664 259.446 109.072C260.178 109.48 260.748 110.05 261.156 110.782C261.576 111.514 261.786 112.342 261.786 113.266C261.786 114.19 261.576 115.018 261.156 115.75C260.748 116.482 260.178 117.058 259.446 117.478C258.714 117.886 257.892 118.09 256.98 118.09ZM256.98 116.956C257.652 116.956 258.252 116.806 258.78 116.506C259.32 116.194 259.74 115.756 260.04 115.192C260.34 114.628 260.49 113.986 260.49 113.266C260.49 112.546 260.34 111.904 260.04 111.34C259.74 110.776 259.32 110.344 258.78 110.044C258.252 109.732 257.652 109.576 256.98 109.576C256.308 109.576 255.702 109.732 255.162 110.044C254.634 110.344 254.214 110.776 253.902 111.34C253.602 111.904 253.452 112.546 253.452 113.266C253.452 113.986 253.602 114.628 253.902 115.192C254.214 115.756 254.634 116.194 255.162 116.506C255.702 116.806 256.308 116.956 256.98 116.956ZM265.619 110.386C265.919 109.75 266.363 109.27 266.951 108.946C267.551 108.622 268.289 108.46 269.165 108.46V109.702L268.859 109.684C267.863 109.684 267.083 109.99 266.519 110.602C265.955 111.214 265.673 112.072 265.673 113.176V118H264.395V108.532H265.619V110.386ZM293.899 105.4L289.651 118H288.247L284.557 107.254L280.849 118H279.463L275.215 105.4H276.583L280.219 116.236L283.981 105.4H285.223L288.931 116.29L292.621 105.4H293.899ZM296.018 108.532H297.296V118H296.018V108.532ZM296.666 106.462C296.402 106.462 296.18 106.372 296 106.192C295.82 106.012 295.73 105.796 295.73 105.544C295.73 105.304 295.82 105.094 296 104.914C296.18 104.734 296.402 104.644 296.666 104.644C296.93 104.644 297.152 104.734 297.332 104.914C297.512 105.082 297.602 105.286 297.602 105.526C297.602 105.79 297.512 106.012 297.332 106.192C297.152 106.372 296.93 106.462 296.666 106.462ZM305.676 108.46C306.864 108.46 307.806 108.808 308.502 109.504C309.21 110.188 309.564 111.19 309.564 112.51V118H308.286V112.636C308.286 111.652 308.04 110.902 307.548 110.386C307.056 109.87 306.354 109.612 305.442 109.612C304.422 109.612 303.612 109.918 303.012 110.53C302.424 111.13 302.13 111.964 302.13 113.032V118H300.852V108.532H302.076V110.278C302.424 109.702 302.904 109.258 303.516 108.946C304.14 108.622 304.86 108.46 305.676 108.46ZM321.709 104.644V118H320.485V116.128C320.101 116.764 319.591 117.25 318.955 117.586C318.331 117.922 317.623 118.09 316.831 118.09C315.943 118.09 315.139 117.886 314.419 117.478C313.699 117.07 313.135 116.5 312.727 115.768C312.319 115.036 312.115 114.202 312.115 113.266C312.115 112.33 312.319 111.496 312.727 110.764C313.135 110.032 313.699 109.468 314.419 109.072C315.139 108.664 315.943 108.46 316.831 108.46C317.599 108.46 318.289 108.622 318.901 108.946C319.525 109.258 320.035 109.72 320.431 110.332V104.644H321.709ZM316.939 116.956C317.599 116.956 318.193 116.806 318.721 116.506C319.261 116.194 319.681 115.756 319.981 115.192C320.293 114.628 320.449 113.986 320.449 113.266C320.449 112.546 320.293 111.904 319.981 111.34C319.681 110.776 319.261 110.344 318.721 110.044C318.193 109.732 317.599 109.576 316.939 109.576C316.267 109.576 315.661 109.732 315.121 110.044C314.593 110.344 314.173 110.776 313.861 111.34C313.561 111.904 313.411 112.546 313.411 113.266C313.411 113.986 313.561 114.628 313.861 115.192C314.173 115.756 314.593 116.194 315.121 116.506C315.661 116.806 316.267 116.956 316.939 116.956ZM329.138 118.09C328.226 118.09 327.404 117.886 326.672 117.478C325.94 117.058 325.364 116.482 324.944 115.75C324.524 115.018 324.314 114.19 324.314 113.266C324.314 112.342 324.524 111.514 324.944 110.782C325.364 110.05 325.94 109.48 326.672 109.072C327.404 108.664 328.226 108.46 329.138 108.46C330.05 108.46 330.872 108.664 331.604 109.072C332.336 109.48 332.906 110.05 333.314 110.782C333.734 111.514 333.944 112.342 333.944 113.266C333.944 114.19 333.734 115.018 333.314 115.75C332.906 116.482 332.336 117.058 331.604 117.478C330.872 117.886 330.05 118.09 329.138 118.09ZM329.138 116.956C329.81 116.956 330.41 116.806 330.938 116.506C331.478 116.194 331.898 115.756 332.198 115.192C332.498 114.628 332.648 113.986 332.648 113.266C332.648 112.546 332.498 111.904 332.198 111.34C331.898 110.776 331.478 110.344 330.938 110.044C330.41 109.732 329.81 109.576 329.138 109.576C328.466 109.576 327.86 109.732 327.32 110.044C326.792 110.344 326.372 110.776 326.06 111.34C325.76 111.904 325.61 112.546 325.61 113.266C325.61 113.986 325.76 114.628 326.06 115.192C326.372 115.756 326.792 116.194 327.32 116.506C327.86 116.806 328.466 116.956 329.138 116.956ZM350.186 108.532L346.604 118H345.398L342.41 110.242L339.422 118H338.216L334.652 108.532H335.876L338.846 116.578L341.888 108.532H342.986L346.01 116.578L349.016 108.532H350.186ZM354.543 118.09C353.775 118.09 353.037 117.982 352.329 117.766C351.633 117.538 351.087 117.256 350.691 116.92L351.267 115.912C351.663 116.224 352.161 116.482 352.761 116.686C353.361 116.878 353.985 116.974 354.633 116.974C355.497 116.974 356.133 116.842 356.541 116.578C356.961 116.302 357.171 115.918 357.171 115.426C357.171 115.078 357.057 114.808 356.829 114.616C356.601 114.412 356.313 114.262 355.965 114.166C355.617 114.058 355.155 113.956 354.579 113.86C353.811 113.716 353.193 113.572 352.725 113.428C352.257 113.272 351.855 113.014 351.519 112.654C351.195 112.294 351.033 111.796 351.033 111.16C351.033 110.368 351.363 109.72 352.023 109.216C352.683 108.712 353.601 108.46 354.777 108.46C355.389 108.46 356.001 108.544 356.613 108.712C357.225 108.868 357.729 109.078 358.125 109.342L357.567 110.368C356.787 109.828 355.857 109.558 354.777 109.558C353.961 109.558 353.343 109.702 352.923 109.99C352.515 110.278 352.311 110.656 352.311 111.124C352.311 111.484 352.425 111.772 352.653 111.988C352.893 112.204 353.187 112.366 353.535 112.474C353.883 112.57 354.363 112.672 354.975 112.78C355.731 112.924 356.337 113.068 356.793 113.212C357.249 113.356 357.639 113.602 357.963 113.95C358.287 114.298 358.449 114.778 358.449 115.39C358.449 116.218 358.101 116.878 357.405 117.37C356.721 117.85 355.767 118.09 354.543 118.09ZM368.834 108.46C370.07 108.46 371.018 108.772 371.678 109.396C372.338 110.008 372.668 110.92 372.668 112.132V118H371.444V116.524C371.156 117.016 370.73 117.4 370.166 117.676C369.614 117.952 368.954 118.09 368.186 118.09C367.13 118.09 366.29 117.838 365.666 117.334C365.042 116.83 364.73 116.164 364.73 115.336C364.73 114.532 365.018 113.884 365.594 113.392C366.182 112.9 367.112 112.654 368.384 112.654H371.39V112.078C371.39 111.262 371.162 110.644 370.706 110.224C370.25 109.792 369.584 109.576 368.708 109.576C368.108 109.576 367.532 109.678 366.98 109.882C366.428 110.074 365.954 110.344 365.558 110.692L364.982 109.738C365.462 109.33 366.038 109.018 366.71 108.802C367.382 108.574 368.09 108.46 368.834 108.46ZM368.384 117.082C369.104 117.082 369.722 116.92 370.238 116.596C370.754 116.26 371.138 115.78 371.39 115.156V113.608H368.42C366.8 113.608 365.99 114.172 365.99 115.3C365.99 115.852 366.2 116.29 366.62 116.614C367.04 116.926 367.628 117.082 368.384 117.082ZM380.963 108.46C382.151 108.46 383.093 108.808 383.789 109.504C384.497 110.188 384.851 111.19 384.851 112.51V118H383.573V112.636C383.573 111.652 383.327 110.902 382.835 110.386C382.343 109.87 381.641 109.612 380.729 109.612C379.709 109.612 378.899 109.918 378.299 110.53C377.711 111.13 377.417 111.964 377.417 113.032V118H376.139V108.532H377.363V110.278C377.711 109.702 378.191 109.258 378.803 108.946C379.427 108.622 380.147 108.46 380.963 108.46ZM396.996 104.644V118H395.772V116.128C395.388 116.764 394.878 117.25 394.242 117.586C393.618 117.922 392.91 118.09 392.118 118.09C391.23 118.09 390.426 117.886 389.706 117.478C388.986 117.07 388.422 116.5 388.014 115.768C387.606 115.036 387.402 114.202 387.402 113.266C387.402 112.33 387.606 111.496 388.014 110.764C388.422 110.032 388.986 109.468 389.706 109.072C390.426 108.664 391.23 108.46 392.118 108.46C392.886 108.46 393.576 108.622 394.188 108.946C394.812 109.258 395.322 109.72 395.718 110.332V104.644H396.996ZM392.226 116.956C392.886 116.956 393.48 116.806 394.008 116.506C394.548 116.194 394.968 115.756 395.268 115.192C395.58 114.628 395.736 113.986 395.736 113.266C395.736 112.546 395.58 111.904 395.268 111.34C394.968 110.776 394.548 110.344 394.008 110.044C393.48 109.732 392.886 109.576 392.226 109.576C391.554 109.576 390.948 109.732 390.408 110.044C389.88 110.344 389.46 110.776 389.148 111.34C388.848 111.904 388.698 112.546 388.698 113.266C388.698 113.986 388.848 114.628 389.148 115.192C389.46 115.756 389.88 116.194 390.408 116.506C390.948 116.806 391.554 116.956 392.226 116.956ZM418.622 105.4V118H417.344V107.92L412.394 116.398H411.764L406.814 107.974V118H405.536V105.4H406.634L412.106 114.742L417.524 105.4H418.622ZM425.77 108.46C427.006 108.46 427.954 108.772 428.614 109.396C429.274 110.008 429.604 110.92 429.604 112.132V118H428.38V116.524C428.092 117.016 427.666 117.4 427.102 117.676C426.55 117.952 425.89 118.09 425.122 118.09C424.066 118.09 423.226 117.838 422.602 117.334C421.978 116.83 421.666 116.164 421.666 115.336C421.666 114.532 421.954 113.884 422.53 113.392C423.118 112.9 424.048 112.654 425.32 112.654H428.326V112.078C428.326 111.262 428.098 110.644 427.642 110.224C427.186 109.792 426.52 109.576 425.644 109.576C425.044 109.576 424.468 109.678 423.916 109.882C423.364 110.074 422.89 110.344 422.494 110.692L421.918 109.738C422.398 109.33 422.974 109.018 423.646 108.802C424.318 108.574 425.026 108.46 425.77 108.46ZM425.32 117.082C426.04 117.082 426.658 116.92 427.174 116.596C427.69 116.26 428.074 115.78 428.326 115.156V113.608H425.356C423.736 113.608 422.926 114.172 422.926 115.3C422.926 115.852 423.136 116.29 423.556 116.614C423.976 116.926 424.564 117.082 425.32 117.082ZM437.034 118.09C436.098 118.09 435.258 117.886 434.514 117.478C433.782 117.07 433.206 116.5 432.786 115.768C432.366 115.024 432.156 114.19 432.156 113.266C432.156 112.342 432.366 111.514 432.786 110.782C433.206 110.05 433.782 109.48 434.514 109.072C435.258 108.664 436.098 108.46 437.034 108.46C437.85 108.46 438.576 108.622 439.212 108.946C439.86 109.258 440.37 109.72 440.742 110.332L439.788 110.98C439.476 110.512 439.08 110.164 438.6 109.936C438.12 109.696 437.598 109.576 437.034 109.576C436.35 109.576 435.732 109.732 435.18 110.044C434.64 110.344 434.214 110.776 433.902 111.34C433.602 111.904 433.452 112.546 433.452 113.266C433.452 113.998 433.602 114.646 433.902 115.21C434.214 115.762 434.64 116.194 435.18 116.506C435.732 116.806 436.35 116.956 437.034 116.956C437.598 116.956 438.12 116.842 438.6 116.614C439.08 116.386 439.476 116.038 439.788 115.57L440.742 116.218C440.37 116.83 439.86 117.298 439.212 117.622C438.564 117.934 437.838 118.09 437.034 118.09ZM443.748 116.128C444.024 116.128 444.252 116.224 444.432 116.416C444.612 116.596 444.702 116.824 444.702 117.1C444.702 117.244 444.678 117.4 444.63 117.568C444.594 117.736 444.534 117.928 444.45 118.144L443.694 120.628H442.83L443.442 118.018C443.25 117.958 443.094 117.85 442.974 117.694C442.854 117.526 442.794 117.328 442.794 117.1C442.794 116.824 442.884 116.596 443.064 116.416C443.244 116.224 443.472 116.128 443.748 116.128ZM455.442 108.46C456.678 108.46 457.626 108.772 458.286 109.396C458.946 110.008 459.276 110.92 459.276 112.132V118H458.052V116.524C457.764 117.016 457.338 117.4 456.774 117.676C456.222 117.952 455.562 118.09 454.794 118.09C453.738 118.09 452.898 117.838 452.274 117.334C451.65 116.83 451.338 116.164 451.338 115.336C451.338 114.532 451.626 113.884 452.202 113.392C452.79 112.9 453.72 112.654 454.992 112.654H457.998V112.078C457.998 111.262 457.77 110.644 457.314 110.224C456.858 109.792 456.192 109.576 455.316 109.576C454.716 109.576 454.14 109.678 453.588 109.882C453.036 110.074 452.562 110.344 452.166 110.692L451.59 109.738C452.07 109.33 452.646 109.018 453.318 108.802C453.99 108.574 454.698 108.46 455.442 108.46ZM454.992 117.082C455.712 117.082 456.33 116.92 456.846 116.596C457.362 116.26 457.746 115.78 457.998 115.156V113.608H455.028C453.408 113.608 452.598 114.172 452.598 115.3C452.598 115.852 452.808 116.29 453.228 116.614C453.648 116.926 454.236 117.082 454.992 117.082ZM467.571 108.46C468.759 108.46 469.701 108.808 470.397 109.504C471.105 110.188 471.459 111.19 471.459 112.51V118H470.181V112.636C470.181 111.652 469.935 110.902 469.443 110.386C468.951 109.87 468.249 109.612 467.337 109.612C466.317 109.612 465.507 109.918 464.907 110.53C464.319 111.13 464.025 111.964 464.025 113.032V118H462.747V108.532H463.971V110.278C464.319 109.702 464.799 109.258 465.411 108.946C466.035 108.622 466.755 108.46 467.571 108.46ZM483.604 104.644V118H482.38V116.128C481.996 116.764 481.486 117.25 480.85 117.586C480.226 117.922 479.518 118.09 478.726 118.09C477.838 118.09 477.034 117.886 476.314 117.478C475.594 117.07 475.03 116.5 474.622 115.768C474.214 115.036 474.01 114.202 474.01 113.266C474.01 112.33 474.214 111.496 474.622 110.764C475.03 110.032 475.594 109.468 476.314 109.072C477.034 108.664 477.838 108.46 478.726 108.46C479.494 108.46 480.184 108.622 480.796 108.946C481.42 109.258 481.93 109.72 482.326 110.332V104.644H483.604ZM478.834 116.956C479.494 116.956 480.088 116.806 480.616 116.506C481.156 116.194 481.576 115.756 481.876 115.192C482.188 114.628 482.344 113.986 482.344 113.266C482.344 112.546 482.188 111.904 481.876 111.34C481.576 110.776 481.156 110.344 480.616 110.044C480.088 109.732 479.494 109.576 478.834 109.576C478.162 109.576 477.556 109.732 477.016 110.044C476.488 110.344 476.068 110.776 475.756 111.34C475.456 111.904 475.306 112.546 475.306 113.266C475.306 113.986 475.456 114.628 475.756 115.192C476.068 115.756 476.488 116.194 477.016 116.506C477.556 116.806 478.162 116.956 478.834 116.956ZM503.682 108.46C504.87 108.46 505.8 108.802 506.472 109.486C507.156 110.17 507.498 111.178 507.498 112.51V118H506.22V112.636C506.22 111.652 505.98 110.902 505.5 110.386C505.032 109.87 504.366 109.612 503.502 109.612C502.518 109.612 501.744 109.918 501.18 110.53C500.616 111.13 500.334 111.964 500.334 113.032V118H499.056V112.636C499.056 111.652 498.816 110.902 498.336 110.386C497.868 109.87 497.196 109.612 496.32 109.612C495.348 109.612 494.574 109.918 493.998 110.53C493.434 111.13 493.152 111.964 493.152 113.032V118H491.874V108.532H493.098V110.26C493.434 109.684 493.902 109.24 494.502 108.928C495.102 108.616 495.792 108.46 496.572 108.46C497.364 108.46 498.048 108.628 498.624 108.964C499.212 109.3 499.65 109.798 499.938 110.458C500.286 109.834 500.784 109.348 501.432 109C502.092 108.64 502.842 108.46 503.682 108.46ZM514.869 118.09C513.957 118.09 513.135 117.886 512.403 117.478C511.671 117.058 511.095 116.482 510.675 115.75C510.255 115.018 510.045 114.19 510.045 113.266C510.045 112.342 510.255 111.514 510.675 110.782C511.095 110.05 511.671 109.48 512.403 109.072C513.135 108.664 513.957 108.46 514.869 108.46C515.781 108.46 516.603 108.664 517.335 109.072C518.067 109.48 518.637 110.05 519.045 110.782C519.465 111.514 519.675 112.342 519.675 113.266C519.675 114.19 519.465 115.018 519.045 115.75C518.637 116.482 518.067 117.058 517.335 117.478C516.603 117.886 515.781 118.09 514.869 118.09ZM514.869 116.956C515.541 116.956 516.141 116.806 516.669 116.506C517.209 116.194 517.629 115.756 517.929 115.192C518.229 114.628 518.379 113.986 518.379 113.266C518.379 112.546 518.229 111.904 517.929 111.34C517.629 110.776 517.209 110.344 516.669 110.044C516.141 109.732 515.541 109.576 514.869 109.576C514.197 109.576 513.591 109.732 513.051 110.044C512.523 110.344 512.103 110.776 511.791 111.34C511.491 111.904 511.341 112.546 511.341 113.266C511.341 113.986 511.491 114.628 511.791 115.192C512.103 115.756 512.523 116.194 513.051 116.506C513.591 116.806 514.197 116.956 514.869 116.956ZM527.162 108.46C528.05 108.46 528.854 108.664 529.574 109.072C530.294 109.468 530.858 110.032 531.266 110.764C531.674 111.496 531.878 112.33 531.878 113.266C531.878 114.202 531.674 115.036 531.266 115.768C530.858 116.5 530.294 117.07 529.574 117.478C528.854 117.886 528.05 118.09 527.162 118.09C526.37 118.09 525.656 117.922 525.02 117.586C524.396 117.25 523.892 116.764 523.508 116.128V118H522.284V104.644H523.562V110.332C523.958 109.72 524.462 109.258 525.074 108.946C525.698 108.622 526.394 108.46 527.162 108.46ZM527.072 116.956C527.732 116.956 528.332 116.806 528.872 116.506C529.412 116.194 529.832 115.756 530.132 115.192C530.444 114.628 530.6 113.986 530.6 113.266C530.6 112.546 530.444 111.904 530.132 111.34C529.832 110.776 529.412 110.344 528.872 110.044C528.332 109.732 527.732 109.576 527.072 109.576C526.4 109.576 525.794 109.732 525.254 110.044C524.726 110.344 524.306 110.776 523.994 111.34C523.694 111.904 523.544 112.546 523.544 113.266C523.544 113.986 523.694 114.628 523.994 115.192C524.306 115.756 524.726 116.194 525.254 116.506C525.794 116.806 526.4 116.956 527.072 116.956ZM534.483 108.532H535.761V118H534.483V108.532ZM535.131 106.462C534.867 106.462 534.645 106.372 534.465 106.192C534.285 106.012 534.195 105.796 534.195 105.544C534.195 105.304 534.285 105.094 534.465 104.914C534.645 104.734 534.867 104.644 535.131 104.644C535.395 104.644 535.617 104.734 535.797 104.914C535.977 105.082 536.067 105.286 536.067 105.526C536.067 105.79 535.977 106.012 535.797 106.192C535.617 106.372 535.395 106.462 535.131 106.462ZM539.317 104.644H540.595V118H539.317V104.644ZM552.395 113.662H544.475C544.547 114.646 544.925 115.444 545.609 116.056C546.293 116.656 547.157 116.956 548.201 116.956C548.789 116.956 549.329 116.854 549.821 116.65C550.313 116.434 550.739 116.122 551.099 115.714L551.819 116.542C551.399 117.046 550.871 117.43 550.235 117.694C549.611 117.958 548.921 118.09 548.165 118.09C547.193 118.09 546.329 117.886 545.573 117.478C544.829 117.058 544.247 116.482 543.827 115.75C543.407 115.018 543.197 114.19 543.197 113.266C543.197 112.342 543.395 111.514 543.791 110.782C544.199 110.05 544.751 109.48 545.447 109.072C546.155 108.664 546.947 108.46 547.823 108.46C548.699 108.46 549.485 108.664 550.181 109.072C550.877 109.48 551.423 110.05 551.819 110.782C552.215 111.502 552.413 112.33 552.413 113.266L552.395 113.662ZM547.823 109.558C546.911 109.558 546.143 109.852 545.519 110.44C544.907 111.016 544.559 111.772 544.475 112.708H551.189C551.105 111.772 550.751 111.016 550.127 110.44C549.515 109.852 548.747 109.558 547.823 109.558ZM124.094 135.46C125.33 135.46 126.278 135.772 126.938 136.396C127.598 137.008 127.928 137.92 127.928 139.132V145H126.704V143.524C126.416 144.016 125.99 144.4 125.426 144.676C124.874 144.952 124.214 145.09 123.446 145.09C122.39 145.09 121.55 144.838 120.926 144.334C120.302 143.83 119.99 143.164 119.99 142.336C119.99 141.532 120.278 140.884 120.854 140.392C121.442 139.9 122.372 139.654 123.644 139.654H126.65V139.078C126.65 138.262 126.422 137.644 125.966 137.224C125.51 136.792 124.844 136.576 123.968 136.576C123.368 136.576 122.792 136.678 122.24 136.882C121.688 137.074 121.214 137.344 120.818 137.692L120.242 136.738C120.722 136.33 121.298 136.018 121.97 135.802C122.642 135.574 123.35 135.46 124.094 135.46ZM123.644 144.082C124.364 144.082 124.982 143.92 125.498 143.596C126.014 143.26 126.398 142.78 126.65 142.156V140.608H123.68C122.06 140.608 121.25 141.172 121.25 142.3C121.25 142.852 121.46 143.29 121.88 143.614C122.3 143.926 122.888 144.082 123.644 144.082ZM136.277 135.46C137.165 135.46 137.969 135.664 138.689 136.072C139.409 136.468 139.973 137.032 140.381 137.764C140.789 138.496 140.993 139.33 140.993 140.266C140.993 141.214 140.789 142.054 140.381 142.786C139.973 143.518 139.409 144.088 138.689 144.496C137.981 144.892 137.177 145.09 136.277 145.09C135.509 145.09 134.813 144.934 134.189 144.622C133.577 144.298 133.073 143.83 132.677 143.218V148.492H131.399V135.532H132.623V137.404C133.007 136.78 133.511 136.3 134.135 135.964C134.771 135.628 135.485 135.46 136.277 135.46ZM136.187 143.956C136.847 143.956 137.447 143.806 137.987 143.506C138.527 143.194 138.947 142.756 139.247 142.192C139.559 141.628 139.715 140.986 139.715 140.266C139.715 139.546 139.559 138.91 139.247 138.358C138.947 137.794 138.527 137.356 137.987 137.044C137.447 136.732 136.847 136.576 136.187 136.576C135.515 136.576 134.909 136.732 134.369 137.044C133.841 137.356 133.421 137.794 133.109 138.358C132.809 138.91 132.659 139.546 132.659 140.266C132.659 140.986 132.809 141.628 133.109 142.192C133.421 142.756 133.841 143.194 134.369 143.506C134.909 143.806 135.515 143.956 136.187 143.956ZM148.476 135.46C149.364 135.46 150.168 135.664 150.888 136.072C151.608 136.468 152.172 137.032 152.58 137.764C152.988 138.496 153.192 139.33 153.192 140.266C153.192 141.214 152.988 142.054 152.58 142.786C152.172 143.518 151.608 144.088 150.888 144.496C150.18 144.892 149.376 145.09 148.476 145.09C147.708 145.09 147.012 144.934 146.388 144.622C145.776 144.298 145.272 143.83 144.876 143.218V148.492H143.598V135.532H144.822V137.404C145.206 136.78 145.71 136.3 146.334 135.964C146.97 135.628 147.684 135.46 148.476 135.46ZM148.386 143.956C149.046 143.956 149.646 143.806 150.186 143.506C150.726 143.194 151.146 142.756 151.446 142.192C151.758 141.628 151.914 140.986 151.914 140.266C151.914 139.546 151.758 138.91 151.446 138.358C151.146 137.794 150.726 137.356 150.186 137.044C149.646 136.732 149.046 136.576 148.386 136.576C147.714 136.576 147.108 136.732 146.568 137.044C146.04 137.356 145.62 137.794 145.308 138.358C145.008 138.91 144.858 139.546 144.858 140.266C144.858 140.986 145.008 141.628 145.308 142.192C145.62 142.756 146.04 143.194 146.568 143.506C147.108 143.806 147.714 143.956 148.386 143.956ZM158.336 145.09C157.568 145.09 156.83 144.982 156.122 144.766C155.426 144.538 154.88 144.256 154.484 143.92L155.06 142.912C155.456 143.224 155.954 143.482 156.554 143.686C157.154 143.878 157.778 143.974 158.426 143.974C159.29 143.974 159.926 143.842 160.334 143.578C160.754 143.302 160.964 142.918 160.964 142.426C160.964 142.078 160.85 141.808 160.622 141.616C160.394 141.412 160.106 141.262 159.758 141.166C159.41 141.058 158.948 140.956 158.372 140.86C157.604 140.716 156.986 140.572 156.518 140.428C156.05 140.272 155.648 140.014 155.312 139.654C154.988 139.294 154.826 138.796 154.826 138.16C154.826 137.368 155.156 136.72 155.816 136.216C156.476 135.712 157.394 135.46 158.57 135.46C159.182 135.46 159.794 135.544 160.406 135.712C161.018 135.868 161.522 136.078 161.918 136.342L161.36 137.368C160.58 136.828 159.65 136.558 158.57 136.558C157.754 136.558 157.136 136.702 156.716 136.99C156.308 137.278 156.104 137.656 156.104 138.124C156.104 138.484 156.218 138.772 156.446 138.988C156.686 139.204 156.98 139.366 157.328 139.474C157.676 139.57 158.156 139.672 158.768 139.78C159.524 139.924 160.13 140.068 160.586 140.212C161.042 140.356 161.432 140.602 161.756 140.95C162.08 141.298 162.242 141.778 162.242 142.39C162.242 143.218 161.894 143.878 161.198 144.37C160.514 144.85 159.56 145.09 158.336 145.09ZM172.447 132.634C171.895 132.634 171.475 132.784 171.187 133.084C170.911 133.384 170.773 133.828 170.773 134.416V135.532H173.689V136.612H170.809V145H169.531V136.612H167.839V135.532H169.531V134.362C169.531 133.498 169.777 132.814 170.269 132.31C170.773 131.806 171.481 131.554 172.393 131.554C172.753 131.554 173.101 131.608 173.437 131.716C173.773 131.812 174.055 131.956 174.283 132.148L173.851 133.102C173.479 132.79 173.011 132.634 172.447 132.634ZM179.127 145.09C178.215 145.09 177.393 144.886 176.661 144.478C175.929 144.058 175.353 143.482 174.933 142.75C174.513 142.018 174.303 141.19 174.303 140.266C174.303 139.342 174.513 138.514 174.933 137.782C175.353 137.05 175.929 136.48 176.661 136.072C177.393 135.664 178.215 135.46 179.127 135.46C180.039 135.46 180.861 135.664 181.593 136.072C182.325 136.48 182.895 137.05 183.303 137.782C183.723 138.514 183.933 139.342 183.933 140.266C183.933 141.19 183.723 142.018 183.303 142.75C182.895 143.482 182.325 144.058 181.593 144.478C180.861 144.886 180.039 145.09 179.127 145.09ZM179.127 143.956C179.799 143.956 180.399 143.806 180.927 143.506C181.467 143.194 181.887 142.756 182.187 142.192C182.487 141.628 182.637 140.986 182.637 140.266C182.637 139.546 182.487 138.904 182.187 138.34C181.887 137.776 181.467 137.344 180.927 137.044C180.399 136.732 179.799 136.576 179.127 136.576C178.455 136.576 177.849 136.732 177.309 137.044C176.781 137.344 176.361 137.776 176.049 138.34C175.749 138.904 175.599 139.546 175.599 140.266C175.599 140.986 175.749 141.628 176.049 142.192C176.361 142.756 176.781 143.194 177.309 143.506C177.849 143.806 178.455 143.956 179.127 143.956ZM187.766 137.386C188.066 136.75 188.51 136.27 189.098 135.946C189.698 135.622 190.436 135.46 191.312 135.46V136.702L191.006 136.684C190.01 136.684 189.23 136.99 188.666 137.602C188.102 138.214 187.82 139.072 187.82 140.176V145H186.542V135.532H187.766V137.386ZM198.477 135.532H199.755V145H198.477V135.532ZM199.125 133.462C198.861 133.462 198.639 133.372 198.459 133.192C198.279 133.012 198.189 132.796 198.189 132.544C198.189 132.304 198.279 132.094 198.459 131.914C198.639 131.734 198.861 131.644 199.125 131.644C199.389 131.644 199.611 131.734 199.791 131.914C199.971 132.082 200.061 132.286 200.061 132.526C200.061 132.79 199.971 133.012 199.791 133.192C199.611 133.372 199.389 133.462 199.125 133.462ZM208.297 132.4C209.905 132.4 211.165 132.784 212.077 133.552C212.989 134.32 213.445 135.376 213.445 136.72C213.445 138.064 212.989 139.12 212.077 139.888C211.165 140.644 209.905 141.022 208.297 141.022H204.913V145H203.581V132.4H208.297ZM208.261 139.852C209.509 139.852 210.463 139.582 211.123 139.042C211.783 138.49 212.113 137.716 212.113 136.72C212.113 135.7 211.783 134.92 211.123 134.38C210.463 133.828 209.509 133.552 208.261 133.552H204.913V139.852H208.261ZM221.055 135.46C222.243 135.46 223.185 135.808 223.881 136.504C224.589 137.188 224.943 138.19 224.943 139.51V145H223.665V139.636C223.665 138.652 223.419 137.902 222.927 137.386C222.435 136.87 221.733 136.612 220.821 136.612C219.801 136.612 218.991 136.918 218.391 137.53C217.803 138.13 217.509 138.964 217.509 140.032V145H216.231V131.644H217.509V137.188C217.857 136.636 218.337 136.21 218.949 135.91C219.561 135.61 220.263 135.46 221.055 135.46ZM232.318 145.09C231.406 145.09 230.584 144.886 229.852 144.478C229.12 144.058 228.544 143.482 228.124 142.75C227.704 142.018 227.494 141.19 227.494 140.266C227.494 139.342 227.704 138.514 228.124 137.782C228.544 137.05 229.12 136.48 229.852 136.072C230.584 135.664 231.406 135.46 232.318 135.46C233.23 135.46 234.052 135.664 234.784 136.072C235.516 136.48 236.086 137.05 236.494 137.782C236.914 138.514 237.124 139.342 237.124 140.266C237.124 141.19 236.914 142.018 236.494 142.75C236.086 143.482 235.516 144.058 234.784 144.478C234.052 144.886 233.23 145.09 232.318 145.09ZM232.318 143.956C232.99 143.956 233.59 143.806 234.118 143.506C234.658 143.194 235.078 142.756 235.378 142.192C235.678 141.628 235.828 140.986 235.828 140.266C235.828 139.546 235.678 138.904 235.378 138.34C235.078 137.776 234.658 137.344 234.118 137.044C233.59 136.732 232.99 136.576 232.318 136.576C231.646 136.576 231.04 136.732 230.5 137.044C229.972 137.344 229.552 137.776 229.24 138.34C228.94 138.904 228.79 139.546 228.79 140.266C228.79 140.986 228.94 141.628 229.24 142.192C229.552 142.756 229.972 143.194 230.5 143.506C231.04 143.806 231.646 143.956 232.318 143.956ZM244.557 135.46C245.745 135.46 246.687 135.808 247.383 136.504C248.091 137.188 248.445 138.19 248.445 139.51V145H247.167V139.636C247.167 138.652 246.921 137.902 246.429 137.386C245.937 136.87 245.235 136.612 244.323 136.612C243.303 136.612 242.493 136.918 241.893 137.53C241.305 138.13 241.011 138.964 241.011 140.032V145H239.733V135.532H240.957V137.278C241.305 136.702 241.785 136.258 242.397 135.946C243.021 135.622 243.741 135.46 244.557 135.46ZM260.194 140.662H252.274C252.346 141.646 252.724 142.444 253.408 143.056C254.092 143.656 254.956 143.956 256 143.956C256.588 143.956 257.128 143.854 257.62 143.65C258.112 143.434 258.538 143.122 258.898 142.714L259.618 143.542C259.198 144.046 258.67 144.43 258.034 144.694C257.41 144.958 256.72 145.09 255.964 145.09C254.992 145.09 254.128 144.886 253.372 144.478C252.628 144.058 252.046 143.482 251.626 142.75C251.206 142.018 250.996 141.19 250.996 140.266C250.996 139.342 251.194 138.514 251.59 137.782C251.998 137.05 252.55 136.48 253.246 136.072C253.954 135.664 254.746 135.46 255.622 135.46C256.498 135.46 257.284 135.664 257.98 136.072C258.676 136.48 259.222 137.05 259.618 137.782C260.014 138.502 260.212 139.33 260.212 140.266L260.194 140.662ZM255.622 136.558C254.71 136.558 253.942 136.852 253.318 137.44C252.706 138.016 252.358 138.772 252.274 139.708H258.988C258.904 138.772 258.55 138.016 257.926 137.44C257.314 136.852 256.546 136.558 255.622 136.558ZM262.957 143.128C263.233 143.128 263.461 143.224 263.641 143.416C263.821 143.596 263.911 143.824 263.911 144.1C263.911 144.244 263.887 144.4 263.839 144.568C263.803 144.736 263.743 144.928 263.659 145.144L262.903 147.628H262.039L262.651 145.018C262.459 144.958 262.303 144.85 262.183 144.694C262.063 144.526 262.003 144.328 262.003 144.1C262.003 143.824 262.093 143.596 262.273 143.416C262.453 143.224 262.681 143.128 262.957 143.128ZM271.339 135.532H272.617V145H271.339V135.532ZM271.987 133.462C271.723 133.462 271.501 133.372 271.321 133.192C271.141 133.012 271.051 132.796 271.051 132.544C271.051 132.304 271.141 132.094 271.321 131.914C271.501 131.734 271.723 131.644 271.987 131.644C272.251 131.644 272.473 131.734 272.653 131.914C272.833 132.082 272.923 132.286 272.923 132.526C272.923 132.79 272.833 133.012 272.653 133.192C272.473 133.372 272.251 133.462 271.987 133.462ZM281.159 132.4C282.767 132.4 284.027 132.784 284.939 133.552C285.851 134.32 286.307 135.376 286.307 136.72C286.307 138.064 285.851 139.12 284.939 139.888C284.027 140.644 282.767 141.022 281.159 141.022H277.775V145H276.443V132.4H281.159ZM281.123 139.852C282.371 139.852 283.325 139.582 283.985 139.042C284.645 138.49 284.975 137.716 284.975 136.72C284.975 135.7 284.645 134.92 283.985 134.38C283.325 133.828 282.371 133.552 281.123 133.552H277.775V139.852H281.123ZM292.141 135.46C293.377 135.46 294.325 135.772 294.985 136.396C295.645 137.008 295.975 137.92 295.975 139.132V145H294.751V143.524C294.463 144.016 294.037 144.4 293.473 144.676C292.921 144.952 292.261 145.09 291.493 145.09C290.437 145.09 289.597 144.838 288.973 144.334C288.349 143.83 288.037 143.164 288.037 142.336C288.037 141.532 288.325 140.884 288.901 140.392C289.489 139.9 290.419 139.654 291.691 139.654H294.697V139.078C294.697 138.262 294.469 137.644 294.013 137.224C293.557 136.792 292.891 136.576 292.015 136.576C291.415 136.576 290.839 136.678 290.287 136.882C289.735 137.074 289.261 137.344 288.865 137.692L288.289 136.738C288.769 136.33 289.345 136.018 290.017 135.802C290.689 135.574 291.397 135.46 292.141 135.46ZM291.691 144.082C292.411 144.082 293.029 143.92 293.545 143.596C294.061 143.26 294.445 142.78 294.697 142.156V140.608H291.727C290.107 140.608 289.297 141.172 289.297 142.3C289.297 142.852 289.507 143.29 289.927 143.614C290.347 143.926 290.935 144.082 291.691 144.082ZM308.121 131.644V145H306.897V143.128C306.513 143.764 306.003 144.25 305.367 144.586C304.743 144.922 304.035 145.09 303.243 145.09C302.355 145.09 301.551 144.886 300.831 144.478C300.111 144.07 299.547 143.5 299.139 142.768C298.731 142.036 298.527 141.202 298.527 140.266C298.527 139.33 298.731 138.496 299.139 137.764C299.547 137.032 300.111 136.468 300.831 136.072C301.551 135.664 302.355 135.46 303.243 135.46C304.011 135.46 304.701 135.622 305.313 135.946C305.937 136.258 306.447 136.72 306.843 137.332V131.644H308.121ZM303.351 143.956C304.011 143.956 304.605 143.806 305.133 143.506C305.673 143.194 306.093 142.756 306.393 142.192C306.705 141.628 306.861 140.986 306.861 140.266C306.861 139.546 306.705 138.904 306.393 138.34C306.093 137.776 305.673 137.344 305.133 137.044C304.605 136.732 304.011 136.576 303.351 136.576C302.679 136.576 302.073 136.732 301.533 137.044C301.005 137.344 300.585 137.776 300.273 138.34C299.973 138.904 299.823 139.546 299.823 140.266C299.823 140.986 299.973 141.628 300.273 142.192C300.585 142.756 301.005 143.194 301.533 143.506C302.073 143.806 302.679 143.956 303.351 143.956ZM311.824 143.128C312.1 143.128 312.328 143.224 312.508 143.416C312.688 143.596 312.778 143.824 312.778 144.1C312.778 144.244 312.754 144.4 312.706 144.568C312.67 144.736 312.61 144.928 312.526 145.144L311.77 147.628H310.906L311.518 145.018C311.326 144.958 311.17 144.85 311.05 144.694C310.93 144.526 310.87 144.328 310.87 144.1C310.87 143.824 310.96 143.596 311.14 143.416C311.32 143.224 311.548 143.128 311.824 143.128ZM328.378 141.634H321.358L319.846 145H318.46L324.22 132.4H325.534L331.294 145H329.89L328.378 141.634ZM327.892 140.554L324.868 133.786L321.844 140.554H327.892ZM337.932 135.46C339.12 135.46 340.062 135.808 340.758 136.504C341.466 137.188 341.82 138.19 341.82 139.51V145H340.542V139.636C340.542 138.652 340.296 137.902 339.804 137.386C339.312 136.87 338.61 136.612 337.698 136.612C336.678 136.612 335.868 136.918 335.268 137.53C334.68 138.13 334.386 138.964 334.386 140.032V145H333.108V135.532H334.332V137.278C334.68 136.702 335.16 136.258 335.772 135.946C336.396 135.622 337.116 135.46 337.932 135.46ZM353.965 131.644V145H352.741V143.128C352.357 143.764 351.847 144.25 351.211 144.586C350.587 144.922 349.879 145.09 349.087 145.09C348.199 145.09 347.395 144.886 346.675 144.478C345.955 144.07 345.391 143.5 344.983 142.768C344.575 142.036 344.371 141.202 344.371 140.266C344.371 139.33 344.575 138.496 344.983 137.764C345.391 137.032 345.955 136.468 346.675 136.072C347.395 135.664 348.199 135.46 349.087 135.46C349.855 135.46 350.545 135.622 351.157 135.946C351.781 136.258 352.291 136.72 352.687 137.332V131.644H353.965ZM349.195 143.956C349.855 143.956 350.449 143.806 350.977 143.506C351.517 143.194 351.937 142.756 352.237 142.192C352.549 141.628 352.705 140.986 352.705 140.266C352.705 139.546 352.549 138.904 352.237 138.34C351.937 137.776 351.517 137.344 350.977 137.044C350.449 136.732 349.855 136.576 349.195 136.576C348.523 136.576 347.917 136.732 347.377 137.044C346.849 137.344 346.429 137.776 346.117 138.34C345.817 138.904 345.667 139.546 345.667 140.266C345.667 140.986 345.817 141.628 346.117 142.192C346.429 142.756 346.849 143.194 347.377 143.506C347.917 143.806 348.523 143.956 349.195 143.956ZM358.748 137.386C359.048 136.75 359.492 136.27 360.08 135.946C360.68 135.622 361.418 135.46 362.294 135.46V136.702L361.988 136.684C360.992 136.684 360.212 136.99 359.648 137.602C359.084 138.214 358.802 139.072 358.802 140.176V145H357.524V135.532H358.748V137.386ZM368.39 145.09C367.478 145.09 366.656 144.886 365.924 144.478C365.192 144.058 364.616 143.482 364.196 142.75C363.776 142.018 363.566 141.19 363.566 140.266C363.566 139.342 363.776 138.514 364.196 137.782C364.616 137.05 365.192 136.48 365.924 136.072C366.656 135.664 367.478 135.46 368.39 135.46C369.302 135.46 370.124 135.664 370.856 136.072C371.588 136.48 372.158 137.05 372.566 137.782C372.986 138.514 373.196 139.342 373.196 140.266C373.196 141.19 372.986 142.018 372.566 142.75C372.158 143.482 371.588 144.058 370.856 144.478C370.124 144.886 369.302 145.09 368.39 145.09ZM368.39 143.956C369.062 143.956 369.662 143.806 370.19 143.506C370.73 143.194 371.15 142.756 371.45 142.192C371.75 141.628 371.9 140.986 371.9 140.266C371.9 139.546 371.75 138.904 371.45 138.34C371.15 137.776 370.73 137.344 370.19 137.044C369.662 136.732 369.062 136.576 368.39 136.576C367.718 136.576 367.112 136.732 366.572 137.044C366.044 137.344 365.624 137.776 365.312 138.34C365.012 138.904 364.862 139.546 364.862 140.266C364.862 140.986 365.012 141.628 365.312 142.192C365.624 142.756 366.044 143.194 366.572 143.506C367.112 143.806 367.718 143.956 368.39 143.956ZM375.805 135.532H377.083V145H375.805V135.532ZM376.453 133.462C376.189 133.462 375.967 133.372 375.787 133.192C375.607 133.012 375.517 132.796 375.517 132.544C375.517 132.304 375.607 132.094 375.787 131.914C375.967 131.734 376.189 131.644 376.453 131.644C376.717 131.644 376.939 131.734 377.119 131.914C377.299 132.082 377.389 132.286 377.389 132.526C377.389 132.79 377.299 133.012 377.119 133.192C376.939 133.372 376.717 133.462 376.453 133.462ZM389.279 131.644V145H388.055V143.128C387.671 143.764 387.161 144.25 386.525 144.586C385.901 144.922 385.193 145.09 384.401 145.09C383.513 145.09 382.709 144.886 381.989 144.478C381.269 144.07 380.705 143.5 380.297 142.768C379.889 142.036 379.685 141.202 379.685 140.266C379.685 139.33 379.889 138.496 380.297 137.764C380.705 137.032 381.269 136.468 381.989 136.072C382.709 135.664 383.513 135.46 384.401 135.46C385.169 135.46 385.859 135.622 386.471 135.946C387.095 136.258 387.605 136.72 388.001 137.332V131.644H389.279ZM384.509 143.956C385.169 143.956 385.763 143.806 386.291 143.506C386.831 143.194 387.251 142.756 387.551 142.192C387.863 141.628 388.019 140.986 388.019 140.266C388.019 139.546 387.863 138.904 387.551 138.34C387.251 137.776 386.831 137.344 386.291 137.044C385.763 136.732 385.169 136.576 384.509 136.576C383.837 136.576 383.231 136.732 382.691 137.044C382.163 137.344 381.743 137.776 381.431 138.34C381.131 138.904 380.981 139.546 380.981 140.266C380.981 140.986 381.131 141.628 381.431 142.192C381.743 142.756 382.163 143.194 382.691 143.506C383.231 143.806 383.837 143.956 384.509 143.956ZM392.983 143.128C393.259 143.128 393.487 143.224 393.667 143.416C393.847 143.596 393.937 143.824 393.937 144.1C393.937 144.244 393.913 144.4 393.865 144.568C393.829 144.736 393.769 144.928 393.685 145.144L392.929 147.628H392.065L392.677 145.018C392.485 144.958 392.329 144.85 392.209 144.694C392.089 144.526 392.029 144.328 392.029 144.1C392.029 143.824 392.119 143.596 392.299 143.416C392.479 143.224 392.707 143.128 392.983 143.128ZM404.676 135.46C405.912 135.46 406.86 135.772 407.52 136.396C408.18 137.008 408.51 137.92 408.51 139.132V145H407.286V143.524C406.998 144.016 406.572 144.4 406.008 144.676C405.456 144.952 404.796 145.09 404.028 145.09C402.972 145.09 402.132 144.838 401.508 144.334C400.884 143.83 400.572 143.164 400.572 142.336C400.572 141.532 400.86 140.884 401.436 140.392C402.024 139.9 402.954 139.654 404.226 139.654H407.232V139.078C407.232 138.262 407.004 137.644 406.548 137.224C406.092 136.792 405.426 136.576 404.55 136.576C403.95 136.576 403.374 136.678 402.822 136.882C402.27 137.074 401.796 137.344 401.4 137.692L400.824 136.738C401.304 136.33 401.88 136.018 402.552 135.802C403.224 135.574 403.932 135.46 404.676 135.46ZM404.226 144.082C404.946 144.082 405.564 143.92 406.08 143.596C406.596 143.26 406.98 142.78 407.232 142.156V140.608H404.262C402.642 140.608 401.832 141.172 401.832 142.3C401.832 142.852 402.042 143.29 402.462 143.614C402.882 143.926 403.47 144.082 404.226 144.082ZM416.805 135.46C417.993 135.46 418.935 135.808 419.631 136.504C420.339 137.188 420.693 138.19 420.693 139.51V145H419.415V139.636C419.415 138.652 419.169 137.902 418.677 137.386C418.185 136.87 417.483 136.612 416.571 136.612C415.551 136.612 414.741 136.918 414.141 137.53C413.553 138.13 413.259 138.964 413.259 140.032V145H411.981V135.532H413.205V137.278C413.553 136.702 414.033 136.258 414.645 135.946C415.269 135.622 415.989 135.46 416.805 135.46ZM432.838 131.644V145H431.614V143.128C431.23 143.764 430.72 144.25 430.084 144.586C429.46 144.922 428.752 145.09 427.96 145.09C427.072 145.09 426.268 144.886 425.548 144.478C424.828 144.07 424.264 143.5 423.856 142.768C423.448 142.036 423.244 141.202 423.244 140.266C423.244 139.33 423.448 138.496 423.856 137.764C424.264 137.032 424.828 136.468 425.548 136.072C426.268 135.664 427.072 135.46 427.96 135.46C428.728 135.46 429.418 135.622 430.03 135.946C430.654 136.258 431.164 136.72 431.56 137.332V131.644H432.838ZM428.068 143.956C428.728 143.956 429.322 143.806 429.85 143.506C430.39 143.194 430.81 142.756 431.11 142.192C431.422 141.628 431.578 140.986 431.578 140.266C431.578 139.546 431.422 138.904 431.11 138.34C430.81 137.776 430.39 137.344 429.85 137.044C429.322 136.732 428.728 136.576 428.068 136.576C427.396 136.576 426.79 136.732 426.25 137.044C425.722 137.344 425.302 137.776 424.99 138.34C424.69 138.904 424.54 139.546 424.54 140.266C424.54 140.986 424.69 141.628 424.99 142.192C425.302 142.756 425.722 143.194 426.25 143.506C426.79 143.806 427.396 143.956 428.068 143.956ZM446.094 144.424C445.854 144.64 445.554 144.808 445.194 144.928C444.846 145.036 444.48 145.09 444.096 145.09C443.208 145.09 442.524 144.85 442.044 144.37C441.564 143.89 441.324 143.212 441.324 142.336V136.612H439.632V135.532H441.324V133.462H442.602V135.532H445.482V136.612H442.602V142.264C442.602 142.828 442.74 143.26 443.016 143.56C443.304 143.848 443.712 143.992 444.24 143.992C444.504 143.992 444.756 143.95 444.996 143.866C445.248 143.782 445.464 143.662 445.644 143.506L446.094 144.424ZM453.245 135.46C454.433 135.46 455.375 135.808 456.071 136.504C456.779 137.188 457.133 138.19 457.133 139.51V145H455.855V139.636C455.855 138.652 455.609 137.902 455.117 137.386C454.625 136.87 453.923 136.612 453.011 136.612C451.991 136.612 451.181 136.918 450.581 137.53C449.993 138.13 449.699 138.964 449.699 140.032V145H448.421V131.644H449.699V137.188C450.047 136.636 450.527 136.21 451.139 135.91C451.751 135.61 452.453 135.46 453.245 135.46ZM468.881 140.662H460.961C461.033 141.646 461.411 142.444 462.095 143.056C462.779 143.656 463.643 143.956 464.687 143.956C465.275 143.956 465.815 143.854 466.307 143.65C466.799 143.434 467.225 143.122 467.585 142.714L468.305 143.542C467.885 144.046 467.357 144.43 466.721 144.694C466.097 144.958 465.407 145.09 464.651 145.09C463.679 145.09 462.815 144.886 462.059 144.478C461.315 144.058 460.733 143.482 460.313 142.75C459.893 142.018 459.683 141.19 459.683 140.266C459.683 139.342 459.881 138.514 460.277 137.782C460.685 137.05 461.237 136.48 461.933 136.072C462.641 135.664 463.433 135.46 464.309 135.46C465.185 135.46 465.971 135.664 466.667 136.072C467.363 136.48 467.909 137.05 468.305 137.782C468.701 138.502 468.899 139.33 468.899 140.266L468.881 140.662ZM464.309 136.558C463.397 136.558 462.629 136.852 462.005 137.44C461.393 138.016 461.045 138.772 460.961 139.708H467.675C467.591 138.772 467.237 138.016 466.613 137.44C466.001 136.852 465.233 136.558 464.309 136.558ZM490.108 135.532L486.526 145H485.32L482.332 137.242L479.344 145H478.138L474.574 135.532H475.798L478.768 143.578L481.81 135.532H482.908L485.932 143.578L488.938 135.532H490.108ZM500.012 140.662H492.092C492.164 141.646 492.542 142.444 493.226 143.056C493.91 143.656 494.774 143.956 495.818 143.956C496.406 143.956 496.946 143.854 497.438 143.65C497.93 143.434 498.356 143.122 498.716 142.714L499.436 143.542C499.016 144.046 498.488 144.43 497.852 144.694C497.228 144.958 496.538 145.09 495.782 145.09C494.81 145.09 493.946 144.886 493.19 144.478C492.446 144.058 491.864 143.482 491.444 142.75C491.024 142.018 490.814 141.19 490.814 140.266C490.814 139.342 491.012 138.514 491.408 137.782C491.816 137.05 492.368 136.48 493.064 136.072C493.772 135.664 494.564 135.46 495.44 135.46C496.316 135.46 497.102 135.664 497.798 136.072C498.494 136.48 499.04 137.05 499.436 137.782C499.832 138.502 500.03 139.33 500.03 140.266L500.012 140.662ZM495.44 136.558C494.528 136.558 493.76 136.852 493.136 137.44C492.524 138.016 492.176 138.772 492.092 139.708H498.806C498.722 138.772 498.368 138.016 497.744 137.44C497.132 136.852 496.364 136.558 495.44 136.558ZM507.51 135.46C508.398 135.46 509.202 135.664 509.922 136.072C510.642 136.468 511.206 137.032 511.614 137.764C512.022 138.496 512.226 139.33 512.226 140.266C512.226 141.202 512.022 142.036 511.614 142.768C511.206 143.5 510.642 144.07 509.922 144.478C509.202 144.886 508.398 145.09 507.51 145.09C506.718 145.09 506.004 144.922 505.368 144.586C504.744 144.25 504.24 143.764 503.856 143.128V145H502.632V131.644H503.91V137.332C504.306 136.72 504.81 136.258 505.422 135.946C506.046 135.622 506.742 135.46 507.51 135.46ZM507.42 143.956C508.08 143.956 508.68 143.806 509.22 143.506C509.76 143.194 510.18 142.756 510.48 142.192C510.792 141.628 510.948 140.986 510.948 140.266C510.948 139.546 510.792 138.904 510.48 138.34C510.18 137.776 509.76 137.344 509.22 137.044C508.68 136.732 508.08 136.576 507.42 136.576C506.748 136.576 506.142 136.732 505.602 137.044C505.074 137.344 504.654 137.776 504.342 138.34C504.042 138.904 503.892 139.546 503.892 140.266C503.892 140.986 504.042 141.628 504.342 142.192C504.654 142.756 505.074 143.194 505.602 143.506C506.142 143.806 506.748 143.956 507.42 143.956ZM514.693 145.09C514.429 145.09 514.201 144.994 514.009 144.802C513.829 144.61 513.739 144.376 513.739 144.1C513.739 143.824 513.829 143.596 514.009 143.416C514.201 143.224 514.429 143.128 514.693 143.128C514.957 143.128 515.185 143.224 515.377 143.416C515.569 143.596 515.665 143.824 515.665 144.1C515.665 144.376 515.569 144.61 515.377 144.802C515.185 144.994 514.957 145.09 514.693 145.09Z" fill="#2B4964"/>
<path d="M18.4934 36.0876C6.49372 48.5791 -0.00623742 64.072 13.9933 77.0688C25.9938 88.2098 35.4937 95.5607 55.9936 90.563C76.4935 85.5653 84.349 75.2218 84.349 59.5594C84.3489 44.584 73.0913 41.1997 60.9934 28.5914C37.4938 4.10032 28.2515 25.9295 18.4934 36.0876Z" fill="#92C4FF"/>
<path d="M78.0001 44.5001C78.0001 75.5001 67.0001 81 56.0001 86.5641C45.0002 92.1282 25.5001 99.4999 17.5001 86C9.72013 72.8713 18.475 68.5782 15.0001 57.0001C10.5001 42.0065 16.6704 23.2434 31.5001 25.5001C54.5001 29 78.0001 19.3214 78.0001 44.5001Z" fill="#907AFF"/>
<path d="M65.783 62.3352C65.9147 61.37 65.9844 60.3856 65.9844 59.3848C65.9844 53.3663 63.5099 47.8613 59.4824 43.9131C59.4568 43.8854 59.4304 43.8594 59.4023 43.8351C56.3374 40.8613 52.3863 38.7846 47.9463 38.057C47.588 36.4498 46.1558 35.2451 44.448 35.2451C42.7384 35.2451 41.305 36.4498 40.9463 38.0565C38.5796 38.443 36.3103 39.2206 34.1904 40.3754C33.6714 40.6582 33.4792 41.3098 33.7612 41.8302C33.9555 42.1881 34.323 42.3912 34.7028 42.3912C34.8753 42.3912 35.0502 42.3492 35.2126 42.2607C37.0707 41.2486 39.0555 40.5579 41.1254 40.2012C41.6609 41.5146 42.9483 42.4428 44.448 42.4428C45.946 42.4428 47.2317 41.515 47.7671 40.2016C50.7267 40.7131 53.4412 41.8918 55.7638 43.5707H51.6754C49.4725 43.5707 47.6803 45.3688 47.6803 47.5789C47.6803 49.7874 49.4725 51.5842 51.6754 51.5842C52.6968 51.5842 53.5272 52.42 53.5272 53.4468C53.5272 54.4741 52.6968 55.3095 51.6754 55.3095H51.0565C48.8552 55.3095 47.0643 57.1063 47.0643 59.3152C47.0643 61.5253 48.8552 63.3233 51.0565 63.3233H63.4449C61.6258 72.1773 53.7991 78.8546 44.448 78.8546C40.188 78.8546 36.2449 77.4682 33.0415 75.123H37.1412C39.3442 75.123 41.1364 73.3253 41.1364 71.1148C41.1364 68.9063 39.3442 67.1096 37.1412 67.1096C36.1198 67.1096 35.2894 66.2741 35.2894 65.2469C35.2894 64.2213 36.1198 63.3871 37.1412 63.3871H37.7572C39.9602 63.3871 41.7523 61.5891 41.7523 59.379C41.7523 57.1684 39.9602 55.3704 37.7572 55.3704H25.4574C26.0574 52.4788 27.3104 49.7697 29.1668 47.3901C29.5306 46.9235 29.4483 46.2491 28.9826 45.8841C28.5172 45.519 27.8446 45.6017 27.4803 46.0687C24.4893 49.9036 22.9082 54.5085 22.9082 59.3848C22.9082 65.3648 25.3411 70.7854 29.2654 74.7025C29.3275 74.7831 29.4001 74.8544 29.4823 74.9148C33.3604 78.6796 38.6388 81.0001 44.448 81.0001C55.2783 81.0001 64.2652 72.9347 65.7632 62.474C65.7729 62.4287 65.7792 62.3826 65.783 62.3352ZM25.1364 57.5163H37.7572C38.7798 57.5163 39.6119 58.3517 39.6119 59.379C39.6119 60.4058 38.7798 61.2416 37.7572 61.2416H37.1412C34.9399 61.2416 33.1489 63.038 33.1489 65.2469C33.1489 67.457 34.9399 69.2551 37.1412 69.2551C38.1638 69.2551 38.9959 70.0892 38.9959 71.1148C38.9959 72.1416 38.1638 72.9775 37.1412 72.9775H30.5733C27.1572 69.4661 25.0487 64.6682 25.0487 59.3848C25.0487 58.7562 25.0789 58.1331 25.1364 57.5163ZM44.448 40.2969C43.649 40.2969 42.9995 39.6444 42.9995 38.8425C42.9995 38.0419 43.649 37.3906 44.448 37.3906C45.2448 37.3906 45.8931 38.0419 45.8931 38.8425C45.8931 39.6444 45.2448 40.2969 44.448 40.2969ZM51.0565 61.1774C50.0352 61.1774 49.2047 60.342 49.2047 59.3148C49.2047 58.2896 50.0352 57.455 51.0565 57.455H51.6754C53.8768 57.455 55.6677 55.657 55.6677 53.4468C55.6677 51.2367 53.8768 49.4387 51.6754 49.4387C50.6528 49.4387 49.8207 48.6045 49.8207 47.5789C49.8207 46.5517 50.6528 45.7162 51.6754 45.7162H58.2559C61.7248 49.2515 63.8439 54.0981 63.8439 59.3848C63.8439 59.9891 63.815 60.587 63.7608 61.1774H51.0565Z" fill="white"/>
<path d="M31.0312 44.9365C31.2368 44.9365 31.4449 44.8773 31.6287 44.7531L31.6467 44.7409C32.1369 44.4099 32.2661 43.7431 31.9354 43.2517C31.6052 42.7604 30.9401 42.6307 30.45 42.9622L30.432 42.9744C29.9418 43.3054 29.8126 43.9726 30.1428 44.4636C30.3497 44.7707 30.6871 44.9365 31.0312 44.9365Z" fill="white"/>
</svg>
