<svg width="606" height="217" viewBox="0 0 606 217" fill="none" xmlns="http://www.w3.org/2000/svg">
<path d="M135.104 53.4131H124.381L121.973 60.0928H118.492L128.266 34.499H131.219L141.01 60.0928H137.547L135.104 53.4131ZM125.4 50.6357H134.102L129.742 38.665L125.4 50.6357ZM164.125 60.0928H160.732L147.848 40.3701V60.0928H144.455V34.499H147.848L160.768 54.3096V34.499H164.125V60.0928ZM177.432 47.3486L184.111 34.499H187.943L179.119 50.5479V60.0928H175.744V50.5479L166.92 34.499H170.787L177.432 47.3486ZM203.553 50.0732V60.0928H200.178V34.499H209.617C212.418 34.499 214.609 35.2139 216.191 36.6436C217.785 38.0732 218.582 39.9658 218.582 42.3213C218.582 44.8057 217.803 46.7217 216.244 48.0693C214.697 49.4053 212.477 50.0732 209.582 50.0732H203.553ZM203.553 47.3135H209.617C211.422 47.3135 212.805 46.8916 213.766 46.0479C214.727 45.1924 215.207 43.9619 215.207 42.3564C215.207 40.833 214.727 39.6143 213.766 38.7002C212.805 37.7861 211.486 37.3115 209.811 37.2764H203.553V47.3135ZM242.576 48.1221C242.576 50.6299 242.154 52.8213 241.311 54.6963C240.467 56.5596 239.271 57.9834 237.725 58.9678C236.178 59.9521 234.373 60.4443 232.311 60.4443C230.295 60.4443 228.508 59.9521 226.949 58.9678C225.391 57.9717 224.178 56.5596 223.311 54.7314C222.455 52.8916 222.016 50.7646 221.992 48.3506V46.5049C221.992 44.0439 222.42 41.8701 223.275 39.9834C224.131 38.0967 225.338 36.6553 226.896 35.6592C228.467 34.6514 230.26 34.1475 232.275 34.1475C234.326 34.1475 236.131 34.6455 237.689 35.6416C239.26 36.626 240.467 38.0615 241.311 39.9482C242.154 41.8232 242.576 44.0088 242.576 46.5049V48.1221ZM239.219 46.4697C239.219 43.4346 238.609 41.1084 237.391 39.4912C236.172 37.8623 234.467 37.0479 232.275 37.0479C230.143 37.0479 228.461 37.8623 227.23 39.4912C226.012 41.1084 225.385 43.3584 225.35 46.2412V48.1221C225.35 51.0635 225.965 53.3779 227.195 55.0654C228.438 56.7412 230.143 57.5791 232.311 57.5791C234.49 57.5791 236.178 56.7881 237.373 55.2061C238.568 53.6123 239.184 51.333 239.219 48.3682V46.4697ZM251.26 60.0928H247.885V34.499H251.26V60.0928ZM277.117 60.0928H273.725L260.84 40.3701V60.0928H257.447V34.499H260.84L273.76 54.3096V34.499H277.117V60.0928ZM300.268 37.2764H292.041V60.0928H288.684V37.2764H280.475V34.499H300.268V37.2764ZM331.979 48.1221C331.979 50.6299 331.557 52.8213 330.713 54.6963C329.869 56.5596 328.674 57.9834 327.127 58.9678C325.58 59.9521 323.775 60.4443 321.713 60.4443C319.697 60.4443 317.91 59.9521 316.352 58.9678C314.793 57.9717 313.58 56.5596 312.713 54.7314C311.857 52.8916 311.418 50.7646 311.395 48.3506V46.5049C311.395 44.0439 311.822 41.8701 312.678 39.9834C313.533 38.0967 314.74 36.6553 316.299 35.6592C317.869 34.6514 319.662 34.1475 321.678 34.1475C323.729 34.1475 325.533 34.6455 327.092 35.6416C328.662 36.626 329.869 38.0615 330.713 39.9482C331.557 41.8232 331.979 44.0088 331.979 46.5049V48.1221ZM328.621 46.4697C328.621 43.4346 328.012 41.1084 326.793 39.4912C325.574 37.8623 323.869 37.0479 321.678 37.0479C319.545 37.0479 317.863 37.8623 316.633 39.4912C315.414 41.1084 314.787 43.3584 314.752 46.2412V48.1221C314.752 51.0635 315.367 53.3779 316.598 55.0654C317.84 56.7412 319.545 57.5791 321.713 57.5791C323.893 57.5791 325.58 56.7881 326.775 55.2061C327.971 53.6123 328.586 51.333 328.621 48.3682V46.4697ZM351.156 48.79H340.416V60.0928H337.041V34.499H352.896V37.2764H340.416V46.0303H351.156V48.79ZM382.85 37.2764H374.623V60.0928H371.266V37.2764H363.057V34.499H382.85V37.2764ZM406.316 60.0928H402.924V48.2627H390.021V60.0928H386.646V34.499H390.021V45.5029H402.924V34.499H406.316V60.0928ZM426.777 48.2627H415.686V57.333H428.57V60.0928H412.311V34.499H428.395V37.2764H415.686V45.5029H426.777V48.2627ZM460.598 56.7354C459.73 57.9775 458.518 58.9092 456.959 59.5303C455.412 60.1396 453.607 60.4443 451.545 60.4443C449.459 60.4443 447.607 59.958 445.99 58.9854C444.373 58.001 443.119 56.6064 442.229 54.8018C441.35 52.9971 440.898 50.9053 440.875 48.5264V46.2939C440.875 42.4385 441.771 39.4502 443.564 37.3291C445.369 35.208 447.9 34.1475 451.158 34.1475C453.83 34.1475 455.98 34.833 457.609 36.2041C459.238 37.5635 460.234 39.4971 460.598 42.0049H457.223C456.59 38.6182 454.574 36.9248 451.176 36.9248C448.914 36.9248 447.197 37.7217 446.025 39.3154C444.865 40.8975 444.279 43.1943 444.268 46.2061V48.2979C444.268 51.1689 444.924 53.4541 446.236 55.1533C447.549 56.8408 449.324 57.6846 451.562 57.6846C452.828 57.6846 453.936 57.5439 454.885 57.2627C455.834 56.9814 456.619 56.5068 457.24 55.8389V50.0908H451.316V47.3486H460.598V56.7354ZM469.633 57.333H481.762V60.0928H466.24V34.499H469.633V57.333ZM504.139 48.1221C504.139 50.6299 503.717 52.8213 502.873 54.6963C502.029 56.5596 500.834 57.9834 499.287 58.9678C497.74 59.9521 495.936 60.4443 493.873 60.4443C491.857 60.4443 490.07 59.9521 488.512 58.9678C486.953 57.9717 485.74 56.5596 484.873 54.7314C484.018 52.8916 483.578 50.7646 483.555 48.3506V46.5049C483.555 44.0439 483.982 41.8701 484.838 39.9834C485.693 38.0967 486.9 36.6553 488.459 35.6592C490.029 34.6514 491.822 34.1475 493.838 34.1475C495.889 34.1475 497.693 34.6455 499.252 35.6416C500.822 36.626 502.029 38.0615 502.873 39.9482C503.717 41.8232 504.139 44.0088 504.139 46.5049V48.1221ZM500.781 46.4697C500.781 43.4346 500.172 41.1084 498.953 39.4912C497.734 37.8623 496.029 37.0479 493.838 37.0479C491.705 37.0479 490.023 37.8623 488.793 39.4912C487.574 41.1084 486.947 43.3584 486.912 46.2412V48.1221C486.912 51.0635 487.527 53.3779 488.758 55.0654C490 56.7412 491.705 57.5791 493.873 57.5791C496.053 57.5791 497.74 56.7881 498.936 55.2061C500.131 53.6123 500.746 51.333 500.781 48.3682V46.4697ZM509.201 60.0928V34.499H517.568C520.346 34.499 522.432 35.0732 523.826 36.2217C525.232 37.3701 525.936 39.0693 525.936 41.3193C525.936 42.5146 525.596 43.5752 524.916 44.501C524.236 45.415 523.311 46.124 522.139 46.6279C523.521 47.0146 524.611 47.7529 525.408 48.8428C526.217 49.9209 526.621 51.21 526.621 52.71C526.621 55.0068 525.877 56.8115 524.389 58.124C522.9 59.4365 520.797 60.0928 518.078 60.0928H509.201ZM512.576 48.1221V57.333H518.148C519.719 57.333 520.955 56.9287 521.857 56.1201C522.771 55.2998 523.229 54.1748 523.229 52.7451C523.229 49.6631 521.553 48.1221 518.201 48.1221H512.576ZM512.576 45.415H517.674C519.15 45.415 520.328 45.0459 521.207 44.3076C522.098 43.5693 522.543 42.5674 522.543 41.3018C522.543 39.8955 522.133 38.876 521.312 38.2432C520.492 37.5986 519.244 37.2764 517.568 37.2764H512.576V45.415ZM546.098 48.2627H535.006V57.333H547.891V60.0928H531.631V34.499H547.715V37.2764H535.006V45.5029H546.098V48.2627Z" fill="#3B668D"/>
<path d="M131.582 78.4V91H130.268V85.186H122.384V91H121.052V78.4H122.384V84.016H130.268V78.4H131.582ZM135.425 81.532H136.703V91H135.425V81.532ZM136.073 79.462C135.809 79.462 135.587 79.372 135.407 79.192C135.227 79.012 135.137 78.796 135.137 78.544C135.137 78.304 135.227 78.094 135.407 77.914C135.587 77.734 135.809 77.644 136.073 77.644C136.337 77.644 136.559 77.734 136.739 77.914C136.919 78.082 137.009 78.286 137.009 78.526C137.009 78.79 136.919 79.012 136.739 79.192C136.559 79.372 136.337 79.462 136.073 79.462ZM149.025 81.532V89.848C149.025 91.456 148.629 92.644 147.837 93.412C147.057 94.192 145.875 94.582 144.291 94.582C143.415 94.582 142.581 94.45 141.789 94.186C141.009 93.934 140.373 93.58 139.881 93.124L140.529 92.152C140.985 92.56 141.537 92.878 142.185 93.106C142.845 93.334 143.535 93.448 144.255 93.448C145.455 93.448 146.337 93.166 146.901 92.602C147.465 92.05 147.747 91.186 147.747 90.01V88.804C147.351 89.404 146.829 89.86 146.181 90.172C145.545 90.484 144.837 90.64 144.057 90.64C143.169 90.64 142.359 90.448 141.627 90.064C140.907 89.668 140.337 89.122 139.917 88.426C139.509 87.718 139.305 86.92 139.305 86.032C139.305 85.144 139.509 84.352 139.917 83.656C140.337 82.96 140.907 82.42 141.627 82.036C142.347 81.652 143.157 81.46 144.057 81.46C144.861 81.46 145.587 81.622 146.235 81.946C146.883 82.27 147.405 82.738 147.801 83.35V81.532H149.025ZM144.183 89.506C144.867 89.506 145.485 89.362 146.037 89.074C146.589 88.774 147.015 88.36 147.315 87.832C147.627 87.304 147.783 86.704 147.783 86.032C147.783 85.36 147.627 84.766 147.315 84.25C147.015 83.722 146.589 83.314 146.037 83.026C145.497 82.726 144.879 82.576 144.183 82.576C143.499 82.576 142.881 82.72 142.329 83.008C141.789 83.296 141.363 83.704 141.051 84.232C140.751 84.76 140.601 85.36 140.601 86.032C140.601 86.704 140.751 87.304 141.051 87.832C141.363 88.36 141.789 88.774 142.329 89.074C142.881 89.362 143.499 89.506 144.183 89.506ZM157.422 81.46C158.61 81.46 159.552 81.808 160.248 82.504C160.956 83.188 161.31 84.19 161.31 85.51V91H160.032V85.636C160.032 84.652 159.786 83.902 159.294 83.386C158.802 82.87 158.1 82.612 157.188 82.612C156.168 82.612 155.358 82.918 154.758 83.53C154.17 84.13 153.876 84.964 153.876 86.032V91H152.598V77.644H153.876V83.188C154.224 82.636 154.704 82.21 155.316 81.91C155.928 81.61 156.63 81.46 157.422 81.46ZM172.029 91.09C171.261 91.09 170.523 90.982 169.815 90.766C169.119 90.538 168.573 90.256 168.177 89.92L168.753 88.912C169.149 89.224 169.647 89.482 170.247 89.686C170.847 89.878 171.471 89.974 172.119 89.974C172.983 89.974 173.619 89.842 174.027 89.578C174.447 89.302 174.657 88.918 174.657 88.426C174.657 88.078 174.543 87.808 174.315 87.616C174.087 87.412 173.799 87.262 173.451 87.166C173.103 87.058 172.641 86.956 172.065 86.86C171.297 86.716 170.679 86.572 170.211 86.428C169.743 86.272 169.341 86.014 169.005 85.654C168.681 85.294 168.519 84.796 168.519 84.16C168.519 83.368 168.849 82.72 169.509 82.216C170.169 81.712 171.087 81.46 172.263 81.46C172.875 81.46 173.487 81.544 174.099 81.712C174.711 81.868 175.215 82.078 175.611 82.342L175.053 83.368C174.273 82.828 173.343 82.558 172.263 82.558C171.447 82.558 170.829 82.702 170.409 82.99C170.001 83.278 169.797 83.656 169.797 84.124C169.797 84.484 169.911 84.772 170.139 84.988C170.379 85.204 170.673 85.366 171.021 85.474C171.369 85.57 171.849 85.672 172.461 85.78C173.217 85.924 173.823 86.068 174.279 86.212C174.735 86.356 175.125 86.602 175.449 86.95C175.773 87.298 175.935 87.778 175.935 88.39C175.935 89.218 175.587 89.878 174.891 90.37C174.207 90.85 173.253 91.09 172.029 91.09ZM183.176 81.46C184.064 81.46 184.868 81.664 185.588 82.072C186.308 82.468 186.872 83.032 187.28 83.764C187.688 84.496 187.892 85.33 187.892 86.266C187.892 87.214 187.688 88.054 187.28 88.786C186.872 89.518 186.308 90.088 185.588 90.496C184.88 90.892 184.076 91.09 183.176 91.09C182.408 91.09 181.712 90.934 181.088 90.622C180.476 90.298 179.972 89.83 179.576 89.218V94.492H178.298V81.532H179.522V83.404C179.906 82.78 180.41 82.3 181.034 81.964C181.67 81.628 182.384 81.46 183.176 81.46ZM183.086 89.956C183.746 89.956 184.346 89.806 184.886 89.506C185.426 89.194 185.846 88.756 186.146 88.192C186.458 87.628 186.614 86.986 186.614 86.266C186.614 85.546 186.458 84.91 186.146 84.358C185.846 83.794 185.426 83.356 184.886 83.044C184.346 82.732 183.746 82.576 183.086 82.576C182.414 82.576 181.808 82.732 181.268 83.044C180.74 83.356 180.32 83.794 180.008 84.358C179.708 84.91 179.558 85.546 179.558 86.266C179.558 86.986 179.708 87.628 180.008 88.192C180.32 88.756 180.74 89.194 181.268 89.506C181.808 89.806 182.414 89.956 183.086 89.956ZM198.741 86.662H190.821C190.893 87.646 191.271 88.444 191.955 89.056C192.639 89.656 193.503 89.956 194.547 89.956C195.135 89.956 195.675 89.854 196.167 89.65C196.659 89.434 197.085 89.122 197.445 88.714L198.165 89.542C197.745 90.046 197.217 90.43 196.581 90.694C195.957 90.958 195.267 91.09 194.511 91.09C193.539 91.09 192.675 90.886 191.919 90.478C191.175 90.058 190.593 89.482 190.173 88.75C189.753 88.018 189.543 87.19 189.543 86.266C189.543 85.342 189.741 84.514 190.137 83.782C190.545 83.05 191.097 82.48 191.793 82.072C192.501 81.664 193.293 81.46 194.169 81.46C195.045 81.46 195.831 81.664 196.527 82.072C197.223 82.48 197.769 83.05 198.165 83.782C198.561 84.502 198.759 85.33 198.759 86.266L198.741 86.662ZM194.169 82.558C193.257 82.558 192.489 82.852 191.865 83.44C191.253 84.016 190.905 84.772 190.821 85.708H197.535C197.451 84.772 197.097 84.016 196.473 83.44C195.861 82.852 195.093 82.558 194.169 82.558ZM209.604 86.662H201.684C201.756 87.646 202.134 88.444 202.818 89.056C203.502 89.656 204.366 89.956 205.41 89.956C205.998 89.956 206.538 89.854 207.03 89.65C207.522 89.434 207.948 89.122 208.308 88.714L209.028 89.542C208.608 90.046 208.08 90.43 207.444 90.694C206.82 90.958 206.13 91.09 205.374 91.09C204.402 91.09 203.538 90.886 202.782 90.478C202.038 90.058 201.456 89.482 201.036 88.75C200.616 88.018 200.406 87.19 200.406 86.266C200.406 85.342 200.604 84.514 201 83.782C201.408 83.05 201.96 82.48 202.656 82.072C203.364 81.664 204.156 81.46 205.032 81.46C205.908 81.46 206.694 81.664 207.39 82.072C208.086 82.48 208.632 83.05 209.028 83.782C209.424 84.502 209.622 85.33 209.622 86.266L209.604 86.662ZM205.032 82.558C204.12 82.558 203.352 82.852 202.728 83.44C202.116 84.016 201.768 84.772 201.684 85.708H208.398C208.314 84.772 207.96 84.016 207.336 83.44C206.724 82.852 205.956 82.558 205.032 82.558ZM220.863 77.644V91H219.639V89.128C219.255 89.764 218.745 90.25 218.109 90.586C217.485 90.922 216.777 91.09 215.985 91.09C215.097 91.09 214.293 90.886 213.573 90.478C212.853 90.07 212.289 89.5 211.881 88.768C211.473 88.036 211.269 87.202 211.269 86.266C211.269 85.33 211.473 84.496 211.881 83.764C212.289 83.032 212.853 82.468 213.573 82.072C214.293 81.664 215.097 81.46 215.985 81.46C216.753 81.46 217.443 81.622 218.055 81.946C218.679 82.258 219.189 82.72 219.585 83.332V77.644H220.863ZM216.093 89.956C216.753 89.956 217.347 89.806 217.875 89.506C218.415 89.194 218.835 88.756 219.135 88.192C219.447 87.628 219.603 86.986 219.603 86.266C219.603 85.546 219.447 84.904 219.135 84.34C218.835 83.776 218.415 83.344 217.875 83.044C217.347 82.732 216.753 82.576 216.093 82.576C215.421 82.576 214.815 82.732 214.275 83.044C213.747 83.344 213.327 83.776 213.015 84.34C212.715 84.904 212.565 85.546 212.565 86.266C212.565 86.986 212.715 87.628 213.015 88.192C213.327 88.756 213.747 89.194 214.275 89.506C214.815 89.806 215.421 89.956 216.093 89.956ZM232.266 78.634C231.714 78.634 231.294 78.784 231.006 79.084C230.73 79.384 230.592 79.828 230.592 80.416V81.532H233.508V82.612H230.628V91H229.35V82.612H227.658V81.532H229.35V80.362C229.35 79.498 229.596 78.814 230.088 78.31C230.592 77.806 231.3 77.554 232.212 77.554C232.572 77.554 232.92 77.608 233.256 77.716C233.592 77.812 233.874 77.956 234.102 78.148L233.67 79.102C233.298 78.79 232.83 78.634 232.266 78.634ZM237.899 83.386C238.199 82.75 238.643 82.27 239.231 81.946C239.831 81.622 240.569 81.46 241.445 81.46V82.702L241.139 82.684C240.143 82.684 239.363 82.99 238.799 83.602C238.235 84.214 237.953 85.072 237.953 86.176V91H236.675V81.532H237.899V83.386ZM247.541 91.09C246.629 91.09 245.807 90.886 245.075 90.478C244.343 90.058 243.767 89.482 243.347 88.75C242.927 88.018 242.717 87.19 242.717 86.266C242.717 85.342 242.927 84.514 243.347 83.782C243.767 83.05 244.343 82.48 245.075 82.072C245.807 81.664 246.629 81.46 247.541 81.46C248.453 81.46 249.275 81.664 250.007 82.072C250.739 82.48 251.309 83.05 251.717 83.782C252.137 84.514 252.347 85.342 252.347 86.266C252.347 87.19 252.137 88.018 251.717 88.75C251.309 89.482 250.739 90.058 250.007 90.478C249.275 90.886 248.453 91.09 247.541 91.09ZM247.541 89.956C248.213 89.956 248.813 89.806 249.341 89.506C249.881 89.194 250.301 88.756 250.601 88.192C250.901 87.628 251.051 86.986 251.051 86.266C251.051 85.546 250.901 84.904 250.601 84.34C250.301 83.776 249.881 83.344 249.341 83.044C248.813 82.732 248.213 82.576 247.541 82.576C246.869 82.576 246.263 82.732 245.723 83.044C245.195 83.344 244.775 83.776 244.463 84.34C244.163 84.904 244.013 85.546 244.013 86.266C244.013 86.986 244.163 87.628 244.463 88.192C244.775 88.756 245.195 89.194 245.723 89.506C246.263 89.806 246.869 89.956 247.541 89.956ZM266.764 81.46C267.952 81.46 268.882 81.802 269.554 82.486C270.238 83.17 270.58 84.178 270.58 85.51V91H269.302V85.636C269.302 84.652 269.062 83.902 268.582 83.386C268.114 82.87 267.448 82.612 266.584 82.612C265.6 82.612 264.826 82.918 264.262 83.53C263.698 84.13 263.416 84.964 263.416 86.032V91H262.138V85.636C262.138 84.652 261.898 83.902 261.418 83.386C260.95 82.87 260.278 82.612 259.402 82.612C258.43 82.612 257.656 82.918 257.08 83.53C256.516 84.13 256.234 84.964 256.234 86.032V91H254.956V81.532H256.18V83.26C256.516 82.684 256.984 82.24 257.584 81.928C258.184 81.616 258.874 81.46 259.654 81.46C260.446 81.46 261.13 81.628 261.706 81.964C262.294 82.3 262.732 82.798 263.02 83.458C263.368 82.834 263.866 82.348 264.514 82C265.174 81.64 265.924 81.46 266.764 81.46ZM282.069 81.46C283.305 81.46 284.253 81.772 284.913 82.396C285.573 83.008 285.903 83.92 285.903 85.132V91H284.679V89.524C284.391 90.016 283.965 90.4 283.401 90.676C282.849 90.952 282.189 91.09 281.421 91.09C280.365 91.09 279.525 90.838 278.901 90.334C278.277 89.83 277.965 89.164 277.965 88.336C277.965 87.532 278.253 86.884 278.829 86.392C279.417 85.9 280.347 85.654 281.619 85.654H284.625V85.078C284.625 84.262 284.397 83.644 283.941 83.224C283.485 82.792 282.819 82.576 281.943 82.576C281.343 82.576 280.767 82.678 280.215 82.882C279.663 83.074 279.189 83.344 278.793 83.692L278.217 82.738C278.697 82.33 279.273 82.018 279.945 81.802C280.617 81.574 281.325 81.46 282.069 81.46ZM281.619 90.082C282.339 90.082 282.957 89.92 283.473 89.596C283.989 89.26 284.373 88.78 284.625 88.156V86.608H281.655C280.035 86.608 279.225 87.172 279.225 88.3C279.225 88.852 279.435 89.29 279.855 89.614C280.275 89.926 280.863 90.082 281.619 90.082ZM294.198 81.46C295.386 81.46 296.328 81.808 297.024 82.504C297.732 83.188 298.086 84.19 298.086 85.51V91H296.808V85.636C296.808 84.652 296.562 83.902 296.07 83.386C295.578 82.87 294.876 82.612 293.964 82.612C292.944 82.612 292.134 82.918 291.534 83.53C290.946 84.13 290.652 84.964 290.652 86.032V91H289.374V81.532H290.598V83.278C290.946 82.702 291.426 82.258 292.038 81.946C292.662 81.622 293.382 81.46 294.198 81.46ZM309.336 81.532L304.602 92.134C304.218 93.022 303.774 93.652 303.27 94.024C302.766 94.396 302.16 94.582 301.452 94.582C300.996 94.582 300.57 94.51 300.174 94.366C299.778 94.222 299.436 94.006 299.148 93.718L299.742 92.764C300.222 93.244 300.798 93.484 301.47 93.484C301.902 93.484 302.268 93.364 302.568 93.124C302.88 92.884 303.168 92.476 303.432 91.9L303.846 90.982L299.616 81.532H300.948L304.512 89.578L308.076 81.532H309.336ZM315.846 77.644H317.124V91H315.846V77.644ZM324.55 91.09C323.638 91.09 322.816 90.886 322.084 90.478C321.352 90.058 320.776 89.482 320.356 88.75C319.936 88.018 319.726 87.19 319.726 86.266C319.726 85.342 319.936 84.514 320.356 83.782C320.776 83.05 321.352 82.48 322.084 82.072C322.816 81.664 323.638 81.46 324.55 81.46C325.462 81.46 326.284 81.664 327.016 82.072C327.748 82.48 328.318 83.05 328.726 83.782C329.146 84.514 329.356 85.342 329.356 86.266C329.356 87.19 329.146 88.018 328.726 88.75C328.318 89.482 327.748 90.058 327.016 90.478C326.284 90.886 325.462 91.09 324.55 91.09ZM324.55 89.956C325.222 89.956 325.822 89.806 326.35 89.506C326.89 89.194 327.31 88.756 327.61 88.192C327.91 87.628 328.06 86.986 328.06 86.266C328.06 85.546 327.91 84.904 327.61 84.34C327.31 83.776 326.89 83.344 326.35 83.044C325.822 82.732 325.222 82.576 324.55 82.576C323.878 82.576 323.272 82.732 322.732 83.044C322.204 83.344 321.784 83.776 321.472 84.34C321.172 84.904 321.022 85.546 321.022 86.266C321.022 86.986 321.172 87.628 321.472 88.192C321.784 88.756 322.204 89.194 322.732 89.506C323.272 89.806 323.878 89.956 324.55 89.956ZM335.89 91.09C334.954 91.09 334.114 90.886 333.37 90.478C332.638 90.07 332.062 89.5 331.642 88.768C331.222 88.024 331.012 87.19 331.012 86.266C331.012 85.342 331.222 84.514 331.642 83.782C332.062 83.05 332.638 82.48 333.37 82.072C334.114 81.664 334.954 81.46 335.89 81.46C336.706 81.46 337.432 81.622 338.068 81.946C338.716 82.258 339.226 82.72 339.598 83.332L338.644 83.98C338.332 83.512 337.936 83.164 337.456 82.936C336.976 82.696 336.454 82.576 335.89 82.576C335.206 82.576 334.588 82.732 334.036 83.044C333.496 83.344 333.07 83.776 332.758 84.34C332.458 84.904 332.308 85.546 332.308 86.266C332.308 86.998 332.458 87.646 332.758 88.21C333.07 88.762 333.496 89.194 334.036 89.506C334.588 89.806 335.206 89.956 335.89 89.956C336.454 89.956 336.976 89.842 337.456 89.614C337.936 89.386 338.332 89.038 338.644 88.57L339.598 89.218C339.226 89.83 338.716 90.298 338.068 90.622C337.42 90.934 336.694 91.09 335.89 91.09ZM345.42 81.46C346.656 81.46 347.604 81.772 348.264 82.396C348.924 83.008 349.254 83.92 349.254 85.132V91H348.03V89.524C347.742 90.016 347.316 90.4 346.752 90.676C346.2 90.952 345.54 91.09 344.772 91.09C343.716 91.09 342.876 90.838 342.252 90.334C341.628 89.83 341.316 89.164 341.316 88.336C341.316 87.532 341.604 86.884 342.18 86.392C342.768 85.9 343.698 85.654 344.97 85.654H347.976V85.078C347.976 84.262 347.748 83.644 347.292 83.224C346.836 82.792 346.17 82.576 345.294 82.576C344.694 82.576 344.118 82.678 343.566 82.882C343.014 83.074 342.54 83.344 342.144 83.692L341.568 82.738C342.048 82.33 342.624 82.018 343.296 81.802C343.968 81.574 344.676 81.46 345.42 81.46ZM344.97 90.082C345.69 90.082 346.308 89.92 346.824 89.596C347.34 89.26 347.724 88.78 347.976 88.156V86.608H345.006C343.386 86.608 342.576 87.172 342.576 88.3C342.576 88.852 342.786 89.29 343.206 89.614C343.626 89.926 344.214 90.082 344.97 90.082ZM357.711 90.424C357.471 90.64 357.171 90.808 356.811 90.928C356.463 91.036 356.097 91.09 355.713 91.09C354.825 91.09 354.141 90.85 353.661 90.37C353.181 89.89 352.941 89.212 352.941 88.336V82.612H351.249V81.532H352.941V79.462H354.219V81.532H357.099V82.612H354.219V88.264C354.219 88.828 354.357 89.26 354.633 89.56C354.921 89.848 355.329 89.992 355.857 89.992C356.121 89.992 356.373 89.95 356.613 89.866C356.865 89.782 357.081 89.662 357.261 89.506L357.711 90.424ZM360.038 81.532H361.316V91H360.038V81.532ZM360.686 79.462C360.422 79.462 360.2 79.372 360.02 79.192C359.84 79.012 359.75 78.796 359.75 78.544C359.75 78.304 359.84 78.094 360.02 77.914C360.2 77.734 360.422 77.644 360.686 77.644C360.95 77.644 361.172 77.734 361.352 77.914C361.532 78.082 361.622 78.286 361.622 78.526C361.622 78.79 361.532 79.012 361.352 79.192C361.172 79.372 360.95 79.462 360.686 79.462ZM368.742 91.09C367.83 91.09 367.008 90.886 366.276 90.478C365.544 90.058 364.968 89.482 364.548 88.75C364.128 88.018 363.918 87.19 363.918 86.266C363.918 85.342 364.128 84.514 364.548 83.782C364.968 83.05 365.544 82.48 366.276 82.072C367.008 81.664 367.83 81.46 368.742 81.46C369.654 81.46 370.476 81.664 371.208 82.072C371.94 82.48 372.51 83.05 372.918 83.782C373.338 84.514 373.548 85.342 373.548 86.266C373.548 87.19 373.338 88.018 372.918 88.75C372.51 89.482 371.94 90.058 371.208 90.478C370.476 90.886 369.654 91.09 368.742 91.09ZM368.742 89.956C369.414 89.956 370.014 89.806 370.542 89.506C371.082 89.194 371.502 88.756 371.802 88.192C372.102 87.628 372.252 86.986 372.252 86.266C372.252 85.546 372.102 84.904 371.802 84.34C371.502 83.776 371.082 83.344 370.542 83.044C370.014 82.732 369.414 82.576 368.742 82.576C368.07 82.576 367.464 82.732 366.924 83.044C366.396 83.344 365.976 83.776 365.664 84.34C365.364 84.904 365.214 85.546 365.214 86.266C365.214 86.986 365.364 87.628 365.664 88.192C365.976 88.756 366.396 89.194 366.924 89.506C367.464 89.806 368.07 89.956 368.742 89.956ZM380.981 81.46C382.169 81.46 383.111 81.808 383.807 82.504C384.515 83.188 384.869 84.19 384.869 85.51V91H383.591V85.636C383.591 84.652 383.345 83.902 382.853 83.386C382.361 82.87 381.659 82.612 380.747 82.612C379.727 82.612 378.917 82.918 378.317 83.53C377.729 84.13 377.435 84.964 377.435 86.032V91H376.157V81.532H377.381V83.278C377.729 82.702 378.209 82.258 378.821 81.946C379.445 81.622 380.165 81.46 380.981 81.46ZM406.946 81.532L403.364 91H402.158L399.17 83.242L396.182 91H394.976L391.412 81.532H392.636L395.606 89.578L398.648 81.532H399.746L402.77 89.578L405.776 81.532H406.946ZM408.87 81.532H410.148V91H408.87V81.532ZM409.518 79.462C409.254 79.462 409.032 79.372 408.852 79.192C408.672 79.012 408.582 78.796 408.582 78.544C408.582 78.304 408.672 78.094 408.852 77.914C409.032 77.734 409.254 77.644 409.518 77.644C409.782 77.644 410.004 77.734 410.184 77.914C410.364 78.082 410.454 78.286 410.454 78.526C410.454 78.79 410.364 79.012 410.184 79.192C410.004 79.372 409.782 79.462 409.518 79.462ZM418.69 90.424C418.45 90.64 418.15 90.808 417.79 90.928C417.442 91.036 417.076 91.09 416.692 91.09C415.804 91.09 415.12 90.85 414.64 90.37C414.16 89.89 413.92 89.212 413.92 88.336V82.612H412.228V81.532H413.92V79.462H415.198V81.532H418.078V82.612H415.198V88.264C415.198 88.828 415.336 89.26 415.612 89.56C415.9 89.848 416.308 89.992 416.836 89.992C417.1 89.992 417.352 89.95 417.592 89.866C417.844 89.782 418.06 89.662 418.24 89.506L418.69 90.424ZM425.84 81.46C427.028 81.46 427.97 81.808 428.666 82.504C429.374 83.188 429.728 84.19 429.728 85.51V91H428.45V85.636C428.45 84.652 428.204 83.902 427.712 83.386C427.22 82.87 426.518 82.612 425.606 82.612C424.586 82.612 423.776 82.918 423.176 83.53C422.588 84.13 422.294 84.964 422.294 86.032V91H421.016V77.644H422.294V83.188C422.642 82.636 423.122 82.21 423.734 81.91C424.346 81.61 425.048 81.46 425.84 81.46ZM437.909 81.532H439.187V91H437.909V81.532ZM438.557 79.462C438.293 79.462 438.071 79.372 437.891 79.192C437.711 79.012 437.621 78.796 437.621 78.544C437.621 78.304 437.711 78.094 437.891 77.914C438.071 77.734 438.293 77.644 438.557 77.644C438.821 77.644 439.043 77.734 439.223 77.914C439.403 78.082 439.493 78.286 439.493 78.526C439.493 78.79 439.403 79.012 439.223 79.192C439.043 79.372 438.821 79.462 438.557 79.462ZM447.567 81.46C448.755 81.46 449.697 81.808 450.393 82.504C451.101 83.188 451.455 84.19 451.455 85.51V91H450.177V85.636C450.177 84.652 449.931 83.902 449.439 83.386C448.947 82.87 448.245 82.612 447.333 82.612C446.313 82.612 445.503 82.918 444.903 83.53C444.315 84.13 444.021 84.964 444.021 86.032V91H442.743V81.532H443.967V83.278C444.315 82.702 444.795 82.258 445.407 81.946C446.031 81.622 446.751 81.46 447.567 81.46ZM459.911 90.424C459.671 90.64 459.371 90.808 459.011 90.928C458.663 91.036 458.297 91.09 457.913 91.09C457.025 91.09 456.341 90.85 455.861 90.37C455.381 89.89 455.141 89.212 455.141 88.336V82.612H453.449V81.532H455.141V79.462H456.419V81.532H459.299V82.612H456.419V88.264C456.419 88.828 456.557 89.26 456.833 89.56C457.121 89.848 457.529 89.992 458.057 89.992C458.321 89.992 458.573 89.95 458.813 89.866C459.065 89.782 459.281 89.662 459.461 89.506L459.911 90.424ZM470.147 86.662H462.227C462.299 87.646 462.677 88.444 463.361 89.056C464.045 89.656 464.909 89.956 465.953 89.956C466.541 89.956 467.081 89.854 467.573 89.65C468.065 89.434 468.491 89.122 468.851 88.714L469.571 89.542C469.151 90.046 468.623 90.43 467.987 90.694C467.363 90.958 466.673 91.09 465.917 91.09C464.945 91.09 464.081 90.886 463.325 90.478C462.581 90.058 461.999 89.482 461.579 88.75C461.159 88.018 460.949 87.19 460.949 86.266C460.949 85.342 461.147 84.514 461.543 83.782C461.951 83.05 462.503 82.48 463.199 82.072C463.907 81.664 464.699 81.46 465.575 81.46C466.451 81.46 467.237 81.664 467.933 82.072C468.629 82.48 469.175 83.05 469.571 83.782C469.967 84.502 470.165 85.33 470.165 86.266L470.147 86.662ZM465.575 82.558C464.663 82.558 463.895 82.852 463.271 83.44C462.659 84.016 462.311 84.772 462.227 85.708H468.941C468.857 84.772 468.503 84.016 467.879 83.44C467.267 82.852 466.499 82.558 465.575 82.558ZM473.99 83.386C474.29 82.75 474.734 82.27 475.322 81.946C475.922 81.622 476.66 81.46 477.536 81.46V82.702L477.23 82.684C476.234 82.684 475.454 82.99 474.89 83.602C474.326 84.214 474.044 85.072 474.044 86.176V91H472.766V81.532H473.99V83.386ZM484.674 81.46C485.862 81.46 486.804 81.808 487.5 82.504C488.208 83.188 488.562 84.19 488.562 85.51V91H487.284V85.636C487.284 84.652 487.038 83.902 486.546 83.386C486.054 82.87 485.352 82.612 484.44 82.612C483.42 82.612 482.61 82.918 482.01 83.53C481.422 84.13 481.128 84.964 481.128 86.032V91H479.85V81.532H481.074V83.278C481.422 82.702 481.902 82.258 482.514 81.946C483.138 81.622 483.858 81.46 484.674 81.46ZM500.311 86.662H492.391C492.463 87.646 492.841 88.444 493.525 89.056C494.209 89.656 495.073 89.956 496.117 89.956C496.705 89.956 497.245 89.854 497.737 89.65C498.229 89.434 498.655 89.122 499.015 88.714L499.735 89.542C499.315 90.046 498.787 90.43 498.151 90.694C497.527 90.958 496.837 91.09 496.081 91.09C495.109 91.09 494.245 90.886 493.489 90.478C492.745 90.058 492.163 89.482 491.743 88.75C491.323 88.018 491.113 87.19 491.113 86.266C491.113 85.342 491.311 84.514 491.707 83.782C492.115 83.05 492.667 82.48 493.363 82.072C494.071 81.664 494.863 81.46 495.739 81.46C496.615 81.46 497.401 81.664 498.097 82.072C498.793 82.48 499.339 83.05 499.735 83.782C500.131 84.502 500.329 85.33 500.329 86.266L500.311 86.662ZM495.739 82.558C494.827 82.558 494.059 82.852 493.435 83.44C492.823 84.016 492.475 84.772 492.391 85.708H499.105C499.021 84.772 498.667 84.016 498.043 83.44C497.431 82.852 496.663 82.558 495.739 82.558ZM507.916 90.424C507.676 90.64 507.376 90.808 507.016 90.928C506.668 91.036 506.302 91.09 505.918 91.09C505.03 91.09 504.346 90.85 503.866 90.37C503.386 89.89 503.146 89.212 503.146 88.336V82.612H501.454V81.532H503.146V79.462H504.424V81.532H507.304V82.612H504.424V88.264C504.424 88.828 504.562 89.26 504.838 89.56C505.126 89.848 505.534 89.992 506.062 89.992C506.326 89.992 506.578 89.95 506.818 89.866C507.07 89.782 507.286 89.662 507.466 89.506L507.916 90.424ZM124.094 108.46C125.33 108.46 126.278 108.772 126.938 109.396C127.598 110.008 127.928 110.92 127.928 112.132V118H126.704V116.524C126.416 117.016 125.99 117.4 125.426 117.676C124.874 117.952 124.214 118.09 123.446 118.09C122.39 118.09 121.55 117.838 120.926 117.334C120.302 116.83 119.99 116.164 119.99 115.336C119.99 114.532 120.278 113.884 120.854 113.392C121.442 112.9 122.372 112.654 123.644 112.654H126.65V112.078C126.65 111.262 126.422 110.644 125.966 110.224C125.51 109.792 124.844 109.576 123.968 109.576C123.368 109.576 122.792 109.678 122.24 109.882C121.688 110.074 121.214 110.344 120.818 110.692L120.242 109.738C120.722 109.33 121.298 109.018 121.97 108.802C122.642 108.574 123.35 108.46 124.094 108.46ZM123.644 117.082C124.364 117.082 124.982 116.92 125.498 116.596C126.014 116.26 126.398 115.78 126.65 115.156V113.608H123.68C122.06 113.608 121.25 114.172 121.25 115.3C121.25 115.852 121.46 116.29 121.88 116.614C122.3 116.926 122.888 117.082 123.644 117.082ZM135.358 118.09C134.422 118.09 133.582 117.886 132.838 117.478C132.106 117.07 131.53 116.5 131.11 115.768C130.69 115.024 130.48 114.19 130.48 113.266C130.48 112.342 130.69 111.514 131.11 110.782C131.53 110.05 132.106 109.48 132.838 109.072C133.582 108.664 134.422 108.46 135.358 108.46C136.174 108.46 136.9 108.622 137.536 108.946C138.184 109.258 138.694 109.72 139.066 110.332L138.112 110.98C137.8 110.512 137.404 110.164 136.924 109.936C136.444 109.696 135.922 109.576 135.358 109.576C134.674 109.576 134.056 109.732 133.504 110.044C132.964 110.344 132.538 110.776 132.226 111.34C131.926 111.904 131.776 112.546 131.776 113.266C131.776 113.998 131.926 114.646 132.226 115.21C132.538 115.762 132.964 116.194 133.504 116.506C134.056 116.806 134.674 116.956 135.358 116.956C135.922 116.956 136.444 116.842 136.924 116.614C137.404 116.386 137.8 116.038 138.112 115.57L139.066 116.218C138.694 116.83 138.184 117.298 137.536 117.622C136.888 117.934 136.162 118.09 135.358 118.09ZM145.343 118.09C144.407 118.09 143.567 117.886 142.823 117.478C142.091 117.07 141.515 116.5 141.095 115.768C140.675 115.024 140.465 114.19 140.465 113.266C140.465 112.342 140.675 111.514 141.095 110.782C141.515 110.05 142.091 109.48 142.823 109.072C143.567 108.664 144.407 108.46 145.343 108.46C146.159 108.46 146.885 108.622 147.521 108.946C148.169 109.258 148.679 109.72 149.051 110.332L148.097 110.98C147.785 110.512 147.389 110.164 146.909 109.936C146.429 109.696 145.907 109.576 145.343 109.576C144.659 109.576 144.041 109.732 143.489 110.044C142.949 110.344 142.523 110.776 142.211 111.34C141.911 111.904 141.761 112.546 141.761 113.266C141.761 113.998 141.911 114.646 142.211 115.21C142.523 115.762 142.949 116.194 143.489 116.506C144.041 116.806 144.659 116.956 145.343 116.956C145.907 116.956 146.429 116.842 146.909 116.614C147.389 116.386 147.785 116.038 148.097 115.57L149.051 116.218C148.679 116.83 148.169 117.298 147.521 117.622C146.873 117.934 146.147 118.09 145.343 118.09ZM159.647 113.662H151.727C151.799 114.646 152.177 115.444 152.861 116.056C153.545 116.656 154.409 116.956 155.453 116.956C156.041 116.956 156.581 116.854 157.073 116.65C157.565 116.434 157.991 116.122 158.351 115.714L159.071 116.542C158.651 117.046 158.123 117.43 157.487 117.694C156.863 117.958 156.173 118.09 155.417 118.09C154.445 118.09 153.581 117.886 152.825 117.478C152.081 117.058 151.499 116.482 151.079 115.75C150.659 115.018 150.449 114.19 150.449 113.266C150.449 112.342 150.647 111.514 151.043 110.782C151.451 110.05 152.003 109.48 152.699 109.072C153.407 108.664 154.199 108.46 155.075 108.46C155.951 108.46 156.737 108.664 157.433 109.072C158.129 109.48 158.675 110.05 159.071 110.782C159.467 111.502 159.665 112.33 159.665 113.266L159.647 113.662ZM155.075 109.558C154.163 109.558 153.395 109.852 152.771 110.44C152.159 111.016 151.811 111.772 151.727 112.708H158.441C158.357 111.772 158.003 111.016 157.379 110.44C156.767 109.852 155.999 109.558 155.075 109.558ZM164.804 118.09C164.036 118.09 163.298 117.982 162.59 117.766C161.894 117.538 161.348 117.256 160.952 116.92L161.528 115.912C161.924 116.224 162.422 116.482 163.022 116.686C163.622 116.878 164.246 116.974 164.894 116.974C165.758 116.974 166.394 116.842 166.802 116.578C167.222 116.302 167.432 115.918 167.432 115.426C167.432 115.078 167.318 114.808 167.09 114.616C166.862 114.412 166.574 114.262 166.226 114.166C165.878 114.058 165.416 113.956 164.84 113.86C164.072 113.716 163.454 113.572 162.986 113.428C162.518 113.272 162.116 113.014 161.78 112.654C161.456 112.294 161.294 111.796 161.294 111.16C161.294 110.368 161.624 109.72 162.284 109.216C162.944 108.712 163.862 108.46 165.038 108.46C165.65 108.46 166.262 108.544 166.874 108.712C167.486 108.868 167.99 109.078 168.386 109.342L167.828 110.368C167.048 109.828 166.118 109.558 165.038 109.558C164.222 109.558 163.604 109.702 163.184 109.99C162.776 110.278 162.572 110.656 162.572 111.124C162.572 111.484 162.686 111.772 162.914 111.988C163.154 112.204 163.448 112.366 163.796 112.474C164.144 112.57 164.624 112.672 165.236 112.78C165.992 112.924 166.598 113.068 167.054 113.212C167.51 113.356 167.9 113.602 168.224 113.95C168.548 114.298 168.71 114.778 168.71 115.39C168.71 116.218 168.362 116.878 167.666 117.37C166.982 117.85 166.028 118.09 164.804 118.09ZM173.611 118.09C172.843 118.09 172.105 117.982 171.397 117.766C170.701 117.538 170.155 117.256 169.759 116.92L170.335 115.912C170.731 116.224 171.229 116.482 171.829 116.686C172.429 116.878 173.053 116.974 173.701 116.974C174.565 116.974 175.201 116.842 175.609 116.578C176.029 116.302 176.239 115.918 176.239 115.426C176.239 115.078 176.125 114.808 175.897 114.616C175.669 114.412 175.381 114.262 175.033 114.166C174.685 114.058 174.223 113.956 173.647 113.86C172.879 113.716 172.261 113.572 171.793 113.428C171.325 113.272 170.923 113.014 170.587 112.654C170.263 112.294 170.101 111.796 170.101 111.16C170.101 110.368 170.431 109.72 171.091 109.216C171.751 108.712 172.669 108.46 173.845 108.46C174.457 108.46 175.069 108.544 175.681 108.712C176.293 108.868 176.797 109.078 177.193 109.342L176.635 110.368C175.855 109.828 174.925 109.558 173.845 109.558C173.029 109.558 172.411 109.702 171.991 109.99C171.583 110.278 171.379 110.656 171.379 111.124C171.379 111.484 171.493 111.772 171.721 111.988C171.961 112.204 172.255 112.366 172.603 112.474C172.951 112.57 173.431 112.672 174.043 112.78C174.799 112.924 175.405 113.068 175.861 113.212C176.317 113.356 176.707 113.602 177.031 113.95C177.355 114.298 177.517 114.778 177.517 115.39C177.517 116.218 177.169 116.878 176.473 117.37C175.789 117.85 174.835 118.09 173.611 118.09ZM179.682 105.4H181.194L180.924 114.22H179.934L179.682 105.4ZM180.438 118.09C180.174 118.09 179.946 118 179.754 117.82C179.574 117.628 179.484 117.406 179.484 117.154C179.484 116.89 179.574 116.674 179.754 116.506C179.934 116.326 180.162 116.236 180.438 116.236C180.702 116.236 180.924 116.326 181.104 116.506C181.284 116.674 181.374 116.89 181.374 117.154C181.374 117.406 181.284 117.628 181.104 117.82C180.924 118 180.702 118.09 180.438 118.09ZM198.41 111.7H199.688V116.506C199.1 117.022 198.404 117.418 197.6 117.694C196.796 117.97 195.95 118.108 195.062 118.108C193.802 118.108 192.668 117.832 191.66 117.28C190.652 116.728 189.86 115.966 189.284 114.994C188.708 114.01 188.42 112.912 188.42 111.7C188.42 110.488 188.708 109.396 189.284 108.424C189.86 107.44 190.652 106.672 191.66 106.12C192.668 105.568 193.808 105.292 195.08 105.292C196.04 105.292 196.922 105.448 197.726 105.76C198.53 106.06 199.208 106.51 199.76 107.11L198.932 107.956C197.936 106.972 196.67 106.48 195.134 106.48C194.114 106.48 193.19 106.708 192.362 107.164C191.546 107.608 190.904 108.232 190.436 109.036C189.968 109.828 189.734 110.716 189.734 111.7C189.734 112.684 189.968 113.572 190.436 114.364C190.904 115.156 191.546 115.78 192.362 116.236C193.178 116.692 194.096 116.92 195.116 116.92C196.412 116.92 197.51 116.596 198.41 115.948V111.7ZM203.188 108.532H204.466V118H203.188V108.532ZM203.836 106.462C203.572 106.462 203.35 106.372 203.17 106.192C202.99 106.012 202.9 105.796 202.9 105.544C202.9 105.304 202.99 105.094 203.17 104.914C203.35 104.734 203.572 104.644 203.836 104.644C204.1 104.644 204.322 104.734 204.502 104.914C204.682 105.082 204.772 105.286 204.772 105.526C204.772 105.79 204.682 106.012 204.502 106.192C204.322 106.372 204.1 106.462 203.836 106.462ZM216.788 108.532V116.848C216.788 118.456 216.392 119.644 215.6 120.412C214.82 121.192 213.638 121.582 212.054 121.582C211.178 121.582 210.344 121.45 209.552 121.186C208.772 120.934 208.136 120.58 207.644 120.124L208.292 119.152C208.748 119.56 209.3 119.878 209.948 120.106C210.608 120.334 211.298 120.448 212.018 120.448C213.218 120.448 214.1 120.166 214.664 119.602C215.228 119.05 215.51 118.186 215.51 117.01V115.804C215.114 116.404 214.592 116.86 213.944 117.172C213.308 117.484 212.6 117.64 211.82 117.64C210.932 117.64 210.122 117.448 209.39 117.064C208.67 116.668 208.1 116.122 207.68 115.426C207.272 114.718 207.068 113.92 207.068 113.032C207.068 112.144 207.272 111.352 207.68 110.656C208.1 109.96 208.67 109.42 209.39 109.036C210.11 108.652 210.92 108.46 211.82 108.46C212.624 108.46 213.35 108.622 213.998 108.946C214.646 109.27 215.168 109.738 215.564 110.35V108.532H216.788ZM211.946 116.506C212.63 116.506 213.248 116.362 213.8 116.074C214.352 115.774 214.778 115.36 215.078 114.832C215.39 114.304 215.546 113.704 215.546 113.032C215.546 112.36 215.39 111.766 215.078 111.25C214.778 110.722 214.352 110.314 213.8 110.026C213.26 109.726 212.642 109.576 211.946 109.576C211.262 109.576 210.644 109.72 210.092 110.008C209.552 110.296 209.126 110.704 208.814 111.232C208.514 111.76 208.364 112.36 208.364 113.032C208.364 113.704 208.514 114.304 208.814 114.832C209.126 115.36 209.552 115.774 210.092 116.074C210.644 116.362 211.262 116.506 211.946 116.506ZM223.674 108.46C224.91 108.46 225.858 108.772 226.518 109.396C227.178 110.008 227.508 110.92 227.508 112.132V118H226.284V116.524C225.996 117.016 225.57 117.4 225.006 117.676C224.454 117.952 223.794 118.09 223.026 118.09C221.97 118.09 221.13 117.838 220.506 117.334C219.882 116.83 219.57 116.164 219.57 115.336C219.57 114.532 219.858 113.884 220.434 113.392C221.022 112.9 221.952 112.654 223.224 112.654H226.23V112.078C226.23 111.262 226.002 110.644 225.546 110.224C225.09 109.792 224.424 109.576 223.548 109.576C222.948 109.576 222.372 109.678 221.82 109.882C221.268 110.074 220.794 110.344 220.398 110.692L219.822 109.738C220.302 109.33 220.878 109.018 221.55 108.802C222.222 108.574 222.93 108.46 223.674 108.46ZM223.224 117.082C223.944 117.082 224.562 116.92 225.078 116.596C225.594 116.26 225.978 115.78 226.23 115.156V113.608H223.26C221.64 113.608 220.83 114.172 220.83 115.3C220.83 115.852 221.04 116.29 221.46 116.614C221.88 116.926 222.468 117.082 223.224 117.082ZM235.857 108.46C236.745 108.46 237.549 108.664 238.269 109.072C238.989 109.468 239.553 110.032 239.961 110.764C240.369 111.496 240.573 112.33 240.573 113.266C240.573 114.202 240.369 115.036 239.961 115.768C239.553 116.5 238.989 117.07 238.269 117.478C237.549 117.886 236.745 118.09 235.857 118.09C235.065 118.09 234.351 117.922 233.715 117.586C233.091 117.25 232.587 116.764 232.203 116.128V118H230.979V104.644H232.257V110.332C232.653 109.72 233.157 109.258 233.769 108.946C234.393 108.622 235.089 108.46 235.857 108.46ZM235.767 116.956C236.427 116.956 237.027 116.806 237.567 116.506C238.107 116.194 238.527 115.756 238.827 115.192C239.139 114.628 239.295 113.986 239.295 113.266C239.295 112.546 239.139 111.904 238.827 111.34C238.527 110.776 238.107 110.344 237.567 110.044C237.027 109.732 236.427 109.576 235.767 109.576C235.095 109.576 234.489 109.732 233.949 110.044C233.421 110.344 233.001 110.776 232.689 111.34C232.389 111.904 232.239 112.546 232.239 113.266C232.239 113.986 232.389 114.628 232.689 115.192C233.001 115.756 233.421 116.194 233.949 116.506C234.489 116.806 235.095 116.956 235.767 116.956ZM243.178 108.532H244.456V118H243.178V108.532ZM243.826 106.462C243.562 106.462 243.34 106.372 243.16 106.192C242.98 106.012 242.89 105.796 242.89 105.544C242.89 105.304 242.98 105.094 243.16 104.914C243.34 104.734 243.562 104.644 243.826 104.644C244.09 104.644 244.312 104.734 244.492 104.914C244.672 105.082 244.762 105.286 244.762 105.526C244.762 105.79 244.672 106.012 244.492 106.192C244.312 106.372 244.09 106.462 243.826 106.462ZM252.998 117.424C252.758 117.64 252.458 117.808 252.098 117.928C251.75 118.036 251.384 118.09 251 118.09C250.112 118.09 249.428 117.85 248.948 117.37C248.468 116.89 248.228 116.212 248.228 115.336V109.612H246.536V108.532H248.228V106.462H249.506V108.532H252.386V109.612H249.506V115.264C249.506 115.828 249.644 116.26 249.92 116.56C250.208 116.848 250.616 116.992 251.144 116.992C251.408 116.992 251.66 116.95 251.9 116.866C252.152 116.782 252.368 116.662 252.548 116.506L252.998 117.424ZM264.86 108.46C266.048 108.46 266.99 108.808 267.686 109.504C268.394 110.188 268.748 111.19 268.748 112.51V118H267.47V112.636C267.47 111.652 267.224 110.902 266.732 110.386C266.24 109.87 265.538 109.612 264.626 109.612C263.606 109.612 262.796 109.918 262.196 110.53C261.608 111.13 261.314 111.964 261.314 113.032V118H260.036V108.532H261.26V110.278C261.608 109.702 262.088 109.258 262.7 108.946C263.324 108.622 264.044 108.46 264.86 108.46ZM280.497 113.662H272.577C272.649 114.646 273.027 115.444 273.711 116.056C274.395 116.656 275.259 116.956 276.303 116.956C276.891 116.956 277.431 116.854 277.923 116.65C278.415 116.434 278.841 116.122 279.201 115.714L279.921 116.542C279.501 117.046 278.973 117.43 278.337 117.694C277.713 117.958 277.023 118.09 276.267 118.09C275.295 118.09 274.431 117.886 273.675 117.478C272.931 117.058 272.349 116.482 271.929 115.75C271.509 115.018 271.299 114.19 271.299 113.266C271.299 112.342 271.497 111.514 271.893 110.782C272.301 110.05 272.853 109.48 273.549 109.072C274.257 108.664 275.049 108.46 275.925 108.46C276.801 108.46 277.587 108.664 278.283 109.072C278.979 109.48 279.525 110.05 279.921 110.782C280.317 111.502 280.515 112.33 280.515 113.266L280.497 113.662ZM275.925 109.558C275.013 109.558 274.245 109.852 273.621 110.44C273.009 111.016 272.661 111.772 272.577 112.708H279.291C279.207 111.772 278.853 111.016 278.229 110.44C277.617 109.852 276.849 109.558 275.925 109.558ZM288.102 117.424C287.862 117.64 287.562 117.808 287.202 117.928C286.854 118.036 286.488 118.09 286.104 118.09C285.216 118.09 284.532 117.85 284.052 117.37C283.572 116.89 283.332 116.212 283.332 115.336V109.612H281.64V108.532H283.332V106.462H284.61V108.532H287.49V109.612H284.61V115.264C284.61 115.828 284.748 116.26 285.024 116.56C285.312 116.848 285.72 116.992 286.248 116.992C286.512 116.992 286.764 116.95 287.004 116.866C287.256 116.782 287.472 116.662 287.652 116.506L288.102 117.424ZM304.149 108.532L300.567 118H299.361L296.373 110.242L293.385 118H292.179L288.615 108.532H289.839L292.809 116.578L295.851 108.532H296.949L299.973 116.578L302.979 108.532H304.149ZM309.679 118.09C308.767 118.09 307.945 117.886 307.213 117.478C306.481 117.058 305.905 116.482 305.485 115.75C305.065 115.018 304.855 114.19 304.855 113.266C304.855 112.342 305.065 111.514 305.485 110.782C305.905 110.05 306.481 109.48 307.213 109.072C307.945 108.664 308.767 108.46 309.679 108.46C310.591 108.46 311.413 108.664 312.145 109.072C312.877 109.48 313.447 110.05 313.855 110.782C314.275 111.514 314.485 112.342 314.485 113.266C314.485 114.19 314.275 115.018 313.855 115.75C313.447 116.482 312.877 117.058 312.145 117.478C311.413 117.886 310.591 118.09 309.679 118.09ZM309.679 116.956C310.351 116.956 310.951 116.806 311.479 116.506C312.019 116.194 312.439 115.756 312.739 115.192C313.039 114.628 313.189 113.986 313.189 113.266C313.189 112.546 313.039 111.904 312.739 111.34C312.439 110.776 312.019 110.344 311.479 110.044C310.951 109.732 310.351 109.576 309.679 109.576C309.007 109.576 308.401 109.732 307.861 110.044C307.333 110.344 306.913 110.776 306.601 111.34C306.301 111.904 306.151 112.546 306.151 113.266C306.151 113.986 306.301 114.628 306.601 115.192C306.913 115.756 307.333 116.194 307.861 116.506C308.401 116.806 309.007 116.956 309.679 116.956ZM318.319 110.386C318.619 109.75 319.063 109.27 319.651 108.946C320.251 108.622 320.989 108.46 321.865 108.46V109.702L321.559 109.684C320.562 109.684 319.783 109.99 319.219 110.602C318.655 111.214 318.373 112.072 318.373 113.176V118H317.095V108.532H318.319V110.386ZM327.688 113.248L325.456 115.3V118H324.178V104.644H325.456V113.698L331.108 108.532H332.692L328.642 112.402L333.07 118H331.504L327.688 113.248ZM334.848 108.532H336.126V118H334.848V108.532ZM335.496 106.462C335.232 106.462 335.01 106.372 334.83 106.192C334.65 106.012 334.56 105.796 334.56 105.544C334.56 105.304 334.65 105.094 334.83 104.914C335.01 104.734 335.232 104.644 335.496 104.644C335.76 104.644 335.982 104.734 336.162 104.914C336.342 105.082 336.432 105.286 336.432 105.526C336.432 105.79 336.342 106.012 336.162 106.192C335.982 106.372 335.76 106.462 335.496 106.462ZM344.506 108.46C345.694 108.46 346.636 108.808 347.332 109.504C348.04 110.188 348.394 111.19 348.394 112.51V118H347.116V112.636C347.116 111.652 346.87 110.902 346.378 110.386C345.886 109.87 345.184 109.612 344.272 109.612C343.252 109.612 342.442 109.918 341.842 110.53C341.254 111.13 340.96 111.964 340.96 113.032V118H339.682V108.532H340.906V110.278C341.254 109.702 341.734 109.258 342.346 108.946C342.97 108.622 343.69 108.46 344.506 108.46ZM360.665 108.532V116.848C360.665 118.456 360.269 119.644 359.477 120.412C358.697 121.192 357.515 121.582 355.931 121.582C355.055 121.582 354.221 121.45 353.429 121.186C352.649 120.934 352.013 120.58 351.521 120.124L352.169 119.152C352.625 119.56 353.177 119.878 353.825 120.106C354.485 120.334 355.175 120.448 355.895 120.448C357.095 120.448 357.977 120.166 358.541 119.602C359.105 119.05 359.387 118.186 359.387 117.01V115.804C358.991 116.404 358.469 116.86 357.821 117.172C357.185 117.484 356.477 117.64 355.697 117.64C354.809 117.64 353.999 117.448 353.267 117.064C352.547 116.668 351.977 116.122 351.557 115.426C351.149 114.718 350.945 113.92 350.945 113.032C350.945 112.144 351.149 111.352 351.557 110.656C351.977 109.96 352.547 109.42 353.267 109.036C353.987 108.652 354.797 108.46 355.697 108.46C356.501 108.46 357.227 108.622 357.875 108.946C358.523 109.27 359.045 109.738 359.441 110.35V108.532H360.665ZM355.823 116.506C356.507 116.506 357.125 116.362 357.677 116.074C358.229 115.774 358.655 115.36 358.955 114.832C359.267 114.304 359.423 113.704 359.423 113.032C359.423 112.36 359.267 111.766 358.955 111.25C358.655 110.722 358.229 110.314 357.677 110.026C357.137 109.726 356.519 109.576 355.823 109.576C355.139 109.576 354.521 109.72 353.969 110.008C353.429 110.296 353.003 110.704 352.691 111.232C352.391 111.76 352.241 112.36 352.241 113.032C352.241 113.704 352.391 114.304 352.691 114.832C353.003 115.36 353.429 115.774 353.969 116.074C354.521 116.362 355.139 116.506 355.823 116.506ZM372.262 108.46C373.498 108.46 374.446 108.772 375.106 109.396C375.766 110.008 376.096 110.92 376.096 112.132V118H374.872V116.524C374.584 117.016 374.158 117.4 373.594 117.676C373.042 117.952 372.382 118.09 371.614 118.09C370.558 118.09 369.718 117.838 369.094 117.334C368.47 116.83 368.158 116.164 368.158 115.336C368.158 114.532 368.446 113.884 369.022 113.392C369.61 112.9 370.54 112.654 371.812 112.654H374.818V112.078C374.818 111.262 374.59 110.644 374.134 110.224C373.678 109.792 373.012 109.576 372.136 109.576C371.536 109.576 370.96 109.678 370.408 109.882C369.856 110.074 369.382 110.344 368.986 110.692L368.41 109.738C368.89 109.33 369.466 109.018 370.138 108.802C370.81 108.574 371.518 108.46 372.262 108.46ZM371.812 117.082C372.532 117.082 373.15 116.92 373.666 116.596C374.182 116.26 374.566 115.78 374.818 115.156V113.608H371.848C370.228 113.608 369.418 114.172 369.418 115.3C369.418 115.852 369.628 116.29 370.048 116.614C370.468 116.926 371.056 117.082 371.812 117.082ZM384.391 108.46C385.579 108.46 386.521 108.808 387.217 109.504C387.925 110.188 388.279 111.19 388.279 112.51V118H387.001V112.636C387.001 111.652 386.755 110.902 386.263 110.386C385.771 109.87 385.069 109.612 384.157 109.612C383.137 109.612 382.327 109.918 381.727 110.53C381.139 111.13 380.845 111.964 380.845 113.032V118H379.567V108.532H380.791V110.278C381.139 109.702 381.619 109.258 382.231 108.946C382.855 108.622 383.575 108.46 384.391 108.46ZM400.424 104.644V118H399.2V116.128C398.816 116.764 398.306 117.25 397.67 117.586C397.046 117.922 396.338 118.09 395.546 118.09C394.658 118.09 393.854 117.886 393.134 117.478C392.414 117.07 391.85 116.5 391.442 115.768C391.034 115.036 390.83 114.202 390.83 113.266C390.83 112.33 391.034 111.496 391.442 110.764C391.85 110.032 392.414 109.468 393.134 109.072C393.854 108.664 394.658 108.46 395.546 108.46C396.314 108.46 397.004 108.622 397.616 108.946C398.24 109.258 398.75 109.72 399.146 110.332V104.644H400.424ZM395.654 116.956C396.314 116.956 396.908 116.806 397.436 116.506C397.976 116.194 398.396 115.756 398.696 115.192C399.008 114.628 399.164 113.986 399.164 113.266C399.164 112.546 399.008 111.904 398.696 111.34C398.396 110.776 397.976 110.344 397.436 110.044C396.908 109.732 396.314 109.576 395.654 109.576C394.982 109.576 394.376 109.732 393.836 110.044C393.308 110.344 392.888 110.776 392.576 111.34C392.276 111.904 392.126 112.546 392.126 113.266C392.126 113.986 392.276 114.628 392.576 115.192C392.888 115.756 393.308 116.194 393.836 116.506C394.376 116.806 394.982 116.956 395.654 116.956ZM413.518 108.46C414.706 108.46 415.648 108.808 416.344 109.504C417.052 110.188 417.406 111.19 417.406 112.51V118H416.128V112.636C416.128 111.652 415.882 110.902 415.39 110.386C414.898 109.87 414.196 109.612 413.284 109.612C412.264 109.612 411.454 109.918 410.854 110.53C410.266 111.13 409.972 111.964 409.972 113.032V118H408.694V104.644H409.972V110.188C410.32 109.636 410.8 109.21 411.412 108.91C412.024 108.61 412.726 108.46 413.518 108.46ZM420.876 108.532H422.154V118H420.876V108.532ZM421.524 106.462C421.26 106.462 421.038 106.372 420.858 106.192C420.678 106.012 420.588 105.796 420.588 105.544C420.588 105.304 420.678 105.094 420.858 104.914C421.038 104.734 421.26 104.644 421.524 104.644C421.788 104.644 422.01 104.734 422.19 104.914C422.37 105.082 422.46 105.286 422.46 105.526C422.46 105.79 422.37 106.012 422.19 106.192C422.01 106.372 421.788 106.462 421.524 106.462ZM434.476 108.532V116.848C434.476 118.456 434.08 119.644 433.288 120.412C432.508 121.192 431.326 121.582 429.742 121.582C428.866 121.582 428.032 121.45 427.24 121.186C426.46 120.934 425.824 120.58 425.332 120.124L425.98 119.152C426.436 119.56 426.988 119.878 427.636 120.106C428.296 120.334 428.986 120.448 429.706 120.448C430.906 120.448 431.788 120.166 432.352 119.602C432.916 119.05 433.198 118.186 433.198 117.01V115.804C432.802 116.404 432.28 116.86 431.632 117.172C430.996 117.484 430.288 117.64 429.508 117.64C428.62 117.64 427.81 117.448 427.078 117.064C426.358 116.668 425.788 116.122 425.368 115.426C424.96 114.718 424.756 113.92 424.756 113.032C424.756 112.144 424.96 111.352 425.368 110.656C425.788 109.96 426.358 109.42 427.078 109.036C427.798 108.652 428.608 108.46 429.508 108.46C430.312 108.46 431.038 108.622 431.686 108.946C432.334 109.27 432.856 109.738 433.252 110.35V108.532H434.476ZM429.634 116.506C430.318 116.506 430.936 116.362 431.488 116.074C432.04 115.774 432.466 115.36 432.766 114.832C433.078 114.304 433.234 113.704 433.234 113.032C433.234 112.36 433.078 111.766 432.766 111.25C432.466 110.722 432.04 110.314 431.488 110.026C430.948 109.726 430.33 109.576 429.634 109.576C428.95 109.576 428.332 109.72 427.78 110.008C427.24 110.296 426.814 110.704 426.502 111.232C426.202 111.76 426.052 112.36 426.052 113.032C426.052 113.704 426.202 114.304 426.502 114.832C426.814 115.36 427.24 115.774 427.78 116.074C428.332 116.362 428.95 116.506 429.634 116.506ZM442.874 108.46C444.062 108.46 445.004 108.808 445.7 109.504C446.408 110.188 446.762 111.19 446.762 112.51V118H445.484V112.636C445.484 111.652 445.238 110.902 444.746 110.386C444.254 109.87 443.552 109.612 442.64 109.612C441.62 109.612 440.81 109.918 440.21 110.53C439.622 111.13 439.328 111.964 439.328 113.032V118H438.05V104.644H439.328V110.188C439.676 109.636 440.156 109.21 440.768 108.91C441.38 108.61 442.082 108.46 442.874 108.46ZM449.529 112.564H454.245V113.68H449.529V112.564ZM125.66 135.46C126.548 135.46 127.352 135.664 128.072 136.072C128.792 136.468 129.356 137.032 129.764 137.764C130.172 138.496 130.376 139.33 130.376 140.266C130.376 141.214 130.172 142.054 129.764 142.786C129.356 143.518 128.792 144.088 128.072 144.496C127.364 144.892 126.56 145.09 125.66 145.09C124.892 145.09 124.196 144.934 123.572 144.622C122.96 144.298 122.456 143.83 122.06 143.218V148.492H120.782V135.532H122.006V137.404C122.39 136.78 122.894 136.3 123.518 135.964C124.154 135.628 124.868 135.46 125.66 135.46ZM125.57 143.956C126.23 143.956 126.83 143.806 127.37 143.506C127.91 143.194 128.33 142.756 128.63 142.192C128.942 141.628 129.098 140.986 129.098 140.266C129.098 139.546 128.942 138.91 128.63 138.358C128.33 137.794 127.91 137.356 127.37 137.044C126.83 136.732 126.23 136.576 125.57 136.576C124.898 136.576 124.292 136.732 123.752 137.044C123.224 137.356 122.804 137.794 122.492 138.358C122.192 138.91 122.042 139.546 122.042 140.266C122.042 140.986 122.192 141.628 122.492 142.192C122.804 142.756 123.224 143.194 123.752 143.506C124.292 143.806 124.898 143.956 125.57 143.956ZM141.225 140.662H133.305C133.377 141.646 133.755 142.444 134.439 143.056C135.123 143.656 135.987 143.956 137.031 143.956C137.619 143.956 138.159 143.854 138.651 143.65C139.143 143.434 139.569 143.122 139.929 142.714L140.649 143.542C140.229 144.046 139.701 144.43 139.065 144.694C138.441 144.958 137.751 145.09 136.995 145.09C136.023 145.09 135.159 144.886 134.403 144.478C133.659 144.058 133.077 143.482 132.657 142.75C132.237 142.018 132.027 141.19 132.027 140.266C132.027 139.342 132.225 138.514 132.621 137.782C133.029 137.05 133.581 136.48 134.277 136.072C134.985 135.664 135.777 135.46 136.653 135.46C137.529 135.46 138.315 135.664 139.011 136.072C139.707 136.48 140.253 137.05 140.649 137.782C141.045 138.502 141.243 139.33 141.243 140.266L141.225 140.662ZM136.653 136.558C135.741 136.558 134.973 136.852 134.349 137.44C133.737 138.016 133.389 138.772 133.305 139.708H140.019C139.935 138.772 139.581 138.016 138.957 137.44C138.345 136.852 137.577 136.558 136.653 136.558ZM145.069 137.386C145.369 136.75 145.813 136.27 146.401 135.946C147.001 135.622 147.739 135.46 148.615 135.46V136.702L148.309 136.684C147.312 136.684 146.533 136.99 145.969 137.602C145.405 138.214 145.123 139.072 145.123 140.176V145H143.845V135.532H145.069V137.386ZM154.201 132.634C153.649 132.634 153.229 132.784 152.941 133.084C152.665 133.384 152.527 133.828 152.527 134.416V135.532H155.443V136.612H152.563V145H151.285V136.612H149.593V135.532H151.285V134.362C151.285 133.498 151.531 132.814 152.023 132.31C152.527 131.806 153.235 131.554 154.147 131.554C154.507 131.554 154.855 131.608 155.191 131.716C155.527 131.812 155.809 131.956 156.037 132.148L155.605 133.102C155.233 132.79 154.765 132.634 154.201 132.634ZM160.881 145.09C159.969 145.09 159.147 144.886 158.415 144.478C157.683 144.058 157.107 143.482 156.687 142.75C156.267 142.018 156.057 141.19 156.057 140.266C156.057 139.342 156.267 138.514 156.687 137.782C157.107 137.05 157.683 136.48 158.415 136.072C159.147 135.664 159.969 135.46 160.881 135.46C161.793 135.46 162.615 135.664 163.347 136.072C164.079 136.48 164.649 137.05 165.057 137.782C165.477 138.514 165.687 139.342 165.687 140.266C165.687 141.19 165.477 142.018 165.057 142.75C164.649 143.482 164.079 144.058 163.347 144.478C162.615 144.886 161.793 145.09 160.881 145.09ZM160.881 143.956C161.553 143.956 162.153 143.806 162.681 143.506C163.221 143.194 163.641 142.756 163.941 142.192C164.241 141.628 164.391 140.986 164.391 140.266C164.391 139.546 164.241 138.904 163.941 138.34C163.641 137.776 163.221 137.344 162.681 137.044C162.153 136.732 161.553 136.576 160.881 136.576C160.209 136.576 159.603 136.732 159.063 137.044C158.535 137.344 158.115 137.776 157.803 138.34C157.503 138.904 157.353 139.546 157.353 140.266C157.353 140.986 157.503 141.628 157.803 142.192C158.115 142.756 158.535 143.194 159.063 143.506C159.603 143.806 160.209 143.956 160.881 143.956ZM169.52 137.386C169.82 136.75 170.264 136.27 170.852 135.946C171.452 135.622 172.19 135.46 173.066 135.46V136.702L172.76 136.684C171.764 136.684 170.984 136.99 170.42 137.602C169.856 138.214 169.574 139.072 169.574 140.176V145H168.296V135.532H169.52V137.386ZM187.188 135.46C188.376 135.46 189.306 135.802 189.978 136.486C190.662 137.17 191.004 138.178 191.004 139.51V145H189.726V139.636C189.726 138.652 189.486 137.902 189.006 137.386C188.538 136.87 187.872 136.612 187.008 136.612C186.024 136.612 185.25 136.918 184.686 137.53C184.122 138.13 183.84 138.964 183.84 140.032V145H182.562V139.636C182.562 138.652 182.322 137.902 181.842 137.386C181.374 136.87 180.702 136.612 179.826 136.612C178.854 136.612 178.08 136.918 177.504 137.53C176.94 138.13 176.658 138.964 176.658 140.032V145H175.38V135.532H176.604V137.26C176.94 136.684 177.408 136.24 178.008 135.928C178.608 135.616 179.298 135.46 180.078 135.46C180.87 135.46 181.554 135.628 182.13 135.964C182.718 136.3 183.156 136.798 183.444 137.458C183.792 136.834 184.29 136.348 184.938 136C185.598 135.64 186.348 135.46 187.188 135.46ZM197.782 135.46C199.018 135.46 199.966 135.772 200.626 136.396C201.286 137.008 201.616 137.92 201.616 139.132V145H200.392V143.524C200.104 144.016 199.678 144.4 199.114 144.676C198.562 144.952 197.902 145.09 197.134 145.09C196.078 145.09 195.238 144.838 194.614 144.334C193.99 143.83 193.678 143.164 193.678 142.336C193.678 141.532 193.966 140.884 194.542 140.392C195.13 139.9 196.06 139.654 197.332 139.654H200.338V139.078C200.338 138.262 200.11 137.644 199.654 137.224C199.198 136.792 198.532 136.576 197.656 136.576C197.056 136.576 196.48 136.678 195.928 136.882C195.376 137.074 194.902 137.344 194.506 137.692L193.93 136.738C194.41 136.33 194.986 136.018 195.658 135.802C196.33 135.574 197.038 135.46 197.782 135.46ZM197.332 144.082C198.052 144.082 198.67 143.92 199.186 143.596C199.702 143.26 200.086 142.78 200.338 142.156V140.608H197.368C195.748 140.608 194.938 141.172 194.938 142.3C194.938 142.852 195.148 143.29 195.568 143.614C195.988 143.926 196.576 144.082 197.332 144.082ZM209.911 135.46C211.099 135.46 212.041 135.808 212.737 136.504C213.445 137.188 213.799 138.19 213.799 139.51V145H212.521V139.636C212.521 138.652 212.275 137.902 211.783 137.386C211.291 136.87 210.589 136.612 209.677 136.612C208.657 136.612 207.847 136.918 207.247 137.53C206.659 138.13 206.365 138.964 206.365 140.032V145H205.087V135.532H206.311V137.278C206.659 136.702 207.139 136.258 207.751 135.946C208.375 135.622 209.095 135.46 209.911 135.46ZM221.227 145.09C220.291 145.09 219.451 144.886 218.707 144.478C217.975 144.07 217.399 143.5 216.979 142.768C216.559 142.024 216.349 141.19 216.349 140.266C216.349 139.342 216.559 138.514 216.979 137.782C217.399 137.05 217.975 136.48 218.707 136.072C219.451 135.664 220.291 135.46 221.227 135.46C222.043 135.46 222.769 135.622 223.405 135.946C224.053 136.258 224.563 136.72 224.935 137.332L223.981 137.98C223.669 137.512 223.273 137.164 222.793 136.936C222.313 136.696 221.791 136.576 221.227 136.576C220.543 136.576 219.925 136.732 219.373 137.044C218.833 137.344 218.407 137.776 218.095 138.34C217.795 138.904 217.645 139.546 217.645 140.266C217.645 140.998 217.795 141.646 218.095 142.21C218.407 142.762 218.833 143.194 219.373 143.506C219.925 143.806 220.543 143.956 221.227 143.956C221.791 143.956 222.313 143.842 222.793 143.614C223.273 143.386 223.669 143.038 223.981 142.57L224.935 143.218C224.563 143.83 224.053 144.298 223.405 144.622C222.757 144.934 222.031 145.09 221.227 145.09ZM235.532 140.662H227.612C227.684 141.646 228.062 142.444 228.746 143.056C229.43 143.656 230.294 143.956 231.338 143.956C231.926 143.956 232.466 143.854 232.958 143.65C233.45 143.434 233.876 143.122 234.236 142.714L234.956 143.542C234.536 144.046 234.008 144.43 233.372 144.694C232.748 144.958 232.058 145.09 231.302 145.09C230.33 145.09 229.466 144.886 228.71 144.478C227.966 144.058 227.384 143.482 226.964 142.75C226.544 142.018 226.334 141.19 226.334 140.266C226.334 139.342 226.532 138.514 226.928 137.782C227.336 137.05 227.888 136.48 228.584 136.072C229.292 135.664 230.084 135.46 230.96 135.46C231.836 135.46 232.622 135.664 233.318 136.072C234.014 136.48 234.56 137.05 234.956 137.782C235.352 138.502 235.55 139.33 235.55 140.266L235.532 140.662ZM230.96 136.558C230.048 136.558 229.28 136.852 228.656 137.44C228.044 138.016 227.696 138.772 227.612 139.708H234.326C234.242 138.772 233.888 138.016 233.264 137.44C232.652 136.852 231.884 136.558 230.96 136.558ZM245.4 145.09C244.632 145.09 243.894 144.982 243.186 144.766C242.49 144.538 241.944 144.256 241.548 143.92L242.124 142.912C242.52 143.224 243.018 143.482 243.618 143.686C244.218 143.878 244.842 143.974 245.49 143.974C246.354 143.974 246.99 143.842 247.398 143.578C247.818 143.302 248.028 142.918 248.028 142.426C248.028 142.078 247.914 141.808 247.686 141.616C247.458 141.412 247.17 141.262 246.822 141.166C246.474 141.058 246.012 140.956 245.436 140.86C244.668 140.716 244.05 140.572 243.582 140.428C243.114 140.272 242.712 140.014 242.376 139.654C242.052 139.294 241.89 138.796 241.89 138.16C241.89 137.368 242.22 136.72 242.88 136.216C243.54 135.712 244.458 135.46 245.634 135.46C246.246 135.46 246.858 135.544 247.47 135.712C248.082 135.868 248.586 136.078 248.982 136.342L248.424 137.368C247.644 136.828 246.714 136.558 245.634 136.558C244.818 136.558 244.2 136.702 243.78 136.99C243.372 137.278 243.168 137.656 243.168 138.124C243.168 138.484 243.282 138.772 243.51 138.988C243.75 139.204 244.044 139.366 244.392 139.474C244.74 139.57 245.22 139.672 245.832 139.78C246.588 139.924 247.194 140.068 247.65 140.212C248.106 140.356 248.496 140.602 248.82 140.95C249.144 141.298 249.306 141.778 249.306 142.39C249.306 143.218 248.958 143.878 248.262 144.37C247.578 144.85 246.624 145.09 245.4 145.09ZM259.913 140.662H251.993C252.065 141.646 252.443 142.444 253.127 143.056C253.811 143.656 254.675 143.956 255.719 143.956C256.307 143.956 256.847 143.854 257.339 143.65C257.831 143.434 258.257 143.122 258.617 142.714L259.337 143.542C258.917 144.046 258.389 144.43 257.753 144.694C257.129 144.958 256.439 145.09 255.683 145.09C254.711 145.09 253.847 144.886 253.091 144.478C252.347 144.058 251.765 143.482 251.345 142.75C250.925 142.018 250.715 141.19 250.715 140.266C250.715 139.342 250.913 138.514 251.309 137.782C251.717 137.05 252.269 136.48 252.965 136.072C253.673 135.664 254.465 135.46 255.341 135.46C256.217 135.46 257.003 135.664 257.699 136.072C258.395 136.48 258.941 137.05 259.337 137.782C259.733 138.502 259.931 139.33 259.931 140.266L259.913 140.662ZM255.341 136.558C254.429 136.558 253.661 136.852 253.037 137.44C252.425 138.016 252.077 138.772 251.993 139.708H258.707C258.623 138.772 258.269 138.016 257.645 137.44C257.033 136.852 256.265 136.558 255.341 136.558ZM263.756 137.386C264.056 136.75 264.5 136.27 265.088 135.946C265.688 135.622 266.426 135.46 267.302 135.46V136.702L266.996 136.684C266 136.684 265.22 136.99 264.656 137.602C264.092 138.214 263.81 139.072 263.81 140.176V145H262.532V135.532H263.756V137.386ZM277.976 135.532L273.764 145H272.45L268.256 135.532H269.588L273.134 143.596L276.716 135.532H277.976ZM287.756 140.662H279.836C279.908 141.646 280.286 142.444 280.97 143.056C281.654 143.656 282.518 143.956 283.562 143.956C284.15 143.956 284.69 143.854 285.182 143.65C285.674 143.434 286.1 143.122 286.46 142.714L287.18 143.542C286.76 144.046 286.232 144.43 285.596 144.694C284.972 144.958 284.282 145.09 283.526 145.09C282.554 145.09 281.69 144.886 280.934 144.478C280.19 144.058 279.608 143.482 279.188 142.75C278.768 142.018 278.558 141.19 278.558 140.266C278.558 139.342 278.756 138.514 279.152 137.782C279.56 137.05 280.112 136.48 280.808 136.072C281.516 135.664 282.308 135.46 283.184 135.46C284.06 135.46 284.846 135.664 285.542 136.072C286.238 136.48 286.784 137.05 287.18 137.782C287.576 138.502 287.774 139.33 287.774 140.266L287.756 140.662ZM283.184 136.558C282.272 136.558 281.504 136.852 280.88 137.44C280.268 138.016 279.92 138.772 279.836 139.708H286.55C286.466 138.772 286.112 138.016 285.488 137.44C284.876 136.852 284.108 136.558 283.184 136.558ZM291.6 137.386C291.9 136.75 292.344 136.27 292.932 135.946C293.532 135.622 294.27 135.46 295.146 135.46V136.702L294.84 136.684C293.844 136.684 293.064 136.99 292.5 137.602C291.936 138.214 291.654 139.072 291.654 140.176V145H290.376V135.532H291.6V137.386ZM297.402 132.4H298.914L298.644 141.22H297.654L297.402 132.4ZM298.158 145.09C297.894 145.09 297.666 145 297.474 144.82C297.294 144.628 297.204 144.406 297.204 144.154C297.204 143.89 297.294 143.674 297.474 143.506C297.654 143.326 297.882 143.236 298.158 143.236C298.422 143.236 298.644 143.326 298.824 143.506C299.004 143.674 299.094 143.89 299.094 144.154C299.094 144.406 299.004 144.628 298.824 144.82C298.644 145 298.422 145.09 298.158 145.09Z" fill="#2B4964"/>
<path d="M18.4934 36.0876C6.49372 48.5791 -0.00623742 64.072 13.9933 77.0688C25.9938 88.2098 35.4937 95.5607 55.9936 90.563C76.4935 85.5653 84.349 75.2218 84.349 59.5594C84.3489 44.584 73.0913 41.1997 60.9934 28.5914C37.4938 4.10032 28.2515 25.9295 18.4934 36.0876Z" fill="#92C4FF"/>
<path d="M78.0001 44.5001C78.0001 75.5001 67.0001 81 56.0001 86.5641C45.0002 92.1282 25.5001 99.4999 17.5001 86C9.72013 72.8713 18.475 68.5782 15.0001 57.0001C10.5001 42.0065 16.6704 23.2434 31.5001 25.5001C54.5001 29 78.0001 19.3214 78.0001 44.5001Z" fill="#907AFF"/>
<g clip-path="url(#clip0_27_963)">
<path d="M43.6523 39.3906C38.4628 39.6886 33.5983 41.7034 29.7178 45.1624L35.4723 50.9166C36.7386 50.467 38.101 50.2214 39.5195 50.2214C40.97 50.2214 42.3619 50.4779 43.6523 50.9471V39.3906Z" fill="white"/>
<path d="M48.884 54.6504L59.7695 44.7188C55.9771 41.5311 51.3112 39.6756 46.3477 39.3906V52.3316C47.2987 52.9816 48.153 53.7632 48.884 54.6504Z" fill="white"/>
<path d="M22 62.3506V63.6982H27.3906V62.3506C27.3906 58.0939 29.595 54.3429 32.9216 52.1779L27.8121 47.0684C24.0552 51.2829 22 56.6585 22 62.3506Z" fill="white"/>
<path d="M60.853 63.6983H67.9998V62.3506C67.9998 60.3909 67.7552 58.4691 67.2828 56.6189L60.853 63.6983Z" fill="white"/>
<path d="M44.9995 63.7437C43.5595 63.7437 42.2056 64.3045 41.1875 65.3226C39.086 67.4244 39.086 70.8441 41.1875 72.946C42.2056 73.9641 43.5595 74.5249 44.9995 74.5249C46.4391 74.5249 47.7931 73.9641 48.8112 72.946C50.913 70.8441 50.913 67.4244 48.8112 65.3226C47.7931 64.3045 46.4391 63.7437 44.9995 63.7437Z" fill="white"/>
<path d="M62.2668 46.0889L45.8247 61.09C47.6725 61.276 49.3862 62.0856 50.717 63.4164C52.0801 64.7795 52.8525 66.5125 53.0371 68.2954L68 51.8203V46.0889H62.2668Z" fill="white"/>
</g>
<defs>
<clipPath id="clip0_27_963">
<rect width="46" height="46" fill="white" transform="translate(22 34)"/>
</clipPath>
</defs>
</svg>
