<svg width="1199" height="87" viewBox="0 0 1199 87" fill="none" xmlns="http://www.w3.org/2000/svg">
<path opacity="0.3" d="M0 0H1199V67C1199 78.0457 1190.05 87 1179 87H20C8.95427 87 0 78.0457 0 67V0Z" fill="url(#paint0_linear_47_1050)"/>
<path d="M58.56 54C58.12 54 57.75 53.85 57.45 53.55C57.15 53.25 57 52.88 57 52.44V32.13C57 31.67 57.15 31.3 57.45 31.02C57.75 30.72 58.12 30.57 58.56 30.57C59.02 30.57 59.39 30.72 59.67 31.02C59.97 31.3 60.12 31.67 60.12 32.13V40.74H74.04V32.13C74.04 31.67 74.19 31.3 74.49 31.02C74.79 30.72 75.16 30.57 75.6 30.57C76.06 30.57 76.43 30.72 76.71 31.02C76.99 31.3 77.13 31.67 77.13 32.13V52.44C77.13 52.88 76.99 53.25 76.71 53.55C76.43 53.85 76.06 54 75.6 54C75.16 54 74.79 53.85 74.49 53.55C74.19 53.25 74.04 52.88 74.04 52.44V43.5H60.12V52.44C60.12 52.88 59.97 53.25 59.67 53.55C59.39 53.85 59.02 54 58.56 54ZM90.2728 54.12C88.6528 54.12 87.2228 53.77 85.9828 53.07C84.7428 52.35 83.7628 51.37 83.0428 50.13C82.3428 48.87 81.9928 47.43 81.9928 45.81C81.9928 44.17 82.3428 42.73 83.0428 41.49C83.7628 40.23 84.7428 39.25 85.9828 38.55C87.2228 37.83 88.6528 37.47 90.2728 37.47C91.8728 37.47 93.2928 37.83 94.5328 38.55C95.7728 39.25 96.7428 40.23 97.4428 41.49C98.1628 42.73 98.5228 44.17 98.5228 45.81C98.5228 47.43 98.1728 48.87 97.4728 50.13C96.7728 51.37 95.8028 52.35 94.5628 53.07C93.3228 53.77 91.8928 54.12 90.2728 54.12ZM90.2728 51.42C91.3128 51.42 92.2328 51.18 93.0328 50.7C93.8328 50.22 94.4528 49.56 94.8928 48.72C95.3528 47.88 95.5828 46.91 95.5828 45.81C95.5828 44.71 95.3528 43.74 94.8928 42.9C94.4528 42.04 93.8328 41.37 93.0328 40.89C92.2328 40.41 91.3128 40.17 90.2728 40.17C89.2328 40.17 88.3128 40.41 87.5128 40.89C86.7128 41.37 86.0828 42.04 85.6228 42.9C85.1628 43.74 84.9328 44.71 84.9328 45.81C84.9328 46.91 85.1628 47.88 85.6228 48.72C86.0828 49.56 86.7128 50.22 87.5128 50.7C88.3128 51.18 89.2328 51.42 90.2728 51.42ZM105.949 54C105.629 54 105.329 53.91 105.049 53.73C104.789 53.53 104.609 53.29 104.509 53.01L100.069 39.69C99.9088 39.07 99.9088 38.57 100.069 38.19C100.249 37.79 100.629 37.59 101.209 37.59C101.589 37.59 101.899 37.7 102.139 37.92C102.399 38.12 102.609 38.47 102.769 38.97L106.549 50.79H105.499L109.069 38.73C109.169 38.39 109.339 38.12 109.579 37.92C109.819 37.7 110.149 37.59 110.569 37.59C110.969 37.59 111.289 37.7 111.529 37.92C111.789 38.12 111.959 38.39 112.039 38.73L114.949 50.07H114.499L118.039 38.97C118.319 38.05 118.839 37.59 119.599 37.59C120.159 37.59 120.539 37.79 120.739 38.19C120.939 38.57 120.929 39.07 120.709 39.69L116.269 53.01C116.189 53.29 116.019 53.53 115.759 53.73C115.499 53.91 115.199 54 114.859 54C114.539 54 114.239 53.91 113.959 53.73C113.679 53.53 113.499 53.29 113.419 53.01L110.329 41.58H110.629L107.389 53.01C107.309 53.29 107.129 53.53 106.849 53.73C106.589 53.91 106.289 54 105.949 54ZM138.754 54C137.754 54 136.854 53.75 136.054 53.25C135.254 52.73 134.624 52.03 134.164 51.15C133.704 50.27 133.474 49.28 133.474 48.18V33.87C133.474 33.43 133.614 33.07 133.894 32.79C134.174 32.51 134.534 32.37 134.974 32.37C135.414 32.37 135.774 32.51 136.054 32.79C136.334 33.07 136.474 33.43 136.474 33.87V48.18C136.474 48.98 136.694 49.65 137.134 50.19C137.574 50.73 138.114 51 138.754 51H139.774C140.134 51 140.434 51.14 140.674 51.42C140.934 51.7 141.064 52.06 141.064 52.5C141.064 52.94 140.894 53.3 140.554 53.58C140.234 53.86 139.814 54 139.294 54H138.754ZM132.094 40.77C131.674 40.77 131.334 40.65 131.074 40.41C130.814 40.17 130.684 39.87 130.684 39.51C130.684 39.11 130.814 38.79 131.074 38.55C131.334 38.31 131.674 38.19 132.094 38.19H139.024C139.444 38.19 139.784 38.31 140.044 38.55C140.304 38.79 140.434 39.11 140.434 39.51C140.434 39.87 140.304 40.17 140.044 40.41C139.784 40.65 139.444 40.77 139.024 40.77H132.094ZM152.265 54.12C150.645 54.12 149.215 53.77 147.975 53.07C146.735 52.35 145.755 51.37 145.035 50.13C144.335 48.87 143.985 47.43 143.985 45.81C143.985 44.17 144.335 42.73 145.035 41.49C145.755 40.23 146.735 39.25 147.975 38.55C149.215 37.83 150.645 37.47 152.265 37.47C153.865 37.47 155.285 37.83 156.525 38.55C157.765 39.25 158.735 40.23 159.435 41.49C160.155 42.73 160.515 44.17 160.515 45.81C160.515 47.43 160.165 48.87 159.465 50.13C158.765 51.37 157.795 52.35 156.555 53.07C155.315 53.77 153.885 54.12 152.265 54.12ZM152.265 51.42C153.305 51.42 154.225 51.18 155.025 50.7C155.825 50.22 156.445 49.56 156.885 48.72C157.345 47.88 157.575 46.91 157.575 45.81C157.575 44.71 157.345 43.74 156.885 42.9C156.445 42.04 155.825 41.37 155.025 40.89C154.225 40.41 153.305 40.17 152.265 40.17C151.225 40.17 150.305 40.41 149.505 40.89C148.705 41.37 148.075 42.04 147.615 42.9C147.155 43.74 146.925 44.71 146.925 45.81C146.925 46.91 147.155 47.88 147.615 48.72C148.075 49.56 148.705 50.22 149.505 50.7C150.305 51.18 151.225 51.42 152.265 51.42ZM175.688 54C175.248 54 174.878 53.86 174.578 53.58C174.298 53.28 174.158 52.91 174.158 52.47V39.12C174.158 38.66 174.298 38.29 174.578 38.01C174.878 37.73 175.248 37.59 175.688 37.59C176.148 37.59 176.518 37.73 176.798 38.01C177.078 38.29 177.218 38.66 177.218 39.12V52.47C177.218 52.91 177.078 53.28 176.798 53.58C176.518 53.86 176.148 54 175.688 54ZM175.688 34.92C175.148 34.92 174.678 34.73 174.278 34.35C173.898 33.95 173.708 33.48 173.708 32.94C173.708 32.4 173.898 31.94 174.278 31.56C174.678 31.16 175.148 30.96 175.688 30.96C176.228 30.96 176.688 31.16 177.068 31.56C177.468 31.94 177.668 32.4 177.668 32.94C177.668 33.48 177.468 33.95 177.068 34.35C176.688 34.73 176.228 34.92 175.688 34.92ZM196.771 54.03C196.331 54.03 195.961 53.89 195.661 53.61C195.381 53.31 195.241 52.94 195.241 52.5V45.12C195.241 43.98 195.031 43.05 194.611 42.33C194.191 41.61 193.621 41.08 192.901 40.74C192.201 40.38 191.391 40.2 190.471 40.2C189.631 40.2 188.871 40.37 188.191 40.71C187.511 41.05 186.971 41.51 186.571 42.09C186.171 42.65 185.971 43.3 185.971 44.04H184.081C184.081 42.78 184.381 41.66 184.981 40.68C185.601 39.68 186.441 38.89 187.501 38.31C188.561 37.73 189.751 37.44 191.071 37.44C192.451 37.44 193.681 37.74 194.761 38.34C195.861 38.92 196.721 39.78 197.341 40.92C197.981 42.06 198.301 43.46 198.301 45.12V52.5C198.301 52.94 198.151 53.31 197.851 53.61C197.571 53.89 197.211 54.03 196.771 54.03ZM184.441 54.03C184.001 54.03 183.631 53.89 183.331 53.61C183.051 53.31 182.911 52.94 182.911 52.5V39.12C182.911 38.66 183.051 38.29 183.331 38.01C183.631 37.73 184.001 37.59 184.441 37.59C184.901 37.59 185.271 37.73 185.551 38.01C185.831 38.29 185.971 38.66 185.971 39.12V52.5C185.971 52.94 185.831 53.31 185.551 53.61C185.271 53.89 184.901 54.03 184.441 54.03ZM209.33 54.12C207.93 54.12 206.63 53.91 205.43 53.49C204.25 53.05 203.33 52.5 202.67 51.84C202.37 51.52 202.24 51.16 202.28 50.76C202.34 50.34 202.54 50 202.88 49.74C203.28 49.42 203.67 49.29 204.05 49.35C204.45 49.39 204.79 49.56 205.07 49.86C205.41 50.24 205.95 50.6 206.69 50.94C207.45 51.26 208.29 51.42 209.21 51.42C210.37 51.42 211.25 51.23 211.85 50.85C212.47 50.47 212.79 49.98 212.81 49.38C212.83 48.78 212.54 48.26 211.94 47.82C211.36 47.38 210.29 47.02 208.73 46.74C206.71 46.34 205.24 45.74 204.32 44.94C203.42 44.14 202.97 43.16 202.97 42C202.97 40.98 203.27 40.14 203.87 39.48C204.47 38.8 205.24 38.3 206.18 37.98C207.12 37.64 208.1 37.47 209.12 37.47C210.44 37.47 211.61 37.68 212.63 38.1C213.65 38.52 214.46 39.1 215.06 39.84C215.34 40.16 215.47 40.5 215.45 40.86C215.43 41.2 215.26 41.49 214.94 41.73C214.62 41.95 214.24 42.02 213.8 41.94C213.36 41.86 212.99 41.68 212.69 41.4C212.19 40.92 211.65 40.59 211.07 40.41C210.49 40.23 209.82 40.14 209.06 40.14C208.18 40.14 207.43 40.29 206.81 40.59C206.21 40.89 205.91 41.33 205.91 41.91C205.91 42.27 206 42.6 206.18 42.9C206.38 43.18 206.76 43.44 207.32 43.68C207.88 43.9 208.7 44.12 209.78 44.34C211.28 44.64 212.46 45.02 213.32 45.48C214.2 45.94 214.83 46.48 215.21 47.1C215.59 47.7 215.78 48.4 215.78 49.2C215.78 50.12 215.53 50.95 215.03 51.69C214.55 52.43 213.83 53.02 212.87 53.46C211.93 53.9 210.75 54.12 209.33 54.12ZM225.619 54C224.619 54 223.719 53.75 222.919 53.25C222.119 52.73 221.489 52.03 221.029 51.15C220.569 50.27 220.339 49.28 220.339 48.18V33.87C220.339 33.43 220.479 33.07 220.759 32.79C221.039 32.51 221.399 32.37 221.839 32.37C222.279 32.37 222.639 32.51 222.919 32.79C223.199 33.07 223.339 33.43 223.339 33.87V48.18C223.339 48.98 223.559 49.65 223.999 50.19C224.439 50.73 224.979 51 225.619 51H226.639C226.999 51 227.299 51.14 227.539 51.42C227.799 51.7 227.929 52.06 227.929 52.5C227.929 52.94 227.759 53.3 227.419 53.58C227.099 53.86 226.679 54 226.159 54H225.619ZM218.959 40.77C218.539 40.77 218.199 40.65 217.939 40.41C217.679 40.17 217.549 39.87 217.549 39.51C217.549 39.11 217.679 38.79 217.939 38.55C218.199 38.31 218.539 38.19 218.959 38.19H225.889C226.309 38.19 226.649 38.31 226.909 38.55C227.169 38.79 227.299 39.11 227.299 39.51C227.299 39.87 227.169 40.17 226.909 40.41C226.649 40.65 226.309 40.77 225.889 40.77H218.959ZM238.53 54.12C237.07 54.12 235.76 53.76 234.6 53.04C233.44 52.3 232.52 51.31 231.84 50.07C231.18 48.81 230.85 47.39 230.85 45.81C230.85 44.23 231.21 42.81 231.93 41.55C232.67 40.29 233.66 39.3 234.9 38.58C236.16 37.84 237.57 37.47 239.13 37.47C240.69 37.47 242.09 37.84 243.33 38.58C244.57 39.3 245.55 40.29 246.27 41.55C247.01 42.81 247.38 44.23 247.38 45.81H246.21C246.21 47.39 245.87 48.81 245.19 50.07C244.53 51.31 243.62 52.3 242.46 53.04C241.3 53.76 239.99 54.12 238.53 54.12ZM239.13 51.42C240.15 51.42 241.06 51.18 241.86 50.7C242.66 50.2 243.29 49.53 243.75 48.69C244.21 47.83 244.44 46.87 244.44 45.81C244.44 44.73 244.21 43.77 243.75 42.93C243.29 42.07 242.66 41.4 241.86 40.92C241.06 40.42 240.15 40.17 239.13 40.17C238.13 40.17 237.22 40.42 236.4 40.92C235.6 41.4 234.96 42.07 234.48 42.93C234.02 43.77 233.79 44.73 233.79 45.81C233.79 46.87 234.02 47.83 234.48 48.69C234.96 49.53 235.6 50.2 236.4 50.7C237.22 51.18 238.13 51.42 239.13 51.42ZM245.85 54.03C245.41 54.03 245.04 53.89 244.74 53.61C244.46 53.31 244.32 52.94 244.32 52.5V47.91L244.89 44.73L247.38 45.81V52.5C247.38 52.94 247.23 53.31 246.93 53.61C246.65 53.89 246.29 54.03 245.85 54.03ZM255.834 54C254.954 54 254.174 53.76 253.494 53.28C252.814 52.8 252.284 52.15 251.904 51.33C251.524 50.49 251.334 49.53 251.334 48.45V32.07C251.334 31.63 251.474 31.27 251.754 30.99C252.034 30.71 252.394 30.57 252.834 30.57C253.274 30.57 253.634 30.71 253.914 30.99C254.194 31.27 254.334 31.63 254.334 32.07V48.45C254.334 49.19 254.474 49.8 254.754 50.28C255.034 50.76 255.394 51 255.834 51H256.584C256.984 51 257.304 51.14 257.544 51.42C257.804 51.7 257.934 52.06 257.934 52.5C257.934 52.94 257.744 53.3 257.364 53.58C256.984 53.86 256.494 54 255.894 54H255.834ZM264.829 54C263.949 54 263.169 53.76 262.489 53.28C261.809 52.8 261.279 52.15 260.899 51.33C260.519 50.49 260.329 49.53 260.329 48.45V32.07C260.329 31.63 260.469 31.27 260.749 30.99C261.029 30.71 261.389 30.57 261.829 30.57C262.269 30.57 262.629 30.71 262.909 30.99C263.189 31.27 263.329 31.63 263.329 32.07V48.45C263.329 49.19 263.469 49.8 263.749 50.28C264.029 50.76 264.389 51 264.829 51H265.579C265.979 51 266.299 51.14 266.539 51.42C266.799 51.7 266.929 52.06 266.929 52.5C266.929 52.94 266.739 53.3 266.359 53.58C265.979 53.86 265.489 54 264.889 54H264.829ZM275.443 48.45C275.003 48.45 274.633 48.31 274.333 48.03C274.053 47.73 273.913 47.36 273.913 46.92C273.913 46.14 274.113 45.29 274.513 44.37C274.913 43.43 275.533 42.6 276.373 41.88C276.933 41.4 277.443 40.93 277.903 40.47C278.383 39.99 278.763 39.45 279.043 38.85C279.343 38.23 279.493 37.48 279.493 36.6C279.493 35.96 279.343 35.36 279.043 34.8C278.743 34.24 278.313 33.79 277.753 33.45C277.213 33.09 276.543 32.91 275.743 32.91C274.763 32.91 273.953 33.09 273.313 33.45C272.673 33.81 272.193 34.31 271.873 34.95C271.573 35.59 271.423 36.34 271.423 37.2C271.423 37.64 271.283 38.01 271.003 38.31C270.723 38.59 270.353 38.73 269.893 38.73C269.453 38.73 269.083 38.59 268.783 38.31C268.503 38.01 268.363 37.64 268.363 37.2C268.363 35.8 268.663 34.57 269.263 33.51C269.883 32.45 270.743 31.62 271.843 31.02C272.963 30.4 274.263 30.09 275.743 30.09C277.043 30.09 278.193 30.37 279.193 30.93C280.213 31.47 281.013 32.23 281.593 33.21C282.193 34.17 282.493 35.3 282.493 36.6C282.493 37.72 282.313 38.69 281.953 39.51C281.593 40.33 281.103 41.07 280.483 41.73C279.863 42.37 279.153 43.01 278.353 43.65C277.833 44.07 277.473 44.62 277.273 45.3C277.073 45.96 276.973 46.5 276.973 46.92C276.973 47.36 276.833 47.73 276.553 48.03C276.273 48.31 275.903 48.45 275.443 48.45ZM275.443 54C274.883 54 274.393 53.8 273.973 53.4C273.573 52.98 273.373 52.49 273.373 51.93C273.373 51.35 273.573 50.86 273.973 50.46C274.393 50.04 274.883 49.83 275.443 49.83C276.023 49.83 276.513 50.04 276.913 50.46C277.333 50.86 277.543 51.35 277.543 51.93C277.543 52.49 277.333 52.98 276.913 53.4C276.513 53.8 276.023 54 275.443 54Z" fill="#46637E"/>
<path d="M1126.91 42H1157.38" stroke="#787878" stroke-width="3" stroke-linecap="round"/>
<path d="M1142.14 26L1142.14 57" stroke="#787878" stroke-width="3" stroke-linecap="round"/>
<defs>
<linearGradient id="paint0_linear_47_1050" x1="-3.5461e-06" y1="43.9997" x2="1199" y2="43.9998" gradientUnits="userSpaceOnUse">
<stop stop-color="#B2E4FF"/>
<stop offset="1" stop-color="#DFBFFF"/>
</linearGradient>
</defs>
</svg>
