<svg width="1199" height="387" viewBox="0 0 1199 387" fill="none" xmlns="http://www.w3.org/2000/svg">
<rect opacity="0.2" width="1199" height="87" fill="url(#paint0_linear_47_1087)"/>
<path d="M58.56 54C58.12 54 57.75 53.85 57.45 53.55C57.15 53.25 57 52.88 57 52.44V32.13C57 31.67 57.15 31.3 57.45 31.02C57.75 30.72 58.12 30.57 58.56 30.57C59.02 30.57 59.39 30.72 59.67 31.02C59.97 31.3 60.12 31.67 60.12 32.13V40.74H74.04V32.13C74.04 31.67 74.19 31.3 74.49 31.02C74.79 30.72 75.16 30.57 75.6 30.57C76.06 30.57 76.43 30.72 76.71 31.02C76.99 31.3 77.13 31.67 77.13 32.13V52.44C77.13 52.88 76.99 53.25 76.71 53.55C76.43 53.85 76.06 54 75.6 54C75.16 54 74.79 53.85 74.49 53.55C74.19 53.25 74.04 52.88 74.04 52.44V43.5H60.12V52.44C60.12 52.88 59.97 53.25 59.67 53.55C59.39 53.85 59.02 54 58.56 54ZM90.2728 54.12C88.6528 54.12 87.2228 53.77 85.9828 53.07C84.7428 52.35 83.7628 51.37 83.0428 50.13C82.3428 48.87 81.9928 47.43 81.9928 45.81C81.9928 44.17 82.3428 42.73 83.0428 41.49C83.7628 40.23 84.7428 39.25 85.9828 38.55C87.2228 37.83 88.6528 37.47 90.2728 37.47C91.8728 37.47 93.2928 37.83 94.5328 38.55C95.7728 39.25 96.7428 40.23 97.4428 41.49C98.1628 42.73 98.5228 44.17 98.5228 45.81C98.5228 47.43 98.1728 48.87 97.4728 50.13C96.7728 51.37 95.8028 52.35 94.5628 53.07C93.3228 53.77 91.8928 54.12 90.2728 54.12ZM90.2728 51.42C91.3128 51.42 92.2328 51.18 93.0328 50.7C93.8328 50.22 94.4528 49.56 94.8928 48.72C95.3528 47.88 95.5828 46.91 95.5828 45.81C95.5828 44.71 95.3528 43.74 94.8928 42.9C94.4528 42.04 93.8328 41.37 93.0328 40.89C92.2328 40.41 91.3128 40.17 90.2728 40.17C89.2328 40.17 88.3128 40.41 87.5128 40.89C86.7128 41.37 86.0828 42.04 85.6228 42.9C85.1628 43.74 84.9328 44.71 84.9328 45.81C84.9328 46.91 85.1628 47.88 85.6228 48.72C86.0828 49.56 86.7128 50.22 87.5128 50.7C88.3128 51.18 89.2328 51.42 90.2728 51.42ZM105.949 54C105.629 54 105.329 53.91 105.049 53.73C104.789 53.53 104.609 53.29 104.509 53.01L100.069 39.69C99.9088 39.07 99.9088 38.57 100.069 38.19C100.249 37.79 100.629 37.59 101.209 37.59C101.589 37.59 101.899 37.7 102.139 37.92C102.399 38.12 102.609 38.47 102.769 38.97L106.549 50.79H105.499L109.069 38.73C109.169 38.39 109.339 38.12 109.579 37.92C109.819 37.7 110.149 37.59 110.569 37.59C110.969 37.59 111.289 37.7 111.529 37.92C111.789 38.12 111.959 38.39 112.039 38.73L114.949 50.07H114.499L118.039 38.97C118.319 38.05 118.839 37.59 119.599 37.59C120.159 37.59 120.539 37.79 120.739 38.19C120.939 38.57 120.929 39.07 120.709 39.69L116.269 53.01C116.189 53.29 116.019 53.53 115.759 53.73C115.499 53.91 115.199 54 114.859 54C114.539 54 114.239 53.91 113.959 53.73C113.679 53.53 113.499 53.29 113.419 53.01L110.329 41.58H110.629L107.389 53.01C107.309 53.29 107.129 53.53 106.849 53.73C106.589 53.91 106.289 54 105.949 54ZM138.754 54C137.754 54 136.854 53.75 136.054 53.25C135.254 52.73 134.624 52.03 134.164 51.15C133.704 50.27 133.474 49.28 133.474 48.18V33.87C133.474 33.43 133.614 33.07 133.894 32.79C134.174 32.51 134.534 32.37 134.974 32.37C135.414 32.37 135.774 32.51 136.054 32.79C136.334 33.07 136.474 33.43 136.474 33.87V48.18C136.474 48.98 136.694 49.65 137.134 50.19C137.574 50.73 138.114 51 138.754 51H139.774C140.134 51 140.434 51.14 140.674 51.42C140.934 51.7 141.064 52.06 141.064 52.5C141.064 52.94 140.894 53.3 140.554 53.58C140.234 53.86 139.814 54 139.294 54H138.754ZM132.094 40.77C131.674 40.77 131.334 40.65 131.074 40.41C130.814 40.17 130.684 39.87 130.684 39.51C130.684 39.11 130.814 38.79 131.074 38.55C131.334 38.31 131.674 38.19 132.094 38.19H139.024C139.444 38.19 139.784 38.31 140.044 38.55C140.304 38.79 140.434 39.11 140.434 39.51C140.434 39.87 140.304 40.17 140.044 40.41C139.784 40.65 139.444 40.77 139.024 40.77H132.094ZM152.265 54.12C150.645 54.12 149.215 53.77 147.975 53.07C146.735 52.35 145.755 51.37 145.035 50.13C144.335 48.87 143.985 47.43 143.985 45.81C143.985 44.17 144.335 42.73 145.035 41.49C145.755 40.23 146.735 39.25 147.975 38.55C149.215 37.83 150.645 37.47 152.265 37.47C153.865 37.47 155.285 37.83 156.525 38.55C157.765 39.25 158.735 40.23 159.435 41.49C160.155 42.73 160.515 44.17 160.515 45.81C160.515 47.43 160.165 48.87 159.465 50.13C158.765 51.37 157.795 52.35 156.555 53.07C155.315 53.77 153.885 54.12 152.265 54.12ZM152.265 51.42C153.305 51.42 154.225 51.18 155.025 50.7C155.825 50.22 156.445 49.56 156.885 48.72C157.345 47.88 157.575 46.91 157.575 45.81C157.575 44.71 157.345 43.74 156.885 42.9C156.445 42.04 155.825 41.37 155.025 40.89C154.225 40.41 153.305 40.17 152.265 40.17C151.225 40.17 150.305 40.41 149.505 40.89C148.705 41.37 148.075 42.04 147.615 42.9C147.155 43.74 146.925 44.71 146.925 45.81C146.925 46.91 147.155 47.88 147.615 48.72C148.075 49.56 148.705 50.22 149.505 50.7C150.305 51.18 151.225 51.42 152.265 51.42ZM175.688 54C175.248 54 174.878 53.86 174.578 53.58C174.298 53.28 174.158 52.91 174.158 52.47V39.12C174.158 38.66 174.298 38.29 174.578 38.01C174.878 37.73 175.248 37.59 175.688 37.59C176.148 37.59 176.518 37.73 176.798 38.01C177.078 38.29 177.218 38.66 177.218 39.12V52.47C177.218 52.91 177.078 53.28 176.798 53.58C176.518 53.86 176.148 54 175.688 54ZM175.688 34.92C175.148 34.92 174.678 34.73 174.278 34.35C173.898 33.95 173.708 33.48 173.708 32.94C173.708 32.4 173.898 31.94 174.278 31.56C174.678 31.16 175.148 30.96 175.688 30.96C176.228 30.96 176.688 31.16 177.068 31.56C177.468 31.94 177.668 32.4 177.668 32.94C177.668 33.48 177.468 33.95 177.068 34.35C176.688 34.73 176.228 34.92 175.688 34.92ZM196.771 54.03C196.331 54.03 195.961 53.89 195.661 53.61C195.381 53.31 195.241 52.94 195.241 52.5V45.12C195.241 43.98 195.031 43.05 194.611 42.33C194.191 41.61 193.621 41.08 192.901 40.74C192.201 40.38 191.391 40.2 190.471 40.2C189.631 40.2 188.871 40.37 188.191 40.71C187.511 41.05 186.971 41.51 186.571 42.09C186.171 42.65 185.971 43.3 185.971 44.04H184.081C184.081 42.78 184.381 41.66 184.981 40.68C185.601 39.68 186.441 38.89 187.501 38.31C188.561 37.73 189.751 37.44 191.071 37.44C192.451 37.44 193.681 37.74 194.761 38.34C195.861 38.92 196.721 39.78 197.341 40.92C197.981 42.06 198.301 43.46 198.301 45.12V52.5C198.301 52.94 198.151 53.31 197.851 53.61C197.571 53.89 197.211 54.03 196.771 54.03ZM184.441 54.03C184.001 54.03 183.631 53.89 183.331 53.61C183.051 53.31 182.911 52.94 182.911 52.5V39.12C182.911 38.66 183.051 38.29 183.331 38.01C183.631 37.73 184.001 37.59 184.441 37.59C184.901 37.59 185.271 37.73 185.551 38.01C185.831 38.29 185.971 38.66 185.971 39.12V52.5C185.971 52.94 185.831 53.31 185.551 53.61C185.271 53.89 184.901 54.03 184.441 54.03ZM209.33 54.12C207.93 54.12 206.63 53.91 205.43 53.49C204.25 53.05 203.33 52.5 202.67 51.84C202.37 51.52 202.24 51.16 202.28 50.76C202.34 50.34 202.54 50 202.88 49.74C203.28 49.42 203.67 49.29 204.05 49.35C204.45 49.39 204.79 49.56 205.07 49.86C205.41 50.24 205.95 50.6 206.69 50.94C207.45 51.26 208.29 51.42 209.21 51.42C210.37 51.42 211.25 51.23 211.85 50.85C212.47 50.47 212.79 49.98 212.81 49.38C212.83 48.78 212.54 48.26 211.94 47.82C211.36 47.38 210.29 47.02 208.73 46.74C206.71 46.34 205.24 45.74 204.32 44.94C203.42 44.14 202.97 43.16 202.97 42C202.97 40.98 203.27 40.14 203.87 39.48C204.47 38.8 205.24 38.3 206.18 37.98C207.12 37.64 208.1 37.47 209.12 37.47C210.44 37.47 211.61 37.68 212.63 38.1C213.65 38.52 214.46 39.1 215.06 39.84C215.34 40.16 215.47 40.5 215.45 40.86C215.43 41.2 215.26 41.49 214.94 41.73C214.62 41.95 214.24 42.02 213.8 41.94C213.36 41.86 212.99 41.68 212.69 41.4C212.19 40.92 211.65 40.59 211.07 40.41C210.49 40.23 209.82 40.14 209.06 40.14C208.18 40.14 207.43 40.29 206.81 40.59C206.21 40.89 205.91 41.33 205.91 41.91C205.91 42.27 206 42.6 206.18 42.9C206.38 43.18 206.76 43.44 207.32 43.68C207.88 43.9 208.7 44.12 209.78 44.34C211.28 44.64 212.46 45.02 213.32 45.48C214.2 45.94 214.83 46.48 215.21 47.1C215.59 47.7 215.78 48.4 215.78 49.2C215.78 50.12 215.53 50.95 215.03 51.69C214.55 52.43 213.83 53.02 212.87 53.46C211.93 53.9 210.75 54.12 209.33 54.12ZM225.619 54C224.619 54 223.719 53.75 222.919 53.25C222.119 52.73 221.489 52.03 221.029 51.15C220.569 50.27 220.339 49.28 220.339 48.18V33.87C220.339 33.43 220.479 33.07 220.759 32.79C221.039 32.51 221.399 32.37 221.839 32.37C222.279 32.37 222.639 32.51 222.919 32.79C223.199 33.07 223.339 33.43 223.339 33.87V48.18C223.339 48.98 223.559 49.65 223.999 50.19C224.439 50.73 224.979 51 225.619 51H226.639C226.999 51 227.299 51.14 227.539 51.42C227.799 51.7 227.929 52.06 227.929 52.5C227.929 52.94 227.759 53.3 227.419 53.58C227.099 53.86 226.679 54 226.159 54H225.619ZM218.959 40.77C218.539 40.77 218.199 40.65 217.939 40.41C217.679 40.17 217.549 39.87 217.549 39.51C217.549 39.11 217.679 38.79 217.939 38.55C218.199 38.31 218.539 38.19 218.959 38.19H225.889C226.309 38.19 226.649 38.31 226.909 38.55C227.169 38.79 227.299 39.11 227.299 39.51C227.299 39.87 227.169 40.17 226.909 40.41C226.649 40.65 226.309 40.77 225.889 40.77H218.959ZM238.53 54.12C237.07 54.12 235.76 53.76 234.6 53.04C233.44 52.3 232.52 51.31 231.84 50.07C231.18 48.81 230.85 47.39 230.85 45.81C230.85 44.23 231.21 42.81 231.93 41.55C232.67 40.29 233.66 39.3 234.9 38.58C236.16 37.84 237.57 37.47 239.13 37.47C240.69 37.47 242.09 37.84 243.33 38.58C244.57 39.3 245.55 40.29 246.27 41.55C247.01 42.81 247.38 44.23 247.38 45.81H246.21C246.21 47.39 245.87 48.81 245.19 50.07C244.53 51.31 243.62 52.3 242.46 53.04C241.3 53.76 239.99 54.12 238.53 54.12ZM239.13 51.42C240.15 51.42 241.06 51.18 241.86 50.7C242.66 50.2 243.29 49.53 243.75 48.69C244.21 47.83 244.44 46.87 244.44 45.81C244.44 44.73 244.21 43.77 243.75 42.93C243.29 42.07 242.66 41.4 241.86 40.92C241.06 40.42 240.15 40.17 239.13 40.17C238.13 40.17 237.22 40.42 236.4 40.92C235.6 41.4 234.96 42.07 234.48 42.93C234.02 43.77 233.79 44.73 233.79 45.81C233.79 46.87 234.02 47.83 234.48 48.69C234.96 49.53 235.6 50.2 236.4 50.7C237.22 51.18 238.13 51.42 239.13 51.42ZM245.85 54.03C245.41 54.03 245.04 53.89 244.74 53.61C244.46 53.31 244.32 52.94 244.32 52.5V47.91L244.89 44.73L247.38 45.81V52.5C247.38 52.94 247.23 53.31 246.93 53.61C246.65 53.89 246.29 54.03 245.85 54.03ZM255.834 54C254.954 54 254.174 53.76 253.494 53.28C252.814 52.8 252.284 52.15 251.904 51.33C251.524 50.49 251.334 49.53 251.334 48.45V32.07C251.334 31.63 251.474 31.27 251.754 30.99C252.034 30.71 252.394 30.57 252.834 30.57C253.274 30.57 253.634 30.71 253.914 30.99C254.194 31.27 254.334 31.63 254.334 32.07V48.45C254.334 49.19 254.474 49.8 254.754 50.28C255.034 50.76 255.394 51 255.834 51H256.584C256.984 51 257.304 51.14 257.544 51.42C257.804 51.7 257.934 52.06 257.934 52.5C257.934 52.94 257.744 53.3 257.364 53.58C256.984 53.86 256.494 54 255.894 54H255.834ZM264.829 54C263.949 54 263.169 53.76 262.489 53.28C261.809 52.8 261.279 52.15 260.899 51.33C260.519 50.49 260.329 49.53 260.329 48.45V32.07C260.329 31.63 260.469 31.27 260.749 30.99C261.029 30.71 261.389 30.57 261.829 30.57C262.269 30.57 262.629 30.71 262.909 30.99C263.189 31.27 263.329 31.63 263.329 32.07V48.45C263.329 49.19 263.469 49.8 263.749 50.28C264.029 50.76 264.389 51 264.829 51H265.579C265.979 51 266.299 51.14 266.539 51.42C266.799 51.7 266.929 52.06 266.929 52.5C266.929 52.94 266.739 53.3 266.359 53.58C265.979 53.86 265.489 54 264.889 54H264.829ZM275.443 48.45C275.003 48.45 274.633 48.31 274.333 48.03C274.053 47.73 273.913 47.36 273.913 46.92C273.913 46.14 274.113 45.29 274.513 44.37C274.913 43.43 275.533 42.6 276.373 41.88C276.933 41.4 277.443 40.93 277.903 40.47C278.383 39.99 278.763 39.45 279.043 38.85C279.343 38.23 279.493 37.48 279.493 36.6C279.493 35.96 279.343 35.36 279.043 34.8C278.743 34.24 278.313 33.79 277.753 33.45C277.213 33.09 276.543 32.91 275.743 32.91C274.763 32.91 273.953 33.09 273.313 33.45C272.673 33.81 272.193 34.31 271.873 34.95C271.573 35.59 271.423 36.34 271.423 37.2C271.423 37.64 271.283 38.01 271.003 38.31C270.723 38.59 270.353 38.73 269.893 38.73C269.453 38.73 269.083 38.59 268.783 38.31C268.503 38.01 268.363 37.64 268.363 37.2C268.363 35.8 268.663 34.57 269.263 33.51C269.883 32.45 270.743 31.62 271.843 31.02C272.963 30.4 274.263 30.09 275.743 30.09C277.043 30.09 278.193 30.37 279.193 30.93C280.213 31.47 281.013 32.23 281.593 33.21C282.193 34.17 282.493 35.3 282.493 36.6C282.493 37.72 282.313 38.69 281.953 39.51C281.593 40.33 281.103 41.07 280.483 41.73C279.863 42.37 279.153 43.01 278.353 43.65C277.833 44.07 277.473 44.62 277.273 45.3C277.073 45.96 276.973 46.5 276.973 46.92C276.973 47.36 276.833 47.73 276.553 48.03C276.273 48.31 275.903 48.45 275.443 48.45ZM275.443 54C274.883 54 274.393 53.8 273.973 53.4C273.573 52.98 273.373 52.49 273.373 51.93C273.373 51.35 273.573 50.86 273.973 50.46C274.393 50.04 274.883 49.83 275.443 49.83C276.023 49.83 276.513 50.04 276.913 50.46C277.333 50.86 277.543 51.35 277.543 51.93C277.543 52.49 277.333 52.98 276.913 53.4C276.513 53.8 276.023 54 275.443 54Z" fill="#46637E"/>
<path d="M1126.91 42H1157.38" stroke="#787878" stroke-width="3" stroke-linecap="round"/>
<path d="M1142.14 26L1142.14 57" stroke="#787878" stroke-width="3" stroke-linecap="round"/>
<path opacity="0.3" d="M0 300H1199V367C1199 378.046 1190.05 387 1179 387H20C8.95427 387 0 378.046 0 367V300Z" fill="url(#paint1_linear_47_1087)"/>
<path d="M58.56 354C58.12 354 57.75 353.85 57.45 353.55C57.15 353.25 57 352.88 57 352.44V332.13C57 331.67 57.15 331.3 57.45 331.02C57.75 330.72 58.12 330.57 58.56 330.57C59.02 330.57 59.39 330.72 59.67 331.02C59.97 331.3 60.12 331.67 60.12 332.13V340.74H74.04V332.13C74.04 331.67 74.19 331.3 74.49 331.02C74.79 330.72 75.16 330.57 75.6 330.57C76.06 330.57 76.43 330.72 76.71 331.02C76.99 331.3 77.13 331.67 77.13 332.13V352.44C77.13 352.88 76.99 353.25 76.71 353.55C76.43 353.85 76.06 354 75.6 354C75.16 354 74.79 353.85 74.49 353.55C74.19 353.25 74.04 352.88 74.04 352.44V343.5H60.12V352.44C60.12 352.88 59.97 353.25 59.67 353.55C59.39 353.85 59.02 354 58.56 354ZM90.2728 354.12C88.6528 354.12 87.2228 353.77 85.9828 353.07C84.7428 352.35 83.7628 351.37 83.0428 350.13C82.3428 348.87 81.9928 347.43 81.9928 345.81C81.9928 344.17 82.3428 342.73 83.0428 341.49C83.7628 340.23 84.7428 339.25 85.9828 338.55C87.2228 337.83 88.6528 337.47 90.2728 337.47C91.8728 337.47 93.2928 337.83 94.5328 338.55C95.7728 339.25 96.7428 340.23 97.4428 341.49C98.1628 342.73 98.5228 344.17 98.5228 345.81C98.5228 347.43 98.1728 348.87 97.4728 350.13C96.7728 351.37 95.8028 352.35 94.5628 353.07C93.3228 353.77 91.8928 354.12 90.2728 354.12ZM90.2728 351.42C91.3128 351.42 92.2328 351.18 93.0328 350.7C93.8328 350.22 94.4528 349.56 94.8928 348.72C95.3528 347.88 95.5828 346.91 95.5828 345.81C95.5828 344.71 95.3528 343.74 94.8928 342.9C94.4528 342.04 93.8328 341.37 93.0328 340.89C92.2328 340.41 91.3128 340.17 90.2728 340.17C89.2328 340.17 88.3128 340.41 87.5128 340.89C86.7128 341.37 86.0828 342.04 85.6228 342.9C85.1628 343.74 84.9328 344.71 84.9328 345.81C84.9328 346.91 85.1628 347.88 85.6228 348.72C86.0828 349.56 86.7128 350.22 87.5128 350.7C88.3128 351.18 89.2328 351.42 90.2728 351.42ZM105.949 354C105.629 354 105.329 353.91 105.049 353.73C104.789 353.53 104.609 353.29 104.509 353.01L100.069 339.69C99.9088 339.07 99.9088 338.57 100.069 338.19C100.249 337.79 100.629 337.59 101.209 337.59C101.589 337.59 101.899 337.7 102.139 337.92C102.399 338.12 102.609 338.47 102.769 338.97L106.549 350.79H105.499L109.069 338.73C109.169 338.39 109.339 338.12 109.579 337.92C109.819 337.7 110.149 337.59 110.569 337.59C110.969 337.59 111.289 337.7 111.529 337.92C111.789 338.12 111.959 338.39 112.039 338.73L114.949 350.07H114.499L118.039 338.97C118.319 338.05 118.839 337.59 119.599 337.59C120.159 337.59 120.539 337.79 120.739 338.19C120.939 338.57 120.929 339.07 120.709 339.69L116.269 353.01C116.189 353.29 116.019 353.53 115.759 353.73C115.499 353.91 115.199 354 114.859 354C114.539 354 114.239 353.91 113.959 353.73C113.679 353.53 113.499 353.29 113.419 353.01L110.329 341.58H110.629L107.389 353.01C107.309 353.29 107.129 353.53 106.849 353.73C106.589 353.91 106.289 354 105.949 354ZM138.754 354C137.754 354 136.854 353.75 136.054 353.25C135.254 352.73 134.624 352.03 134.164 351.15C133.704 350.27 133.474 349.28 133.474 348.18V333.87C133.474 333.43 133.614 333.07 133.894 332.79C134.174 332.51 134.534 332.37 134.974 332.37C135.414 332.37 135.774 332.51 136.054 332.79C136.334 333.07 136.474 333.43 136.474 333.87V348.18C136.474 348.98 136.694 349.65 137.134 350.19C137.574 350.73 138.114 351 138.754 351H139.774C140.134 351 140.434 351.14 140.674 351.42C140.934 351.7 141.064 352.06 141.064 352.5C141.064 352.94 140.894 353.3 140.554 353.58C140.234 353.86 139.814 354 139.294 354H138.754ZM132.094 340.77C131.674 340.77 131.334 340.65 131.074 340.41C130.814 340.17 130.684 339.87 130.684 339.51C130.684 339.11 130.814 338.79 131.074 338.55C131.334 338.31 131.674 338.19 132.094 338.19H139.024C139.444 338.19 139.784 338.31 140.044 338.55C140.304 338.79 140.434 339.11 140.434 339.51C140.434 339.87 140.304 340.17 140.044 340.41C139.784 340.65 139.444 340.77 139.024 340.77H132.094ZM152.265 354.12C150.645 354.12 149.215 353.77 147.975 353.07C146.735 352.35 145.755 351.37 145.035 350.13C144.335 348.87 143.985 347.43 143.985 345.81C143.985 344.17 144.335 342.73 145.035 341.49C145.755 340.23 146.735 339.25 147.975 338.55C149.215 337.83 150.645 337.47 152.265 337.47C153.865 337.47 155.285 337.83 156.525 338.55C157.765 339.25 158.735 340.23 159.435 341.49C160.155 342.73 160.515 344.17 160.515 345.81C160.515 347.43 160.165 348.87 159.465 350.13C158.765 351.37 157.795 352.35 156.555 353.07C155.315 353.77 153.885 354.12 152.265 354.12ZM152.265 351.42C153.305 351.42 154.225 351.18 155.025 350.7C155.825 350.22 156.445 349.56 156.885 348.72C157.345 347.88 157.575 346.91 157.575 345.81C157.575 344.71 157.345 343.74 156.885 342.9C156.445 342.04 155.825 341.37 155.025 340.89C154.225 340.41 153.305 340.17 152.265 340.17C151.225 340.17 150.305 340.41 149.505 340.89C148.705 341.37 148.075 342.04 147.615 342.9C147.155 343.74 146.925 344.71 146.925 345.81C146.925 346.91 147.155 347.88 147.615 348.72C148.075 349.56 148.705 350.22 149.505 350.7C150.305 351.18 151.225 351.42 152.265 351.42ZM175.688 354C175.248 354 174.878 353.86 174.578 353.58C174.298 353.28 174.158 352.91 174.158 352.47V339.12C174.158 338.66 174.298 338.29 174.578 338.01C174.878 337.73 175.248 337.59 175.688 337.59C176.148 337.59 176.518 337.73 176.798 338.01C177.078 338.29 177.218 338.66 177.218 339.12V352.47C177.218 352.91 177.078 353.28 176.798 353.58C176.518 353.86 176.148 354 175.688 354ZM175.688 334.92C175.148 334.92 174.678 334.73 174.278 334.35C173.898 333.95 173.708 333.48 173.708 332.94C173.708 332.4 173.898 331.94 174.278 331.56C174.678 331.16 175.148 330.96 175.688 330.96C176.228 330.96 176.688 331.16 177.068 331.56C177.468 331.94 177.668 332.4 177.668 332.94C177.668 333.48 177.468 333.95 177.068 334.35C176.688 334.73 176.228 334.92 175.688 334.92ZM196.771 354.03C196.331 354.03 195.961 353.89 195.661 353.61C195.381 353.31 195.241 352.94 195.241 352.5V345.12C195.241 343.98 195.031 343.05 194.611 342.33C194.191 341.61 193.621 341.08 192.901 340.74C192.201 340.38 191.391 340.2 190.471 340.2C189.631 340.2 188.871 340.37 188.191 340.71C187.511 341.05 186.971 341.51 186.571 342.09C186.171 342.65 185.971 343.3 185.971 344.04H184.081C184.081 342.78 184.381 341.66 184.981 340.68C185.601 339.68 186.441 338.89 187.501 338.31C188.561 337.73 189.751 337.44 191.071 337.44C192.451 337.44 193.681 337.74 194.761 338.34C195.861 338.92 196.721 339.78 197.341 340.92C197.981 342.06 198.301 343.46 198.301 345.12V352.5C198.301 352.94 198.151 353.31 197.851 353.61C197.571 353.89 197.211 354.03 196.771 354.03ZM184.441 354.03C184.001 354.03 183.631 353.89 183.331 353.61C183.051 353.31 182.911 352.94 182.911 352.5V339.12C182.911 338.66 183.051 338.29 183.331 338.01C183.631 337.73 184.001 337.59 184.441 337.59C184.901 337.59 185.271 337.73 185.551 338.01C185.831 338.29 185.971 338.66 185.971 339.12V352.5C185.971 352.94 185.831 353.31 185.551 353.61C185.271 353.89 184.901 354.03 184.441 354.03ZM209.33 354.12C207.93 354.12 206.63 353.91 205.43 353.49C204.25 353.05 203.33 352.5 202.67 351.84C202.37 351.52 202.24 351.16 202.28 350.76C202.34 350.34 202.54 350 202.88 349.74C203.28 349.42 203.67 349.29 204.05 349.35C204.45 349.39 204.79 349.56 205.07 349.86C205.41 350.24 205.95 350.6 206.69 350.94C207.45 351.26 208.29 351.42 209.21 351.42C210.37 351.42 211.25 351.23 211.85 350.85C212.47 350.47 212.79 349.98 212.81 349.38C212.83 348.78 212.54 348.26 211.94 347.82C211.36 347.38 210.29 347.02 208.73 346.74C206.71 346.34 205.24 345.74 204.32 344.94C203.42 344.14 202.97 343.16 202.97 342C202.97 340.98 203.27 340.14 203.87 339.48C204.47 338.8 205.24 338.3 206.18 337.98C207.12 337.64 208.1 337.47 209.12 337.47C210.44 337.47 211.61 337.68 212.63 338.1C213.65 338.52 214.46 339.1 215.06 339.84C215.34 340.16 215.47 340.5 215.45 340.86C215.43 341.2 215.26 341.49 214.94 341.73C214.62 341.95 214.24 342.02 213.8 341.94C213.36 341.86 212.99 341.68 212.69 341.4C212.19 340.92 211.65 340.59 211.07 340.41C210.49 340.23 209.82 340.14 209.06 340.14C208.18 340.14 207.43 340.29 206.81 340.59C206.21 340.89 205.91 341.33 205.91 341.91C205.91 342.27 206 342.6 206.18 342.9C206.38 343.18 206.76 343.44 207.32 343.68C207.88 343.9 208.7 344.12 209.78 344.34C211.28 344.64 212.46 345.02 213.32 345.48C214.2 345.94 214.83 346.48 215.21 347.1C215.59 347.7 215.78 348.4 215.78 349.2C215.78 350.12 215.53 350.95 215.03 351.69C214.55 352.43 213.83 353.02 212.87 353.46C211.93 353.9 210.75 354.12 209.33 354.12ZM225.619 354C224.619 354 223.719 353.75 222.919 353.25C222.119 352.73 221.489 352.03 221.029 351.15C220.569 350.27 220.339 349.28 220.339 348.18V333.87C220.339 333.43 220.479 333.07 220.759 332.79C221.039 332.51 221.399 332.37 221.839 332.37C222.279 332.37 222.639 332.51 222.919 332.79C223.199 333.07 223.339 333.43 223.339 333.87V348.18C223.339 348.98 223.559 349.65 223.999 350.19C224.439 350.73 224.979 351 225.619 351H226.639C226.999 351 227.299 351.14 227.539 351.42C227.799 351.7 227.929 352.06 227.929 352.5C227.929 352.94 227.759 353.3 227.419 353.58C227.099 353.86 226.679 354 226.159 354H225.619ZM218.959 340.77C218.539 340.77 218.199 340.65 217.939 340.41C217.679 340.17 217.549 339.87 217.549 339.51C217.549 339.11 217.679 338.79 217.939 338.55C218.199 338.31 218.539 338.19 218.959 338.19H225.889C226.309 338.19 226.649 338.31 226.909 338.55C227.169 338.79 227.299 339.11 227.299 339.51C227.299 339.87 227.169 340.17 226.909 340.41C226.649 340.65 226.309 340.77 225.889 340.77H218.959ZM238.53 354.12C237.07 354.12 235.76 353.76 234.6 353.04C233.44 352.3 232.52 351.31 231.84 350.07C231.18 348.81 230.85 347.39 230.85 345.81C230.85 344.23 231.21 342.81 231.93 341.55C232.67 340.29 233.66 339.3 234.9 338.58C236.16 337.84 237.57 337.47 239.13 337.47C240.69 337.47 242.09 337.84 243.33 338.58C244.57 339.3 245.55 340.29 246.27 341.55C247.01 342.81 247.38 344.23 247.38 345.81H246.21C246.21 347.39 245.87 348.81 245.19 350.07C244.53 351.31 243.62 352.3 242.46 353.04C241.3 353.76 239.99 354.12 238.53 354.12ZM239.13 351.42C240.15 351.42 241.06 351.18 241.86 350.7C242.66 350.2 243.29 349.53 243.75 348.69C244.21 347.83 244.44 346.87 244.44 345.81C244.44 344.73 244.21 343.77 243.75 342.93C243.29 342.07 242.66 341.4 241.86 340.92C241.06 340.42 240.15 340.17 239.13 340.17C238.13 340.17 237.22 340.42 236.4 340.92C235.6 341.4 234.96 342.07 234.48 342.93C234.02 343.77 233.79 344.73 233.79 345.81C233.79 346.87 234.02 347.83 234.48 348.69C234.96 349.53 235.6 350.2 236.4 350.7C237.22 351.18 238.13 351.42 239.13 351.42ZM245.85 354.03C245.41 354.03 245.04 353.89 244.74 353.61C244.46 353.31 244.32 352.94 244.32 352.5V347.91L244.89 344.73L247.38 345.81V352.5C247.38 352.94 247.23 353.31 246.93 353.61C246.65 353.89 246.29 354.03 245.85 354.03ZM255.834 354C254.954 354 254.174 353.76 253.494 353.28C252.814 352.8 252.284 352.15 251.904 351.33C251.524 350.49 251.334 349.53 251.334 348.45V332.07C251.334 331.63 251.474 331.27 251.754 330.99C252.034 330.71 252.394 330.57 252.834 330.57C253.274 330.57 253.634 330.71 253.914 330.99C254.194 331.27 254.334 331.63 254.334 332.07V348.45C254.334 349.19 254.474 349.8 254.754 350.28C255.034 350.76 255.394 351 255.834 351H256.584C256.984 351 257.304 351.14 257.544 351.42C257.804 351.7 257.934 352.06 257.934 352.5C257.934 352.94 257.744 353.3 257.364 353.58C256.984 353.86 256.494 354 255.894 354H255.834ZM264.829 354C263.949 354 263.169 353.76 262.489 353.28C261.809 352.8 261.279 352.15 260.899 351.33C260.519 350.49 260.329 349.53 260.329 348.45V332.07C260.329 331.63 260.469 331.27 260.749 330.99C261.029 330.71 261.389 330.57 261.829 330.57C262.269 330.57 262.629 330.71 262.909 330.99C263.189 331.27 263.329 331.63 263.329 332.07V348.45C263.329 349.19 263.469 349.8 263.749 350.28C264.029 350.76 264.389 351 264.829 351H265.579C265.979 351 266.299 351.14 266.539 351.42C266.799 351.7 266.929 352.06 266.929 352.5C266.929 352.94 266.739 353.3 266.359 353.58C265.979 353.86 265.489 354 264.889 354H264.829ZM275.443 348.45C275.003 348.45 274.633 348.31 274.333 348.03C274.053 347.73 273.913 347.36 273.913 346.92C273.913 346.14 274.113 345.29 274.513 344.37C274.913 343.43 275.533 342.6 276.373 341.88C276.933 341.4 277.443 340.93 277.903 340.47C278.383 339.99 278.763 339.45 279.043 338.85C279.343 338.23 279.493 337.48 279.493 336.6C279.493 335.96 279.343 335.36 279.043 334.8C278.743 334.24 278.313 333.79 277.753 333.45C277.213 333.09 276.543 332.91 275.743 332.91C274.763 332.91 273.953 333.09 273.313 333.45C272.673 333.81 272.193 334.31 271.873 334.95C271.573 335.59 271.423 336.34 271.423 337.2C271.423 337.64 271.283 338.01 271.003 338.31C270.723 338.59 270.353 338.73 269.893 338.73C269.453 338.73 269.083 338.59 268.783 338.31C268.503 338.01 268.363 337.64 268.363 337.2C268.363 335.8 268.663 334.57 269.263 333.51C269.883 332.45 270.743 331.62 271.843 331.02C272.963 330.4 274.263 330.09 275.743 330.09C277.043 330.09 278.193 330.37 279.193 330.93C280.213 331.47 281.013 332.23 281.593 333.21C282.193 334.17 282.493 335.3 282.493 336.6C282.493 337.72 282.313 338.69 281.953 339.51C281.593 340.33 281.103 341.07 280.483 341.73C279.863 342.37 279.153 343.01 278.353 343.65C277.833 344.07 277.473 344.62 277.273 345.3C277.073 345.96 276.973 346.5 276.973 346.92C276.973 347.36 276.833 347.73 276.553 348.03C276.273 348.31 275.903 348.45 275.443 348.45ZM275.443 354C274.883 354 274.393 353.8 273.973 353.4C273.573 352.98 273.373 352.49 273.373 351.93C273.373 351.35 273.573 350.86 273.973 350.46C274.393 350.04 274.883 349.83 275.443 349.83C276.023 349.83 276.513 350.04 276.913 350.46C277.333 350.86 277.543 351.35 277.543 351.93C277.543 352.49 277.333 352.98 276.913 353.4C276.513 353.8 276.023 354 275.443 354Z" fill="#46637E"/>
<path d="M1126.91 342H1157.38" stroke="#787878" stroke-width="3" stroke-linecap="round"/>
<path d="M1142.14 326L1142.14 357" stroke="#787878" stroke-width="3" stroke-linecap="round"/>
<rect opacity="0.2" y="200" width="1199" height="87" fill="url(#paint2_linear_47_1087)"/>
<path d="M58.56 254C58.12 254 57.75 253.85 57.45 253.55C57.15 253.25 57 252.88 57 252.44V232.13C57 231.67 57.15 231.3 57.45 231.02C57.75 230.72 58.12 230.57 58.56 230.57C59.02 230.57 59.39 230.72 59.67 231.02C59.97 231.3 60.12 231.67 60.12 232.13V240.74H74.04V232.13C74.04 231.67 74.19 231.3 74.49 231.02C74.79 230.72 75.16 230.57 75.6 230.57C76.06 230.57 76.43 230.72 76.71 231.02C76.99 231.3 77.13 231.67 77.13 232.13V252.44C77.13 252.88 76.99 253.25 76.71 253.55C76.43 253.85 76.06 254 75.6 254C75.16 254 74.79 253.85 74.49 253.55C74.19 253.25 74.04 252.88 74.04 252.44V243.5H60.12V252.44C60.12 252.88 59.97 253.25 59.67 253.55C59.39 253.85 59.02 254 58.56 254ZM90.2728 254.12C88.6528 254.12 87.2228 253.77 85.9828 253.07C84.7428 252.35 83.7628 251.37 83.0428 250.13C82.3428 248.87 81.9928 247.43 81.9928 245.81C81.9928 244.17 82.3428 242.73 83.0428 241.49C83.7628 240.23 84.7428 239.25 85.9828 238.55C87.2228 237.83 88.6528 237.47 90.2728 237.47C91.8728 237.47 93.2928 237.83 94.5328 238.55C95.7728 239.25 96.7428 240.23 97.4428 241.49C98.1628 242.73 98.5228 244.17 98.5228 245.81C98.5228 247.43 98.1728 248.87 97.4728 250.13C96.7728 251.37 95.8028 252.35 94.5628 253.07C93.3228 253.77 91.8928 254.12 90.2728 254.12ZM90.2728 251.42C91.3128 251.42 92.2328 251.18 93.0328 250.7C93.8328 250.22 94.4528 249.56 94.8928 248.72C95.3528 247.88 95.5828 246.91 95.5828 245.81C95.5828 244.71 95.3528 243.74 94.8928 242.9C94.4528 242.04 93.8328 241.37 93.0328 240.89C92.2328 240.41 91.3128 240.17 90.2728 240.17C89.2328 240.17 88.3128 240.41 87.5128 240.89C86.7128 241.37 86.0828 242.04 85.6228 242.9C85.1628 243.74 84.9328 244.71 84.9328 245.81C84.9328 246.91 85.1628 247.88 85.6228 248.72C86.0828 249.56 86.7128 250.22 87.5128 250.7C88.3128 251.18 89.2328 251.42 90.2728 251.42ZM105.949 254C105.629 254 105.329 253.91 105.049 253.73C104.789 253.53 104.609 253.29 104.509 253.01L100.069 239.69C99.9088 239.07 99.9088 238.57 100.069 238.19C100.249 237.79 100.629 237.59 101.209 237.59C101.589 237.59 101.899 237.7 102.139 237.92C102.399 238.12 102.609 238.47 102.769 238.97L106.549 250.79H105.499L109.069 238.73C109.169 238.39 109.339 238.12 109.579 237.92C109.819 237.7 110.149 237.59 110.569 237.59C110.969 237.59 111.289 237.7 111.529 237.92C111.789 238.12 111.959 238.39 112.039 238.73L114.949 250.07H114.499L118.039 238.97C118.319 238.05 118.839 237.59 119.599 237.59C120.159 237.59 120.539 237.79 120.739 238.19C120.939 238.57 120.929 239.07 120.709 239.69L116.269 253.01C116.189 253.29 116.019 253.53 115.759 253.73C115.499 253.91 115.199 254 114.859 254C114.539 254 114.239 253.91 113.959 253.73C113.679 253.53 113.499 253.29 113.419 253.01L110.329 241.58H110.629L107.389 253.01C107.309 253.29 107.129 253.53 106.849 253.73C106.589 253.91 106.289 254 105.949 254ZM138.754 254C137.754 254 136.854 253.75 136.054 253.25C135.254 252.73 134.624 252.03 134.164 251.15C133.704 250.27 133.474 249.28 133.474 248.18V233.87C133.474 233.43 133.614 233.07 133.894 232.79C134.174 232.51 134.534 232.37 134.974 232.37C135.414 232.37 135.774 232.51 136.054 232.79C136.334 233.07 136.474 233.43 136.474 233.87V248.18C136.474 248.98 136.694 249.65 137.134 250.19C137.574 250.73 138.114 251 138.754 251H139.774C140.134 251 140.434 251.14 140.674 251.42C140.934 251.7 141.064 252.06 141.064 252.5C141.064 252.94 140.894 253.3 140.554 253.58C140.234 253.86 139.814 254 139.294 254H138.754ZM132.094 240.77C131.674 240.77 131.334 240.65 131.074 240.41C130.814 240.17 130.684 239.87 130.684 239.51C130.684 239.11 130.814 238.79 131.074 238.55C131.334 238.31 131.674 238.19 132.094 238.19H139.024C139.444 238.19 139.784 238.31 140.044 238.55C140.304 238.79 140.434 239.11 140.434 239.51C140.434 239.87 140.304 240.17 140.044 240.41C139.784 240.65 139.444 240.77 139.024 240.77H132.094ZM152.265 254.12C150.645 254.12 149.215 253.77 147.975 253.07C146.735 252.35 145.755 251.37 145.035 250.13C144.335 248.87 143.985 247.43 143.985 245.81C143.985 244.17 144.335 242.73 145.035 241.49C145.755 240.23 146.735 239.25 147.975 238.55C149.215 237.83 150.645 237.47 152.265 237.47C153.865 237.47 155.285 237.83 156.525 238.55C157.765 239.25 158.735 240.23 159.435 241.49C160.155 242.73 160.515 244.17 160.515 245.81C160.515 247.43 160.165 248.87 159.465 250.13C158.765 251.37 157.795 252.35 156.555 253.07C155.315 253.77 153.885 254.12 152.265 254.12ZM152.265 251.42C153.305 251.42 154.225 251.18 155.025 250.7C155.825 250.22 156.445 249.56 156.885 248.72C157.345 247.88 157.575 246.91 157.575 245.81C157.575 244.71 157.345 243.74 156.885 242.9C156.445 242.04 155.825 241.37 155.025 240.89C154.225 240.41 153.305 240.17 152.265 240.17C151.225 240.17 150.305 240.41 149.505 240.89C148.705 241.37 148.075 242.04 147.615 242.9C147.155 243.74 146.925 244.71 146.925 245.81C146.925 246.91 147.155 247.88 147.615 248.72C148.075 249.56 148.705 250.22 149.505 250.7C150.305 251.18 151.225 251.42 152.265 251.42ZM175.688 254C175.248 254 174.878 253.86 174.578 253.58C174.298 253.28 174.158 252.91 174.158 252.47V239.12C174.158 238.66 174.298 238.29 174.578 238.01C174.878 237.73 175.248 237.59 175.688 237.59C176.148 237.59 176.518 237.73 176.798 238.01C177.078 238.29 177.218 238.66 177.218 239.12V252.47C177.218 252.91 177.078 253.28 176.798 253.58C176.518 253.86 176.148 254 175.688 254ZM175.688 234.92C175.148 234.92 174.678 234.73 174.278 234.35C173.898 233.95 173.708 233.48 173.708 232.94C173.708 232.4 173.898 231.94 174.278 231.56C174.678 231.16 175.148 230.96 175.688 230.96C176.228 230.96 176.688 231.16 177.068 231.56C177.468 231.94 177.668 232.4 177.668 232.94C177.668 233.48 177.468 233.95 177.068 234.35C176.688 234.73 176.228 234.92 175.688 234.92ZM196.771 254.03C196.331 254.03 195.961 253.89 195.661 253.61C195.381 253.31 195.241 252.94 195.241 252.5V245.12C195.241 243.98 195.031 243.05 194.611 242.33C194.191 241.61 193.621 241.08 192.901 240.74C192.201 240.38 191.391 240.2 190.471 240.2C189.631 240.2 188.871 240.37 188.191 240.71C187.511 241.05 186.971 241.51 186.571 242.09C186.171 242.65 185.971 243.3 185.971 244.04H184.081C184.081 242.78 184.381 241.66 184.981 240.68C185.601 239.68 186.441 238.89 187.501 238.31C188.561 237.73 189.751 237.44 191.071 237.44C192.451 237.44 193.681 237.74 194.761 238.34C195.861 238.92 196.721 239.78 197.341 240.92C197.981 242.06 198.301 243.46 198.301 245.12V252.5C198.301 252.94 198.151 253.31 197.851 253.61C197.571 253.89 197.211 254.03 196.771 254.03ZM184.441 254.03C184.001 254.03 183.631 253.89 183.331 253.61C183.051 253.31 182.911 252.94 182.911 252.5V239.12C182.911 238.66 183.051 238.29 183.331 238.01C183.631 237.73 184.001 237.59 184.441 237.59C184.901 237.59 185.271 237.73 185.551 238.01C185.831 238.29 185.971 238.66 185.971 239.12V252.5C185.971 252.94 185.831 253.31 185.551 253.61C185.271 253.89 184.901 254.03 184.441 254.03ZM209.33 254.12C207.93 254.12 206.63 253.91 205.43 253.49C204.25 253.05 203.33 252.5 202.67 251.84C202.37 251.52 202.24 251.16 202.28 250.76C202.34 250.34 202.54 250 202.88 249.74C203.28 249.42 203.67 249.29 204.05 249.35C204.45 249.39 204.79 249.56 205.07 249.86C205.41 250.24 205.95 250.6 206.69 250.94C207.45 251.26 208.29 251.42 209.21 251.42C210.37 251.42 211.25 251.23 211.85 250.85C212.47 250.47 212.79 249.98 212.81 249.38C212.83 248.78 212.54 248.26 211.94 247.82C211.36 247.38 210.29 247.02 208.73 246.74C206.71 246.34 205.24 245.74 204.32 244.94C203.42 244.14 202.97 243.16 202.97 242C202.97 240.98 203.27 240.14 203.87 239.48C204.47 238.8 205.24 238.3 206.18 237.98C207.12 237.64 208.1 237.47 209.12 237.47C210.44 237.47 211.61 237.68 212.63 238.1C213.65 238.52 214.46 239.1 215.06 239.84C215.34 240.16 215.47 240.5 215.45 240.86C215.43 241.2 215.26 241.49 214.94 241.73C214.62 241.95 214.24 242.02 213.8 241.94C213.36 241.86 212.99 241.68 212.69 241.4C212.19 240.92 211.65 240.59 211.07 240.41C210.49 240.23 209.82 240.14 209.06 240.14C208.18 240.14 207.43 240.29 206.81 240.59C206.21 240.89 205.91 241.33 205.91 241.91C205.91 242.27 206 242.6 206.18 242.9C206.38 243.18 206.76 243.44 207.32 243.68C207.88 243.9 208.7 244.12 209.78 244.34C211.28 244.64 212.46 245.02 213.32 245.48C214.2 245.94 214.83 246.48 215.21 247.1C215.59 247.7 215.78 248.4 215.78 249.2C215.78 250.12 215.53 250.95 215.03 251.69C214.55 252.43 213.83 253.02 212.87 253.46C211.93 253.9 210.75 254.12 209.33 254.12ZM225.619 254C224.619 254 223.719 253.75 222.919 253.25C222.119 252.73 221.489 252.03 221.029 251.15C220.569 250.27 220.339 249.28 220.339 248.18V233.87C220.339 233.43 220.479 233.07 220.759 232.79C221.039 232.51 221.399 232.37 221.839 232.37C222.279 232.37 222.639 232.51 222.919 232.79C223.199 233.07 223.339 233.43 223.339 233.87V248.18C223.339 248.98 223.559 249.65 223.999 250.19C224.439 250.73 224.979 251 225.619 251H226.639C226.999 251 227.299 251.14 227.539 251.42C227.799 251.7 227.929 252.06 227.929 252.5C227.929 252.94 227.759 253.3 227.419 253.58C227.099 253.86 226.679 254 226.159 254H225.619ZM218.959 240.77C218.539 240.77 218.199 240.65 217.939 240.41C217.679 240.17 217.549 239.87 217.549 239.51C217.549 239.11 217.679 238.79 217.939 238.55C218.199 238.31 218.539 238.19 218.959 238.19H225.889C226.309 238.19 226.649 238.31 226.909 238.55C227.169 238.79 227.299 239.11 227.299 239.51C227.299 239.87 227.169 240.17 226.909 240.41C226.649 240.65 226.309 240.77 225.889 240.77H218.959ZM238.53 254.12C237.07 254.12 235.76 253.76 234.6 253.04C233.44 252.3 232.52 251.31 231.84 250.07C231.18 248.81 230.85 247.39 230.85 245.81C230.85 244.23 231.21 242.81 231.93 241.55C232.67 240.29 233.66 239.3 234.9 238.58C236.16 237.84 237.57 237.47 239.13 237.47C240.69 237.47 242.09 237.84 243.33 238.58C244.57 239.3 245.55 240.29 246.27 241.55C247.01 242.81 247.38 244.23 247.38 245.81H246.21C246.21 247.39 245.87 248.81 245.19 250.07C244.53 251.31 243.62 252.3 242.46 253.04C241.3 253.76 239.99 254.12 238.53 254.12ZM239.13 251.42C240.15 251.42 241.06 251.18 241.86 250.7C242.66 250.2 243.29 249.53 243.75 248.69C244.21 247.83 244.44 246.87 244.44 245.81C244.44 244.73 244.21 243.77 243.75 242.93C243.29 242.07 242.66 241.4 241.86 240.92C241.06 240.42 240.15 240.17 239.13 240.17C238.13 240.17 237.22 240.42 236.4 240.92C235.6 241.4 234.96 242.07 234.48 242.93C234.02 243.77 233.79 244.73 233.79 245.81C233.79 246.87 234.02 247.83 234.48 248.69C234.96 249.53 235.6 250.2 236.4 250.7C237.22 251.18 238.13 251.42 239.13 251.42ZM245.85 254.03C245.41 254.03 245.04 253.89 244.74 253.61C244.46 253.31 244.32 252.94 244.32 252.5V247.91L244.89 244.73L247.38 245.81V252.5C247.38 252.94 247.23 253.31 246.93 253.61C246.65 253.89 246.29 254.03 245.85 254.03ZM255.834 254C254.954 254 254.174 253.76 253.494 253.28C252.814 252.8 252.284 252.15 251.904 251.33C251.524 250.49 251.334 249.53 251.334 248.45V232.07C251.334 231.63 251.474 231.27 251.754 230.99C252.034 230.71 252.394 230.57 252.834 230.57C253.274 230.57 253.634 230.71 253.914 230.99C254.194 231.27 254.334 231.63 254.334 232.07V248.45C254.334 249.19 254.474 249.8 254.754 250.28C255.034 250.76 255.394 251 255.834 251H256.584C256.984 251 257.304 251.14 257.544 251.42C257.804 251.7 257.934 252.06 257.934 252.5C257.934 252.94 257.744 253.3 257.364 253.58C256.984 253.86 256.494 254 255.894 254H255.834ZM264.829 254C263.949 254 263.169 253.76 262.489 253.28C261.809 252.8 261.279 252.15 260.899 251.33C260.519 250.49 260.329 249.53 260.329 248.45V232.07C260.329 231.63 260.469 231.27 260.749 230.99C261.029 230.71 261.389 230.57 261.829 230.57C262.269 230.57 262.629 230.71 262.909 230.99C263.189 231.27 263.329 231.63 263.329 232.07V248.45C263.329 249.19 263.469 249.8 263.749 250.28C264.029 250.76 264.389 251 264.829 251H265.579C265.979 251 266.299 251.14 266.539 251.42C266.799 251.7 266.929 252.06 266.929 252.5C266.929 252.94 266.739 253.3 266.359 253.58C265.979 253.86 265.489 254 264.889 254H264.829ZM275.443 248.45C275.003 248.45 274.633 248.31 274.333 248.03C274.053 247.73 273.913 247.36 273.913 246.92C273.913 246.14 274.113 245.29 274.513 244.37C274.913 243.43 275.533 242.6 276.373 241.88C276.933 241.4 277.443 240.93 277.903 240.47C278.383 239.99 278.763 239.45 279.043 238.85C279.343 238.23 279.493 237.48 279.493 236.6C279.493 235.96 279.343 235.36 279.043 234.8C278.743 234.24 278.313 233.79 277.753 233.45C277.213 233.09 276.543 232.91 275.743 232.91C274.763 232.91 273.953 233.09 273.313 233.45C272.673 233.81 272.193 234.31 271.873 234.95C271.573 235.59 271.423 236.34 271.423 237.2C271.423 237.64 271.283 238.01 271.003 238.31C270.723 238.59 270.353 238.73 269.893 238.73C269.453 238.73 269.083 238.59 268.783 238.31C268.503 238.01 268.363 237.64 268.363 237.2C268.363 235.8 268.663 234.57 269.263 233.51C269.883 232.45 270.743 231.62 271.843 231.02C272.963 230.4 274.263 230.09 275.743 230.09C277.043 230.09 278.193 230.37 279.193 230.93C280.213 231.47 281.013 232.23 281.593 233.21C282.193 234.17 282.493 235.3 282.493 236.6C282.493 237.72 282.313 238.69 281.953 239.51C281.593 240.33 281.103 241.07 280.483 241.73C279.863 242.37 279.153 243.01 278.353 243.65C277.833 244.07 277.473 244.62 277.273 245.3C277.073 245.96 276.973 246.5 276.973 246.92C276.973 247.36 276.833 247.73 276.553 248.03C276.273 248.31 275.903 248.45 275.443 248.45ZM275.443 254C274.883 254 274.393 253.8 273.973 253.4C273.573 252.98 273.373 252.49 273.373 251.93C273.373 251.35 273.573 250.86 273.973 250.46C274.393 250.04 274.883 249.83 275.443 249.83C276.023 249.83 276.513 250.04 276.913 250.46C277.333 250.86 277.543 251.35 277.543 251.93C277.543 252.49 277.333 252.98 276.913 253.4C276.513 253.8 276.023 254 275.443 254Z" fill="#46637E"/>
<path d="M1126.91 242H1157.38" stroke="#787878" stroke-width="3" stroke-linecap="round"/>
<path d="M1142.14 226L1142.14 257" stroke="#787878" stroke-width="3" stroke-linecap="round"/>
<defs>
<linearGradient id="paint0_linear_47_1087" x1="-3.5461e-06" y1="43.9997" x2="1199" y2="43.9998" gradientUnits="userSpaceOnUse">
<stop stop-color="#B2E3FF"/>
<stop offset="1" stop-color="#DFBFFF"/>
</linearGradient>
<linearGradient id="paint1_linear_47_1087" x1="-3.5461e-06" y1="344" x2="1199" y2="344" gradientUnits="userSpaceOnUse">
<stop stop-color="#B2E4FF"/>
<stop offset="1" stop-color="#DFBFFF"/>
</linearGradient>
<linearGradient id="paint2_linear_47_1087" x1="-3.5461e-06" y1="244" x2="1199" y2="244" gradientUnits="userSpaceOnUse">
<stop stop-color="#B2E3FF"/>
<stop offset="1" stop-color="#DFBFFF"/>
</linearGradient>
</defs>
</svg>
