<svg width="451" height="807" viewBox="0 0 451 807" fill="none" xmlns="http://www.w3.org/2000/svg">
<mask id="mask0_47_1373" style="mask-type:alpha" maskUnits="userSpaceOnUse" x="0" y="0" width="451" height="807">
<rect x="0.477539" width="450" height="807" rx="20" fill="#FCFCFF"/>
</mask>
<g mask="url(#mask0_47_1373)">
<rect x="0.477539" width="450" height="964" fill="white"/>
<path opacity="0.5" d="M-51.8984 10.404C-51.8984 -42.6888 233.819 -62 287.009 -62C340.198 -62 280.38 85.6434 159.004 39.609C33.4775 -8 -12.2781 65 -12.2781 134.817C-12.278 187.99 -51.8984 63.4968 -51.8984 10.404Z" fill="#AAEBFF"/>
<path d="M73.8775 480.304C73.7175 480.384 73.5575 480.424 73.3975 480.424C73.1255 480.424 72.9015 480.344 72.7255 480.184C72.5495 480.008 72.4615 479.784 72.4615 479.512C72.4615 479.048 72.6615 478.752 73.0615 478.624L76.7575 477.352C76.9975 477.272 77.1575 477.232 77.2375 477.232C77.4935 477.232 77.7095 477.32 77.8855 477.496C78.0615 477.672 78.1495 477.896 78.1495 478.168V495.064C78.1495 495.32 78.0615 495.544 77.8855 495.736C77.7095 495.912 77.4855 496 77.2135 496C76.9575 496 76.7335 495.912 76.5415 495.736C76.3655 495.544 76.2775 495.32 76.2775 495.064V479.464L73.8775 480.304ZM102.075 477.256C102.331 477.256 102.539 477.336 102.699 477.496C102.859 477.656 102.939 477.864 102.939 478.12C102.939 478.36 102.859 478.56 102.699 478.72C102.539 478.88 102.331 478.96 102.075 478.96H96.3631V495.064C96.3631 495.32 96.2751 495.544 96.0991 495.736C95.9231 495.912 95.6991 496 95.4271 496C95.1711 496 94.9471 495.912 94.7551 495.736C94.5791 495.544 94.4911 495.32 94.4911 495.064V478.96H88.8031C88.5471 478.96 88.3391 478.88 88.1791 478.72C88.0191 478.56 87.9391 478.36 87.9391 478.12C87.9391 477.864 88.0191 477.656 88.1791 477.496C88.3391 477.336 88.5471 477.256 88.8031 477.256H102.075ZM105.49 483.568C105.474 483.616 105.466 483.688 105.466 483.784V489.424C105.466 490.672 105.754 491.808 106.33 492.832C106.922 493.856 107.722 494.664 108.73 495.256C109.754 495.832 110.89 496.12 112.138 496.12C113.386 496.12 114.514 495.832 115.522 495.256C116.546 494.664 117.346 493.856 117.922 492.832C118.514 491.808 118.81 490.672 118.81 489.424C118.81 488.176 118.522 487.048 117.946 486.04C117.386 485.016 116.61 484.216 115.618 483.64C114.642 483.048 113.546 482.752 112.33 482.752C111.29 482.752 110.338 482.976 109.474 483.424C108.61 483.856 107.898 484.456 107.338 485.224V478.192C107.338 477.92 107.25 477.696 107.074 477.52C106.898 477.344 106.674 477.256 106.402 477.256C106.13 477.256 105.906 477.344 105.73 477.52C105.57 477.696 105.49 477.92 105.49 478.192V483.568ZM112.138 494.44C111.226 494.44 110.402 494.224 109.666 493.792C108.93 493.344 108.346 492.744 107.914 491.992C107.498 491.224 107.29 490.368 107.29 489.424C107.29 489.152 107.298 488.952 107.314 488.824C107.33 488.792 107.338 488.752 107.338 488.704C107.498 487.456 108.018 486.432 108.898 485.632C109.794 484.832 110.874 484.432 112.138 484.432C113.05 484.432 113.874 484.648 114.61 485.08C115.362 485.512 115.946 486.112 116.362 486.88C116.794 487.632 117.01 488.48 117.01 489.424C117.01 490.368 116.794 491.224 116.362 491.992C115.946 492.744 115.362 493.344 114.61 493.792C113.874 494.224 113.05 494.44 112.138 494.44ZM137.602 485.68C137.874 485.68 138.098 485.768 138.274 485.944C138.45 486.104 138.538 486.32 138.538 486.592C138.538 486.848 138.45 487.064 138.274 487.24C138.098 487.416 137.874 487.504 137.602 487.504H130.09V495.064C130.09 495.32 130.002 495.544 129.826 495.736C129.65 495.912 129.426 496 129.154 496C128.898 496 128.674 495.912 128.482 495.736C128.306 495.544 128.218 495.32 128.218 495.064V478.192C128.218 477.92 128.306 477.696 128.482 477.52C128.674 477.344 128.898 477.256 129.154 477.256H140.41C140.682 477.256 140.906 477.344 141.082 477.52C141.258 477.696 141.346 477.912 141.346 478.168C141.346 478.424 141.258 478.64 141.082 478.816C140.906 478.976 140.682 479.056 140.41 479.056H130.09V485.68H137.602ZM150.394 482.728C151.066 482.728 151.594 482.816 151.978 482.992C152.378 483.168 152.578 483.416 152.578 483.736C152.578 483.832 152.57 483.904 152.554 483.952C152.49 484.176 152.386 484.328 152.242 484.408C152.114 484.488 151.93 484.528 151.69 484.528C151.546 484.528 151.298 484.512 150.946 484.48C150.818 484.464 150.626 484.456 150.37 484.456C149.17 484.456 148.186 484.776 147.418 485.416C146.666 486.056 146.29 486.888 146.29 487.912V495.088C146.29 495.376 146.21 495.6 146.05 495.76C145.89 495.92 145.666 496 145.378 496C145.09 496 144.866 495.92 144.706 495.76C144.546 495.6 144.466 495.376 144.466 495.088V483.784C144.466 483.496 144.546 483.272 144.706 483.112C144.866 482.952 145.09 482.872 145.378 482.872C145.666 482.872 145.89 482.952 146.05 483.112C146.21 483.272 146.29 483.496 146.29 483.784V484.84C146.754 484.168 147.346 483.648 148.066 483.28C148.786 482.912 149.562 482.728 150.394 482.728ZM160.089 482.752C161.273 482.752 162.321 483.032 163.233 483.592C164.145 484.136 164.849 484.896 165.345 485.872C165.857 486.848 166.113 487.96 166.113 489.208C166.113 489.464 166.033 489.672 165.873 489.832C165.713 489.976 165.505 490.048 165.249 490.048H155.553C155.681 491.36 156.193 492.424 157.089 493.24C157.985 494.056 159.105 494.464 160.449 494.464C161.025 494.464 161.601 494.368 162.177 494.176C162.769 493.968 163.241 493.712 163.593 493.408C163.801 493.248 164.017 493.168 164.241 493.168C164.417 493.168 164.593 493.232 164.769 493.36C164.977 493.552 165.081 493.768 165.081 494.008C165.081 494.216 164.993 494.4 164.817 494.56C164.289 495.008 163.617 495.384 162.801 495.688C161.985 495.976 161.201 496.12 160.449 496.12C159.169 496.12 158.025 495.84 157.017 495.28C156.009 494.704 155.217 493.912 154.641 492.904C154.081 491.88 153.801 490.728 153.801 489.448C153.801 488.152 154.065 487 154.593 485.992C155.137 484.968 155.881 484.176 156.825 483.616C157.785 483.04 158.873 482.752 160.089 482.752ZM160.089 484.408C158.873 484.408 157.865 484.784 157.065 485.536C156.265 486.288 155.777 487.28 155.601 488.512H164.385C164.257 487.28 163.809 486.288 163.041 485.536C162.273 484.784 161.289 484.408 160.089 484.408ZM174.362 482.752C175.546 482.752 176.594 483.032 177.506 483.592C178.418 484.136 179.122 484.896 179.618 485.872C180.13 486.848 180.386 487.96 180.386 489.208C180.386 489.464 180.306 489.672 180.146 489.832C179.986 489.976 179.778 490.048 179.522 490.048H169.826C169.954 491.36 170.466 492.424 171.362 493.24C172.258 494.056 173.378 494.464 174.722 494.464C175.298 494.464 175.874 494.368 176.45 494.176C177.042 493.968 177.514 493.712 177.866 493.408C178.074 493.248 178.29 493.168 178.514 493.168C178.69 493.168 178.866 493.232 179.042 493.36C179.25 493.552 179.354 493.768 179.354 494.008C179.354 494.216 179.266 494.4 179.09 494.56C178.562 495.008 177.89 495.384 177.074 495.688C176.258 495.976 175.474 496.12 174.722 496.12C173.442 496.12 172.298 495.84 171.29 495.28C170.282 494.704 169.49 493.912 168.914 492.904C168.354 491.88 168.074 490.728 168.074 489.448C168.074 488.152 168.338 487 168.866 485.992C169.41 484.968 170.154 484.176 171.098 483.616C172.058 483.04 173.146 482.752 174.362 482.752ZM174.362 484.408C173.146 484.408 172.138 484.784 171.338 485.536C170.538 486.288 170.05 487.28 169.874 488.512H178.658C178.53 487.28 178.082 486.288 177.314 485.536C176.546 484.784 175.562 484.408 174.362 484.408ZM195.08 482.752C196.136 482.752 197.056 482.936 197.84 483.304C198.624 483.656 199.256 484.152 199.736 484.792C199.864 485 199.928 485.184 199.928 485.344C199.928 485.616 199.8 485.832 199.544 485.992C199.432 486.072 199.28 486.112 199.088 486.112C198.752 486.112 198.472 485.992 198.248 485.752C197.464 484.856 196.392 484.408 195.032 484.408C194.152 484.408 193.448 484.592 192.92 484.96C192.392 485.312 192.128 485.76 192.128 486.304C192.128 486.88 192.376 487.344 192.872 487.696C193.368 488.032 194.248 488.304 195.512 488.512C197.224 488.8 198.448 489.272 199.184 489.928C199.92 490.568 200.288 491.368 200.288 492.328C200.288 493.064 200.064 493.72 199.616 494.296C199.184 494.872 198.576 495.32 197.792 495.64C197.008 495.96 196.12 496.12 195.128 496.12C194.136 496.12 193.184 495.952 192.272 495.616C191.36 495.28 190.624 494.808 190.064 494.2C189.904 494.008 189.824 493.824 189.824 493.648C189.824 493.376 189.952 493.136 190.208 492.928C190.4 492.784 190.6 492.712 190.808 492.712C191.08 492.712 191.312 492.824 191.504 493.048C191.888 493.496 192.392 493.84 193.016 494.08C193.656 494.32 194.36 494.44 195.128 494.44C196.248 494.44 197.088 494.248 197.648 493.864C198.208 493.48 198.496 492.976 198.512 492.352C198.512 491.776 198.232 491.296 197.672 490.912C197.112 490.528 196.224 490.24 195.008 490.048C193.44 489.792 192.264 489.352 191.48 488.728C190.712 488.088 190.328 487.32 190.328 486.424C190.328 485.256 190.776 484.352 191.672 483.712C192.584 483.072 193.72 482.752 195.08 482.752ZM210.153 482.752C211.401 482.752 212.529 483.048 213.537 483.64C214.561 484.216 215.361 485.016 215.937 486.04C216.529 487.064 216.825 488.2 216.825 489.448C216.825 490.696 216.537 491.832 215.961 492.856C215.401 493.864 214.625 494.664 213.633 495.256C212.657 495.832 211.561 496.12 210.345 496.12C209.305 496.12 208.353 495.904 207.489 495.472C206.625 495.024 205.913 494.416 205.353 493.648V500.68C205.353 500.952 205.265 501.176 205.089 501.352C204.913 501.528 204.689 501.616 204.417 501.616C204.145 501.616 203.921 501.528 203.745 501.352C203.585 501.176 203.505 500.952 203.505 500.68V495.304C203.489 495.256 203.481 495.184 203.481 495.088V489.448C203.481 488.2 203.769 487.064 204.345 486.04C204.937 485.016 205.737 484.216 206.745 483.64C207.769 483.048 208.905 482.752 210.153 482.752ZM210.153 494.44C211.065 494.44 211.889 494.224 212.625 493.792C213.377 493.36 213.961 492.768 214.377 492.016C214.809 491.248 215.025 490.392 215.025 489.448C215.025 488.504 214.809 487.656 214.377 486.904C213.961 486.136 213.377 485.536 212.625 485.104C211.889 484.656 211.065 484.432 210.153 484.432C209.241 484.432 208.417 484.656 207.681 485.104C206.945 485.536 206.361 486.136 205.929 486.904C205.513 487.656 205.305 488.504 205.305 489.448C205.305 489.72 205.313 489.92 205.329 490.048C205.345 490.08 205.353 490.12 205.353 490.168C205.513 491.416 206.033 492.44 206.913 493.24C207.809 494.04 208.889 494.44 210.153 494.44ZM226.426 482.752C227.674 482.752 228.802 483.048 229.81 483.64C230.834 484.216 231.634 485.016 232.21 486.04C232.802 487.064 233.098 488.2 233.098 489.448V495.088C233.098 495.344 233.01 495.56 232.834 495.736C232.658 495.912 232.434 496 232.162 496C231.89 496 231.666 495.92 231.49 495.76C231.314 495.584 231.226 495.36 231.226 495.088V493.648C230.666 494.416 229.954 495.024 229.09 495.472C228.226 495.904 227.274 496.12 226.234 496.12C225.018 496.12 223.914 495.832 222.922 495.256C221.946 494.664 221.17 493.864 220.594 492.856C220.034 491.832 219.754 490.696 219.754 489.448C219.754 488.2 220.042 487.064 220.618 486.04C221.21 485.016 222.01 484.216 223.018 483.64C224.042 483.048 225.178 482.752 226.426 482.752ZM226.426 494.44C227.338 494.44 228.162 494.224 228.898 493.792C229.634 493.36 230.21 492.768 230.626 492.016C231.058 491.248 231.274 490.392 231.274 489.448C231.274 488.504 231.058 487.656 230.626 486.904C230.21 486.136 229.634 485.536 228.898 485.104C228.162 484.656 227.338 484.432 226.426 484.432C225.514 484.432 224.682 484.656 223.93 485.104C223.194 485.536 222.61 486.136 222.178 486.904C221.762 487.656 221.554 488.504 221.554 489.448C221.554 490.392 221.762 491.248 222.178 492.016C222.61 492.768 223.194 493.36 223.93 493.792C224.682 494.224 225.514 494.44 226.426 494.44ZM242.308 482.752C244.308 482.752 245.932 483.52 247.18 485.056C247.308 485.2 247.372 485.368 247.372 485.56C247.372 485.816 247.236 486.04 246.964 486.232C246.82 486.328 246.668 486.376 246.508 486.376C246.268 486.376 246.036 486.256 245.812 486.016C245.332 485.488 244.804 485.096 244.228 484.84C243.652 484.568 243.012 484.432 242.308 484.432C241.428 484.432 240.644 484.648 239.956 485.08C239.268 485.496 238.732 486.088 238.348 486.856C237.98 487.624 237.796 488.488 237.796 489.448C237.796 490.392 237.996 491.248 238.396 492.016C238.796 492.768 239.356 493.36 240.076 493.792C240.796 494.224 241.62 494.44 242.548 494.44C243.828 494.44 244.86 494.096 245.644 493.408C245.852 493.232 246.068 493.144 246.292 493.144C246.484 493.144 246.66 493.208 246.82 493.336C247.044 493.528 247.156 493.744 247.156 493.984C247.156 494.192 247.076 494.368 246.916 494.512C245.764 495.584 244.308 496.12 242.548 496.12C241.3 496.12 240.18 495.832 239.188 495.256C238.196 494.664 237.412 493.864 236.836 492.856C236.276 491.832 235.996 490.696 235.996 489.448C235.996 488.168 236.268 487.024 236.812 486.016C237.356 484.992 238.108 484.192 239.068 483.616C240.028 483.04 241.108 482.752 242.308 482.752ZM256.581 482.752C257.765 482.752 258.813 483.032 259.725 483.592C260.637 484.136 261.341 484.896 261.837 485.872C262.349 486.848 262.605 487.96 262.605 489.208C262.605 489.464 262.525 489.672 262.365 489.832C262.205 489.976 261.997 490.048 261.741 490.048H252.045C252.173 491.36 252.685 492.424 253.581 493.24C254.477 494.056 255.597 494.464 256.941 494.464C257.517 494.464 258.093 494.368 258.669 494.176C259.261 493.968 259.733 493.712 260.085 493.408C260.293 493.248 260.509 493.168 260.733 493.168C260.909 493.168 261.085 493.232 261.261 493.36C261.469 493.552 261.573 493.768 261.573 494.008C261.573 494.216 261.485 494.4 261.309 494.56C260.781 495.008 260.109 495.384 259.293 495.688C258.477 495.976 257.693 496.12 256.941 496.12C255.661 496.12 254.517 495.84 253.509 495.28C252.501 494.704 251.709 493.912 251.133 492.904C250.573 491.88 250.293 490.728 250.293 489.448C250.293 488.152 250.557 487 251.085 485.992C251.629 484.968 252.373 484.176 253.317 483.616C254.277 483.04 255.365 482.752 256.581 482.752ZM256.581 484.408C255.365 484.408 254.357 484.784 253.557 485.536C252.757 486.288 252.269 487.28 252.093 488.512H260.877C260.749 487.28 260.301 486.288 259.533 485.536C258.765 484.784 257.781 484.408 256.581 484.408ZM85.0615 553.832C85.6695 553.832 85.9735 554.12 85.9735 554.696C85.9735 554.904 85.8775 555.096 85.6855 555.272C85.5095 555.432 85.3015 555.512 85.0615 555.512H83.1655V559.064C83.1655 559.32 83.0775 559.544 82.9015 559.736C82.7255 559.912 82.5015 560 82.2295 560C81.9735 560 81.7575 559.912 81.5815 559.736C81.4215 559.56 81.3415 559.336 81.3415 559.064V555.512H72.7495C72.4775 555.512 72.2535 555.424 72.0775 555.248C71.9015 555.056 71.8135 554.84 71.8135 554.6C71.8135 554.408 71.8775 554.224 72.0055 554.048L81.5095 541.616C81.6855 541.36 81.9415 541.232 82.2775 541.232C82.5335 541.232 82.7415 541.328 82.9015 541.52C83.0775 541.696 83.1655 541.92 83.1655 542.192V553.832H85.0615ZM81.3415 553.832V544.664L74.3095 553.832H81.3415ZM108.544 541.256C108.8 541.256 109.008 541.336 109.168 541.496C109.328 541.656 109.408 541.864 109.408 542.12C109.408 542.36 109.328 542.56 109.168 542.72C109.008 542.88 108.8 542.96 108.544 542.96H102.832V559.064C102.832 559.32 102.744 559.544 102.568 559.736C102.392 559.912 102.168 560 101.896 560C101.64 560 101.416 559.912 101.224 559.736C101.048 559.544 100.96 559.32 100.96 559.064V542.96H95.2719C95.0159 542.96 94.8079 542.88 94.6479 542.72C94.4879 542.56 94.4079 542.36 94.4079 542.12C94.4079 541.864 94.4879 541.656 94.6479 541.496C94.8079 541.336 95.0159 541.256 95.2719 541.256H108.544ZM111.958 547.568C111.942 547.616 111.934 547.688 111.934 547.784V553.424C111.934 554.672 112.222 555.808 112.798 556.832C113.39 557.856 114.19 558.664 115.198 559.256C116.222 559.832 117.358 560.12 118.606 560.12C119.854 560.12 120.982 559.832 121.99 559.256C123.014 558.664 123.814 557.856 124.39 556.832C124.982 555.808 125.278 554.672 125.278 553.424C125.278 552.176 124.99 551.048 124.414 550.04C123.854 549.016 123.078 548.216 122.086 547.64C121.11 547.048 120.014 546.752 118.798 546.752C117.758 546.752 116.806 546.976 115.942 547.424C115.078 547.856 114.366 548.456 113.806 549.224V542.192C113.806 541.92 113.718 541.696 113.542 541.52C113.366 541.344 113.142 541.256 112.87 541.256C112.598 541.256 112.374 541.344 112.198 541.52C112.038 541.696 111.958 541.92 111.958 542.192V547.568ZM118.606 558.44C117.694 558.44 116.87 558.224 116.134 557.792C115.398 557.344 114.814 556.744 114.382 555.992C113.966 555.224 113.758 554.368 113.758 553.424C113.758 553.152 113.766 552.952 113.782 552.824C113.798 552.792 113.806 552.752 113.806 552.704C113.966 551.456 114.486 550.432 115.366 549.632C116.262 548.832 117.342 548.432 118.606 548.432C119.518 548.432 120.342 548.648 121.078 549.08C121.83 549.512 122.414 550.112 122.83 550.88C123.262 551.632 123.478 552.48 123.478 553.424C123.478 554.368 123.262 555.224 122.83 555.992C122.414 556.744 121.83 557.344 121.078 557.792C120.342 558.224 119.518 558.44 118.606 558.44ZM154.006 541.256C154.262 541.256 154.478 541.344 154.654 541.52C154.83 541.696 154.918 541.92 154.918 542.192V559.064C154.918 559.32 154.83 559.544 154.654 559.736C154.478 559.912 154.262 560 154.006 560C153.734 560 153.502 559.912 153.31 559.736C153.134 559.544 153.046 559.32 153.046 559.064V545.48L146.374 559.112C146.182 559.416 145.91 559.568 145.558 559.568C145.158 559.568 144.87 559.376 144.694 558.992L138.046 545.696V559.064C138.046 559.32 137.958 559.544 137.782 559.736C137.606 559.912 137.382 560 137.11 560C136.854 560 136.63 559.912 136.438 559.736C136.262 559.544 136.174 559.32 136.174 559.064V542.192C136.174 541.92 136.262 541.696 136.438 541.52C136.63 541.344 136.854 541.256 137.11 541.256C137.478 541.256 137.758 541.416 137.95 541.736L145.63 557L153.166 541.736C153.358 541.416 153.638 541.256 154.006 541.256ZM165.465 546.752C166.729 546.752 167.865 547.04 168.873 547.616C169.881 548.192 170.673 548.992 171.249 550.016C171.841 551.04 172.137 552.184 172.137 553.448C172.137 554.712 171.849 555.856 171.273 556.88C170.697 557.888 169.897 558.68 168.873 559.256C167.865 559.832 166.729 560.12 165.465 560.12C164.201 560.12 163.057 559.832 162.033 559.256C161.025 558.68 160.233 557.888 159.657 556.88C159.081 555.856 158.793 554.712 158.793 553.448C158.793 552.184 159.081 551.04 159.657 550.016C160.233 548.992 161.025 548.192 162.033 547.616C163.057 547.04 164.201 546.752 165.465 546.752ZM165.465 548.432C164.553 548.432 163.721 548.648 162.969 549.08C162.233 549.512 161.649 550.112 161.217 550.88C160.801 551.632 160.593 552.488 160.593 553.448C160.593 554.392 160.801 555.248 161.217 556.016C161.649 556.768 162.233 557.36 162.969 557.792C163.721 558.224 164.553 558.44 165.465 558.44C166.393 558.44 167.225 558.224 167.961 557.792C168.697 557.36 169.273 556.768 169.689 556.016C170.105 555.248 170.313 554.392 170.313 553.448C170.313 552.488 170.105 551.632 169.689 550.88C169.273 550.112 168.697 549.512 167.961 549.08C167.225 548.648 166.393 548.432 165.465 548.432ZM181.947 546.728C183.083 546.728 184.099 546.968 184.995 547.448C185.907 547.928 186.619 548.632 187.131 549.56C187.643 550.472 187.899 551.568 187.899 552.848V559.088C187.899 559.344 187.811 559.56 187.635 559.736C187.459 559.912 187.243 560 186.987 560C186.715 560 186.491 559.912 186.315 559.736C186.139 559.56 186.051 559.344 186.051 559.088V552.848C186.051 551.424 185.651 550.344 184.851 549.608C184.067 548.856 183.035 548.48 181.755 548.48C180.971 548.48 180.259 548.632 179.619 548.936C178.995 549.24 178.499 549.664 178.131 550.208C177.763 550.736 177.579 551.328 177.579 551.984V559.088C177.579 559.36 177.491 559.584 177.315 559.76C177.155 559.92 176.939 560 176.667 560C176.395 560 176.171 559.92 175.995 559.76C175.819 559.584 175.731 559.36 175.731 559.088V547.808C175.731 547.536 175.819 547.312 175.995 547.136C176.171 546.96 176.395 546.872 176.667 546.872C176.939 546.872 177.155 546.96 177.315 547.136C177.491 547.312 177.579 547.536 177.579 547.808V548.624C178.107 548.032 178.747 547.568 179.499 547.232C180.251 546.896 181.067 546.728 181.947 546.728ZM197.757 558.152C198.013 558.152 198.221 558.24 198.381 558.416C198.541 558.592 198.621 558.816 198.621 559.088C198.621 559.344 198.525 559.56 198.333 559.736C198.141 559.912 197.901 560 197.613 560H197.109C196.261 560 195.501 559.8 194.829 559.4C194.157 558.984 193.629 558.432 193.245 557.744C192.877 557.04 192.693 556.248 192.693 555.368V548.96H191.133C190.877 548.96 190.669 548.888 190.509 548.744C190.365 548.584 190.293 548.392 190.293 548.168C190.293 547.928 190.365 547.736 190.509 547.592C190.669 547.432 190.877 547.352 191.133 547.352H192.693V543.632C192.693 543.36 192.773 543.136 192.933 542.96C193.109 542.784 193.333 542.696 193.605 542.696C193.877 542.696 194.101 542.784 194.277 542.96C194.453 543.136 194.541 543.36 194.541 543.632V547.352H197.253C197.509 547.352 197.709 547.432 197.853 547.592C198.013 547.736 198.093 547.928 198.093 548.168C198.093 548.392 198.013 548.584 197.853 548.744C197.709 548.888 197.509 548.96 197.253 548.96H194.541V555.368C194.541 556.184 194.781 556.856 195.261 557.384C195.741 557.896 196.357 558.152 197.109 558.152H197.757ZM207.846 546.728C208.982 546.728 209.998 546.968 210.894 547.448C211.806 547.928 212.518 548.632 213.03 549.56C213.542 550.472 213.798 551.568 213.798 552.848V559.088C213.798 559.344 213.71 559.56 213.534 559.736C213.358 559.912 213.142 560 212.886 560C212.614 560 212.39 559.912 212.214 559.736C212.038 559.56 211.95 559.344 211.95 559.088V552.848C211.95 551.424 211.55 550.344 210.75 549.608C209.966 548.856 208.934 548.48 207.654 548.48C206.87 548.48 206.158 548.632 205.518 548.936C204.894 549.24 204.398 549.664 204.03 550.208C203.662 550.736 203.478 551.328 203.478 551.984V559.088C203.478 559.36 203.39 559.584 203.214 559.76C203.054 559.92 202.838 560 202.566 560C202.294 560 202.07 559.92 201.894 559.76C201.718 559.584 201.63 559.36 201.63 559.088V542.192C201.63 541.92 201.718 541.696 201.894 541.52C202.07 541.344 202.294 541.256 202.566 541.256C202.838 541.256 203.054 541.344 203.214 541.52C203.39 541.696 203.478 541.92 203.478 542.192V548.624C204.006 548.032 204.646 547.568 205.398 547.232C206.15 546.896 206.966 546.728 207.846 546.728ZM217.392 542.168C217.392 541.896 217.48 541.68 217.656 541.52C217.832 541.344 218.048 541.256 218.304 541.256C218.576 541.256 218.792 541.344 218.952 541.52C219.128 541.68 219.216 541.896 219.216 542.168V555.848C219.216 556.536 219.352 557.096 219.624 557.528C219.912 557.96 220.272 558.176 220.704 558.176H221.304C221.544 558.176 221.736 558.264 221.88 558.44C222.024 558.6 222.096 558.816 222.096 559.088C222.096 559.36 221.992 559.584 221.784 559.76C221.592 559.92 221.336 560 221.016 560H220.704C219.728 560 218.928 559.616 218.304 558.848C217.696 558.064 217.392 557.064 217.392 555.848V542.168ZM234.917 546.944C235.285 547.088 235.469 547.32 235.469 547.64C235.469 547.784 235.437 547.928 235.373 548.072L227.597 565.16C227.453 565.528 227.221 565.712 226.901 565.712C226.741 565.712 226.597 565.68 226.469 565.616C226.101 565.472 225.917 565.232 225.917 564.896C225.917 564.752 225.949 564.608 226.013 564.464L228.389 559.208V559.184L223.037 548.096C222.973 547.968 222.941 547.824 222.941 547.664C222.941 547.328 223.117 547.088 223.469 546.944C223.597 546.88 223.741 546.848 223.901 546.848C224.237 546.848 224.477 547.016 224.621 547.352L229.301 557.216L233.765 547.376C233.925 547.024 234.165 546.848 234.485 546.848C234.629 546.848 234.773 546.88 234.917 546.944ZM249.361 546.752C250.417 546.752 251.337 546.936 252.121 547.304C252.905 547.656 253.537 548.152 254.017 548.792C254.145 549 254.209 549.184 254.209 549.344C254.209 549.616 254.081 549.832 253.825 549.992C253.713 550.072 253.561 550.112 253.369 550.112C253.033 550.112 252.753 549.992 252.529 549.752C251.745 548.856 250.673 548.408 249.313 548.408C248.433 548.408 247.729 548.592 247.201 548.96C246.673 549.312 246.409 549.76 246.409 550.304C246.409 550.88 246.657 551.344 247.153 551.696C247.649 552.032 248.529 552.304 249.793 552.512C251.505 552.8 252.729 553.272 253.465 553.928C254.201 554.568 254.569 555.368 254.569 556.328C254.569 557.064 254.345 557.72 253.897 558.296C253.465 558.872 252.857 559.32 252.073 559.64C251.289 559.96 250.401 560.12 249.409 560.12C248.417 560.12 247.465 559.952 246.553 559.616C245.641 559.28 244.905 558.808 244.345 558.2C244.185 558.008 244.105 557.824 244.105 557.648C244.105 557.376 244.233 557.136 244.489 556.928C244.681 556.784 244.881 556.712 245.089 556.712C245.361 556.712 245.593 556.824 245.785 557.048C246.169 557.496 246.673 557.84 247.297 558.08C247.937 558.32 248.641 558.44 249.409 558.44C250.529 558.44 251.369 558.248 251.929 557.864C252.489 557.48 252.777 556.976 252.793 556.352C252.793 555.776 252.513 555.296 251.953 554.912C251.393 554.528 250.505 554.24 249.289 554.048C247.721 553.792 246.545 553.352 245.761 552.728C244.993 552.088 244.609 551.32 244.609 550.424C244.609 549.256 245.057 548.352 245.953 547.712C246.865 547.072 248.001 546.752 249.361 546.752ZM264.435 546.752C265.683 546.752 266.811 547.048 267.819 547.64C268.843 548.216 269.643 549.016 270.219 550.04C270.811 551.064 271.107 552.2 271.107 553.448C271.107 554.696 270.819 555.832 270.243 556.856C269.683 557.864 268.907 558.664 267.915 559.256C266.939 559.832 265.843 560.12 264.627 560.12C263.587 560.12 262.635 559.904 261.771 559.472C260.907 559.024 260.195 558.416 259.635 557.648V564.68C259.635 564.952 259.547 565.176 259.371 565.352C259.195 565.528 258.971 565.616 258.699 565.616C258.427 565.616 258.203 565.528 258.027 565.352C257.867 565.176 257.787 564.952 257.787 564.68V559.304C257.771 559.256 257.763 559.184 257.763 559.088V553.448C257.763 552.2 258.051 551.064 258.627 550.04C259.219 549.016 260.019 548.216 261.027 547.64C262.051 547.048 263.187 546.752 264.435 546.752ZM264.435 558.44C265.347 558.44 266.171 558.224 266.907 557.792C267.659 557.36 268.243 556.768 268.659 556.016C269.091 555.248 269.307 554.392 269.307 553.448C269.307 552.504 269.091 551.656 268.659 550.904C268.243 550.136 267.659 549.536 266.907 549.104C266.171 548.656 265.347 548.432 264.435 548.432C263.523 548.432 262.699 548.656 261.963 549.104C261.227 549.536 260.643 550.136 260.211 550.904C259.795 551.656 259.587 552.504 259.587 553.448C259.587 553.72 259.595 553.92 259.611 554.048C259.627 554.08 259.635 554.12 259.635 554.168C259.795 555.416 260.315 556.44 261.195 557.24C262.091 558.04 263.171 558.44 264.435 558.44ZM280.707 546.752C281.955 546.752 283.083 547.048 284.091 547.64C285.115 548.216 285.915 549.016 286.491 550.04C287.083 551.064 287.379 552.2 287.379 553.448V559.088C287.379 559.344 287.291 559.56 287.115 559.736C286.939 559.912 286.715 560 286.443 560C286.171 560 285.947 559.92 285.771 559.76C285.595 559.584 285.507 559.36 285.507 559.088V557.648C284.947 558.416 284.235 559.024 283.371 559.472C282.507 559.904 281.555 560.12 280.515 560.12C279.299 560.12 278.195 559.832 277.203 559.256C276.227 558.664 275.451 557.864 274.875 556.856C274.315 555.832 274.035 554.696 274.035 553.448C274.035 552.2 274.323 551.064 274.899 550.04C275.491 549.016 276.291 548.216 277.299 547.64C278.323 547.048 279.459 546.752 280.707 546.752ZM280.707 558.44C281.619 558.44 282.443 558.224 283.179 557.792C283.915 557.36 284.491 556.768 284.907 556.016C285.339 555.248 285.555 554.392 285.555 553.448C285.555 552.504 285.339 551.656 284.907 550.904C284.491 550.136 283.915 549.536 283.179 549.104C282.443 548.656 281.619 548.432 280.707 548.432C279.795 548.432 278.963 548.656 278.211 549.104C277.475 549.536 276.891 550.136 276.459 550.904C276.043 551.656 275.835 552.504 275.835 553.448C275.835 554.392 276.043 555.248 276.459 556.016C276.891 556.768 277.475 557.36 278.211 557.792C278.963 558.224 279.795 558.44 280.707 558.44ZM296.589 546.752C298.589 546.752 300.213 547.52 301.461 549.056C301.589 549.2 301.653 549.368 301.653 549.56C301.653 549.816 301.517 550.04 301.245 550.232C301.101 550.328 300.949 550.376 300.789 550.376C300.549 550.376 300.317 550.256 300.093 550.016C299.613 549.488 299.085 549.096 298.509 548.84C297.933 548.568 297.293 548.432 296.589 548.432C295.709 548.432 294.925 548.648 294.237 549.08C293.549 549.496 293.013 550.088 292.629 550.856C292.261 551.624 292.077 552.488 292.077 553.448C292.077 554.392 292.277 555.248 292.677 556.016C293.077 556.768 293.637 557.36 294.357 557.792C295.077 558.224 295.901 558.44 296.829 558.44C298.109 558.44 299.141 558.096 299.925 557.408C300.133 557.232 300.349 557.144 300.573 557.144C300.765 557.144 300.941 557.208 301.101 557.336C301.325 557.528 301.437 557.744 301.437 557.984C301.437 558.192 301.357 558.368 301.197 558.512C300.045 559.584 298.589 560.12 296.829 560.12C295.581 560.12 294.461 559.832 293.469 559.256C292.477 558.664 291.693 557.864 291.117 556.856C290.557 555.832 290.277 554.696 290.277 553.448C290.277 552.168 290.549 551.024 291.093 550.016C291.637 548.992 292.389 548.192 293.349 547.616C294.309 547.04 295.389 546.752 296.589 546.752ZM310.862 546.752C312.046 546.752 313.094 547.032 314.006 547.592C314.918 548.136 315.622 548.896 316.118 549.872C316.63 550.848 316.886 551.96 316.886 553.208C316.886 553.464 316.806 553.672 316.646 553.832C316.486 553.976 316.278 554.048 316.022 554.048H306.326C306.454 555.36 306.966 556.424 307.862 557.24C308.758 558.056 309.878 558.464 311.222 558.464C311.798 558.464 312.374 558.368 312.95 558.176C313.542 557.968 314.014 557.712 314.366 557.408C314.574 557.248 314.79 557.168 315.014 557.168C315.19 557.168 315.366 557.232 315.542 557.36C315.75 557.552 315.854 557.768 315.854 558.008C315.854 558.216 315.766 558.4 315.59 558.56C315.062 559.008 314.39 559.384 313.574 559.688C312.758 559.976 311.974 560.12 311.222 560.12C309.942 560.12 308.798 559.84 307.79 559.28C306.782 558.704 305.99 557.912 305.414 556.904C304.854 555.88 304.574 554.728 304.574 553.448C304.574 552.152 304.838 551 305.366 549.992C305.91 548.968 306.654 548.176 307.598 547.616C308.558 547.04 309.646 546.752 310.862 546.752ZM310.862 548.408C309.646 548.408 308.638 548.784 307.838 549.536C307.038 550.288 306.55 551.28 306.374 552.512H315.158C315.03 551.28 314.582 550.288 313.814 549.536C313.046 548.784 312.062 548.408 310.862 548.408ZM73.8775 608.304C73.7175 608.384 73.5575 608.424 73.3975 608.424C73.1255 608.424 72.9015 608.344 72.7255 608.184C72.5495 608.008 72.4615 607.784 72.4615 607.512C72.4615 607.048 72.6615 606.752 73.0615 606.624L76.7575 605.352C76.9975 605.272 77.1575 605.232 77.2375 605.232C77.4935 605.232 77.7095 605.32 77.8855 605.496C78.0615 605.672 78.1495 605.896 78.1495 606.168V623.064C78.1495 623.32 78.0615 623.544 77.8855 623.736C77.7095 623.912 77.4855 624 77.2135 624C76.9575 624 76.7335 623.912 76.5415 623.736C76.3655 623.544 76.2775 623.32 76.2775 623.064V607.464L73.8775 608.304ZM87.3879 605.208C88.5879 605.208 89.6119 605.592 90.4599 606.36C91.3079 607.112 91.9479 608.192 92.3799 609.6C92.8279 611.008 93.0519 612.672 93.0519 614.592C93.0519 617.536 92.5559 619.84 91.5639 621.504C90.5719 623.168 89.1799 624 87.3879 624C86.2039 624 85.1879 623.624 84.3399 622.872C83.4919 622.12 82.8439 621.04 82.3959 619.632C81.9639 618.224 81.7479 616.544 81.7479 614.592C81.7479 612.656 81.9639 610.984 82.3959 609.576C82.8439 608.168 83.4919 607.088 84.3399 606.336C85.1879 605.584 86.2039 605.208 87.3879 605.208ZM87.3879 607.08C86.1559 607.08 85.2199 607.768 84.5799 609.144C83.9399 610.52 83.6199 612.336 83.6199 614.592C83.6199 616.88 83.9399 618.712 84.5799 620.088C85.2199 621.448 86.1559 622.128 87.3879 622.128C88.6359 622.128 89.5799 621.44 90.2199 620.064C90.8599 618.688 91.1799 616.864 91.1799 614.592C91.1799 612.336 90.8519 610.52 90.1959 609.144C89.5559 607.768 88.6199 607.08 87.3879 607.08ZM101.099 605.208C102.299 605.208 103.323 605.592 104.171 606.36C105.019 607.112 105.659 608.192 106.091 609.6C106.539 611.008 106.763 612.672 106.763 614.592C106.763 617.536 106.267 619.84 105.275 621.504C104.283 623.168 102.891 624 101.099 624C99.9148 624 98.8988 623.624 98.0508 622.872C97.2028 622.12 96.5548 621.04 96.1068 619.632C95.6748 618.224 95.4588 616.544 95.4588 614.592C95.4588 612.656 95.6748 610.984 96.1068 609.576C96.5548 608.168 97.2028 607.088 98.0508 606.336C98.8988 605.584 99.9148 605.208 101.099 605.208ZM101.099 607.08C99.8668 607.08 98.9308 607.768 98.2908 609.144C97.6508 610.52 97.3308 612.336 97.3308 614.592C97.3308 616.88 97.6508 618.712 98.2908 620.088C98.9308 621.448 99.8668 622.128 101.099 622.128C102.347 622.128 103.291 621.44 103.931 620.064C104.571 618.688 104.891 616.864 104.891 614.592C104.891 612.336 104.563 610.52 103.907 609.144C103.267 607.768 102.331 607.08 101.099 607.08ZM135.233 605.256C135.489 605.256 135.705 605.344 135.881 605.52C136.057 605.696 136.145 605.92 136.145 606.192V623.064C136.145 623.32 136.057 623.544 135.881 623.736C135.705 623.912 135.489 624 135.233 624C134.961 624 134.729 623.912 134.537 623.736C134.361 623.544 134.273 623.32 134.273 623.064V609.48L127.601 623.112C127.409 623.416 127.137 623.568 126.785 623.568C126.385 623.568 126.097 623.376 125.921 622.992L119.273 609.696V623.064C119.273 623.32 119.185 623.544 119.009 623.736C118.833 623.912 118.609 624 118.337 624C118.081 624 117.857 623.912 117.665 623.736C117.489 623.544 117.401 623.32 117.401 623.064V606.192C117.401 605.92 117.489 605.696 117.665 605.52C117.857 605.344 118.081 605.256 118.337 605.256C118.705 605.256 118.985 605.416 119.177 605.736L126.857 621L134.393 605.736C134.585 605.416 134.865 605.256 135.233 605.256ZM140.74 611.568C140.724 611.616 140.716 611.688 140.716 611.784V617.424C140.716 618.672 141.004 619.808 141.58 620.832C142.172 621.856 142.972 622.664 143.98 623.256C145.004 623.832 146.14 624.12 147.388 624.12C148.636 624.12 149.764 623.832 150.772 623.256C151.796 622.664 152.596 621.856 153.172 620.832C153.764 619.808 154.06 618.672 154.06 617.424C154.06 616.176 153.772 615.048 153.196 614.04C152.636 613.016 151.86 612.216 150.868 611.64C149.892 611.048 148.796 610.752 147.58 610.752C146.54 610.752 145.588 610.976 144.724 611.424C143.86 611.856 143.148 612.456 142.588 613.224V606.192C142.588 605.92 142.5 605.696 142.324 605.52C142.148 605.344 141.924 605.256 141.652 605.256C141.38 605.256 141.156 605.344 140.98 605.52C140.82 605.696 140.74 605.92 140.74 606.192V611.568ZM147.388 622.44C146.476 622.44 145.652 622.224 144.916 621.792C144.18 621.344 143.596 620.744 143.164 619.992C142.748 619.224 142.54 618.368 142.54 617.424C142.54 617.152 142.548 616.952 142.564 616.824C142.58 616.792 142.588 616.752 142.588 616.704C142.748 615.456 143.268 614.432 144.148 613.632C145.044 612.832 146.124 612.432 147.388 612.432C148.3 612.432 149.124 612.648 149.86 613.08C150.612 613.512 151.196 614.112 151.612 614.88C152.044 615.632 152.26 616.48 152.26 617.424C152.26 618.368 152.044 619.224 151.612 619.992C151.196 620.744 150.612 621.344 149.86 621.792C149.124 622.224 148.3 622.44 147.388 622.44ZM158.068 611.808C158.068 611.536 158.156 611.312 158.332 611.136C158.508 610.96 158.732 610.872 159.004 610.872C159.276 610.872 159.492 610.96 159.652 611.136C159.828 611.312 159.916 611.536 159.916 611.808V623.064C159.916 623.336 159.828 623.56 159.652 623.736C159.492 623.912 159.276 624 159.004 624C158.732 624 158.508 623.912 158.332 623.736C158.156 623.56 158.068 623.336 158.068 623.064V611.808ZM159.004 605.76C159.356 605.76 159.66 605.88 159.916 606.12C160.172 606.36 160.3 606.672 160.3 607.056C160.3 607.424 160.172 607.736 159.916 607.992C159.66 608.248 159.348 608.376 158.98 608.376C158.612 608.376 158.3 608.248 158.044 607.992C157.804 607.736 157.684 607.424 157.684 607.056C157.684 606.672 157.812 606.36 158.068 606.12C158.324 605.88 158.636 605.76 159.004 605.76ZM170.406 622.152C170.662 622.152 170.87 622.24 171.03 622.416C171.19 622.592 171.27 622.816 171.27 623.088C171.27 623.344 171.174 623.56 170.982 623.736C170.79 623.912 170.55 624 170.262 624H169.758C168.91 624 168.15 623.8 167.478 623.4C166.806 622.984 166.278 622.432 165.894 621.744C165.526 621.04 165.342 620.248 165.342 619.368V612.96H163.782C163.526 612.96 163.318 612.888 163.158 612.744C163.014 612.584 162.942 612.392 162.942 612.168C162.942 611.928 163.014 611.736 163.158 611.592C163.318 611.432 163.526 611.352 163.782 611.352H165.342V607.632C165.342 607.36 165.422 607.136 165.582 606.96C165.758 606.784 165.982 606.696 166.254 606.696C166.526 606.696 166.75 606.784 166.926 606.96C167.102 607.136 167.19 607.36 167.19 607.632V611.352H169.902C170.158 611.352 170.358 611.432 170.502 611.592C170.662 611.736 170.742 611.928 170.742 612.168C170.742 612.392 170.662 612.584 170.502 612.744C170.358 612.888 170.158 612.96 169.902 612.96H167.19V619.368C167.19 620.184 167.43 620.856 167.91 621.384C168.39 621.896 169.006 622.152 169.758 622.152H170.406ZM187.309 605.016C188.573 605.016 189.685 605.296 190.645 605.856C191.605 606.416 192.357 607.144 192.901 608.04C193.013 608.216 193.069 608.408 193.069 608.616C193.069 608.92 192.925 609.16 192.637 609.336C192.509 609.4 192.365 609.432 192.205 609.432C192.029 609.432 191.861 609.392 191.701 609.312C191.557 609.216 191.437 609.088 191.341 608.928C190.445 607.52 189.093 606.808 187.285 606.792C185.989 606.792 184.965 607.064 184.213 607.608C183.461 608.152 183.085 608.928 183.085 609.936C183.085 611.808 184.597 612.944 187.621 613.344C189.605 613.632 191.085 614.24 192.061 615.168C193.037 616.096 193.525 617.32 193.525 618.84C193.525 619.96 193.253 620.928 192.709 621.744C192.165 622.56 191.421 623.184 190.477 623.616C189.533 624.032 188.477 624.24 187.309 624.24C185.789 624.24 184.437 623.92 183.253 623.28C182.085 622.624 181.245 621.744 180.733 620.64C180.669 620.528 180.637 620.4 180.637 620.256C180.637 620.032 180.717 619.848 180.877 619.704C181.053 619.544 181.285 619.464 181.573 619.464C181.765 619.464 181.941 619.52 182.101 619.632C182.277 619.728 182.405 619.872 182.485 620.064C182.853 620.784 183.461 621.368 184.309 621.816C185.173 622.248 186.173 622.464 187.309 622.464C188.621 622.464 189.677 622.152 190.477 621.528C191.277 620.888 191.677 620 191.677 618.864C191.677 617.856 191.301 617.008 190.549 616.32C189.813 615.632 188.701 615.192 187.213 615C185.357 614.776 183.893 614.2 182.821 613.272C181.765 612.328 181.237 611.176 181.237 609.816C181.237 608.856 181.493 608.016 182.005 607.296C182.533 606.56 183.253 606 184.165 605.616C185.093 605.216 186.141 605.016 187.309 605.016ZM203.872 610.752C205.12 610.752 206.248 611.048 207.256 611.64C208.28 612.216 209.08 613.016 209.656 614.04C210.248 615.064 210.544 616.2 210.544 617.448C210.544 618.696 210.256 619.832 209.68 620.856C209.12 621.864 208.344 622.664 207.352 623.256C206.376 623.832 205.28 624.12 204.064 624.12C203.024 624.12 202.072 623.904 201.208 623.472C200.344 623.024 199.632 622.416 199.072 621.648V628.68C199.072 628.952 198.984 629.176 198.808 629.352C198.632 629.528 198.408 629.616 198.136 629.616C197.864 629.616 197.64 629.528 197.464 629.352C197.304 629.176 197.224 628.952 197.224 628.68V623.304C197.208 623.256 197.2 623.184 197.2 623.088V617.448C197.2 616.2 197.488 615.064 198.064 614.04C198.656 613.016 199.456 612.216 200.464 611.64C201.488 611.048 202.624 610.752 203.872 610.752ZM203.872 622.44C204.784 622.44 205.608 622.224 206.344 621.792C207.096 621.36 207.68 620.768 208.096 620.016C208.528 619.248 208.744 618.392 208.744 617.448C208.744 616.504 208.528 615.656 208.096 614.904C207.68 614.136 207.096 613.536 206.344 613.104C205.608 612.656 204.784 612.432 203.872 612.432C202.96 612.432 202.136 612.656 201.4 613.104C200.664 613.536 200.08 614.136 199.648 614.904C199.232 615.656 199.024 616.504 199.024 617.448C199.024 617.72 199.032 617.92 199.048 618.048C199.064 618.08 199.072 618.12 199.072 618.168C199.232 619.416 199.752 620.44 200.632 621.24C201.528 622.04 202.608 622.44 203.872 622.44ZM219.761 610.752C220.945 610.752 221.993 611.032 222.905 611.592C223.817 612.136 224.521 612.896 225.017 613.872C225.529 614.848 225.785 615.96 225.785 617.208C225.785 617.464 225.705 617.672 225.545 617.832C225.385 617.976 225.177 618.048 224.921 618.048H215.225C215.353 619.36 215.865 620.424 216.761 621.24C217.657 622.056 218.777 622.464 220.121 622.464C220.697 622.464 221.273 622.368 221.849 622.176C222.441 621.968 222.913 621.712 223.265 621.408C223.473 621.248 223.689 621.168 223.913 621.168C224.089 621.168 224.265 621.232 224.441 621.36C224.649 621.552 224.753 621.768 224.753 622.008C224.753 622.216 224.665 622.4 224.489 622.56C223.961 623.008 223.289 623.384 222.473 623.688C221.657 623.976 220.873 624.12 220.121 624.12C218.841 624.12 217.697 623.84 216.689 623.28C215.681 622.704 214.889 621.912 214.313 620.904C213.753 619.88 213.473 618.728 213.473 617.448C213.473 616.152 213.737 615 214.265 613.992C214.809 612.968 215.553 612.176 216.497 611.616C217.457 611.04 218.545 610.752 219.761 610.752ZM219.761 612.408C218.545 612.408 217.537 612.784 216.737 613.536C215.937 614.288 215.449 615.28 215.273 616.512H224.057C223.929 615.28 223.481 614.288 222.713 613.536C221.945 612.784 220.961 612.408 219.761 612.408ZM234.034 610.752C235.218 610.752 236.266 611.032 237.178 611.592C238.09 612.136 238.794 612.896 239.29 613.872C239.802 614.848 240.058 615.96 240.058 617.208C240.058 617.464 239.978 617.672 239.818 617.832C239.658 617.976 239.45 618.048 239.194 618.048H229.498C229.626 619.36 230.138 620.424 231.034 621.24C231.93 622.056 233.05 622.464 234.394 622.464C234.97 622.464 235.546 622.368 236.122 622.176C236.714 621.968 237.186 621.712 237.538 621.408C237.746 621.248 237.962 621.168 238.186 621.168C238.362 621.168 238.538 621.232 238.714 621.36C238.922 621.552 239.026 621.768 239.026 622.008C239.026 622.216 238.938 622.4 238.762 622.56C238.234 623.008 237.562 623.384 236.746 623.688C235.93 623.976 235.146 624.12 234.394 624.12C233.114 624.12 231.97 623.84 230.962 623.28C229.954 622.704 229.162 621.912 228.586 620.904C228.026 619.88 227.746 618.728 227.746 617.448C227.746 616.152 228.01 615 228.538 613.992C229.082 612.968 229.826 612.176 230.77 611.616C231.73 611.04 232.818 610.752 234.034 610.752ZM234.034 612.408C232.818 612.408 231.81 612.784 231.01 613.536C230.21 614.288 229.722 615.28 229.546 616.512H238.33C238.202 615.28 237.754 614.288 236.986 613.536C236.218 612.784 235.234 612.408 234.034 612.408ZM255.34 611.568C255.356 611.616 255.364 611.688 255.364 611.784V617.424C255.364 618.672 255.068 619.808 254.476 620.832C253.9 621.856 253.1 622.664 252.076 623.256C251.068 623.832 249.94 624.12 248.692 624.12C247.444 624.12 246.308 623.832 245.284 623.256C244.276 622.664 243.476 621.856 242.884 620.832C242.308 619.808 242.02 618.672 242.02 617.424C242.02 616.176 242.3 615.048 242.86 614.04C243.436 613.016 244.212 612.216 245.188 611.64C246.18 611.048 247.284 610.752 248.5 610.752C249.54 610.752 250.492 610.976 251.356 611.424C252.22 611.856 252.932 612.456 253.492 613.224V606.192C253.492 605.92 253.58 605.696 253.756 605.52C253.932 605.344 254.156 605.256 254.428 605.256C254.7 605.256 254.916 605.344 255.076 605.52C255.252 605.696 255.34 605.92 255.34 606.192V611.568ZM248.692 622.44C249.604 622.44 250.428 622.224 251.164 621.792C251.9 621.344 252.476 620.744 252.892 619.992C253.324 619.224 253.54 618.368 253.54 617.424C253.54 617.152 253.532 616.952 253.516 616.824C253.5 616.792 253.492 616.752 253.492 616.704C253.332 615.456 252.804 614.432 251.908 613.632C251.028 612.832 249.956 612.432 248.692 612.432C247.78 612.432 246.948 612.648 246.196 613.08C245.46 613.512 244.876 614.112 244.444 614.88C244.028 615.632 243.82 616.48 243.82 617.424C243.82 618.368 244.028 619.224 244.444 619.992C244.876 620.744 245.46 621.344 246.196 621.792C246.948 622.224 247.78 622.44 248.692 622.44ZM78.7255 669.136C79.6375 669.136 80.4695 669.344 81.2215 669.76C81.9895 670.16 82.5895 670.72 83.0215 671.44C83.4535 672.144 83.6695 672.936 83.6695 673.816C83.6695 674.616 83.3895 675.384 82.8295 676.12C82.2855 676.84 81.6135 677.376 80.8135 677.728C81.9975 678.08 82.8935 678.704 83.5015 679.6C84.1255 680.48 84.4375 681.496 84.4375 682.648C84.4375 683.672 84.1815 684.608 83.6695 685.456C83.1735 686.288 82.4855 686.944 81.6055 687.424C80.7255 687.888 79.7495 688.12 78.6775 688.12C77.5735 688.12 76.5735 687.88 75.6775 687.4C74.7815 686.904 74.0775 686.232 73.5655 685.384C73.0535 684.52 72.7975 683.56 72.7975 682.504C72.7975 682.232 72.8775 682 73.0375 681.808C73.2135 681.616 73.4295 681.52 73.6855 681.52C73.9415 681.52 74.1495 681.616 74.3095 681.808C74.4855 682 74.5735 682.232 74.5735 682.504C74.5735 683.224 74.7495 683.88 75.1015 684.472C75.4535 685.064 75.9335 685.536 76.5415 685.888C77.1655 686.224 77.8535 686.392 78.6055 686.392C79.8375 686.392 80.8055 686.048 81.5095 685.36C82.2295 684.672 82.5895 683.768 82.5895 682.648C82.5895 681.88 82.4215 681.2 82.0855 680.608C81.7495 680.016 81.2935 679.56 80.7175 679.24C80.1415 678.904 79.4935 678.736 78.7735 678.736C78.5175 678.736 78.3015 678.648 78.1255 678.472C77.9495 678.296 77.8615 678.072 77.8615 677.8C77.8615 677.528 77.9495 677.312 78.1255 677.152C78.3015 676.976 78.5175 676.888 78.7735 676.888C79.3175 676.888 79.8295 676.752 80.3095 676.48C80.7895 676.192 81.1735 675.816 81.4615 675.352C81.7495 674.872 81.8935 674.36 81.8935 673.816C81.8935 672.968 81.5975 672.264 81.0055 671.704C80.4295 671.128 79.6695 670.84 78.7255 670.84C77.7175 670.84 76.8855 671.12 76.2295 671.68C75.5735 672.24 75.2455 672.944 75.2455 673.792C75.2455 674.064 75.1575 674.296 74.9815 674.488C74.8215 674.664 74.6135 674.752 74.3575 674.752C74.1015 674.752 73.8855 674.664 73.7095 674.488C73.5495 674.296 73.4695 674.072 73.4695 673.816C73.4695 672.936 73.6935 672.144 74.1415 671.44C74.6055 670.72 75.2375 670.16 76.0375 669.76C76.8375 669.344 77.7335 669.136 78.7255 669.136ZM92.3566 669.208C93.5566 669.208 94.5806 669.592 95.4286 670.36C96.2766 671.112 96.9166 672.192 97.3486 673.6C97.7966 675.008 98.0206 676.672 98.0206 678.592C98.0206 681.536 97.5246 683.84 96.5326 685.504C95.5406 687.168 94.1486 688 92.3566 688C91.1726 688 90.1566 687.624 89.3086 686.872C88.4606 686.12 87.8126 685.04 87.3646 683.632C86.9326 682.224 86.7166 680.544 86.7166 678.592C86.7166 676.656 86.9326 674.984 87.3646 673.576C87.8126 672.168 88.4606 671.088 89.3086 670.336C90.1566 669.584 91.1726 669.208 92.3566 669.208ZM92.3566 671.08C91.1246 671.08 90.1886 671.768 89.5486 673.144C88.9086 674.52 88.5886 676.336 88.5886 678.592C88.5886 680.88 88.9086 682.712 89.5486 684.088C90.1886 685.448 91.1246 686.128 92.3566 686.128C93.6046 686.128 94.5486 685.44 95.1886 684.064C95.8286 682.688 96.1486 680.864 96.1486 678.592C96.1486 676.336 95.8206 674.52 95.1646 673.144C94.5246 671.768 93.5886 671.08 92.3566 671.08ZM106.068 669.208C107.268 669.208 108.292 669.592 109.14 670.36C109.988 671.112 110.628 672.192 111.06 673.6C111.508 675.008 111.732 676.672 111.732 678.592C111.732 681.536 111.236 683.84 110.244 685.504C109.252 687.168 107.86 688 106.068 688C104.884 688 103.868 687.624 103.02 686.872C102.172 686.12 101.524 685.04 101.076 683.632C100.644 682.224 100.428 680.544 100.428 678.592C100.428 676.656 100.644 674.984 101.076 673.576C101.524 672.168 102.172 671.088 103.02 670.336C103.868 669.584 104.884 669.208 106.068 669.208ZM106.068 671.08C104.836 671.08 103.9 671.768 103.26 673.144C102.62 674.52 102.3 676.336 102.3 678.592C102.3 680.88 102.62 682.712 103.26 684.088C103.9 685.448 104.836 686.128 106.068 686.128C107.316 686.128 108.26 685.44 108.9 684.064C109.54 682.688 109.86 680.864 109.86 678.592C109.86 676.336 109.532 674.52 108.876 673.144C108.236 671.768 107.3 671.08 106.068 671.08ZM119.778 669.208C120.978 669.208 122.002 669.592 122.85 670.36C123.698 671.112 124.338 672.192 124.77 673.6C125.218 675.008 125.442 676.672 125.442 678.592C125.442 681.536 124.946 683.84 123.954 685.504C122.962 687.168 121.57 688 119.778 688C118.594 688 117.578 687.624 116.73 686.872C115.882 686.12 115.234 685.04 114.786 683.632C114.354 682.224 114.138 680.544 114.138 678.592C114.138 676.656 114.354 674.984 114.786 673.576C115.234 672.168 115.882 671.088 116.73 670.336C117.578 669.584 118.594 669.208 119.778 669.208ZM119.778 671.08C118.546 671.08 117.61 671.768 116.97 673.144C116.33 674.52 116.01 676.336 116.01 678.592C116.01 680.88 116.33 682.712 116.97 684.088C117.61 685.448 118.546 686.128 119.778 686.128C121.026 686.128 121.97 685.44 122.61 684.064C123.25 682.688 123.57 680.864 123.57 678.592C123.57 676.336 123.242 674.52 122.586 673.144C121.946 671.768 121.01 671.08 119.778 671.08ZM140.377 674.752C141.433 674.752 142.353 674.936 143.137 675.304C143.921 675.656 144.553 676.152 145.033 676.792C145.161 677 145.225 677.184 145.225 677.344C145.225 677.616 145.097 677.832 144.841 677.992C144.729 678.072 144.577 678.112 144.385 678.112C144.049 678.112 143.769 677.992 143.545 677.752C142.761 676.856 141.689 676.408 140.329 676.408C139.449 676.408 138.745 676.592 138.217 676.96C137.689 677.312 137.425 677.76 137.425 678.304C137.425 678.88 137.673 679.344 138.169 679.696C138.665 680.032 139.545 680.304 140.809 680.512C142.521 680.8 143.745 681.272 144.481 681.928C145.217 682.568 145.585 683.368 145.585 684.328C145.585 685.064 145.361 685.72 144.913 686.296C144.481 686.872 143.873 687.32 143.089 687.64C142.305 687.96 141.417 688.12 140.425 688.12C139.433 688.12 138.481 687.952 137.569 687.616C136.657 687.28 135.921 686.808 135.361 686.2C135.201 686.008 135.121 685.824 135.121 685.648C135.121 685.376 135.249 685.136 135.505 684.928C135.697 684.784 135.897 684.712 136.105 684.712C136.377 684.712 136.609 684.824 136.801 685.048C137.185 685.496 137.689 685.84 138.313 686.08C138.953 686.32 139.657 686.44 140.425 686.44C141.545 686.44 142.385 686.248 142.945 685.864C143.505 685.48 143.793 684.976 143.809 684.352C143.809 683.776 143.529 683.296 142.969 682.912C142.409 682.528 141.521 682.24 140.305 682.048C138.737 681.792 137.561 681.352 136.777 680.728C136.009 680.088 135.625 679.32 135.625 678.424C135.625 677.256 136.073 676.352 136.969 675.712C137.881 675.072 139.017 674.752 140.377 674.752ZM154.37 674.752C155.554 674.752 156.602 675.032 157.514 675.592C158.426 676.136 159.13 676.896 159.626 677.872C160.138 678.848 160.394 679.96 160.394 681.208C160.394 681.464 160.314 681.672 160.154 681.832C159.994 681.976 159.786 682.048 159.53 682.048H149.834C149.962 683.36 150.474 684.424 151.37 685.24C152.266 686.056 153.386 686.464 154.73 686.464C155.306 686.464 155.882 686.368 156.458 686.176C157.05 685.968 157.522 685.712 157.874 685.408C158.082 685.248 158.298 685.168 158.522 685.168C158.698 685.168 158.874 685.232 159.05 685.36C159.258 685.552 159.362 685.768 159.362 686.008C159.362 686.216 159.274 686.4 159.098 686.56C158.57 687.008 157.898 687.384 157.082 687.688C156.266 687.976 155.482 688.12 154.73 688.12C153.45 688.12 152.306 687.84 151.298 687.28C150.29 686.704 149.498 685.912 148.922 684.904C148.362 683.88 148.082 682.728 148.082 681.448C148.082 680.152 148.346 679 148.874 677.992C149.418 676.968 150.162 676.176 151.106 675.616C152.066 675.04 153.154 674.752 154.37 674.752ZM154.37 676.408C153.154 676.408 152.146 676.784 151.346 677.536C150.546 678.288 150.058 679.28 149.882 680.512H158.666C158.538 679.28 158.09 678.288 157.322 677.536C156.554 676.784 155.57 676.408 154.37 676.408ZM168.056 674.752C169.112 674.752 170.032 674.936 170.816 675.304C171.6 675.656 172.232 676.152 172.712 676.792C172.84 677 172.904 677.184 172.904 677.344C172.904 677.616 172.776 677.832 172.52 677.992C172.408 678.072 172.256 678.112 172.064 678.112C171.728 678.112 171.448 677.992 171.224 677.752C170.44 676.856 169.368 676.408 168.008 676.408C167.128 676.408 166.424 676.592 165.896 676.96C165.368 677.312 165.104 677.76 165.104 678.304C165.104 678.88 165.352 679.344 165.848 679.696C166.344 680.032 167.224 680.304 168.488 680.512C170.2 680.8 171.424 681.272 172.16 681.928C172.896 682.568 173.264 683.368 173.264 684.328C173.264 685.064 173.04 685.72 172.592 686.296C172.16 686.872 171.552 687.32 170.768 687.64C169.984 687.96 169.096 688.12 168.104 688.12C167.112 688.12 166.16 687.952 165.248 687.616C164.336 687.28 163.6 686.808 163.04 686.2C162.88 686.008 162.8 685.824 162.8 685.648C162.8 685.376 162.928 685.136 163.184 684.928C163.376 684.784 163.576 684.712 163.784 684.712C164.056 684.712 164.288 684.824 164.48 685.048C164.864 685.496 165.368 685.84 165.992 686.08C166.632 686.32 167.336 686.44 168.104 686.44C169.224 686.44 170.064 686.248 170.624 685.864C171.184 685.48 171.472 684.976 171.488 684.352C171.488 683.776 171.208 683.296 170.648 682.912C170.088 682.528 169.2 682.24 167.984 682.048C166.416 681.792 165.24 681.352 164.456 680.728C163.688 680.088 163.304 679.32 163.304 678.424C163.304 677.256 163.752 676.352 164.648 675.712C165.56 675.072 166.696 674.752 168.056 674.752ZM180.994 674.752C182.05 674.752 182.97 674.936 183.754 675.304C184.538 675.656 185.17 676.152 185.65 676.792C185.778 677 185.842 677.184 185.842 677.344C185.842 677.616 185.714 677.832 185.458 677.992C185.346 678.072 185.194 678.112 185.002 678.112C184.666 678.112 184.386 677.992 184.162 677.752C183.378 676.856 182.306 676.408 180.946 676.408C180.066 676.408 179.362 676.592 178.834 676.96C178.306 677.312 178.042 677.76 178.042 678.304C178.042 678.88 178.29 679.344 178.786 679.696C179.282 680.032 180.162 680.304 181.426 680.512C183.138 680.8 184.362 681.272 185.098 681.928C185.834 682.568 186.202 683.368 186.202 684.328C186.202 685.064 185.978 685.72 185.53 686.296C185.098 686.872 184.49 687.32 183.706 687.64C182.922 687.96 182.034 688.12 181.042 688.12C180.05 688.12 179.098 687.952 178.186 687.616C177.274 687.28 176.538 686.808 175.978 686.2C175.818 686.008 175.738 685.824 175.738 685.648C175.738 685.376 175.866 685.136 176.122 684.928C176.314 684.784 176.514 684.712 176.722 684.712C176.994 684.712 177.226 684.824 177.418 685.048C177.802 685.496 178.306 685.84 178.93 686.08C179.57 686.32 180.274 686.44 181.042 686.44C182.162 686.44 183.002 686.248 183.562 685.864C184.122 685.48 184.41 684.976 184.426 684.352C184.426 683.776 184.146 683.296 183.586 682.912C183.026 682.528 182.138 682.24 180.922 682.048C179.354 681.792 178.178 681.352 177.394 680.728C176.626 680.088 176.242 679.32 176.242 678.424C176.242 677.256 176.69 676.352 177.586 675.712C178.498 675.072 179.634 674.752 180.994 674.752ZM189.779 675.808C189.779 675.536 189.867 675.312 190.043 675.136C190.219 674.96 190.443 674.872 190.715 674.872C190.987 674.872 191.203 674.96 191.363 675.136C191.539 675.312 191.627 675.536 191.627 675.808V687.064C191.627 687.336 191.539 687.56 191.363 687.736C191.203 687.912 190.987 688 190.715 688C190.443 688 190.219 687.912 190.043 687.736C189.867 687.56 189.779 687.336 189.779 687.064V675.808ZM190.715 669.76C191.067 669.76 191.371 669.88 191.627 670.12C191.883 670.36 192.011 670.672 192.011 671.056C192.011 671.424 191.883 671.736 191.627 671.992C191.371 672.248 191.059 672.376 190.691 672.376C190.323 672.376 190.011 672.248 189.755 671.992C189.515 671.736 189.395 671.424 189.395 671.056C189.395 670.672 189.523 670.36 189.779 670.12C190.035 669.88 190.347 669.76 190.715 669.76ZM202.309 674.752C203.573 674.752 204.709 675.04 205.717 675.616C206.725 676.192 207.517 676.992 208.093 678.016C208.685 679.04 208.981 680.184 208.981 681.448C208.981 682.712 208.693 683.856 208.117 684.88C207.541 685.888 206.741 686.68 205.717 687.256C204.709 687.832 203.573 688.12 202.309 688.12C201.045 688.12 199.901 687.832 198.877 687.256C197.869 686.68 197.077 685.888 196.501 684.88C195.925 683.856 195.637 682.712 195.637 681.448C195.637 680.184 195.925 679.04 196.501 678.016C197.077 676.992 197.869 676.192 198.877 675.616C199.901 675.04 201.045 674.752 202.309 674.752ZM202.309 676.432C201.397 676.432 200.565 676.648 199.813 677.08C199.077 677.512 198.493 678.112 198.061 678.88C197.645 679.632 197.437 680.488 197.437 681.448C197.437 682.392 197.645 683.248 198.061 684.016C198.493 684.768 199.077 685.36 199.813 685.792C200.565 686.224 201.397 686.44 202.309 686.44C203.237 686.44 204.069 686.224 204.805 685.792C205.541 685.36 206.117 684.768 206.533 684.016C206.949 683.248 207.157 682.392 207.157 681.448C207.157 680.488 206.949 679.632 206.533 678.88C206.117 678.112 205.541 677.512 204.805 677.08C204.069 676.648 203.237 676.432 202.309 676.432ZM218.791 674.728C219.927 674.728 220.943 674.968 221.839 675.448C222.751 675.928 223.463 676.632 223.975 677.56C224.487 678.472 224.743 679.568 224.743 680.848V687.088C224.743 687.344 224.655 687.56 224.479 687.736C224.303 687.912 224.087 688 223.831 688C223.559 688 223.335 687.912 223.159 687.736C222.983 687.56 222.895 687.344 222.895 687.088V680.848C222.895 679.424 222.495 678.344 221.695 677.608C220.911 676.856 219.879 676.48 218.599 676.48C217.815 676.48 217.103 676.632 216.463 676.936C215.839 677.24 215.343 677.664 214.975 678.208C214.607 678.736 214.423 679.328 214.423 679.984V687.088C214.423 687.36 214.335 687.584 214.159 687.76C213.999 687.92 213.783 688 213.511 688C213.239 688 213.015 687.92 212.839 687.76C212.663 687.584 212.575 687.36 212.575 687.088V675.808C212.575 675.536 212.663 675.312 212.839 675.136C213.015 674.96 213.239 674.872 213.511 674.872C213.783 674.872 213.999 674.96 214.159 675.136C214.335 675.312 214.423 675.536 214.423 675.808V676.624C214.951 676.032 215.591 675.568 216.343 675.232C217.095 674.896 217.911 674.728 218.791 674.728ZM233.353 674.752C234.409 674.752 235.329 674.936 236.113 675.304C236.897 675.656 237.529 676.152 238.009 676.792C238.137 677 238.201 677.184 238.201 677.344C238.201 677.616 238.073 677.832 237.817 677.992C237.705 678.072 237.553 678.112 237.361 678.112C237.025 678.112 236.745 677.992 236.521 677.752C235.737 676.856 234.665 676.408 233.305 676.408C232.425 676.408 231.721 676.592 231.193 676.96C230.665 677.312 230.401 677.76 230.401 678.304C230.401 678.88 230.649 679.344 231.145 679.696C231.641 680.032 232.521 680.304 233.785 680.512C235.497 680.8 236.721 681.272 237.457 681.928C238.193 682.568 238.561 683.368 238.561 684.328C238.561 685.064 238.337 685.72 237.889 686.296C237.457 686.872 236.849 687.32 236.065 687.64C235.281 687.96 234.393 688.12 233.401 688.12C232.409 688.12 231.457 687.952 230.545 687.616C229.633 687.28 228.897 686.808 228.337 686.2C228.177 686.008 228.097 685.824 228.097 685.648C228.097 685.376 228.225 685.136 228.481 684.928C228.673 684.784 228.873 684.712 229.081 684.712C229.353 684.712 229.585 684.824 229.777 685.048C230.161 685.496 230.665 685.84 231.289 686.08C231.929 686.32 232.633 686.44 233.401 686.44C234.521 686.44 235.361 686.248 235.921 685.864C236.481 685.48 236.769 684.976 236.785 684.352C236.785 683.776 236.505 683.296 235.945 682.912C235.385 682.528 234.497 682.24 233.281 682.048C231.713 681.792 230.537 681.352 229.753 680.728C228.985 680.088 228.601 679.32 228.601 678.424C228.601 677.256 229.049 676.352 229.945 675.712C230.857 675.072 231.993 674.752 233.353 674.752Z" fill="#567796"/>
<path d="M359.478 488.5L367.367 497L379.478 480" stroke="#32C52F" stroke-width="4" stroke-linecap="round" stroke-linejoin="round"/>
<path d="M359.478 552.5L367.367 561L379.478 544" stroke="#32C52F" stroke-width="4" stroke-linecap="round" stroke-linejoin="round"/>
<path d="M359.478 616.5L367.367 625L379.478 608" stroke="#32C52F" stroke-width="4" stroke-linecap="round" stroke-linejoin="round"/>
<path d="M359.478 680.5L367.367 689L379.478 672" stroke="#32C52F" stroke-width="4" stroke-linecap="round" stroke-linejoin="round"/>
<path d="M146.737 125.464C148.593 125.464 150.289 125.88 151.825 126.712C153.361 127.512 154.561 128.616 155.425 130.024C156.321 131.432 156.769 133 156.769 134.728C156.769 136.456 156.225 137.96 155.137 139.24C154.049 140.488 152.689 141.48 151.057 142.216C153.489 143.048 155.297 144.328 156.481 146.056C157.665 147.752 158.257 149.768 158.257 152.104C158.257 154.152 157.729 156.008 156.673 157.672C155.617 159.336 154.193 160.648 152.401 161.608C150.641 162.536 148.721 163 146.641 163C144.273 163 142.145 162.504 140.257 161.512C138.401 160.488 136.945 159.112 135.889 157.384C134.833 155.624 134.305 153.656 134.305 151.48C134.305 150.776 134.513 150.184 134.929 149.704C135.345 149.224 135.873 148.984 136.513 148.984C137.153 148.984 137.681 149.224 138.097 149.704C138.513 150.184 138.721 150.776 138.721 151.48C138.721 152.792 139.057 154.008 139.729 155.128C140.401 156.216 141.313 157.096 142.465 157.768C143.649 158.408 144.945 158.728 146.353 158.728C148.497 158.728 150.209 158.136 151.489 156.952C152.769 155.768 153.409 154.136 153.409 152.056C153.409 150.744 153.121 149.544 152.545 148.456C151.969 147.336 151.169 146.472 150.145 145.864C149.153 145.224 148.049 144.904 146.833 144.904C146.129 144.904 145.537 144.664 145.057 144.184C144.609 143.704 144.385 143.112 144.385 142.408C144.385 141.704 144.609 141.128 145.057 140.68C145.537 140.2 146.129 139.96 146.833 139.96C147.729 139.96 148.593 139.736 149.425 139.288C150.289 138.808 150.977 138.168 151.489 137.368C152.033 136.568 152.305 135.688 152.305 134.728C152.305 133.32 151.793 132.136 150.769 131.176C149.745 130.216 148.433 129.736 146.833 129.736C145.617 129.736 144.497 129.976 143.473 130.456C142.481 130.936 141.681 131.576 141.073 132.376C140.497 133.176 140.209 134.072 140.209 135.064C140.209 135.8 140.001 136.424 139.585 136.936C139.169 137.416 138.641 137.656 138.001 137.656C137.361 137.656 136.833 137.432 136.417 136.984C136.001 136.504 135.793 135.912 135.793 135.208C135.793 133.384 136.273 131.736 137.233 130.264C138.193 128.76 139.505 127.592 141.169 126.76C142.833 125.896 144.689 125.464 146.737 125.464ZM174.271 125.464C176.671 125.464 178.735 126.216 180.463 127.72C182.191 129.224 183.503 131.384 184.399 134.2C185.295 137.016 185.743 140.36 185.743 144.232C185.743 148.104 185.295 151.448 184.399 154.264C183.503 157.08 182.191 159.24 180.463 160.744C178.735 162.248 176.671 163 174.271 163C170.623 163 167.791 161.352 165.775 158.056C163.791 154.76 162.799 150.152 162.799 144.232C162.799 138.312 163.791 133.704 165.775 130.408C167.791 127.112 170.623 125.464 174.271 125.464ZM174.271 130.408C172.127 130.408 170.495 131.688 169.375 134.248C168.287 136.776 167.743 140.104 167.743 144.232C167.743 148.392 168.303 151.736 169.423 154.264C170.543 156.76 172.159 158.008 174.271 158.008C176.415 158.008 178.031 156.744 179.119 154.216C180.239 151.688 180.799 148.36 180.799 144.232C180.799 140.136 180.239 136.808 179.119 134.248C177.999 131.688 176.383 130.408 174.271 130.408ZM229.188 125.512C229.924 125.512 230.516 125.736 230.964 126.184C231.412 126.632 231.636 127.224 231.636 127.96V149.848C231.636 152.344 231.044 154.616 229.86 156.664C228.708 158.68 227.124 160.28 225.108 161.464C223.124 162.616 220.9 163.192 218.436 163.192C215.972 163.192 213.716 162.616 211.668 161.464C209.652 160.28 208.068 158.68 206.916 156.664C205.764 154.616 205.188 152.344 205.188 149.848C205.188 147.352 205.716 145.096 206.772 143.08C207.86 141.032 209.332 139.432 211.188 138.28C213.076 137.128 215.172 136.552 217.476 136.552C219.332 136.552 221.06 136.936 222.66 137.704C224.26 138.472 225.62 139.544 226.74 140.92V127.96C226.74 127.224 226.964 126.632 227.412 126.184C227.892 125.736 228.484 125.512 229.188 125.512ZM218.436 158.872C220.036 158.872 221.476 158.488 222.756 157.72C224.068 156.92 225.092 155.832 225.828 154.456C226.564 153.08 226.932 151.544 226.932 149.848C226.932 148.152 226.564 146.632 225.828 145.288C225.092 143.912 224.068 142.84 222.756 142.072C221.476 141.272 220.036 140.872 218.436 140.872C216.836 140.872 215.38 141.272 214.068 142.072C212.788 142.84 211.764 143.912 210.996 145.288C210.26 146.632 209.892 148.152 209.892 149.848C209.892 151.544 210.26 153.08 210.996 154.456C211.764 155.832 212.788 156.92 214.068 157.72C215.38 158.488 216.836 158.872 218.436 158.872ZM252.186 136.552C254.65 136.552 256.874 137.144 258.858 138.328C260.874 139.48 262.458 141.08 263.61 143.128C264.794 145.144 265.386 147.4 265.386 149.896V160.6C265.386 161.304 265.146 161.896 264.666 162.376C264.218 162.824 263.642 163.048 262.938 163.048C262.234 163.048 261.642 162.824 261.162 162.376C260.714 161.896 260.49 161.304 260.49 160.6V158.824C259.37 160.2 258.01 161.272 256.41 162.04C254.81 162.808 253.082 163.192 251.226 163.192C248.922 163.192 246.826 162.616 244.938 161.464C243.082 160.312 241.61 158.728 240.522 156.712C239.466 154.664 238.938 152.392 238.938 149.896C238.938 147.4 239.514 145.144 240.666 143.128C241.818 141.08 243.402 139.48 245.418 138.328C247.466 137.144 249.722 136.552 252.186 136.552ZM252.186 158.872C253.786 158.872 255.226 158.488 256.506 157.72C257.818 156.92 258.842 155.848 259.578 154.504C260.314 153.128 260.682 151.592 260.682 149.896C260.682 148.2 260.314 146.664 259.578 145.288C258.842 143.912 257.818 142.84 256.506 142.072C255.226 141.272 253.786 140.872 252.186 140.872C250.586 140.872 249.13 141.272 247.818 142.072C246.538 142.84 245.514 143.912 244.746 145.288C244.01 146.664 243.642 148.2 243.642 149.896C243.642 151.592 244.01 153.128 244.746 154.504C245.514 155.848 246.538 156.92 247.818 157.72C249.13 158.488 250.586 158.872 252.186 158.872ZM292.737 136.984C293.729 137.368 294.225 137.992 294.225 138.856C294.225 139.176 294.129 139.56 293.937 140.008L279.249 173.032C278.865 174.024 278.241 174.52 277.377 174.52C277.057 174.52 276.673 174.424 276.225 174.232C275.265 173.816 274.785 173.192 274.785 172.36C274.785 171.976 274.881 171.592 275.073 171.208L279.873 160.408L269.073 139.912C268.913 139.624 268.833 139.288 268.833 138.904C268.833 138.488 268.961 138.104 269.217 137.752C269.473 137.4 269.809 137.128 270.225 136.936C270.513 136.808 270.833 136.744 271.185 136.744C272.081 136.744 272.753 137.192 273.201 138.088L281.985 155.56L289.713 138.136C290.129 137.208 290.753 136.744 291.585 136.744C292.001 136.744 292.385 136.824 292.737 136.984ZM307.764 136.552C309.844 136.552 311.7 136.888 313.332 137.56C314.996 138.232 316.308 139.16 317.268 140.344C317.684 140.856 317.892 141.368 317.892 141.88C317.892 142.424 317.62 142.92 317.076 143.368C316.724 143.624 316.276 143.752 315.732 143.752C314.9 143.752 314.148 143.448 313.476 142.84C312.676 142.104 311.828 141.592 310.932 141.304C310.036 140.984 308.948 140.824 307.668 140.824C306.196 140.824 304.98 141.08 304.02 141.592C303.092 142.072 302.628 142.76 302.628 143.656C302.628 144.296 302.788 144.84 303.108 145.288C303.428 145.704 304.036 146.104 304.932 146.488C305.828 146.84 307.124 147.192 308.82 147.544C312.308 148.248 314.772 149.224 316.212 150.472C317.684 151.72 318.42 153.336 318.42 155.32C318.42 156.792 318.02 158.136 317.22 159.352C316.42 160.536 315.236 161.48 313.668 162.184C312.132 162.856 310.276 163.192 308.1 163.192C305.924 163.192 303.876 162.856 301.956 162.184C300.036 161.512 298.532 160.632 297.444 159.544C297.028 159.128 296.82 158.632 296.82 158.056C296.82 157.288 297.14 156.664 297.78 156.184C298.388 155.736 298.948 155.512 299.46 155.512C300.1 155.512 300.708 155.8 301.284 156.376C301.892 157.048 302.804 157.64 304.02 158.152C305.236 158.632 306.532 158.872 307.908 158.872C309.732 158.872 311.14 158.568 312.132 157.96C313.156 157.352 313.668 156.536 313.668 155.512C313.668 154.52 313.172 153.704 312.18 153.064C311.188 152.392 309.508 151.832 307.14 151.384C300.996 150.2 297.924 147.672 297.924 143.8C297.924 142.232 298.388 140.904 299.316 139.816C300.244 138.728 301.46 137.912 302.964 137.368C304.468 136.824 306.068 136.552 307.764 136.552Z" fill="#3B668D"/>
<path d="M164.996 253.816C164.996 257.784 163.695 260.984 161.092 263.416C158.489 265.805 155.119 267.192 150.98 267.576V271.544C150.98 272.099 150.831 272.525 150.532 272.824C150.233 273.165 149.849 273.336 149.38 273.336C148.868 273.336 148.463 273.165 148.164 272.824C147.865 272.525 147.716 272.099 147.716 271.544V267.64C144.217 267.427 141.124 266.531 138.436 264.952C135.748 263.331 133.828 261.176 132.676 258.488C132.548 258.147 132.484 257.827 132.484 257.528C132.484 256.504 133.039 255.821 134.148 255.48C134.276 255.437 134.468 255.416 134.724 255.416C135.748 255.416 136.495 255.928 136.964 256.952C137.732 258.701 139.076 260.109 140.996 261.176C142.916 262.243 145.156 262.84 147.716 262.968V243.32C143.535 242.595 140.228 241.037 137.796 238.648C135.407 236.259 134.212 233.293 134.212 229.752C134.212 226.253 135.449 223.416 137.924 221.24C140.441 219.064 143.705 217.805 147.716 217.464V214.392C147.716 213.837 147.865 213.411 148.164 213.112C148.463 212.771 148.868 212.6 149.38 212.6C149.849 212.6 150.233 212.771 150.532 213.112C150.831 213.411 150.98 213.837 150.98 214.392V217.464C153.881 217.677 156.42 218.509 158.596 219.96C160.815 221.368 162.5 223.139 163.652 225.272C163.951 225.741 164.1 226.253 164.1 226.808C164.1 227.619 163.737 228.216 163.012 228.6C162.713 228.771 162.372 228.856 161.988 228.856C161.135 228.856 160.431 228.451 159.876 227.64C157.956 224.227 154.991 222.349 150.98 222.008V239.608C155.545 240.419 159.023 242.04 161.412 244.472C163.801 246.904 164.996 250.019 164.996 253.816ZM139.012 229.88C139.012 234.573 141.913 237.624 147.716 239.032V222.008C144.985 222.221 142.852 222.989 141.316 224.312C139.78 225.635 139.012 227.491 139.012 229.88ZM160.068 253.816C160.068 251.384 159.3 249.293 157.764 247.544C156.271 245.795 154.009 244.579 150.98 243.896V262.904C153.753 262.563 155.951 261.603 157.572 260.024C159.236 258.445 160.068 256.376 160.068 253.816ZM199.47 262.008C200.153 262.008 200.729 262.264 201.198 262.776C201.71 263.245 201.966 263.821 201.966 264.504C201.966 265.187 201.731 265.784 201.262 266.296C200.793 266.765 200.195 267 199.47 267H174.83C174.147 267 173.55 266.765 173.038 266.296C172.569 265.784 172.334 265.187 172.334 264.504C172.334 263.821 172.569 263.245 173.038 262.776L192.43 239.864C193.497 238.712 194.35 237.432 194.99 236.024C195.63 234.573 195.95 233.229 195.95 231.992C195.95 229.005 195.054 226.552 193.262 224.632C191.513 222.712 189.273 221.752 186.542 221.752C184.75 221.752 183.129 222.221 181.678 223.16C180.227 224.056 179.075 225.293 178.222 226.872C177.369 228.408 176.942 230.115 176.942 231.992C176.942 232.675 176.686 233.251 176.174 233.72C175.705 234.189 175.129 234.424 174.446 234.424C173.763 234.424 173.166 234.189 172.654 233.72C172.185 233.251 171.95 232.675 171.95 231.992C171.95 229.176 172.59 226.616 173.87 224.312C175.15 222.008 176.899 220.216 179.118 218.936C181.337 217.613 183.811 216.952 186.542 216.952C189.315 216.952 191.769 217.592 193.902 218.872C196.078 220.152 197.763 221.944 198.958 224.248C200.195 226.509 200.814 229.091 200.814 231.992C200.814 235.448 199.15 239.117 195.822 243L179.438 262.008H199.47ZM223.218 216.888C226.418 216.888 229.148 217.912 231.41 219.96C233.671 221.965 235.378 224.845 236.53 228.6C237.724 232.355 238.322 236.792 238.322 241.912C238.322 249.763 236.999 255.907 234.354 260.344C231.708 264.781 227.996 267 223.218 267C220.06 267 217.351 265.997 215.09 263.992C212.828 261.987 211.1 259.107 209.906 255.352C208.754 251.597 208.178 247.117 208.178 241.912C208.178 236.749 208.754 232.291 209.906 228.536C211.1 224.781 212.828 221.901 215.09 219.896C217.351 217.891 220.06 216.888 223.218 216.888ZM223.218 221.88C219.932 221.88 217.436 223.715 215.73 227.384C214.023 231.053 213.17 235.896 213.17 241.912C213.17 248.013 214.023 252.899 215.73 256.568C217.436 260.195 219.932 262.008 223.218 262.008C226.546 262.008 229.063 260.173 230.77 256.504C232.476 252.835 233.33 247.971 233.33 241.912C233.33 235.896 232.455 231.053 230.706 227.384C228.999 223.715 226.503 221.88 223.218 221.88ZM245.89 260.536C246.914 260.536 247.788 260.92 248.514 261.688C249.239 262.413 249.602 263.288 249.602 264.312C249.602 265.336 249.239 266.211 248.514 266.936C247.788 267.661 246.914 268.024 245.89 268.024C244.866 268.024 243.991 267.661 243.266 266.936C242.54 266.211 242.178 265.336 242.178 264.312C242.178 263.245 242.54 262.349 243.266 261.624C244.034 260.899 244.908 260.536 245.89 260.536ZM266.146 247.032C263.33 247.032 260.77 246.392 258.466 245.112C256.205 243.789 254.413 241.997 253.09 239.736C251.81 237.432 251.17 234.851 251.17 231.992C251.17 229.133 251.81 226.573 253.09 224.312C254.413 222.008 256.205 220.216 258.466 218.936C260.727 217.613 263.287 216.952 266.146 216.952C269.005 216.952 271.565 217.613 273.826 218.936C276.13 220.216 277.922 222.008 279.202 224.312C280.525 226.573 281.186 229.133 281.186 231.992C281.186 234.765 280.546 237.325 279.266 239.672L279.33 239.608L263.522 265.592C262.925 266.488 262.178 266.936 261.282 266.936C260.557 266.936 259.938 266.701 259.426 266.232C258.957 265.72 258.722 265.144 258.722 264.504C258.722 264.077 258.85 263.629 259.106 263.16L269.154 246.776C268.301 246.947 267.298 247.032 266.146 247.032ZM266.21 221.56C264.29 221.56 262.541 222.008 260.962 222.904C259.426 223.8 258.21 225.059 257.314 226.68C256.418 228.259 255.97 230.029 255.97 231.992C255.97 233.955 256.418 235.747 257.314 237.368C258.21 238.947 259.426 240.205 260.962 241.144C262.541 242.04 264.29 242.488 266.21 242.488C268.13 242.488 269.858 242.04 271.394 241.144C272.973 240.205 274.21 238.947 275.106 237.368C276.002 235.747 276.45 233.955 276.45 231.992C276.45 230.029 276.002 228.259 275.106 226.68C274.21 225.059 272.973 223.8 271.394 222.904C269.858 222.008 268.13 221.56 266.21 221.56ZM303.209 247.032C300.393 247.032 297.833 246.392 295.529 245.112C293.267 243.789 291.475 241.997 290.153 239.736C288.873 237.432 288.233 234.851 288.233 231.992C288.233 229.133 288.873 226.573 290.153 224.312C291.475 222.008 293.267 220.216 295.529 218.936C297.79 217.613 300.35 216.952 303.209 216.952C306.067 216.952 308.627 217.613 310.889 218.936C313.193 220.216 314.985 222.008 316.265 224.312C317.587 226.573 318.249 229.133 318.249 231.992C318.249 234.765 317.609 237.325 316.329 239.672L316.393 239.608L300.585 265.592C299.987 266.488 299.241 266.936 298.345 266.936C297.619 266.936 297.001 266.701 296.489 266.232C296.019 265.72 295.785 265.144 295.785 264.504C295.785 264.077 295.913 263.629 296.169 263.16L306.217 246.776C305.363 246.947 304.361 247.032 303.209 247.032ZM303.273 221.56C301.353 221.56 299.603 222.008 298.025 222.904C296.489 223.8 295.273 225.059 294.377 226.68C293.481 228.259 293.033 230.029 293.033 231.992C293.033 233.955 293.481 235.747 294.377 237.368C295.273 238.947 296.489 240.205 298.025 241.144C299.603 242.04 301.353 242.488 303.273 242.488C305.193 242.488 306.921 242.04 308.457 241.144C310.035 240.205 311.273 238.947 312.169 237.368C313.065 235.747 313.513 233.955 313.513 231.992C313.513 230.029 313.065 228.259 312.169 226.68C311.273 225.059 310.035 223.8 308.457 222.904C306.921 222.008 305.193 221.56 303.273 221.56Z" fill="#8572FF"/>
<line x1="71.4777" y1="398.5" x2="379.479" y2="398.59" stroke="#D3D3D3"/>
</g>
</svg>
