<svg width="451" height="807" viewBox="0 0 451 807" fill="none" xmlns="http://www.w3.org/2000/svg">
<mask id="mask0_47_1388" style="mask-type:alpha" maskUnits="userSpaceOnUse" x="0" y="0" width="451" height="807">
<rect x="0.477539" width="450" height="807" rx="20" fill="#FCFCFF"/>
</mask>
<g mask="url(#mask0_47_1388)">
<rect x="0.477539" y="16.0002" width="450" height="964" fill="white"/>
<path d="M73.8775 480.305C73.7175 480.385 73.5575 480.425 73.3975 480.425C73.1255 480.425 72.9015 480.345 72.7255 480.185C72.5495 480.009 72.4615 479.785 72.4615 479.513C72.4615 479.049 72.6615 478.753 73.0615 478.625L76.7575 477.353C76.9975 477.273 77.1575 477.233 77.2375 477.233C77.4935 477.233 77.7095 477.321 77.8855 477.497C78.0615 477.673 78.1495 477.897 78.1495 478.169V495.065C78.1495 495.321 78.0615 495.545 77.8855 495.737C77.7095 495.913 77.4855 496.001 77.2135 496.001C76.9575 496.001 76.7335 495.913 76.5415 495.737C76.3655 495.545 76.2775 495.321 76.2775 495.065V479.465L73.8775 480.305ZM102.075 477.257C102.331 477.257 102.539 477.337 102.699 477.497C102.859 477.657 102.939 477.865 102.939 478.121C102.939 478.361 102.859 478.561 102.699 478.721C102.539 478.881 102.331 478.961 102.075 478.961H96.3631V495.065C96.3631 495.321 96.2751 495.545 96.0991 495.737C95.9231 495.913 95.6991 496.001 95.4271 496.001C95.1711 496.001 94.9471 495.913 94.7551 495.737C94.5791 495.545 94.4911 495.321 94.4911 495.065V478.961H88.8031C88.5471 478.961 88.3391 478.881 88.1791 478.721C88.0191 478.561 87.9391 478.361 87.9391 478.121C87.9391 477.865 88.0191 477.657 88.1791 477.497C88.3391 477.337 88.5471 477.257 88.8031 477.257H102.075ZM105.49 483.569C105.474 483.617 105.466 483.689 105.466 483.785V489.425C105.466 490.673 105.754 491.809 106.33 492.833C106.922 493.857 107.722 494.665 108.73 495.257C109.754 495.833 110.89 496.121 112.138 496.121C113.386 496.121 114.514 495.833 115.522 495.257C116.546 494.665 117.346 493.857 117.922 492.833C118.514 491.809 118.81 490.673 118.81 489.425C118.81 488.177 118.522 487.049 117.946 486.041C117.386 485.017 116.61 484.217 115.618 483.641C114.642 483.049 113.546 482.753 112.33 482.753C111.29 482.753 110.338 482.977 109.474 483.425C108.61 483.857 107.898 484.457 107.338 485.225V478.193C107.338 477.921 107.25 477.697 107.074 477.521C106.898 477.345 106.674 477.257 106.402 477.257C106.13 477.257 105.906 477.345 105.73 477.521C105.57 477.697 105.49 477.921 105.49 478.193V483.569ZM112.138 494.441C111.226 494.441 110.402 494.225 109.666 493.793C108.93 493.345 108.346 492.745 107.914 491.993C107.498 491.225 107.29 490.369 107.29 489.425C107.29 489.153 107.298 488.953 107.314 488.825C107.33 488.793 107.338 488.753 107.338 488.705C107.498 487.457 108.018 486.433 108.898 485.633C109.794 484.833 110.874 484.433 112.138 484.433C113.05 484.433 113.874 484.649 114.61 485.081C115.362 485.513 115.946 486.113 116.362 486.881C116.794 487.633 117.01 488.481 117.01 489.425C117.01 490.369 116.794 491.225 116.362 491.993C115.946 492.745 115.362 493.345 114.61 493.793C113.874 494.225 113.05 494.441 112.138 494.441ZM137.602 485.681C137.874 485.681 138.098 485.769 138.274 485.945C138.45 486.105 138.538 486.321 138.538 486.593C138.538 486.849 138.45 487.065 138.274 487.241C138.098 487.417 137.874 487.505 137.602 487.505H130.09V495.065C130.09 495.321 130.002 495.545 129.826 495.737C129.65 495.913 129.426 496.001 129.154 496.001C128.898 496.001 128.674 495.913 128.482 495.737C128.306 495.545 128.218 495.321 128.218 495.065V478.193C128.218 477.921 128.306 477.697 128.482 477.521C128.674 477.345 128.898 477.257 129.154 477.257H140.41C140.682 477.257 140.906 477.345 141.082 477.521C141.258 477.697 141.346 477.913 141.346 478.169C141.346 478.425 141.258 478.641 141.082 478.817C140.906 478.977 140.682 479.057 140.41 479.057H130.09V485.681H137.602ZM150.394 482.729C151.066 482.729 151.594 482.817 151.978 482.993C152.378 483.169 152.578 483.417 152.578 483.737C152.578 483.833 152.57 483.905 152.554 483.953C152.49 484.177 152.386 484.329 152.242 484.409C152.114 484.489 151.93 484.529 151.69 484.529C151.546 484.529 151.298 484.513 150.946 484.481C150.818 484.465 150.626 484.457 150.37 484.457C149.17 484.457 148.186 484.777 147.418 485.417C146.666 486.057 146.29 486.889 146.29 487.913V495.089C146.29 495.377 146.21 495.601 146.05 495.761C145.89 495.921 145.666 496.001 145.378 496.001C145.09 496.001 144.866 495.921 144.706 495.761C144.546 495.601 144.466 495.377 144.466 495.089V483.785C144.466 483.497 144.546 483.273 144.706 483.113C144.866 482.953 145.09 482.873 145.378 482.873C145.666 482.873 145.89 482.953 146.05 483.113C146.21 483.273 146.29 483.497 146.29 483.785V484.841C146.754 484.169 147.346 483.649 148.066 483.281C148.786 482.913 149.562 482.729 150.394 482.729ZM160.089 482.753C161.273 482.753 162.321 483.033 163.233 483.593C164.145 484.137 164.849 484.897 165.345 485.873C165.857 486.849 166.113 487.961 166.113 489.209C166.113 489.465 166.033 489.673 165.873 489.833C165.713 489.977 165.505 490.049 165.249 490.049H155.553C155.681 491.361 156.193 492.425 157.089 493.241C157.985 494.057 159.105 494.465 160.449 494.465C161.025 494.465 161.601 494.369 162.177 494.177C162.769 493.969 163.241 493.713 163.593 493.409C163.801 493.249 164.017 493.169 164.241 493.169C164.417 493.169 164.593 493.233 164.769 493.361C164.977 493.553 165.081 493.769 165.081 494.009C165.081 494.217 164.993 494.401 164.817 494.561C164.289 495.009 163.617 495.385 162.801 495.689C161.985 495.977 161.201 496.121 160.449 496.121C159.169 496.121 158.025 495.841 157.017 495.281C156.009 494.705 155.217 493.913 154.641 492.905C154.081 491.881 153.801 490.729 153.801 489.449C153.801 488.153 154.065 487.001 154.593 485.993C155.137 484.969 155.881 484.177 156.825 483.617C157.785 483.041 158.873 482.753 160.089 482.753ZM160.089 484.409C158.873 484.409 157.865 484.785 157.065 485.537C156.265 486.289 155.777 487.281 155.601 488.513H164.385C164.257 487.281 163.809 486.289 163.041 485.537C162.273 484.785 161.289 484.409 160.089 484.409ZM174.362 482.753C175.546 482.753 176.594 483.033 177.506 483.593C178.418 484.137 179.122 484.897 179.618 485.873C180.13 486.849 180.386 487.961 180.386 489.209C180.386 489.465 180.306 489.673 180.146 489.833C179.986 489.977 179.778 490.049 179.522 490.049H169.826C169.954 491.361 170.466 492.425 171.362 493.241C172.258 494.057 173.378 494.465 174.722 494.465C175.298 494.465 175.874 494.369 176.45 494.177C177.042 493.969 177.514 493.713 177.866 493.409C178.074 493.249 178.29 493.169 178.514 493.169C178.69 493.169 178.866 493.233 179.042 493.361C179.25 493.553 179.354 493.769 179.354 494.009C179.354 494.217 179.266 494.401 179.09 494.561C178.562 495.009 177.89 495.385 177.074 495.689C176.258 495.977 175.474 496.121 174.722 496.121C173.442 496.121 172.298 495.841 171.29 495.281C170.282 494.705 169.49 493.913 168.914 492.905C168.354 491.881 168.074 490.729 168.074 489.449C168.074 488.153 168.338 487.001 168.866 485.993C169.41 484.969 170.154 484.177 171.098 483.617C172.058 483.041 173.146 482.753 174.362 482.753ZM174.362 484.409C173.146 484.409 172.138 484.785 171.338 485.537C170.538 486.289 170.05 487.281 169.874 488.513H178.658C178.53 487.281 178.082 486.289 177.314 485.537C176.546 484.785 175.562 484.409 174.362 484.409ZM195.08 482.753C196.136 482.753 197.056 482.937 197.84 483.305C198.624 483.657 199.256 484.153 199.736 484.793C199.864 485.001 199.928 485.185 199.928 485.345C199.928 485.617 199.8 485.833 199.544 485.993C199.432 486.073 199.28 486.113 199.088 486.113C198.752 486.113 198.472 485.993 198.248 485.753C197.464 484.857 196.392 484.409 195.032 484.409C194.152 484.409 193.448 484.593 192.92 484.961C192.392 485.313 192.128 485.761 192.128 486.305C192.128 486.881 192.376 487.345 192.872 487.697C193.368 488.033 194.248 488.305 195.512 488.513C197.224 488.801 198.448 489.273 199.184 489.929C199.92 490.569 200.288 491.369 200.288 492.329C200.288 493.065 200.064 493.721 199.616 494.297C199.184 494.873 198.576 495.321 197.792 495.641C197.008 495.961 196.12 496.121 195.128 496.121C194.136 496.121 193.184 495.953 192.272 495.617C191.36 495.281 190.624 494.809 190.064 494.201C189.904 494.009 189.824 493.825 189.824 493.649C189.824 493.377 189.952 493.137 190.208 492.929C190.4 492.785 190.6 492.713 190.808 492.713C191.08 492.713 191.312 492.825 191.504 493.049C191.888 493.497 192.392 493.841 193.016 494.081C193.656 494.321 194.36 494.441 195.128 494.441C196.248 494.441 197.088 494.249 197.648 493.865C198.208 493.481 198.496 492.977 198.512 492.353C198.512 491.777 198.232 491.297 197.672 490.913C197.112 490.529 196.224 490.241 195.008 490.049C193.44 489.793 192.264 489.353 191.48 488.729C190.712 488.089 190.328 487.321 190.328 486.425C190.328 485.257 190.776 484.353 191.672 483.713C192.584 483.073 193.72 482.753 195.08 482.753ZM210.153 482.753C211.401 482.753 212.529 483.049 213.537 483.641C214.561 484.217 215.361 485.017 215.937 486.041C216.529 487.065 216.825 488.201 216.825 489.449C216.825 490.697 216.537 491.833 215.961 492.857C215.401 493.865 214.625 494.665 213.633 495.257C212.657 495.833 211.561 496.121 210.345 496.121C209.305 496.121 208.353 495.905 207.489 495.473C206.625 495.025 205.913 494.417 205.353 493.649V500.681C205.353 500.953 205.265 501.177 205.089 501.353C204.913 501.529 204.689 501.617 204.417 501.617C204.145 501.617 203.921 501.529 203.745 501.353C203.585 501.177 203.505 500.953 203.505 500.681V495.305C203.489 495.257 203.481 495.185 203.481 495.089V489.449C203.481 488.201 203.769 487.065 204.345 486.041C204.937 485.017 205.737 484.217 206.745 483.641C207.769 483.049 208.905 482.753 210.153 482.753ZM210.153 494.441C211.065 494.441 211.889 494.225 212.625 493.793C213.377 493.361 213.961 492.769 214.377 492.017C214.809 491.249 215.025 490.393 215.025 489.449C215.025 488.505 214.809 487.657 214.377 486.905C213.961 486.137 213.377 485.537 212.625 485.105C211.889 484.657 211.065 484.433 210.153 484.433C209.241 484.433 208.417 484.657 207.681 485.105C206.945 485.537 206.361 486.137 205.929 486.905C205.513 487.657 205.305 488.505 205.305 489.449C205.305 489.721 205.313 489.921 205.329 490.049C205.345 490.081 205.353 490.121 205.353 490.169C205.513 491.417 206.033 492.441 206.913 493.241C207.809 494.041 208.889 494.441 210.153 494.441ZM226.426 482.753C227.674 482.753 228.802 483.049 229.81 483.641C230.834 484.217 231.634 485.017 232.21 486.041C232.802 487.065 233.098 488.201 233.098 489.449V495.089C233.098 495.345 233.01 495.561 232.834 495.737C232.658 495.913 232.434 496.001 232.162 496.001C231.89 496.001 231.666 495.921 231.49 495.761C231.314 495.585 231.226 495.361 231.226 495.089V493.649C230.666 494.417 229.954 495.025 229.09 495.473C228.226 495.905 227.274 496.121 226.234 496.121C225.018 496.121 223.914 495.833 222.922 495.257C221.946 494.665 221.17 493.865 220.594 492.857C220.034 491.833 219.754 490.697 219.754 489.449C219.754 488.201 220.042 487.065 220.618 486.041C221.21 485.017 222.01 484.217 223.018 483.641C224.042 483.049 225.178 482.753 226.426 482.753ZM226.426 494.441C227.338 494.441 228.162 494.225 228.898 493.793C229.634 493.361 230.21 492.769 230.626 492.017C231.058 491.249 231.274 490.393 231.274 489.449C231.274 488.505 231.058 487.657 230.626 486.905C230.21 486.137 229.634 485.537 228.898 485.105C228.162 484.657 227.338 484.433 226.426 484.433C225.514 484.433 224.682 484.657 223.93 485.105C223.194 485.537 222.61 486.137 222.178 486.905C221.762 487.657 221.554 488.505 221.554 489.449C221.554 490.393 221.762 491.249 222.178 492.017C222.61 492.769 223.194 493.361 223.93 493.793C224.682 494.225 225.514 494.441 226.426 494.441ZM242.308 482.753C244.308 482.753 245.932 483.521 247.18 485.057C247.308 485.201 247.372 485.369 247.372 485.561C247.372 485.817 247.236 486.041 246.964 486.233C246.82 486.329 246.668 486.377 246.508 486.377C246.268 486.377 246.036 486.257 245.812 486.017C245.332 485.489 244.804 485.097 244.228 484.841C243.652 484.569 243.012 484.433 242.308 484.433C241.428 484.433 240.644 484.649 239.956 485.081C239.268 485.497 238.732 486.089 238.348 486.857C237.98 487.625 237.796 488.489 237.796 489.449C237.796 490.393 237.996 491.249 238.396 492.017C238.796 492.769 239.356 493.361 240.076 493.793C240.796 494.225 241.62 494.441 242.548 494.441C243.828 494.441 244.86 494.097 245.644 493.409C245.852 493.233 246.068 493.145 246.292 493.145C246.484 493.145 246.66 493.209 246.82 493.337C247.044 493.529 247.156 493.745 247.156 493.985C247.156 494.193 247.076 494.369 246.916 494.513C245.764 495.585 244.308 496.121 242.548 496.121C241.3 496.121 240.18 495.833 239.188 495.257C238.196 494.665 237.412 493.865 236.836 492.857C236.276 491.833 235.996 490.697 235.996 489.449C235.996 488.169 236.268 487.025 236.812 486.017C237.356 484.993 238.108 484.193 239.068 483.617C240.028 483.041 241.108 482.753 242.308 482.753ZM256.581 482.753C257.765 482.753 258.813 483.033 259.725 483.593C260.637 484.137 261.341 484.897 261.837 485.873C262.349 486.849 262.605 487.961 262.605 489.209C262.605 489.465 262.525 489.673 262.365 489.833C262.205 489.977 261.997 490.049 261.741 490.049H252.045C252.173 491.361 252.685 492.425 253.581 493.241C254.477 494.057 255.597 494.465 256.941 494.465C257.517 494.465 258.093 494.369 258.669 494.177C259.261 493.969 259.733 493.713 260.085 493.409C260.293 493.249 260.509 493.169 260.733 493.169C260.909 493.169 261.085 493.233 261.261 493.361C261.469 493.553 261.573 493.769 261.573 494.009C261.573 494.217 261.485 494.401 261.309 494.561C260.781 495.009 260.109 495.385 259.293 495.689C258.477 495.977 257.693 496.121 256.941 496.121C255.661 496.121 254.517 495.841 253.509 495.281C252.501 494.705 251.709 493.913 251.133 492.905C250.573 491.881 250.293 490.729 250.293 489.449C250.293 488.153 250.557 487.001 251.085 485.993C251.629 484.969 252.373 484.177 253.317 483.617C254.277 483.041 255.365 482.753 256.581 482.753ZM256.581 484.409C255.365 484.409 254.357 484.785 253.557 485.537C252.757 486.289 252.269 487.281 252.093 488.513H260.877C260.749 487.281 260.301 486.289 259.533 485.537C258.765 484.785 257.781 484.409 256.581 484.409ZM85.0615 553.833C85.6695 553.833 85.9735 554.121 85.9735 554.697C85.9735 554.905 85.8775 555.097 85.6855 555.273C85.5095 555.433 85.3015 555.513 85.0615 555.513H83.1655V559.065C83.1655 559.321 83.0775 559.545 82.9015 559.737C82.7255 559.913 82.5015 560.001 82.2295 560.001C81.9735 560.001 81.7575 559.913 81.5815 559.737C81.4215 559.561 81.3415 559.337 81.3415 559.065V555.513H72.7495C72.4775 555.513 72.2535 555.425 72.0775 555.249C71.9015 555.057 71.8135 554.841 71.8135 554.601C71.8135 554.409 71.8775 554.225 72.0055 554.049L81.5095 541.617C81.6855 541.361 81.9415 541.233 82.2775 541.233C82.5335 541.233 82.7415 541.329 82.9015 541.521C83.0775 541.697 83.1655 541.921 83.1655 542.193V553.833H85.0615ZM81.3415 553.833V544.665L74.3095 553.833H81.3415ZM108.544 541.257C108.8 541.257 109.008 541.337 109.168 541.497C109.328 541.657 109.408 541.865 109.408 542.121C109.408 542.361 109.328 542.561 109.168 542.721C109.008 542.881 108.8 542.961 108.544 542.961H102.832V559.065C102.832 559.321 102.744 559.545 102.568 559.737C102.392 559.913 102.168 560.001 101.896 560.001C101.64 560.001 101.416 559.913 101.224 559.737C101.048 559.545 100.96 559.321 100.96 559.065V542.961H95.2719C95.0159 542.961 94.8079 542.881 94.6479 542.721C94.4879 542.561 94.4079 542.361 94.4079 542.121C94.4079 541.865 94.4879 541.657 94.6479 541.497C94.8079 541.337 95.0159 541.257 95.2719 541.257H108.544ZM111.958 547.569C111.942 547.617 111.934 547.689 111.934 547.785V553.425C111.934 554.673 112.222 555.809 112.798 556.833C113.39 557.857 114.19 558.665 115.198 559.257C116.222 559.833 117.358 560.121 118.606 560.121C119.854 560.121 120.982 559.833 121.99 559.257C123.014 558.665 123.814 557.857 124.39 556.833C124.982 555.809 125.278 554.673 125.278 553.425C125.278 552.177 124.99 551.049 124.414 550.041C123.854 549.017 123.078 548.217 122.086 547.641C121.11 547.049 120.014 546.753 118.798 546.753C117.758 546.753 116.806 546.977 115.942 547.425C115.078 547.857 114.366 548.457 113.806 549.225V542.193C113.806 541.921 113.718 541.697 113.542 541.521C113.366 541.345 113.142 541.257 112.87 541.257C112.598 541.257 112.374 541.345 112.198 541.521C112.038 541.697 111.958 541.921 111.958 542.193V547.569ZM118.606 558.441C117.694 558.441 116.87 558.225 116.134 557.793C115.398 557.345 114.814 556.745 114.382 555.993C113.966 555.225 113.758 554.369 113.758 553.425C113.758 553.153 113.766 552.953 113.782 552.825C113.798 552.793 113.806 552.753 113.806 552.705C113.966 551.457 114.486 550.433 115.366 549.633C116.262 548.833 117.342 548.433 118.606 548.433C119.518 548.433 120.342 548.649 121.078 549.081C121.83 549.513 122.414 550.113 122.83 550.881C123.262 551.633 123.478 552.481 123.478 553.425C123.478 554.369 123.262 555.225 122.83 555.993C122.414 556.745 121.83 557.345 121.078 557.793C120.342 558.225 119.518 558.441 118.606 558.441ZM154.006 541.257C154.262 541.257 154.478 541.345 154.654 541.521C154.83 541.697 154.918 541.921 154.918 542.193V559.065C154.918 559.321 154.83 559.545 154.654 559.737C154.478 559.913 154.262 560.001 154.006 560.001C153.734 560.001 153.502 559.913 153.31 559.737C153.134 559.545 153.046 559.321 153.046 559.065V545.481L146.374 559.113C146.182 559.417 145.91 559.569 145.558 559.569C145.158 559.569 144.87 559.377 144.694 558.993L138.046 545.697V559.065C138.046 559.321 137.958 559.545 137.782 559.737C137.606 559.913 137.382 560.001 137.11 560.001C136.854 560.001 136.63 559.913 136.438 559.737C136.262 559.545 136.174 559.321 136.174 559.065V542.193C136.174 541.921 136.262 541.697 136.438 541.521C136.63 541.345 136.854 541.257 137.11 541.257C137.478 541.257 137.758 541.417 137.95 541.737L145.63 557.001L153.166 541.737C153.358 541.417 153.638 541.257 154.006 541.257ZM165.465 546.753C166.729 546.753 167.865 547.041 168.873 547.617C169.881 548.193 170.673 548.993 171.249 550.017C171.841 551.041 172.137 552.185 172.137 553.449C172.137 554.713 171.849 555.857 171.273 556.881C170.697 557.889 169.897 558.681 168.873 559.257C167.865 559.833 166.729 560.121 165.465 560.121C164.201 560.121 163.057 559.833 162.033 559.257C161.025 558.681 160.233 557.889 159.657 556.881C159.081 555.857 158.793 554.713 158.793 553.449C158.793 552.185 159.081 551.041 159.657 550.017C160.233 548.993 161.025 548.193 162.033 547.617C163.057 547.041 164.201 546.753 165.465 546.753ZM165.465 548.433C164.553 548.433 163.721 548.649 162.969 549.081C162.233 549.513 161.649 550.113 161.217 550.881C160.801 551.633 160.593 552.489 160.593 553.449C160.593 554.393 160.801 555.249 161.217 556.017C161.649 556.769 162.233 557.361 162.969 557.793C163.721 558.225 164.553 558.441 165.465 558.441C166.393 558.441 167.225 558.225 167.961 557.793C168.697 557.361 169.273 556.769 169.689 556.017C170.105 555.249 170.313 554.393 170.313 553.449C170.313 552.489 170.105 551.633 169.689 550.881C169.273 550.113 168.697 549.513 167.961 549.081C167.225 548.649 166.393 548.433 165.465 548.433ZM181.947 546.729C183.083 546.729 184.099 546.969 184.995 547.449C185.907 547.929 186.619 548.633 187.131 549.561C187.643 550.473 187.899 551.569 187.899 552.849V559.089C187.899 559.345 187.811 559.561 187.635 559.737C187.459 559.913 187.243 560.001 186.987 560.001C186.715 560.001 186.491 559.913 186.315 559.737C186.139 559.561 186.051 559.345 186.051 559.089V552.849C186.051 551.425 185.651 550.345 184.851 549.609C184.067 548.857 183.035 548.481 181.755 548.481C180.971 548.481 180.259 548.633 179.619 548.937C178.995 549.241 178.499 549.665 178.131 550.209C177.763 550.737 177.579 551.329 177.579 551.985V559.089C177.579 559.361 177.491 559.585 177.315 559.761C177.155 559.921 176.939 560.001 176.667 560.001C176.395 560.001 176.171 559.921 175.995 559.761C175.819 559.585 175.731 559.361 175.731 559.089V547.809C175.731 547.537 175.819 547.313 175.995 547.137C176.171 546.961 176.395 546.873 176.667 546.873C176.939 546.873 177.155 546.961 177.315 547.137C177.491 547.313 177.579 547.537 177.579 547.809V548.625C178.107 548.033 178.747 547.569 179.499 547.233C180.251 546.897 181.067 546.729 181.947 546.729ZM197.757 558.153C198.013 558.153 198.221 558.241 198.381 558.417C198.541 558.593 198.621 558.817 198.621 559.089C198.621 559.345 198.525 559.561 198.333 559.737C198.141 559.913 197.901 560.001 197.613 560.001H197.109C196.261 560.001 195.501 559.801 194.829 559.401C194.157 558.985 193.629 558.433 193.245 557.745C192.877 557.041 192.693 556.249 192.693 555.369V548.961H191.133C190.877 548.961 190.669 548.889 190.509 548.745C190.365 548.585 190.293 548.393 190.293 548.169C190.293 547.929 190.365 547.737 190.509 547.593C190.669 547.433 190.877 547.353 191.133 547.353H192.693V543.633C192.693 543.361 192.773 543.137 192.933 542.961C193.109 542.785 193.333 542.697 193.605 542.697C193.877 542.697 194.101 542.785 194.277 542.961C194.453 543.137 194.541 543.361 194.541 543.633V547.353H197.253C197.509 547.353 197.709 547.433 197.853 547.593C198.013 547.737 198.093 547.929 198.093 548.169C198.093 548.393 198.013 548.585 197.853 548.745C197.709 548.889 197.509 548.961 197.253 548.961H194.541V555.369C194.541 556.185 194.781 556.857 195.261 557.385C195.741 557.897 196.357 558.153 197.109 558.153H197.757ZM207.846 546.729C208.982 546.729 209.998 546.969 210.894 547.449C211.806 547.929 212.518 548.633 213.03 549.561C213.542 550.473 213.798 551.569 213.798 552.849V559.089C213.798 559.345 213.71 559.561 213.534 559.737C213.358 559.913 213.142 560.001 212.886 560.001C212.614 560.001 212.39 559.913 212.214 559.737C212.038 559.561 211.95 559.345 211.95 559.089V552.849C211.95 551.425 211.55 550.345 210.75 549.609C209.966 548.857 208.934 548.481 207.654 548.481C206.87 548.481 206.158 548.633 205.518 548.937C204.894 549.241 204.398 549.665 204.03 550.209C203.662 550.737 203.478 551.329 203.478 551.985V559.089C203.478 559.361 203.39 559.585 203.214 559.761C203.054 559.921 202.838 560.001 202.566 560.001C202.294 560.001 202.07 559.921 201.894 559.761C201.718 559.585 201.63 559.361 201.63 559.089V542.193C201.63 541.921 201.718 541.697 201.894 541.521C202.07 541.345 202.294 541.257 202.566 541.257C202.838 541.257 203.054 541.345 203.214 541.521C203.39 541.697 203.478 541.921 203.478 542.193V548.625C204.006 548.033 204.646 547.569 205.398 547.233C206.15 546.897 206.966 546.729 207.846 546.729ZM217.392 542.169C217.392 541.897 217.48 541.681 217.656 541.521C217.832 541.345 218.048 541.257 218.304 541.257C218.576 541.257 218.792 541.345 218.952 541.521C219.128 541.681 219.216 541.897 219.216 542.169V555.849C219.216 556.537 219.352 557.097 219.624 557.529C219.912 557.961 220.272 558.177 220.704 558.177H221.304C221.544 558.177 221.736 558.265 221.88 558.441C222.024 558.601 222.096 558.817 222.096 559.089C222.096 559.361 221.992 559.585 221.784 559.761C221.592 559.921 221.336 560.001 221.016 560.001H220.704C219.728 560.001 218.928 559.617 218.304 558.849C217.696 558.065 217.392 557.065 217.392 555.849V542.169ZM234.917 546.945C235.285 547.089 235.469 547.321 235.469 547.641C235.469 547.785 235.437 547.929 235.373 548.073L227.597 565.161C227.453 565.529 227.221 565.713 226.901 565.713C226.741 565.713 226.597 565.681 226.469 565.617C226.101 565.473 225.917 565.233 225.917 564.897C225.917 564.753 225.949 564.609 226.013 564.465L228.389 559.209V559.185L223.037 548.097C222.973 547.969 222.941 547.825 222.941 547.665C222.941 547.329 223.117 547.089 223.469 546.945C223.597 546.881 223.741 546.849 223.901 546.849C224.237 546.849 224.477 547.017 224.621 547.353L229.301 557.217L233.765 547.377C233.925 547.025 234.165 546.849 234.485 546.849C234.629 546.849 234.773 546.881 234.917 546.945ZM249.361 546.753C250.417 546.753 251.337 546.937 252.121 547.305C252.905 547.657 253.537 548.153 254.017 548.793C254.145 549.001 254.209 549.185 254.209 549.345C254.209 549.617 254.081 549.833 253.825 549.993C253.713 550.073 253.561 550.113 253.369 550.113C253.033 550.113 252.753 549.993 252.529 549.753C251.745 548.857 250.673 548.409 249.313 548.409C248.433 548.409 247.729 548.593 247.201 548.961C246.673 549.313 246.409 549.761 246.409 550.305C246.409 550.881 246.657 551.345 247.153 551.697C247.649 552.033 248.529 552.305 249.793 552.513C251.505 552.801 252.729 553.273 253.465 553.929C254.201 554.569 254.569 555.369 254.569 556.329C254.569 557.065 254.345 557.721 253.897 558.297C253.465 558.873 252.857 559.321 252.073 559.641C251.289 559.961 250.401 560.121 249.409 560.121C248.417 560.121 247.465 559.953 246.553 559.617C245.641 559.281 244.905 558.809 244.345 558.201C244.185 558.009 244.105 557.825 244.105 557.649C244.105 557.377 244.233 557.137 244.489 556.929C244.681 556.785 244.881 556.713 245.089 556.713C245.361 556.713 245.593 556.825 245.785 557.049C246.169 557.497 246.673 557.841 247.297 558.081C247.937 558.321 248.641 558.441 249.409 558.441C250.529 558.441 251.369 558.249 251.929 557.865C252.489 557.481 252.777 556.977 252.793 556.353C252.793 555.777 252.513 555.297 251.953 554.913C251.393 554.529 250.505 554.241 249.289 554.049C247.721 553.793 246.545 553.353 245.761 552.729C244.993 552.089 244.609 551.321 244.609 550.425C244.609 549.257 245.057 548.353 245.953 547.713C246.865 547.073 248.001 546.753 249.361 546.753ZM264.435 546.753C265.683 546.753 266.811 547.049 267.819 547.641C268.843 548.217 269.643 549.017 270.219 550.041C270.811 551.065 271.107 552.201 271.107 553.449C271.107 554.697 270.819 555.833 270.243 556.857C269.683 557.865 268.907 558.665 267.915 559.257C266.939 559.833 265.843 560.121 264.627 560.121C263.587 560.121 262.635 559.905 261.771 559.473C260.907 559.025 260.195 558.417 259.635 557.649V564.681C259.635 564.953 259.547 565.177 259.371 565.353C259.195 565.529 258.971 565.617 258.699 565.617C258.427 565.617 258.203 565.529 258.027 565.353C257.867 565.177 257.787 564.953 257.787 564.681V559.305C257.771 559.257 257.763 559.185 257.763 559.089V553.449C257.763 552.201 258.051 551.065 258.627 550.041C259.219 549.017 260.019 548.217 261.027 547.641C262.051 547.049 263.187 546.753 264.435 546.753ZM264.435 558.441C265.347 558.441 266.171 558.225 266.907 557.793C267.659 557.361 268.243 556.769 268.659 556.017C269.091 555.249 269.307 554.393 269.307 553.449C269.307 552.505 269.091 551.657 268.659 550.905C268.243 550.137 267.659 549.537 266.907 549.105C266.171 548.657 265.347 548.433 264.435 548.433C263.523 548.433 262.699 548.657 261.963 549.105C261.227 549.537 260.643 550.137 260.211 550.905C259.795 551.657 259.587 552.505 259.587 553.449C259.587 553.721 259.595 553.921 259.611 554.049C259.627 554.081 259.635 554.121 259.635 554.169C259.795 555.417 260.315 556.441 261.195 557.241C262.091 558.041 263.171 558.441 264.435 558.441ZM280.707 546.753C281.955 546.753 283.083 547.049 284.091 547.641C285.115 548.217 285.915 549.017 286.491 550.041C287.083 551.065 287.379 552.201 287.379 553.449V559.089C287.379 559.345 287.291 559.561 287.115 559.737C286.939 559.913 286.715 560.001 286.443 560.001C286.171 560.001 285.947 559.921 285.771 559.761C285.595 559.585 285.507 559.361 285.507 559.089V557.649C284.947 558.417 284.235 559.025 283.371 559.473C282.507 559.905 281.555 560.121 280.515 560.121C279.299 560.121 278.195 559.833 277.203 559.257C276.227 558.665 275.451 557.865 274.875 556.857C274.315 555.833 274.035 554.697 274.035 553.449C274.035 552.201 274.323 551.065 274.899 550.041C275.491 549.017 276.291 548.217 277.299 547.641C278.323 547.049 279.459 546.753 280.707 546.753ZM280.707 558.441C281.619 558.441 282.443 558.225 283.179 557.793C283.915 557.361 284.491 556.769 284.907 556.017C285.339 555.249 285.555 554.393 285.555 553.449C285.555 552.505 285.339 551.657 284.907 550.905C284.491 550.137 283.915 549.537 283.179 549.105C282.443 548.657 281.619 548.433 280.707 548.433C279.795 548.433 278.963 548.657 278.211 549.105C277.475 549.537 276.891 550.137 276.459 550.905C276.043 551.657 275.835 552.505 275.835 553.449C275.835 554.393 276.043 555.249 276.459 556.017C276.891 556.769 277.475 557.361 278.211 557.793C278.963 558.225 279.795 558.441 280.707 558.441ZM296.589 546.753C298.589 546.753 300.213 547.521 301.461 549.057C301.589 549.201 301.653 549.369 301.653 549.561C301.653 549.817 301.517 550.041 301.245 550.233C301.101 550.329 300.949 550.377 300.789 550.377C300.549 550.377 300.317 550.257 300.093 550.017C299.613 549.489 299.085 549.097 298.509 548.841C297.933 548.569 297.293 548.433 296.589 548.433C295.709 548.433 294.925 548.649 294.237 549.081C293.549 549.497 293.013 550.089 292.629 550.857C292.261 551.625 292.077 552.489 292.077 553.449C292.077 554.393 292.277 555.249 292.677 556.017C293.077 556.769 293.637 557.361 294.357 557.793C295.077 558.225 295.901 558.441 296.829 558.441C298.109 558.441 299.141 558.097 299.925 557.409C300.133 557.233 300.349 557.145 300.573 557.145C300.765 557.145 300.941 557.209 301.101 557.337C301.325 557.529 301.437 557.745 301.437 557.985C301.437 558.193 301.357 558.369 301.197 558.513C300.045 559.585 298.589 560.121 296.829 560.121C295.581 560.121 294.461 559.833 293.469 559.257C292.477 558.665 291.693 557.865 291.117 556.857C290.557 555.833 290.277 554.697 290.277 553.449C290.277 552.169 290.549 551.025 291.093 550.017C291.637 548.993 292.389 548.193 293.349 547.617C294.309 547.041 295.389 546.753 296.589 546.753ZM310.862 546.753C312.046 546.753 313.094 547.033 314.006 547.593C314.918 548.137 315.622 548.897 316.118 549.873C316.63 550.849 316.886 551.961 316.886 553.209C316.886 553.465 316.806 553.673 316.646 553.833C316.486 553.977 316.278 554.049 316.022 554.049H306.326C306.454 555.361 306.966 556.425 307.862 557.241C308.758 558.057 309.878 558.465 311.222 558.465C311.798 558.465 312.374 558.369 312.95 558.177C313.542 557.969 314.014 557.713 314.366 557.409C314.574 557.249 314.79 557.169 315.014 557.169C315.19 557.169 315.366 557.233 315.542 557.361C315.75 557.553 315.854 557.769 315.854 558.009C315.854 558.217 315.766 558.401 315.59 558.561C315.062 559.009 314.39 559.385 313.574 559.689C312.758 559.977 311.974 560.121 311.222 560.121C309.942 560.121 308.798 559.841 307.79 559.281C306.782 558.705 305.99 557.913 305.414 556.905C304.854 555.881 304.574 554.729 304.574 553.449C304.574 552.153 304.838 551.001 305.366 549.993C305.91 548.969 306.654 548.177 307.598 547.617C308.558 547.041 309.646 546.753 310.862 546.753ZM310.862 548.409C309.646 548.409 308.638 548.785 307.838 549.537C307.038 550.289 306.55 551.281 306.374 552.513H315.158C315.03 551.281 314.582 550.289 313.814 549.537C313.046 548.785 312.062 548.409 310.862 548.409ZM73.8775 608.305C73.7175 608.385 73.5575 608.425 73.3975 608.425C73.1255 608.425 72.9015 608.345 72.7255 608.185C72.5495 608.009 72.4615 607.785 72.4615 607.513C72.4615 607.049 72.6615 606.753 73.0615 606.625L76.7575 605.353C76.9975 605.273 77.1575 605.233 77.2375 605.233C77.4935 605.233 77.7095 605.321 77.8855 605.497C78.0615 605.673 78.1495 605.897 78.1495 606.169V623.065C78.1495 623.321 78.0615 623.545 77.8855 623.737C77.7095 623.913 77.4855 624.001 77.2135 624.001C76.9575 624.001 76.7335 623.913 76.5415 623.737C76.3655 623.545 76.2775 623.321 76.2775 623.065V607.465L73.8775 608.305ZM87.3879 605.209C88.5879 605.209 89.6119 605.593 90.4599 606.361C91.3079 607.113 91.9479 608.193 92.3799 609.601C92.8279 611.009 93.0519 612.673 93.0519 614.593C93.0519 617.537 92.5559 619.841 91.5639 621.505C90.5719 623.169 89.1799 624.001 87.3879 624.001C86.2039 624.001 85.1879 623.625 84.3399 622.873C83.4919 622.121 82.8439 621.041 82.3959 619.633C81.9639 618.225 81.7479 616.545 81.7479 614.593C81.7479 612.657 81.9639 610.985 82.3959 609.577C82.8439 608.169 83.4919 607.089 84.3399 606.337C85.1879 605.585 86.2039 605.209 87.3879 605.209ZM87.3879 607.081C86.1559 607.081 85.2199 607.769 84.5799 609.145C83.9399 610.521 83.6199 612.337 83.6199 614.593C83.6199 616.881 83.9399 618.713 84.5799 620.089C85.2199 621.449 86.1559 622.129 87.3879 622.129C88.6359 622.129 89.5799 621.441 90.2199 620.065C90.8599 618.689 91.1799 616.865 91.1799 614.593C91.1799 612.337 90.8519 610.521 90.1959 609.145C89.5559 607.769 88.6199 607.081 87.3879 607.081ZM101.099 605.209C102.299 605.209 103.323 605.593 104.171 606.361C105.019 607.113 105.659 608.193 106.091 609.601C106.539 611.009 106.763 612.673 106.763 614.593C106.763 617.537 106.267 619.841 105.275 621.505C104.283 623.169 102.891 624.001 101.099 624.001C99.9148 624.001 98.8988 623.625 98.0508 622.873C97.2028 622.121 96.5548 621.041 96.1068 619.633C95.6748 618.225 95.4588 616.545 95.4588 614.593C95.4588 612.657 95.6748 610.985 96.1068 609.577C96.5548 608.169 97.2028 607.089 98.0508 606.337C98.8988 605.585 99.9148 605.209 101.099 605.209ZM101.099 607.081C99.8668 607.081 98.9308 607.769 98.2908 609.145C97.6508 610.521 97.3308 612.337 97.3308 614.593C97.3308 616.881 97.6508 618.713 98.2908 620.089C98.9308 621.449 99.8668 622.129 101.099 622.129C102.347 622.129 103.291 621.441 103.931 620.065C104.571 618.689 104.891 616.865 104.891 614.593C104.891 612.337 104.563 610.521 103.907 609.145C103.267 607.769 102.331 607.081 101.099 607.081ZM135.233 605.257C135.489 605.257 135.705 605.345 135.881 605.521C136.057 605.697 136.145 605.921 136.145 606.193V623.065C136.145 623.321 136.057 623.545 135.881 623.737C135.705 623.913 135.489 624.001 135.233 624.001C134.961 624.001 134.729 623.913 134.537 623.737C134.361 623.545 134.273 623.321 134.273 623.065V609.481L127.601 623.113C127.409 623.417 127.137 623.569 126.785 623.569C126.385 623.569 126.097 623.377 125.921 622.993L119.273 609.697V623.065C119.273 623.321 119.185 623.545 119.009 623.737C118.833 623.913 118.609 624.001 118.337 624.001C118.081 624.001 117.857 623.913 117.665 623.737C117.489 623.545 117.401 623.321 117.401 623.065V606.193C117.401 605.921 117.489 605.697 117.665 605.521C117.857 605.345 118.081 605.257 118.337 605.257C118.705 605.257 118.985 605.417 119.177 605.737L126.857 621.001L134.393 605.737C134.585 605.417 134.865 605.257 135.233 605.257ZM140.74 611.569C140.724 611.617 140.716 611.689 140.716 611.785V617.425C140.716 618.673 141.004 619.809 141.58 620.833C142.172 621.857 142.972 622.665 143.98 623.257C145.004 623.833 146.14 624.121 147.388 624.121C148.636 624.121 149.764 623.833 150.772 623.257C151.796 622.665 152.596 621.857 153.172 620.833C153.764 619.809 154.06 618.673 154.06 617.425C154.06 616.177 153.772 615.049 153.196 614.041C152.636 613.017 151.86 612.217 150.868 611.641C149.892 611.049 148.796 610.753 147.58 610.753C146.54 610.753 145.588 610.977 144.724 611.425C143.86 611.857 143.148 612.457 142.588 613.225V606.193C142.588 605.921 142.5 605.697 142.324 605.521C142.148 605.345 141.924 605.257 141.652 605.257C141.38 605.257 141.156 605.345 140.98 605.521C140.82 605.697 140.74 605.921 140.74 606.193V611.569ZM147.388 622.441C146.476 622.441 145.652 622.225 144.916 621.793C144.18 621.345 143.596 620.745 143.164 619.993C142.748 619.225 142.54 618.369 142.54 617.425C142.54 617.153 142.548 616.953 142.564 616.825C142.58 616.793 142.588 616.753 142.588 616.705C142.748 615.457 143.268 614.433 144.148 613.633C145.044 612.833 146.124 612.433 147.388 612.433C148.3 612.433 149.124 612.649 149.86 613.081C150.612 613.513 151.196 614.113 151.612 614.881C152.044 615.633 152.26 616.481 152.26 617.425C152.26 618.369 152.044 619.225 151.612 619.993C151.196 620.745 150.612 621.345 149.86 621.793C149.124 622.225 148.3 622.441 147.388 622.441ZM158.068 611.809C158.068 611.537 158.156 611.313 158.332 611.137C158.508 610.961 158.732 610.873 159.004 610.873C159.276 610.873 159.492 610.961 159.652 611.137C159.828 611.313 159.916 611.537 159.916 611.809V623.065C159.916 623.337 159.828 623.561 159.652 623.737C159.492 623.913 159.276 624.001 159.004 624.001C158.732 624.001 158.508 623.913 158.332 623.737C158.156 623.561 158.068 623.337 158.068 623.065V611.809ZM159.004 605.761C159.356 605.761 159.66 605.881 159.916 606.121C160.172 606.361 160.3 606.673 160.3 607.057C160.3 607.425 160.172 607.737 159.916 607.993C159.66 608.249 159.348 608.377 158.98 608.377C158.612 608.377 158.3 608.249 158.044 607.993C157.804 607.737 157.684 607.425 157.684 607.057C157.684 606.673 157.812 606.361 158.068 606.121C158.324 605.881 158.636 605.761 159.004 605.761ZM170.406 622.153C170.662 622.153 170.87 622.241 171.03 622.417C171.19 622.593 171.27 622.817 171.27 623.089C171.27 623.345 171.174 623.561 170.982 623.737C170.79 623.913 170.55 624.001 170.262 624.001H169.758C168.91 624.001 168.15 623.801 167.478 623.401C166.806 622.985 166.278 622.433 165.894 621.745C165.526 621.041 165.342 620.249 165.342 619.369V612.961H163.782C163.526 612.961 163.318 612.889 163.158 612.745C163.014 612.585 162.942 612.393 162.942 612.169C162.942 611.929 163.014 611.737 163.158 611.593C163.318 611.433 163.526 611.353 163.782 611.353H165.342V607.633C165.342 607.361 165.422 607.137 165.582 606.961C165.758 606.785 165.982 606.697 166.254 606.697C166.526 606.697 166.75 606.785 166.926 606.961C167.102 607.137 167.19 607.361 167.19 607.633V611.353H169.902C170.158 611.353 170.358 611.433 170.502 611.593C170.662 611.737 170.742 611.929 170.742 612.169C170.742 612.393 170.662 612.585 170.502 612.745C170.358 612.889 170.158 612.961 169.902 612.961H167.19V619.369C167.19 620.185 167.43 620.857 167.91 621.385C168.39 621.897 169.006 622.153 169.758 622.153H170.406ZM187.309 605.017C188.573 605.017 189.685 605.297 190.645 605.857C191.605 606.417 192.357 607.145 192.901 608.041C193.013 608.217 193.069 608.409 193.069 608.617C193.069 608.921 192.925 609.161 192.637 609.337C192.509 609.401 192.365 609.433 192.205 609.433C192.029 609.433 191.861 609.393 191.701 609.313C191.557 609.217 191.437 609.089 191.341 608.929C190.445 607.521 189.093 606.809 187.285 606.793C185.989 606.793 184.965 607.065 184.213 607.609C183.461 608.153 183.085 608.929 183.085 609.937C183.085 611.809 184.597 612.945 187.621 613.345C189.605 613.633 191.085 614.241 192.061 615.169C193.037 616.097 193.525 617.321 193.525 618.841C193.525 619.961 193.253 620.929 192.709 621.745C192.165 622.561 191.421 623.185 190.477 623.617C189.533 624.033 188.477 624.241 187.309 624.241C185.789 624.241 184.437 623.921 183.253 623.281C182.085 622.625 181.245 621.745 180.733 620.641C180.669 620.529 180.637 620.401 180.637 620.257C180.637 620.033 180.717 619.849 180.877 619.705C181.053 619.545 181.285 619.465 181.573 619.465C181.765 619.465 181.941 619.521 182.101 619.633C182.277 619.729 182.405 619.873 182.485 620.065C182.853 620.785 183.461 621.369 184.309 621.817C185.173 622.249 186.173 622.465 187.309 622.465C188.621 622.465 189.677 622.153 190.477 621.529C191.277 620.889 191.677 620.001 191.677 618.865C191.677 617.857 191.301 617.009 190.549 616.321C189.813 615.633 188.701 615.193 187.213 615.001C185.357 614.777 183.893 614.201 182.821 613.273C181.765 612.329 181.237 611.177 181.237 609.817C181.237 608.857 181.493 608.017 182.005 607.297C182.533 606.561 183.253 606.001 184.165 605.617C185.093 605.217 186.141 605.017 187.309 605.017ZM203.872 610.753C205.12 610.753 206.248 611.049 207.256 611.641C208.28 612.217 209.08 613.017 209.656 614.041C210.248 615.065 210.544 616.201 210.544 617.449C210.544 618.697 210.256 619.833 209.68 620.857C209.12 621.865 208.344 622.665 207.352 623.257C206.376 623.833 205.28 624.121 204.064 624.121C203.024 624.121 202.072 623.905 201.208 623.473C200.344 623.025 199.632 622.417 199.072 621.649V628.681C199.072 628.953 198.984 629.177 198.808 629.353C198.632 629.529 198.408 629.617 198.136 629.617C197.864 629.617 197.64 629.529 197.464 629.353C197.304 629.177 197.224 628.953 197.224 628.681V623.305C197.208 623.257 197.2 623.185 197.2 623.089V617.449C197.2 616.201 197.488 615.065 198.064 614.041C198.656 613.017 199.456 612.217 200.464 611.641C201.488 611.049 202.624 610.753 203.872 610.753ZM203.872 622.441C204.784 622.441 205.608 622.225 206.344 621.793C207.096 621.361 207.68 620.769 208.096 620.017C208.528 619.249 208.744 618.393 208.744 617.449C208.744 616.505 208.528 615.657 208.096 614.905C207.68 614.137 207.096 613.537 206.344 613.105C205.608 612.657 204.784 612.433 203.872 612.433C202.96 612.433 202.136 612.657 201.4 613.105C200.664 613.537 200.08 614.137 199.648 614.905C199.232 615.657 199.024 616.505 199.024 617.449C199.024 617.721 199.032 617.921 199.048 618.049C199.064 618.081 199.072 618.121 199.072 618.169C199.232 619.417 199.752 620.441 200.632 621.241C201.528 622.041 202.608 622.441 203.872 622.441ZM219.761 610.753C220.945 610.753 221.993 611.033 222.905 611.593C223.817 612.137 224.521 612.897 225.017 613.873C225.529 614.849 225.785 615.961 225.785 617.209C225.785 617.465 225.705 617.673 225.545 617.833C225.385 617.977 225.177 618.049 224.921 618.049H215.225C215.353 619.361 215.865 620.425 216.761 621.241C217.657 622.057 218.777 622.465 220.121 622.465C220.697 622.465 221.273 622.369 221.849 622.177C222.441 621.969 222.913 621.713 223.265 621.409C223.473 621.249 223.689 621.169 223.913 621.169C224.089 621.169 224.265 621.233 224.441 621.361C224.649 621.553 224.753 621.769 224.753 622.009C224.753 622.217 224.665 622.401 224.489 622.561C223.961 623.009 223.289 623.385 222.473 623.689C221.657 623.977 220.873 624.121 220.121 624.121C218.841 624.121 217.697 623.841 216.689 623.281C215.681 622.705 214.889 621.913 214.313 620.905C213.753 619.881 213.473 618.729 213.473 617.449C213.473 616.153 213.737 615.001 214.265 613.993C214.809 612.969 215.553 612.177 216.497 611.617C217.457 611.041 218.545 610.753 219.761 610.753ZM219.761 612.409C218.545 612.409 217.537 612.785 216.737 613.537C215.937 614.289 215.449 615.281 215.273 616.513H224.057C223.929 615.281 223.481 614.289 222.713 613.537C221.945 612.785 220.961 612.409 219.761 612.409ZM234.034 610.753C235.218 610.753 236.266 611.033 237.178 611.593C238.09 612.137 238.794 612.897 239.29 613.873C239.802 614.849 240.058 615.961 240.058 617.209C240.058 617.465 239.978 617.673 239.818 617.833C239.658 617.977 239.45 618.049 239.194 618.049H229.498C229.626 619.361 230.138 620.425 231.034 621.241C231.93 622.057 233.05 622.465 234.394 622.465C234.97 622.465 235.546 622.369 236.122 622.177C236.714 621.969 237.186 621.713 237.538 621.409C237.746 621.249 237.962 621.169 238.186 621.169C238.362 621.169 238.538 621.233 238.714 621.361C238.922 621.553 239.026 621.769 239.026 622.009C239.026 622.217 238.938 622.401 238.762 622.561C238.234 623.009 237.562 623.385 236.746 623.689C235.93 623.977 235.146 624.121 234.394 624.121C233.114 624.121 231.97 623.841 230.962 623.281C229.954 622.705 229.162 621.913 228.586 620.905C228.026 619.881 227.746 618.729 227.746 617.449C227.746 616.153 228.01 615.001 228.538 613.993C229.082 612.969 229.826 612.177 230.77 611.617C231.73 611.041 232.818 610.753 234.034 610.753ZM234.034 612.409C232.818 612.409 231.81 612.785 231.01 613.537C230.21 614.289 229.722 615.281 229.546 616.513H238.33C238.202 615.281 237.754 614.289 236.986 613.537C236.218 612.785 235.234 612.409 234.034 612.409ZM255.34 611.569C255.356 611.617 255.364 611.689 255.364 611.785V617.425C255.364 618.673 255.068 619.809 254.476 620.833C253.9 621.857 253.1 622.665 252.076 623.257C251.068 623.833 249.94 624.121 248.692 624.121C247.444 624.121 246.308 623.833 245.284 623.257C244.276 622.665 243.476 621.857 242.884 620.833C242.308 619.809 242.02 618.673 242.02 617.425C242.02 616.177 242.3 615.049 242.86 614.041C243.436 613.017 244.212 612.217 245.188 611.641C246.18 611.049 247.284 610.753 248.5 610.753C249.54 610.753 250.492 610.977 251.356 611.425C252.22 611.857 252.932 612.457 253.492 613.225V606.193C253.492 605.921 253.58 605.697 253.756 605.521C253.932 605.345 254.156 605.257 254.428 605.257C254.7 605.257 254.916 605.345 255.076 605.521C255.252 605.697 255.34 605.921 255.34 606.193V611.569ZM248.692 622.441C249.604 622.441 250.428 622.225 251.164 621.793C251.9 621.345 252.476 620.745 252.892 619.993C253.324 619.225 253.54 618.369 253.54 617.425C253.54 617.153 253.532 616.953 253.516 616.825C253.5 616.793 253.492 616.753 253.492 616.705C253.332 615.457 252.804 614.433 251.908 613.633C251.028 612.833 249.956 612.433 248.692 612.433C247.78 612.433 246.948 612.649 246.196 613.081C245.46 613.513 244.876 614.113 244.444 614.881C244.028 615.633 243.82 616.481 243.82 617.425C243.82 618.369 244.028 619.225 244.444 619.993C244.876 620.745 245.46 621.345 246.196 621.793C246.948 622.225 247.78 622.441 248.692 622.441ZM78.7255 669.137C79.6375 669.137 80.4695 669.345 81.2215 669.761C81.9895 670.161 82.5895 670.721 83.0215 671.441C83.4535 672.145 83.6695 672.937 83.6695 673.817C83.6695 674.617 83.3895 675.385 82.8295 676.121C82.2855 676.841 81.6135 677.377 80.8135 677.729C81.9975 678.081 82.8935 678.705 83.5015 679.601C84.1255 680.481 84.4375 681.497 84.4375 682.649C84.4375 683.673 84.1815 684.609 83.6695 685.457C83.1735 686.289 82.4855 686.945 81.6055 687.425C80.7255 687.889 79.7495 688.121 78.6775 688.121C77.5735 688.121 76.5735 687.881 75.6775 687.401C74.7815 686.905 74.0775 686.233 73.5655 685.385C73.0535 684.521 72.7975 683.561 72.7975 682.505C72.7975 682.233 72.8775 682.001 73.0375 681.809C73.2135 681.617 73.4295 681.521 73.6855 681.521C73.9415 681.521 74.1495 681.617 74.3095 681.809C74.4855 682.001 74.5735 682.233 74.5735 682.505C74.5735 683.225 74.7495 683.881 75.1015 684.473C75.4535 685.065 75.9335 685.537 76.5415 685.889C77.1655 686.225 77.8535 686.393 78.6055 686.393C79.8375 686.393 80.8055 686.049 81.5095 685.361C82.2295 684.673 82.5895 683.769 82.5895 682.649C82.5895 681.881 82.4215 681.201 82.0855 680.609C81.7495 680.017 81.2935 679.561 80.7175 679.241C80.1415 678.905 79.4935 678.737 78.7735 678.737C78.5175 678.737 78.3015 678.649 78.1255 678.473C77.9495 678.297 77.8615 678.073 77.8615 677.801C77.8615 677.529 77.9495 677.313 78.1255 677.153C78.3015 676.977 78.5175 676.889 78.7735 676.889C79.3175 676.889 79.8295 676.753 80.3095 676.481C80.7895 676.193 81.1735 675.817 81.4615 675.353C81.7495 674.873 81.8935 674.361 81.8935 673.817C81.8935 672.969 81.5975 672.265 81.0055 671.705C80.4295 671.129 79.6695 670.841 78.7255 670.841C77.7175 670.841 76.8855 671.121 76.2295 671.681C75.5735 672.241 75.2455 672.945 75.2455 673.793C75.2455 674.065 75.1575 674.297 74.9815 674.489C74.8215 674.665 74.6135 674.753 74.3575 674.753C74.1015 674.753 73.8855 674.665 73.7095 674.489C73.5495 674.297 73.4695 674.073 73.4695 673.817C73.4695 672.937 73.6935 672.145 74.1415 671.441C74.6055 670.721 75.2375 670.161 76.0375 669.761C76.8375 669.345 77.7335 669.137 78.7255 669.137ZM92.3566 669.209C93.5566 669.209 94.5806 669.593 95.4286 670.361C96.2766 671.113 96.9166 672.193 97.3486 673.601C97.7966 675.009 98.0206 676.673 98.0206 678.593C98.0206 681.537 97.5246 683.841 96.5326 685.505C95.5406 687.169 94.1486 688.001 92.3566 688.001C91.1726 688.001 90.1566 687.625 89.3086 686.873C88.4606 686.121 87.8126 685.041 87.3646 683.633C86.9326 682.225 86.7166 680.545 86.7166 678.593C86.7166 676.657 86.9326 674.985 87.3646 673.577C87.8126 672.169 88.4606 671.089 89.3086 670.337C90.1566 669.585 91.1726 669.209 92.3566 669.209ZM92.3566 671.081C91.1246 671.081 90.1886 671.769 89.5486 673.145C88.9086 674.521 88.5886 676.337 88.5886 678.593C88.5886 680.881 88.9086 682.713 89.5486 684.089C90.1886 685.449 91.1246 686.129 92.3566 686.129C93.6046 686.129 94.5486 685.441 95.1886 684.065C95.8286 682.689 96.1486 680.865 96.1486 678.593C96.1486 676.337 95.8206 674.521 95.1646 673.145C94.5246 671.769 93.5886 671.081 92.3566 671.081ZM106.068 669.209C107.268 669.209 108.292 669.593 109.14 670.361C109.988 671.113 110.628 672.193 111.06 673.601C111.508 675.009 111.732 676.673 111.732 678.593C111.732 681.537 111.236 683.841 110.244 685.505C109.252 687.169 107.86 688.001 106.068 688.001C104.884 688.001 103.868 687.625 103.02 686.873C102.172 686.121 101.524 685.041 101.076 683.633C100.644 682.225 100.428 680.545 100.428 678.593C100.428 676.657 100.644 674.985 101.076 673.577C101.524 672.169 102.172 671.089 103.02 670.337C103.868 669.585 104.884 669.209 106.068 669.209ZM106.068 671.081C104.836 671.081 103.9 671.769 103.26 673.145C102.62 674.521 102.3 676.337 102.3 678.593C102.3 680.881 102.62 682.713 103.26 684.089C103.9 685.449 104.836 686.129 106.068 686.129C107.316 686.129 108.26 685.441 108.9 684.065C109.54 682.689 109.86 680.865 109.86 678.593C109.86 676.337 109.532 674.521 108.876 673.145C108.236 671.769 107.3 671.081 106.068 671.081ZM119.778 669.209C120.978 669.209 122.002 669.593 122.85 670.361C123.698 671.113 124.338 672.193 124.77 673.601C125.218 675.009 125.442 676.673 125.442 678.593C125.442 681.537 124.946 683.841 123.954 685.505C122.962 687.169 121.57 688.001 119.778 688.001C118.594 688.001 117.578 687.625 116.73 686.873C115.882 686.121 115.234 685.041 114.786 683.633C114.354 682.225 114.138 680.545 114.138 678.593C114.138 676.657 114.354 674.985 114.786 673.577C115.234 672.169 115.882 671.089 116.73 670.337C117.578 669.585 118.594 669.209 119.778 669.209ZM119.778 671.081C118.546 671.081 117.61 671.769 116.97 673.145C116.33 674.521 116.01 676.337 116.01 678.593C116.01 680.881 116.33 682.713 116.97 684.089C117.61 685.449 118.546 686.129 119.778 686.129C121.026 686.129 121.97 685.441 122.61 684.065C123.25 682.689 123.57 680.865 123.57 678.593C123.57 676.337 123.242 674.521 122.586 673.145C121.946 671.769 121.01 671.081 119.778 671.081ZM140.377 674.753C141.433 674.753 142.353 674.937 143.137 675.305C143.921 675.657 144.553 676.153 145.033 676.793C145.161 677.001 145.225 677.185 145.225 677.345C145.225 677.617 145.097 677.833 144.841 677.993C144.729 678.073 144.577 678.113 144.385 678.113C144.049 678.113 143.769 677.993 143.545 677.753C142.761 676.857 141.689 676.409 140.329 676.409C139.449 676.409 138.745 676.593 138.217 676.961C137.689 677.313 137.425 677.761 137.425 678.305C137.425 678.881 137.673 679.345 138.169 679.697C138.665 680.033 139.545 680.305 140.809 680.513C142.521 680.801 143.745 681.273 144.481 681.929C145.217 682.569 145.585 683.369 145.585 684.329C145.585 685.065 145.361 685.721 144.913 686.297C144.481 686.873 143.873 687.321 143.089 687.641C142.305 687.961 141.417 688.121 140.425 688.121C139.433 688.121 138.481 687.953 137.569 687.617C136.657 687.281 135.921 686.809 135.361 686.201C135.201 686.009 135.121 685.825 135.121 685.649C135.121 685.377 135.249 685.137 135.505 684.929C135.697 684.785 135.897 684.713 136.105 684.713C136.377 684.713 136.609 684.825 136.801 685.049C137.185 685.497 137.689 685.841 138.313 686.081C138.953 686.321 139.657 686.441 140.425 686.441C141.545 686.441 142.385 686.249 142.945 685.865C143.505 685.481 143.793 684.977 143.809 684.353C143.809 683.777 143.529 683.297 142.969 682.913C142.409 682.529 141.521 682.241 140.305 682.049C138.737 681.793 137.561 681.353 136.777 680.729C136.009 680.089 135.625 679.321 135.625 678.425C135.625 677.257 136.073 676.353 136.969 675.713C137.881 675.073 139.017 674.753 140.377 674.753ZM154.37 674.753C155.554 674.753 156.602 675.033 157.514 675.593C158.426 676.137 159.13 676.897 159.626 677.873C160.138 678.849 160.394 679.961 160.394 681.209C160.394 681.465 160.314 681.673 160.154 681.833C159.994 681.977 159.786 682.049 159.53 682.049H149.834C149.962 683.361 150.474 684.425 151.37 685.241C152.266 686.057 153.386 686.465 154.73 686.465C155.306 686.465 155.882 686.369 156.458 686.177C157.05 685.969 157.522 685.713 157.874 685.409C158.082 685.249 158.298 685.169 158.522 685.169C158.698 685.169 158.874 685.233 159.05 685.361C159.258 685.553 159.362 685.769 159.362 686.009C159.362 686.217 159.274 686.401 159.098 686.561C158.57 687.009 157.898 687.385 157.082 687.689C156.266 687.977 155.482 688.121 154.73 688.121C153.45 688.121 152.306 687.841 151.298 687.281C150.29 686.705 149.498 685.913 148.922 684.905C148.362 683.881 148.082 682.729 148.082 681.449C148.082 680.153 148.346 679.001 148.874 677.993C149.418 676.969 150.162 676.177 151.106 675.617C152.066 675.041 153.154 674.753 154.37 674.753ZM154.37 676.409C153.154 676.409 152.146 676.785 151.346 677.537C150.546 678.289 150.058 679.281 149.882 680.513H158.666C158.538 679.281 158.09 678.289 157.322 677.537C156.554 676.785 155.57 676.409 154.37 676.409ZM168.056 674.753C169.112 674.753 170.032 674.937 170.816 675.305C171.6 675.657 172.232 676.153 172.712 676.793C172.84 677.001 172.904 677.185 172.904 677.345C172.904 677.617 172.776 677.833 172.52 677.993C172.408 678.073 172.256 678.113 172.064 678.113C171.728 678.113 171.448 677.993 171.224 677.753C170.44 676.857 169.368 676.409 168.008 676.409C167.128 676.409 166.424 676.593 165.896 676.961C165.368 677.313 165.104 677.761 165.104 678.305C165.104 678.881 165.352 679.345 165.848 679.697C166.344 680.033 167.224 680.305 168.488 680.513C170.2 680.801 171.424 681.273 172.16 681.929C172.896 682.569 173.264 683.369 173.264 684.329C173.264 685.065 173.04 685.721 172.592 686.297C172.16 686.873 171.552 687.321 170.768 687.641C169.984 687.961 169.096 688.121 168.104 688.121C167.112 688.121 166.16 687.953 165.248 687.617C164.336 687.281 163.6 686.809 163.04 686.201C162.88 686.009 162.8 685.825 162.8 685.649C162.8 685.377 162.928 685.137 163.184 684.929C163.376 684.785 163.576 684.713 163.784 684.713C164.056 684.713 164.288 684.825 164.48 685.049C164.864 685.497 165.368 685.841 165.992 686.081C166.632 686.321 167.336 686.441 168.104 686.441C169.224 686.441 170.064 686.249 170.624 685.865C171.184 685.481 171.472 684.977 171.488 684.353C171.488 683.777 171.208 683.297 170.648 682.913C170.088 682.529 169.2 682.241 167.984 682.049C166.416 681.793 165.24 681.353 164.456 680.729C163.688 680.089 163.304 679.321 163.304 678.425C163.304 677.257 163.752 676.353 164.648 675.713C165.56 675.073 166.696 674.753 168.056 674.753ZM180.994 674.753C182.05 674.753 182.97 674.937 183.754 675.305C184.538 675.657 185.17 676.153 185.65 676.793C185.778 677.001 185.842 677.185 185.842 677.345C185.842 677.617 185.714 677.833 185.458 677.993C185.346 678.073 185.194 678.113 185.002 678.113C184.666 678.113 184.386 677.993 184.162 677.753C183.378 676.857 182.306 676.409 180.946 676.409C180.066 676.409 179.362 676.593 178.834 676.961C178.306 677.313 178.042 677.761 178.042 678.305C178.042 678.881 178.29 679.345 178.786 679.697C179.282 680.033 180.162 680.305 181.426 680.513C183.138 680.801 184.362 681.273 185.098 681.929C185.834 682.569 186.202 683.369 186.202 684.329C186.202 685.065 185.978 685.721 185.53 686.297C185.098 686.873 184.49 687.321 183.706 687.641C182.922 687.961 182.034 688.121 181.042 688.121C180.05 688.121 179.098 687.953 178.186 687.617C177.274 687.281 176.538 686.809 175.978 686.201C175.818 686.009 175.738 685.825 175.738 685.649C175.738 685.377 175.866 685.137 176.122 684.929C176.314 684.785 176.514 684.713 176.722 684.713C176.994 684.713 177.226 684.825 177.418 685.049C177.802 685.497 178.306 685.841 178.93 686.081C179.57 686.321 180.274 686.441 181.042 686.441C182.162 686.441 183.002 686.249 183.562 685.865C184.122 685.481 184.41 684.977 184.426 684.353C184.426 683.777 184.146 683.297 183.586 682.913C183.026 682.529 182.138 682.241 180.922 682.049C179.354 681.793 178.178 681.353 177.394 680.729C176.626 680.089 176.242 679.321 176.242 678.425C176.242 677.257 176.69 676.353 177.586 675.713C178.498 675.073 179.634 674.753 180.994 674.753ZM189.779 675.809C189.779 675.537 189.867 675.313 190.043 675.137C190.219 674.961 190.443 674.873 190.715 674.873C190.987 674.873 191.203 674.961 191.363 675.137C191.539 675.313 191.627 675.537 191.627 675.809V687.065C191.627 687.337 191.539 687.561 191.363 687.737C191.203 687.913 190.987 688.001 190.715 688.001C190.443 688.001 190.219 687.913 190.043 687.737C189.867 687.561 189.779 687.337 189.779 687.065V675.809ZM190.715 669.761C191.067 669.761 191.371 669.881 191.627 670.121C191.883 670.361 192.011 670.673 192.011 671.057C192.011 671.425 191.883 671.737 191.627 671.993C191.371 672.249 191.059 672.377 190.691 672.377C190.323 672.377 190.011 672.249 189.755 671.993C189.515 671.737 189.395 671.425 189.395 671.057C189.395 670.673 189.523 670.361 189.779 670.121C190.035 669.881 190.347 669.761 190.715 669.761ZM202.309 674.753C203.573 674.753 204.709 675.041 205.717 675.617C206.725 676.193 207.517 676.993 208.093 678.017C208.685 679.041 208.981 680.185 208.981 681.449C208.981 682.713 208.693 683.857 208.117 684.881C207.541 685.889 206.741 686.681 205.717 687.257C204.709 687.833 203.573 688.121 202.309 688.121C201.045 688.121 199.901 687.833 198.877 687.257C197.869 686.681 197.077 685.889 196.501 684.881C195.925 683.857 195.637 682.713 195.637 681.449C195.637 680.185 195.925 679.041 196.501 678.017C197.077 676.993 197.869 676.193 198.877 675.617C199.901 675.041 201.045 674.753 202.309 674.753ZM202.309 676.433C201.397 676.433 200.565 676.649 199.813 677.081C199.077 677.513 198.493 678.113 198.061 678.881C197.645 679.633 197.437 680.489 197.437 681.449C197.437 682.393 197.645 683.249 198.061 684.017C198.493 684.769 199.077 685.361 199.813 685.793C200.565 686.225 201.397 686.441 202.309 686.441C203.237 686.441 204.069 686.225 204.805 685.793C205.541 685.361 206.117 684.769 206.533 684.017C206.949 683.249 207.157 682.393 207.157 681.449C207.157 680.489 206.949 679.633 206.533 678.881C206.117 678.113 205.541 677.513 204.805 677.081C204.069 676.649 203.237 676.433 202.309 676.433ZM218.791 674.729C219.927 674.729 220.943 674.969 221.839 675.449C222.751 675.929 223.463 676.633 223.975 677.561C224.487 678.473 224.743 679.569 224.743 680.849V687.089C224.743 687.345 224.655 687.561 224.479 687.737C224.303 687.913 224.087 688.001 223.831 688.001C223.559 688.001 223.335 687.913 223.159 687.737C222.983 687.561 222.895 687.345 222.895 687.089V680.849C222.895 679.425 222.495 678.345 221.695 677.609C220.911 676.857 219.879 676.481 218.599 676.481C217.815 676.481 217.103 676.633 216.463 676.937C215.839 677.241 215.343 677.665 214.975 678.209C214.607 678.737 214.423 679.329 214.423 679.985V687.089C214.423 687.361 214.335 687.585 214.159 687.761C213.999 687.921 213.783 688.001 213.511 688.001C213.239 688.001 213.015 687.921 212.839 687.761C212.663 687.585 212.575 687.361 212.575 687.089V675.809C212.575 675.537 212.663 675.313 212.839 675.137C213.015 674.961 213.239 674.873 213.511 674.873C213.783 674.873 213.999 674.961 214.159 675.137C214.335 675.313 214.423 675.537 214.423 675.809V676.625C214.951 676.033 215.591 675.569 216.343 675.233C217.095 674.897 217.911 674.729 218.791 674.729ZM233.353 674.753C234.409 674.753 235.329 674.937 236.113 675.305C236.897 675.657 237.529 676.153 238.009 676.793C238.137 677.001 238.201 677.185 238.201 677.345C238.201 677.617 238.073 677.833 237.817 677.993C237.705 678.073 237.553 678.113 237.361 678.113C237.025 678.113 236.745 677.993 236.521 677.753C235.737 676.857 234.665 676.409 233.305 676.409C232.425 676.409 231.721 676.593 231.193 676.961C230.665 677.313 230.401 677.761 230.401 678.305C230.401 678.881 230.649 679.345 231.145 679.697C231.641 680.033 232.521 680.305 233.785 680.513C235.497 680.801 236.721 681.273 237.457 681.929C238.193 682.569 238.561 683.369 238.561 684.329C238.561 685.065 238.337 685.721 237.889 686.297C237.457 686.873 236.849 687.321 236.065 687.641C235.281 687.961 234.393 688.121 233.401 688.121C232.409 688.121 231.457 687.953 230.545 687.617C229.633 687.281 228.897 686.809 228.337 686.201C228.177 686.009 228.097 685.825 228.097 685.649C228.097 685.377 228.225 685.137 228.481 684.929C228.673 684.785 228.873 684.713 229.081 684.713C229.353 684.713 229.585 684.825 229.777 685.049C230.161 685.497 230.665 685.841 231.289 686.081C231.929 686.321 232.633 686.441 233.401 686.441C234.521 686.441 235.361 686.249 235.921 685.865C236.481 685.481 236.769 684.977 236.785 684.353C236.785 683.777 236.505 683.297 235.945 682.913C235.385 682.529 234.497 682.241 233.281 682.049C231.713 681.793 230.537 681.353 229.753 680.729C228.985 680.089 228.601 679.321 228.601 678.425C228.601 677.257 229.049 676.353 229.945 675.713C230.857 675.073 231.993 674.753 233.353 674.753Z" fill="#567796"/>
<path d="M359.478 488.501L367.367 497.001L379.478 480.001" stroke="#32C52F" stroke-width="4" stroke-linecap="round" stroke-linejoin="round"/>
<path d="M359.478 552.501L367.367 561.001L379.478 544.001" stroke="#32C52F" stroke-width="4" stroke-linecap="round" stroke-linejoin="round"/>
<path d="M359.478 616.501L367.367 625.001L379.478 608.001" stroke="#32C52F" stroke-width="4" stroke-linecap="round" stroke-linejoin="round"/>
<path d="M359.478 680.501L367.367 689.001L379.478 672.001" stroke="#32C52F" stroke-width="4" stroke-linecap="round" stroke-linejoin="round"/>
<path d="M131.573 125.464C133.429 125.464 135.125 125.88 136.661 126.712C138.197 127.512 139.397 128.616 140.261 130.024C141.157 131.432 141.605 133 141.605 134.728C141.605 136.456 141.061 137.96 139.973 139.24C138.885 140.488 137.525 141.48 135.893 142.216C138.325 143.048 140.133 144.328 141.317 146.056C142.501 147.752 143.093 149.768 143.093 152.104C143.093 154.152 142.565 156.008 141.509 157.672C140.453 159.336 139.029 160.648 137.237 161.608C135.477 162.536 133.557 163 131.477 163C129.109 163 126.981 162.504 125.093 161.512C123.237 160.488 121.781 159.112 120.725 157.384C119.669 155.624 119.141 153.656 119.141 151.48C119.141 150.776 119.349 150.184 119.765 149.704C120.181 149.224 120.709 148.984 121.349 148.984C121.989 148.984 122.517 149.224 122.933 149.704C123.349 150.184 123.557 150.776 123.557 151.48C123.557 152.792 123.893 154.008 124.565 155.128C125.237 156.216 126.149 157.096 127.301 157.768C128.485 158.408 129.781 158.728 131.189 158.728C133.333 158.728 135.045 158.136 136.325 156.952C137.605 155.768 138.245 154.136 138.245 152.056C138.245 150.744 137.957 149.544 137.381 148.456C136.805 147.336 136.005 146.472 134.981 145.864C133.989 145.224 132.885 144.904 131.669 144.904C130.965 144.904 130.373 144.664 129.893 144.184C129.445 143.704 129.221 143.112 129.221 142.408C129.221 141.704 129.445 141.128 129.893 140.68C130.373 140.2 130.965 139.96 131.669 139.96C132.565 139.96 133.429 139.736 134.261 139.288C135.125 138.808 135.813 138.168 136.325 137.368C136.869 136.568 137.141 135.688 137.141 134.728C137.141 133.32 136.629 132.136 135.605 131.176C134.581 130.216 133.269 129.736 131.669 129.736C130.453 129.736 129.333 129.976 128.309 130.456C127.317 130.936 126.517 131.576 125.909 132.376C125.333 133.176 125.045 134.072 125.045 135.064C125.045 135.8 124.837 136.424 124.421 136.936C124.005 137.416 123.477 137.656 122.837 137.656C122.197 137.656 121.669 137.432 121.253 136.984C120.837 136.504 120.629 135.912 120.629 135.208C120.629 133.384 121.109 131.736 122.069 130.264C123.029 128.76 124.341 127.592 126.005 126.76C127.669 125.896 129.525 125.464 131.573 125.464ZM159.683 140.2C161.859 140.2 163.795 140.696 165.491 141.688C167.219 142.648 168.563 143.992 169.523 145.72C170.483 147.448 170.963 149.416 170.963 151.624C170.963 153.8 170.483 155.752 169.523 157.48C168.563 159.208 167.219 160.568 165.491 161.56C163.795 162.52 161.859 163 159.683 163C157.475 163 155.507 162.52 153.779 161.56C152.083 160.568 150.755 159.208 149.795 157.48C148.835 155.752 148.355 153.8 148.355 151.624C148.355 149.16 148.963 146.968 150.179 145.048L161.075 126.904C161.651 126.008 162.387 125.56 163.283 125.56C164.019 125.56 164.627 125.8 165.107 126.28C165.587 126.76 165.827 127.336 165.827 128.008C165.827 128.488 165.699 128.92 165.443 129.304L158.867 140.2H159.683ZM159.635 158.68C161.619 158.68 163.235 158.024 164.483 156.712C165.731 155.4 166.355 153.704 166.355 151.624C166.355 149.544 165.731 147.848 164.483 146.536C163.235 145.192 161.619 144.52 159.635 144.52C157.683 144.52 156.083 145.192 154.835 146.536C153.587 147.848 152.963 149.544 152.963 151.624C152.963 153.704 153.571 155.4 154.787 156.712C156.035 158.024 157.651 158.68 159.635 158.68ZM188.438 138.52C190.71 138.52 192.774 139.064 194.63 140.152C196.518 141.208 197.99 142.68 199.046 144.568C200.134 146.424 200.678 148.488 200.678 150.76C200.678 153.032 200.134 155.112 199.046 157C197.99 158.856 196.518 160.328 194.63 161.416C192.774 162.472 190.71 163 188.438 163C186.166 163 184.086 162.472 182.198 161.416C180.342 160.328 178.886 158.856 177.83 157C176.774 155.144 176.246 153.064 176.246 150.76C176.246 150.056 176.47 149.48 176.918 149.032C177.366 148.552 177.942 148.312 178.646 148.312C179.35 148.312 179.942 148.552 180.422 149.032C180.902 149.48 181.142 150.056 181.142 150.76C181.142 152.136 181.462 153.384 182.102 154.504C182.742 155.624 183.606 156.504 184.694 157.144C185.814 157.784 187.062 158.104 188.438 158.104C189.814 158.104 191.062 157.784 192.182 157.144C193.302 156.504 194.182 155.624 194.822 154.504C195.462 153.384 195.782 152.136 195.782 150.76C195.782 149.384 195.462 148.136 194.822 147.016C194.182 145.896 193.302 145.016 192.182 144.376C191.062 143.736 189.814 143.416 188.438 143.416H180.422C179.718 143.416 179.142 143.192 178.694 142.744C178.246 142.264 178.022 141.672 178.022 140.968V128.008C178.022 127.304 178.246 126.712 178.694 126.232C179.142 125.752 179.718 125.512 180.422 125.512H196.454C197.126 125.512 197.702 125.768 198.182 126.28C198.662 126.76 198.902 127.336 198.902 128.008C198.902 128.648 198.662 129.208 198.182 129.688C197.734 130.168 197.158 130.408 196.454 130.408H182.87V138.52H188.438ZM244.352 125.512C245.088 125.512 245.68 125.736 246.128 126.184C246.576 126.632 246.8 127.224 246.8 127.96V149.848C246.8 152.344 246.208 154.616 245.024 156.664C243.872 158.68 242.288 160.28 240.272 161.464C238.288 162.616 236.064 163.192 233.6 163.192C231.136 163.192 228.88 162.616 226.832 161.464C224.816 160.28 223.232 158.68 222.08 156.664C220.928 154.616 220.352 152.344 220.352 149.848C220.352 147.352 220.88 145.096 221.936 143.08C223.024 141.032 224.496 139.432 226.352 138.28C228.24 137.128 230.336 136.552 232.64 136.552C234.496 136.552 236.224 136.936 237.824 137.704C239.424 138.472 240.784 139.544 241.904 140.92V127.96C241.904 127.224 242.128 126.632 242.576 126.184C243.056 125.736 243.648 125.512 244.352 125.512ZM233.6 158.872C235.2 158.872 236.64 158.488 237.92 157.72C239.232 156.92 240.256 155.832 240.992 154.456C241.728 153.08 242.096 151.544 242.096 149.848C242.096 148.152 241.728 146.632 240.992 145.288C240.256 143.912 239.232 142.84 237.92 142.072C236.64 141.272 235.2 140.872 233.6 140.872C232 140.872 230.544 141.272 229.232 142.072C227.952 142.84 226.928 143.912 226.16 145.288C225.424 146.632 225.056 148.152 225.056 149.848C225.056 151.544 225.424 153.08 226.16 154.456C226.928 155.832 227.952 156.92 229.232 157.72C230.544 158.488 232 158.872 233.6 158.872ZM267.35 136.552C269.814 136.552 272.038 137.144 274.022 138.328C276.038 139.48 277.622 141.08 278.774 143.128C279.958 145.144 280.55 147.4 280.55 149.896V160.6C280.55 161.304 280.31 161.896 279.83 162.376C279.382 162.824 278.806 163.048 278.102 163.048C277.398 163.048 276.806 162.824 276.326 162.376C275.878 161.896 275.654 161.304 275.654 160.6V158.824C274.534 160.2 273.174 161.272 271.574 162.04C269.974 162.808 268.246 163.192 266.39 163.192C264.086 163.192 261.99 162.616 260.102 161.464C258.246 160.312 256.774 158.728 255.686 156.712C254.63 154.664 254.102 152.392 254.102 149.896C254.102 147.4 254.678 145.144 255.83 143.128C256.982 141.08 258.566 139.48 260.582 138.328C262.63 137.144 264.886 136.552 267.35 136.552ZM267.35 158.872C268.95 158.872 270.39 158.488 271.67 157.72C272.982 156.92 274.006 155.848 274.742 154.504C275.478 153.128 275.846 151.592 275.846 149.896C275.846 148.2 275.478 146.664 274.742 145.288C274.006 143.912 272.982 142.84 271.67 142.072C270.39 141.272 268.95 140.872 267.35 140.872C265.75 140.872 264.294 141.272 262.982 142.072C261.702 142.84 260.678 143.912 259.91 145.288C259.174 146.664 258.806 148.2 258.806 149.896C258.806 151.592 259.174 153.128 259.91 154.504C260.678 155.848 261.702 156.92 262.982 157.72C264.294 158.488 265.75 158.872 267.35 158.872ZM307.901 136.984C308.893 137.368 309.389 137.992 309.389 138.856C309.389 139.176 309.293 139.56 309.101 140.008L294.413 173.032C294.029 174.024 293.405 174.52 292.541 174.52C292.221 174.52 291.837 174.424 291.389 174.232C290.429 173.816 289.949 173.192 289.949 172.36C289.949 171.976 290.045 171.592 290.237 171.208L295.037 160.408L284.237 139.912C284.077 139.624 283.997 139.288 283.997 138.904C283.997 138.488 284.125 138.104 284.381 137.752C284.637 137.4 284.973 137.128 285.389 136.936C285.677 136.808 285.997 136.744 286.349 136.744C287.245 136.744 287.917 137.192 288.365 138.088L297.149 155.56L304.877 138.136C305.293 137.208 305.917 136.744 306.749 136.744C307.165 136.744 307.549 136.824 307.901 136.984ZM322.928 136.552C325.008 136.552 326.864 136.888 328.496 137.56C330.16 138.232 331.472 139.16 332.432 140.344C332.848 140.856 333.056 141.368 333.056 141.88C333.056 142.424 332.784 142.92 332.24 143.368C331.888 143.624 331.44 143.752 330.896 143.752C330.064 143.752 329.312 143.448 328.64 142.84C327.84 142.104 326.992 141.592 326.096 141.304C325.2 140.984 324.112 140.824 322.832 140.824C321.36 140.824 320.144 141.08 319.184 141.592C318.256 142.072 317.792 142.76 317.792 143.656C317.792 144.296 317.952 144.84 318.272 145.288C318.592 145.704 319.2 146.104 320.096 146.488C320.992 146.84 322.288 147.192 323.984 147.544C327.472 148.248 329.936 149.224 331.376 150.472C332.848 151.72 333.584 153.336 333.584 155.32C333.584 156.792 333.184 158.136 332.384 159.352C331.584 160.536 330.4 161.48 328.832 162.184C327.296 162.856 325.44 163.192 323.264 163.192C321.088 163.192 319.04 162.856 317.12 162.184C315.2 161.512 313.696 160.632 312.608 159.544C312.192 159.128 311.984 158.632 311.984 158.056C311.984 157.288 312.304 156.664 312.944 156.184C313.552 155.736 314.112 155.512 314.624 155.512C315.264 155.512 315.872 155.8 316.448 156.376C317.056 157.048 317.968 157.64 319.184 158.152C320.4 158.632 321.696 158.872 323.072 158.872C324.896 158.872 326.304 158.568 327.296 157.96C328.32 157.352 328.832 156.536 328.832 155.512C328.832 154.52 328.336 153.704 327.344 153.064C326.352 152.392 324.672 151.832 322.304 151.384C316.16 150.2 313.088 147.672 313.088 143.8C313.088 142.232 313.552 140.904 314.48 139.816C315.408 138.728 316.624 137.912 318.128 137.368C319.632 136.824 321.232 136.552 322.928 136.552Z" fill="#3B668D"/>
<path d="M156.339 255.816C156.339 259.784 155.037 262.984 152.435 265.416C149.832 267.806 146.461 269.192 142.323 269.576V273.544C142.323 274.099 142.173 274.526 141.875 274.824C141.576 275.166 141.192 275.336 140.723 275.336C140.211 275.336 139.805 275.166 139.507 274.824C139.208 274.526 139.059 274.099 139.059 273.544V269.64C135.56 269.427 132.467 268.531 129.779 266.952C127.091 265.331 125.171 263.176 124.019 260.488C123.891 260.147 123.827 259.827 123.827 259.528C123.827 258.504 124.381 257.822 125.491 257.48C125.619 257.438 125.811 257.416 126.067 257.416C127.091 257.416 127.837 257.928 128.307 258.952C129.075 260.702 130.419 262.11 132.339 263.176C134.259 264.243 136.499 264.84 139.059 264.968V245.32C134.877 244.595 131.571 243.038 129.139 240.648C126.749 238.259 125.555 235.294 125.555 231.752C125.555 228.254 126.792 225.416 129.267 223.24C131.784 221.064 135.048 219.806 139.059 219.464V216.392C139.059 215.838 139.208 215.411 139.507 215.112C139.805 214.771 140.211 214.6 140.723 214.6C141.192 214.6 141.576 214.771 141.875 215.112C142.173 215.411 142.323 215.838 142.323 216.392V219.464C145.224 219.678 147.763 220.51 149.939 221.96C152.157 223.368 153.843 225.139 154.995 227.272C155.293 227.742 155.443 228.254 155.443 228.808C155.443 229.619 155.08 230.216 154.355 230.6C154.056 230.771 153.715 230.856 153.331 230.856C152.477 230.856 151.773 230.451 151.219 229.64C149.299 226.227 146.333 224.35 142.323 224.008V241.608C146.888 242.419 150.365 244.04 152.755 246.472C155.144 248.904 156.339 252.019 156.339 255.816ZM130.355 231.88C130.355 236.574 133.256 239.624 139.059 241.032V224.008C136.328 224.222 134.195 224.99 132.659 226.312C131.123 227.635 130.355 229.491 130.355 231.88ZM151.411 255.816C151.411 253.384 150.643 251.294 149.107 249.544C147.613 247.795 145.352 246.579 142.323 245.896V264.904C145.096 264.563 147.293 263.603 148.915 262.024C150.579 260.446 151.411 258.376 151.411 255.816ZM165.533 227.144C165.106 227.358 164.679 227.464 164.253 227.464C163.527 227.464 162.93 227.251 162.461 226.824C161.991 226.355 161.757 225.758 161.757 225.032C161.757 223.795 162.29 223.006 163.357 222.664L173.213 219.272C173.853 219.059 174.279 218.952 174.493 218.952C175.175 218.952 175.751 219.187 176.221 219.656C176.69 220.126 176.925 220.723 176.925 221.448V266.504C176.925 267.187 176.69 267.784 176.221 268.296C175.751 268.766 175.154 269 174.429 269C173.746 269 173.149 268.766 172.637 268.296C172.167 267.784 171.933 267.187 171.933 266.504V224.904L165.533 227.144ZM215 264.008C215.683 264.008 216.259 264.264 216.728 264.776C217.24 265.246 217.496 265.822 217.496 266.504C217.496 267.187 217.262 267.784 216.792 268.296C216.323 268.766 215.726 269 215 269H190.36C189.678 269 189.08 268.766 188.568 268.296C188.099 267.784 187.864 267.187 187.864 266.504C187.864 265.822 188.099 265.246 188.568 264.776L207.96 241.864C209.027 240.712 209.88 239.432 210.52 238.024C211.16 236.574 211.48 235.23 211.48 233.992C211.48 231.006 210.584 228.552 208.792 226.632C207.043 224.712 204.803 223.752 202.072 223.752C200.28 223.752 198.659 224.222 197.208 225.16C195.758 226.056 194.606 227.294 193.752 228.872C192.899 230.408 192.472 232.115 192.472 233.992C192.472 234.675 192.216 235.251 191.704 235.72C191.235 236.19 190.659 236.424 189.976 236.424C189.294 236.424 188.696 236.19 188.184 235.72C187.715 235.251 187.48 234.675 187.48 233.992C187.48 231.176 188.12 228.616 189.4 226.312C190.68 224.008 192.43 222.216 194.648 220.936C196.867 219.614 199.342 218.952 202.072 218.952C204.846 218.952 207.299 219.592 209.432 220.872C211.608 222.152 213.294 223.944 214.488 226.248C215.726 228.51 216.344 231.091 216.344 233.992C216.344 237.448 214.68 241.118 211.352 245L194.968 264.008H215ZM226.012 223.944C225.286 223.944 224.668 223.71 224.156 223.24C223.686 222.728 223.452 222.131 223.452 221.448C223.452 220.766 223.686 220.19 224.156 219.72C224.668 219.208 225.286 218.952 226.012 218.952H252.06C252.742 218.952 253.318 219.208 253.788 219.72C254.257 220.19 254.492 220.766 254.492 221.448C254.492 221.747 254.364 222.195 254.108 222.792L233.18 267.592C232.966 268.019 232.646 268.36 232.22 268.616C231.836 268.872 231.409 269 230.94 269C230.257 269 229.66 268.766 229.148 268.296C228.678 267.784 228.444 267.187 228.444 266.504C228.444 266.12 228.614 265.587 228.956 264.904L248.028 223.944H226.012ZM253.545 262.536C254.569 262.536 255.443 262.92 256.169 263.688C256.894 264.414 257.257 265.288 257.257 266.312C257.257 267.336 256.894 268.211 256.169 268.936C255.443 269.662 254.569 270.024 253.545 270.024C252.521 270.024 251.646 269.662 250.921 268.936C250.195 268.211 249.833 267.336 249.833 266.312C249.833 265.246 250.195 264.35 250.921 263.624C251.689 262.899 252.563 262.536 253.545 262.536ZM273.801 249.032C270.985 249.032 268.425 248.392 266.121 247.112C263.86 245.79 262.068 243.998 260.745 241.736C259.465 239.432 258.825 236.851 258.825 233.992C258.825 231.134 259.465 228.574 260.745 226.312C262.068 224.008 263.86 222.216 266.121 220.936C268.383 219.614 270.943 218.952 273.801 218.952C276.66 218.952 279.22 219.614 281.481 220.936C283.785 222.216 285.577 224.008 286.857 226.312C288.18 228.574 288.841 231.134 288.841 233.992C288.841 236.766 288.201 239.326 286.921 241.672L286.985 241.608L271.177 267.592C270.58 268.488 269.833 268.936 268.937 268.936C268.212 268.936 267.593 268.702 267.081 268.232C266.612 267.72 266.377 267.144 266.377 266.504C266.377 266.078 266.505 265.63 266.761 265.16L276.809 248.776C275.956 248.947 274.953 249.032 273.801 249.032ZM273.865 223.56C271.945 223.56 270.196 224.008 268.617 224.904C267.081 225.8 265.865 227.059 264.969 228.68C264.073 230.259 263.625 232.03 263.625 233.992C263.625 235.955 264.073 237.747 264.969 239.368C265.865 240.947 267.081 242.206 268.617 243.144C270.196 244.04 271.945 244.488 273.865 244.488C275.785 244.488 277.513 244.04 279.049 243.144C280.628 242.206 281.865 240.947 282.761 239.368C283.657 237.747 284.105 235.955 284.105 233.992C284.105 232.03 283.657 230.259 282.761 228.68C281.865 227.059 280.628 225.8 279.049 224.904C277.513 224.008 275.785 223.56 273.865 223.56ZM310.864 249.032C308.048 249.032 305.488 248.392 303.184 247.112C300.922 245.79 299.13 243.998 297.808 241.736C296.528 239.432 295.888 236.851 295.888 233.992C295.888 231.134 296.528 228.574 297.808 226.312C299.13 224.008 300.922 222.216 303.184 220.936C305.445 219.614 308.005 218.952 310.864 218.952C313.722 218.952 316.282 219.614 318.544 220.936C320.848 222.216 322.64 224.008 323.92 226.312C325.242 228.574 325.904 231.134 325.904 233.992C325.904 236.766 325.264 239.326 323.984 241.672L324.048 241.608L308.24 267.592C307.642 268.488 306.896 268.936 306 268.936C305.274 268.936 304.656 268.702 304.144 268.232C303.674 267.72 303.44 267.144 303.44 266.504C303.44 266.078 303.568 265.63 303.824 265.16L313.872 248.776C313.018 248.947 312.016 249.032 310.864 249.032ZM310.928 223.56C309.008 223.56 307.258 224.008 305.68 224.904C304.144 225.8 302.928 227.059 302.032 228.68C301.136 230.259 300.688 232.03 300.688 233.992C300.688 235.955 301.136 237.747 302.032 239.368C302.928 240.947 304.144 242.206 305.68 243.144C307.258 244.04 309.008 244.488 310.928 244.488C312.848 244.488 314.576 244.04 316.112 243.144C317.69 242.206 318.928 240.947 319.824 239.368C320.72 237.747 321.168 235.955 321.168 233.992C321.168 232.03 320.72 230.259 319.824 228.68C318.928 227.059 317.69 225.8 316.112 224.904C314.576 224.008 312.848 223.56 310.928 223.56Z" fill="#8572FF"/>
<line x1="71.4777" y1="398.501" x2="379.479" y2="398.59" stroke="#D3D3D3"/>
<g opacity="0.5">
<path d="M-24.522 33.0002C-52.2859 -136.484 217.896 -170.345 390.085 -113.8C497.062 -78.6698 646.279 136.631 505.619 177.507C466.893 188.761 395.87 191.114 337.934 97.2017C279.998 3.28926 213.978 18.7983 133.978 56C53.9783 93.2017 -16.6703 80.9308 -24.522 33.0002Z" fill="url(#paint0_linear_47_1388)"/>
<path opacity="0.8" d="M444.429 -51.989C589.367 56.8202 421.655 216.495 333.193 119.054C244.731 21.6129 208.118 4.60252 139.977 34.5002C71.8366 64.3978 29.0176 38.7737 15.6979 -7.93369C-28.5227 -163 299.491 -160.798 444.429 -51.989Z" fill="url(#paint1_linear_47_1388)"/>
</g>
</g>
<defs>
<linearGradient id="paint0_linear_47_1388" x1="503.479" y1="130.501" x2="41.1676" y2="225.667" gradientUnits="userSpaceOnUse">
<stop stop-color="#FF9DD2"/>
<stop offset="1" stop-color="#D171FF"/>
</linearGradient>
<linearGradient id="paint1_linear_47_1388" x1="526.977" y1="115" x2="120.412" y2="127.782" gradientUnits="userSpaceOnUse">
<stop stop-color="#D04AFF"/>
<stop offset="1" stop-color="#4ABEFF"/>
</linearGradient>
</defs>
</svg>
