<svg width="317" height="168" viewBox="0 0 317 168" fill="none" xmlns="http://www.w3.org/2000/svg">
<rect x="1" y="1" width="315" height="166" rx="11" fill="white" stroke="#F0F0F0" stroke-width="2"/>
<path d="M140.598 86.156H148.684V87.9958H138.336V70.9333H140.598V86.156ZM160.895 80.1091H153.5V86.156H162.09V87.9958H151.25V70.9333H161.973V72.7849H153.5V78.2693H160.895V80.1091ZM174.301 80.4607H167.141V87.9958H164.891V70.9333H175.461V72.7849H167.141V78.6208H174.301V80.4607ZM190.18 72.7849H184.695V87.9958H182.457V72.7849H176.984V70.9333H190.18V72.7849ZM200.785 78.4099H202.414C203.438 78.3943 204.242 78.1248 204.828 77.6013C205.414 77.0779 205.707 76.3708 205.707 75.4802C205.707 73.4802 204.711 72.4802 202.719 72.4802C201.781 72.4802 201.031 72.7498 200.469 73.2888C199.914 73.8201 199.637 74.5271 199.637 75.4099H197.469C197.469 74.0583 197.961 72.9373 198.945 72.0466C199.938 71.1482 201.195 70.699 202.719 70.699C204.328 70.699 205.59 71.1248 206.504 71.9763C207.418 72.8279 207.875 74.0115 207.875 75.5271C207.875 76.2693 207.633 76.988 207.148 77.6833C206.672 78.3787 206.02 78.8982 205.191 79.2419C206.129 79.5388 206.852 80.031 207.359 80.7185C207.875 81.406 208.133 82.2458 208.133 83.238C208.133 84.7693 207.633 85.9841 206.633 86.8826C205.633 87.781 204.332 88.2302 202.73 88.2302C201.129 88.2302 199.824 87.7966 198.816 86.9294C197.816 86.0623 197.316 84.9177 197.316 83.4958H199.496C199.496 84.3943 199.789 85.113 200.375 85.6521C200.961 86.1912 201.746 86.4607 202.73 86.4607C203.777 86.4607 204.578 86.1873 205.133 85.6404C205.688 85.0935 205.965 84.3083 205.965 83.2849C205.965 82.2927 205.66 81.531 205.051 80.9998C204.441 80.4685 203.562 80.1951 202.414 80.1794H200.785V78.4099ZM222.125 72.1521L215.059 87.9958H212.785L219.828 72.7146H210.594V70.9333H222.125V72.1521ZM231.102 87.9958V70.9333H235.918C237.402 70.9333 238.715 71.2615 239.855 71.9177C240.996 72.574 241.875 73.5076 242.492 74.7185C243.117 75.9294 243.434 77.3201 243.441 78.8904V79.9802C243.441 81.5896 243.129 82.9998 242.504 84.2107C241.887 85.4216 241 86.3513 239.844 86.9998C238.695 87.6482 237.355 87.9802 235.824 87.9958H231.102ZM233.352 72.7849V86.156H235.719C237.453 86.156 238.801 85.6169 239.762 84.5388C240.73 83.4607 241.215 81.9255 241.215 79.9333V78.9373C241.215 76.9998 240.758 75.4958 239.844 74.4255C238.938 73.3474 237.648 72.8005 235.977 72.7849H233.352ZM256.016 83.5427H248.867L247.262 87.9958H244.941L251.457 70.9333H253.426L259.953 87.9958H257.645L256.016 83.5427ZM249.547 81.6912H255.348L252.441 73.7107L249.547 81.6912ZM266.352 79.4998L270.805 70.9333H273.359L267.477 81.6326V87.9958H265.227V81.6326L259.344 70.9333H261.922L266.352 79.4998ZM280.402 80.3904C278.473 79.8357 277.066 79.156 276.184 78.3513C275.309 77.5388 274.871 76.5388 274.871 75.3513C274.871 74.0076 275.406 72.8982 276.477 72.0232C277.555 71.1404 278.953 70.699 280.672 70.699C281.844 70.699 282.887 70.9255 283.801 71.3787C284.723 71.8318 285.434 72.4568 285.934 73.2537C286.441 74.0505 286.695 74.9216 286.695 75.8669H284.434C284.434 74.8357 284.105 74.0271 283.449 73.4412C282.793 72.8474 281.867 72.5505 280.672 72.5505C279.562 72.5505 278.695 72.7966 278.07 73.2888C277.453 73.7732 277.145 74.449 277.145 75.3162C277.145 76.0115 277.438 76.6013 278.023 77.0857C278.617 77.5623 279.621 77.9998 281.035 78.3982C282.457 78.7966 283.566 79.238 284.363 79.7224C285.168 80.199 285.762 80.7576 286.145 81.3982C286.535 82.0388 286.73 82.7927 286.73 83.6599C286.73 85.0427 286.191 86.1521 285.113 86.988C284.035 87.8162 282.594 88.2302 280.789 88.2302C279.617 88.2302 278.523 88.0076 277.508 87.5623C276.492 87.1091 275.707 86.4919 275.152 85.7107C274.605 84.9294 274.332 84.0427 274.332 83.0505H276.594C276.594 84.0818 276.973 84.8982 277.73 85.4998C278.496 86.0935 279.516 86.3904 280.789 86.3904C281.977 86.3904 282.887 86.1482 283.52 85.6638C284.152 85.1794 284.469 84.5193 284.469 83.6833C284.469 82.8474 284.176 82.2029 283.59 81.7498C283.004 81.2888 281.941 80.8357 280.402 80.3904Z" fill="#F36DD4"/>
<path opacity="0.253397" fill-rule="evenodd" clip-rule="evenodd" d="M47.3638 113.617C47.3638 113.617 47.935 110.462 50.1812 117.882C52.4274 125.301 77.8263 141.539 86.3284 128.388C94.8304 115.238 106.851 129.995 115.154 126.048C123.457 122.101 124.772 116.892 118.583 104.341C112.394 91.7901 127.618 76.4962 112.443 66.6637C97.2669 56.8313 109.015 59.2468 109.015 59.2468L108.938 99.3895L88.6239 117.806L47.3638 113.617Z" fill="url(#paint0_linear_53_2522)"/>
<path opacity="0.518059" fill-rule="evenodd" clip-rule="evenodd" d="M107.593 74.5454C107.593 74.5454 105.829 74.4428 109.736 72.6925C113.644 70.9422 120.816 55.7459 113.049 51.9215C105.282 48.0972 112.545 40.4251 109.826 36.0859C107.108 31.7467 104.17 31.3707 97.7202 35.6574C91.2709 39.944 78.8289 28.4948 74.4724 37.5833C70.1158 46.6718 77.5159 35.6373 77.5159 35.6373L95.6612 41.3456L107.105 51.3665L107.593 74.5454Z" fill="url(#paint1_linear_53_2522)"/>
<circle cx="71.8541" cy="78.824" r="39.8541" stroke="url(#paint2_linear_53_2522)" stroke-width="10" stroke-linecap="round"/>
<path d="M74.1562 87.125C74.1562 89.1927 75.8385 90.875 77.9062 90.875H82.3125C84.3802 90.875 86.0625 89.1927 86.0625 87.125V82.7188C86.0625 80.651 84.3802 78.9688 82.3125 78.9688H77.9062C75.8385 78.9688 74.1562 80.651 74.1562 82.7188V87.125ZM77.9062 82.7188H82.3125L82.3148 87.1249C82.3148 87.1249 82.3142 87.125 82.3125 87.125H77.9062V82.7188Z" fill="#B370F5"/>
<path d="M84.1875 74.5625C85.223 74.5625 86.0625 73.723 86.0625 72.6875C86.0625 71.652 85.223 70.8125 84.1875 70.8125C83.152 70.8125 82.3125 71.652 82.3125 72.6875C82.3125 73.723 83.152 74.5625 84.1875 74.5625Z" fill="#B370F5"/>
<path d="M76.0312 74.5625C77.0668 74.5625 77.9062 73.723 77.9062 72.6875C77.9062 71.652 77.0668 70.8125 76.0312 70.8125C74.9957 70.8125 74.1562 71.652 74.1562 72.6875C74.1562 73.723 74.9957 74.5625 76.0312 74.5625Z" fill="#B370F5"/>
<path d="M94.125 86C95.1606 86 96 85.1606 96 84.125V64.25C96 60.1145 92.6355 56.75 88.5 56.75H86.0625V54.875C86.0625 53.8394 85.2231 53 84.1875 53C83.1519 53 82.3125 53.8394 82.3125 54.875V56.75H73.7812V54.875C73.7812 53.8394 72.9418 53 71.9062 53C70.8707 53 70.0312 53.8394 70.0312 54.875V56.75H61.5938V54.875C61.5938 53.8394 60.7543 53 59.7188 53C58.6832 53 57.8438 53.8394 57.8438 54.875V56.75H55.5C51.3645 56.75 48 60.1145 48 64.25V93.5C48 97.6355 51.3645 101 55.5 101H88.5C92.6355 101 96 97.6355 96 93.5C96 92.4644 95.1606 91.625 94.125 91.625C93.0894 91.625 92.25 92.4644 92.25 93.5C92.25 95.5677 90.5677 97.25 88.5 97.25H55.5C53.4323 97.25 51.75 95.5677 51.75 93.5V64.25C51.75 62.1823 53.4323 60.5 55.5 60.5H57.8438V62.375C57.8438 63.4106 58.6832 64.25 59.7188 64.25C60.7543 64.25 61.5938 63.4106 61.5938 62.375V60.5H70.0312V62.375C70.0312 63.4106 70.8707 64.25 71.9062 64.25C72.9418 64.25 73.7812 63.4106 73.7812 62.375V60.5H82.3125V62.375C82.3125 63.4106 83.1519 64.25 84.1875 64.25C85.2231 64.25 86.0625 63.4106 86.0625 62.375V60.5H88.5C90.5677 60.5 92.25 62.1823 92.25 64.25V84.125C92.25 85.1606 93.0894 86 94.125 86Z" fill="#B370F5"/>
<path d="M59.7188 90.875C60.7543 90.875 61.5938 90.0355 61.5938 89C61.5938 87.9645 60.7543 87.125 59.7188 87.125C58.6832 87.125 57.8438 87.9645 57.8438 89C57.8438 90.0355 58.6832 90.875 59.7188 90.875Z" fill="#B370F5"/>
<path d="M59.7188 74.5625C60.7543 74.5625 61.5938 73.723 61.5938 72.6875C61.5938 71.652 60.7543 70.8125 59.7188 70.8125C58.6832 70.8125 57.8438 71.652 57.8438 72.6875C57.8438 73.723 58.6832 74.5625 59.7188 74.5625Z" fill="#B370F5"/>
<path d="M59.7188 82.7188C60.7543 82.7188 61.5938 81.8793 61.5938 80.8438C61.5938 79.8082 60.7543 78.9688 59.7188 78.9688C58.6832 78.9688 57.8438 79.8082 57.8438 80.8438C57.8438 81.8793 58.6832 82.7188 59.7188 82.7188Z" fill="#B370F5"/>
<path d="M67.875 82.7188C68.9105 82.7188 69.75 81.8793 69.75 80.8438C69.75 79.8082 68.9105 78.9688 67.875 78.9688C66.8395 78.9688 66 79.8082 66 80.8438C66 81.8793 66.8395 82.7188 67.875 82.7188Z" fill="#B370F5"/>
<path d="M67.875 74.5625C68.9105 74.5625 69.75 73.723 69.75 72.6875C69.75 71.652 68.9105 70.8125 67.875 70.8125C66.8395 70.8125 66 71.652 66 72.6875C66 73.723 66.8395 74.5625 67.875 74.5625Z" fill="#B370F5"/>
<path d="M67.875 90.875C68.9105 90.875 69.75 90.0355 69.75 89C69.75 87.9645 68.9105 87.125 67.875 87.125C66.8395 87.125 66 87.9645 66 89C66 90.0355 66.8395 90.875 67.875 90.875Z" fill="#B370F5"/>
<defs>
<linearGradient id="paint0_linear_53_2522" x1="50.4264" y1="75.5368" x2="169.437" y2="119.539" gradientUnits="userSpaceOnUse">
<stop stop-color="#FD749B"/>
<stop offset="1" stop-color="#281AC8"/>
</linearGradient>
<linearGradient id="paint1_linear_53_2522" x1="85.7716" y1="75.2216" x2="102.366" y2="6.32447" gradientUnits="userSpaceOnUse">
<stop stop-color="#BB6DF3"/>
<stop offset="1" stop-color="#7A00F4"/>
</linearGradient>
<linearGradient id="paint2_linear_53_2522" x1="133.5" y1="14.9993" x2="57.1228" y2="132.527" gradientUnits="userSpaceOnUse">
<stop stop-color="#907EFF"/>
<stop offset="1" stop-color="#BB6DF3"/>
</linearGradient>
</defs>
</svg>
