<svg width="317" height="168" viewBox="0 0 317 168" fill="none" xmlns="http://www.w3.org/2000/svg">
<rect x="1" y="1" width="315" height="166" rx="11" fill="white" stroke="#F0F0F0" stroke-width="2"/>
<path d="M153.552 66.6577H148.19L146.986 69.9976H145.246L150.133 57.2007H151.609L156.505 69.9976H154.773L153.552 66.6577ZM148.7 65.269H153.051L150.871 59.2837L148.7 65.269ZM167.535 65.937C167.377 67.2905 166.876 68.3364 166.032 69.0747C165.194 69.8071 164.078 70.1733 162.684 70.1733C161.172 70.1733 159.959 69.6313 159.045 68.5474C158.137 67.4634 157.683 66.0132 157.683 64.1968V62.9663C157.683 61.7769 157.894 60.731 158.315 59.8286C158.743 58.9263 159.347 58.2349 160.126 57.7544C160.905 57.2681 161.808 57.0249 162.833 57.0249C164.192 57.0249 165.282 57.4058 166.103 58.1675C166.923 58.9233 167.4 59.9722 167.535 61.314H165.839C165.692 60.2944 165.373 59.5562 164.881 59.0991C164.395 58.6421 163.712 58.4136 162.833 58.4136C161.755 58.4136 160.908 58.812 160.293 59.6089C159.684 60.4058 159.379 61.5396 159.379 63.0103V64.2495C159.379 65.6382 159.669 66.7427 160.249 67.563C160.829 68.3833 161.641 68.7935 162.684 68.7935C163.621 68.7935 164.339 68.5825 164.837 68.1606C165.341 67.7329 165.675 66.9917 165.839 65.937H167.535ZM179.26 65.937C179.102 67.2905 178.601 68.3364 177.757 69.0747C176.919 69.8071 175.803 70.1733 174.408 70.1733C172.896 70.1733 171.684 69.6313 170.77 68.5474C169.861 67.4634 169.407 66.0132 169.407 64.1968V62.9663C169.407 61.7769 169.618 60.731 170.04 59.8286C170.468 58.9263 171.071 58.2349 171.851 57.7544C172.63 57.2681 173.532 57.0249 174.558 57.0249C175.917 57.0249 177.007 57.4058 177.827 58.1675C178.647 58.9233 179.125 59.9722 179.26 61.314H177.563C177.417 60.2944 177.098 59.5562 176.605 59.0991C176.119 58.6421 175.437 58.4136 174.558 58.4136C173.479 58.4136 172.633 58.812 172.018 59.6089C171.408 60.4058 171.104 61.5396 171.104 63.0103V64.2495C171.104 65.6382 171.394 66.7427 171.974 67.563C172.554 68.3833 173.365 68.7935 174.408 68.7935C175.346 68.7935 176.063 68.5825 176.562 68.1606C177.065 67.7329 177.399 66.9917 177.563 65.937H179.26ZM191.415 64.0122C191.415 65.2661 191.204 66.3618 190.782 67.2993C190.36 68.231 189.763 68.9429 188.989 69.4351C188.216 69.9272 187.313 70.1733 186.282 70.1733C185.274 70.1733 184.381 69.9272 183.602 69.4351C182.822 68.937 182.216 68.231 181.782 67.3169C181.354 66.397 181.135 65.3335 181.123 64.1265V63.2036C181.123 61.9731 181.337 60.8862 181.765 59.9429C182.192 58.9995 182.796 58.2788 183.575 57.7808C184.36 57.2769 185.257 57.0249 186.265 57.0249C187.29 57.0249 188.192 57.2739 188.972 57.772C189.757 58.2642 190.36 58.9819 190.782 59.9253C191.204 60.8628 191.415 61.9556 191.415 63.2036V64.0122ZM189.736 63.186C189.736 61.6685 189.432 60.5054 188.822 59.6968C188.213 58.8823 187.36 58.4751 186.265 58.4751C185.198 58.4751 184.357 58.8823 183.742 59.6968C183.133 60.5054 182.819 61.6304 182.802 63.0718V64.0122C182.802 65.4829 183.109 66.6401 183.725 67.4839C184.346 68.3218 185.198 68.7407 186.282 68.7407C187.372 68.7407 188.216 68.3452 188.813 67.5542C189.411 66.7573 189.719 65.6177 189.736 64.1353V63.186ZM202.955 57.2007V65.9019C202.949 67.1089 202.568 68.0962 201.812 68.8638C201.062 69.6313 200.043 70.062 198.754 70.1558L198.306 70.1733C196.905 70.1733 195.789 69.7954 194.957 69.0396C194.125 68.2837 193.703 67.2437 193.691 65.9194V57.2007H195.361V65.8667C195.361 66.7925 195.616 67.5132 196.126 68.0288C196.636 68.5386 197.362 68.7935 198.306 68.7935C199.261 68.7935 199.99 68.5386 200.494 68.0288C201.004 67.519 201.259 66.8013 201.259 65.8755V57.2007H202.955ZM215.453 69.9976H213.757L207.314 60.1362V69.9976H205.618V57.2007H207.314L213.774 67.106V57.2007H215.453V69.9976ZM227.028 58.5894H222.915V69.9976H221.236V58.5894H217.132V57.2007H227.028V58.5894ZM241.53 58.5894H237.417V69.9976H235.738V58.5894H231.634V57.2007H241.53V58.5894ZM247.472 63.6255L250.812 57.2007H252.728L248.315 65.2251V69.9976H246.628V65.2251L242.216 57.2007H244.149L247.472 63.6255ZM256.067 64.9878V69.9976H254.38V57.2007H259.1C260.5 57.2007 261.596 57.5581 262.387 58.2729C263.184 58.9878 263.582 59.9341 263.582 61.1118C263.582 62.354 263.192 63.312 262.413 63.9858C261.64 64.6538 260.529 64.9878 259.082 64.9878H256.067ZM256.067 63.6079H259.1C260.002 63.6079 260.693 63.397 261.174 62.9751C261.654 62.5474 261.895 61.9321 261.895 61.1294C261.895 60.3677 261.654 59.7583 261.174 59.3013C260.693 58.8442 260.034 58.6069 259.196 58.5894H256.067V63.6079ZM272.969 64.0825H267.423V68.6177H273.865V69.9976H265.735V57.2007H273.777V58.5894H267.423V62.7026H272.969V64.0825ZM275.658 69.145C275.658 68.8638 275.74 68.6294 275.904 68.4419C276.074 68.2544 276.326 68.1606 276.66 68.1606C276.994 68.1606 277.246 68.2544 277.416 68.4419C277.592 68.6294 277.68 68.8638 277.68 69.145C277.68 69.4146 277.592 69.6401 277.416 69.8218C277.246 70.0034 276.994 70.0942 276.66 70.0942C276.326 70.0942 276.074 70.0034 275.904 69.8218C275.74 69.6401 275.658 69.4146 275.658 69.145ZM275.667 61.3843C275.667 61.103 275.749 60.8687 275.913 60.6812C276.083 60.4937 276.335 60.3999 276.669 60.3999C277.003 60.3999 277.255 60.4937 277.425 60.6812C277.601 60.8687 277.688 61.103 277.688 61.3843C277.688 61.6538 277.601 61.8794 277.425 62.061C277.255 62.2427 277.003 62.3335 276.669 62.3335C276.335 62.3335 276.083 62.2427 275.913 62.061C275.749 61.8794 275.667 61.6538 275.667 61.3843Z" fill="#3B668D"/>
<path d="M152.957 95.0076L157.832 80.9333H160.293L153.965 97.9958H151.973L145.656 80.9333H148.105L152.957 95.0076ZM165.004 97.9958H162.754V80.9333H165.004V97.9958ZM171.379 91.3162V97.9958H169.129V80.9333H175.422C177.289 80.9333 178.75 81.4099 179.805 82.363C180.867 83.3162 181.398 84.5779 181.398 86.1482C181.398 87.8044 180.879 89.0818 179.84 89.9802C178.809 90.8708 177.328 91.3162 175.398 91.3162H171.379ZM171.379 89.4763H175.422C176.625 89.4763 177.547 89.1951 178.188 88.6326C178.828 88.0623 179.148 87.2419 179.148 86.1716C179.148 85.156 178.828 84.3435 178.188 83.7341C177.547 83.1248 176.668 82.8083 175.551 82.7849H171.379V89.4763ZM197.969 90.4958C197.516 91.0349 196.973 91.4685 196.34 91.7966C195.715 92.1248 195.027 92.2888 194.277 92.2888C193.293 92.2888 192.434 92.0466 191.699 91.5623C190.973 91.0779 190.41 90.3982 190.012 89.5232C189.613 88.6404 189.414 87.6677 189.414 86.6052C189.414 85.4646 189.629 84.4373 190.059 83.5232C190.496 82.6091 191.113 81.9099 191.91 81.4255C192.707 80.9412 193.637 80.699 194.699 80.699C196.387 80.699 197.715 81.3318 198.684 82.5974C199.66 83.8552 200.148 85.574 200.148 87.7537V88.3865C200.148 91.7068 199.492 94.1326 198.18 95.6638C196.867 97.1873 194.887 97.9685 192.238 98.0076H191.816V96.1794H192.273C194.062 96.1482 195.438 95.6833 196.398 94.7849C197.359 93.8787 197.883 92.449 197.969 90.4958ZM194.629 90.4958C195.355 90.4958 196.023 90.2732 196.633 89.8279C197.25 89.3826 197.699 88.8318 197.98 88.1755V87.3083C197.98 85.8865 197.672 84.7302 197.055 83.8396C196.438 82.949 195.656 82.5037 194.711 82.5037C193.758 82.5037 192.992 82.8708 192.414 83.6052C191.836 84.3318 191.547 85.2927 191.547 86.488C191.547 87.6521 191.824 88.613 192.379 89.3708C192.941 90.1208 193.691 90.4958 194.629 90.4958ZM213.836 90.7185C213.836 93.2576 213.402 95.1443 212.535 96.3787C211.668 97.613 210.312 98.2302 208.469 98.2302C206.648 98.2302 205.301 97.6287 204.426 96.4255C203.551 95.2146 203.098 93.4099 203.066 91.0115V88.1169C203.066 85.6091 203.5 83.7458 204.367 82.5271C205.234 81.3083 206.594 80.699 208.445 80.699C210.281 80.699 211.633 81.2888 212.5 82.4685C213.367 83.6404 213.812 85.4529 213.836 87.906V90.7185ZM211.668 87.7537C211.668 85.9177 211.41 84.5818 210.895 83.7458C210.379 82.9021 209.562 82.4802 208.445 82.4802C207.336 82.4802 206.527 82.8982 206.02 83.7341C205.512 84.5701 205.25 85.8552 205.234 87.5896V91.0583C205.234 92.9021 205.5 94.2654 206.031 95.1482C206.57 96.0232 207.383 96.4607 208.469 96.4607C209.539 96.4607 210.332 96.0466 210.848 95.2185C211.371 94.3904 211.645 93.0857 211.668 91.3044V87.7537ZM223.129 97.9958V80.9333H227.945C229.43 80.9333 230.742 81.2615 231.883 81.9177C233.023 82.574 233.902 83.5076 234.52 84.7185C235.145 85.9294 235.461 87.3201 235.469 88.8904V89.9802C235.469 91.5896 235.156 92.9998 234.531 94.2107C233.914 95.4216 233.027 96.3513 231.871 96.9998C230.723 97.6482 229.383 97.9802 227.852 97.9958H223.129ZM225.379 82.7849V96.156H227.746C229.48 96.156 230.828 95.6169 231.789 94.5388C232.758 93.4607 233.242 91.9255 233.242 89.9333V88.9373C233.242 86.9998 232.785 85.4958 231.871 84.4255C230.965 83.3474 229.676 82.8005 228.004 82.7849H225.379ZM248.043 93.5427H240.895L239.289 97.9958H236.969L243.484 80.9333H245.453L251.98 97.9958H249.672L248.043 93.5427ZM241.574 91.6912H247.375L244.469 83.7107L241.574 91.6912ZM258.379 89.4998L262.832 80.9333H265.387L259.504 91.6326V97.9958H257.254V91.6326L251.371 80.9333H253.949L258.379 89.4998ZM272.43 90.3904C270.5 89.8357 269.094 89.156 268.211 88.3513C267.336 87.5388 266.898 86.5388 266.898 85.3513C266.898 84.0076 267.434 82.8982 268.504 82.0232C269.582 81.1404 270.98 80.699 272.699 80.699C273.871 80.699 274.914 80.9255 275.828 81.3787C276.75 81.8318 277.461 82.4568 277.961 83.2537C278.469 84.0505 278.723 84.9216 278.723 85.8669H276.461C276.461 84.8357 276.133 84.0271 275.477 83.4412C274.82 82.8474 273.895 82.5505 272.699 82.5505C271.59 82.5505 270.723 82.7966 270.098 83.2888C269.48 83.7732 269.172 84.449 269.172 85.3162C269.172 86.0115 269.465 86.6013 270.051 87.0857C270.645 87.5623 271.648 87.9998 273.062 88.3982C274.484 88.7966 275.594 89.238 276.391 89.7224C277.195 90.199 277.789 90.7576 278.172 91.3982C278.562 92.0388 278.758 92.7927 278.758 93.6599C278.758 95.0427 278.219 96.1521 277.141 96.988C276.062 97.8162 274.621 98.2302 272.816 98.2302C271.645 98.2302 270.551 98.0076 269.535 97.5623C268.52 97.1091 267.734 96.4919 267.18 95.7107C266.633 94.9294 266.359 94.0427 266.359 93.0505H268.621C268.621 94.0818 269 94.8982 269.758 95.4998C270.523 96.0935 271.543 96.3904 272.816 96.3904C274.004 96.3904 274.914 96.1482 275.547 95.6638C276.18 95.1794 276.496 94.5193 276.496 93.6833C276.496 92.8474 276.203 92.2029 275.617 91.7498C275.031 91.2888 273.969 90.8357 272.43 90.3904Z" fill="#F36DD4"/>
<path opacity="0.253397" fill-rule="evenodd" clip-rule="evenodd" d="M47.3638 113.617C47.3638 113.617 47.935 110.462 50.1812 117.882C52.4274 125.301 77.8263 141.539 86.3284 128.388C94.8304 115.238 106.851 129.995 115.154 126.048C123.457 122.101 124.772 116.892 118.583 104.341C112.394 91.7901 127.618 76.4962 112.443 66.6637C97.2669 56.8313 109.015 59.2468 109.015 59.2468L108.938 99.3895L88.6239 117.806L47.3638 113.617Z" fill="url(#paint0_linear_53_2334)"/>
<path opacity="0.518059" fill-rule="evenodd" clip-rule="evenodd" d="M107.593 74.5454C107.593 74.5454 105.829 74.4428 109.736 72.6925C113.644 70.9422 120.816 55.7459 113.049 51.9215C105.282 48.0972 112.545 40.4251 109.826 36.0859C107.108 31.7467 104.17 31.3707 97.7202 35.6574C91.2709 39.944 78.8289 28.4948 74.4724 37.5833C70.1158 46.6718 77.5159 35.6373 77.5159 35.6373L95.6612 41.3456L107.105 51.3665L107.593 74.5454Z" fill="url(#paint1_linear_53_2334)"/>
<circle cx="71.8541" cy="78.824" r="39.8541" stroke="url(#paint2_linear_53_2334)" stroke-width="10" stroke-linecap="round"/>
<path d="M84.5155 91.2051H83.08H59.7715H58.3359H56.9004V95.0121H85.9511V91.2051H84.5155Z" fill="#7A00F4"/>
<path d="M60.2864 67.572L58.2891 72.4424L59.5791 73.0778L60.8702 73.7133L62.4455 74.4885L63.6159 72.8166L64.4428 71.6356L65.2687 70.4556L60.2864 67.572Z" fill="#7A00F4"/>
<path d="M82.7138 67.572L77.6367 70.5101L78.4636 71.6901L79.2895 72.8711L80.4217 74.4885L82.108 73.6587L83.398 73.0233L84.6891 72.3878L82.7138 67.572Z" fill="#7A00F4"/>
<path d="M91.9518 67.2315C89.8817 67.2315 88.1705 68.7914 87.9322 70.7983C87.9131 70.9562 87.9035 71.117 87.9035 71.2797C87.9035 71.6453 87.9523 72.0003 88.0442 72.3372C88.1715 72.809 88.383 73.2474 88.6605 73.634L85.7818 75.0514L84.4907 75.6868L84.33 75.7663H84.329L83.1997 76.3213L79.4816 78.1521L76.7953 74.3154L76.0727 73.2828V73.2818L75.9684 73.1335L75.1425 71.9534L72.3652 67.9856C72.8513 67.8727 73.305 67.6717 73.7069 67.3999C74.1117 67.1281 74.4649 66.7826 74.7482 66.3845C75.219 65.7232 75.4966 64.9145 75.4966 64.0426C75.4966 61.8099 73.6811 59.9944 71.4483 59.9944C69.2165 59.9944 67.4001 61.8099 67.4001 64.0426C67.4001 64.9059 67.6719 65.7069 68.1341 66.3644C68.4155 66.7644 68.7667 67.1118 69.1696 67.3865C69.5697 67.6602 70.0214 67.8641 70.5066 67.9799L67.7628 71.8989L66.9369 73.0789L66.7598 73.3325L66.11 74.2608L63.3863 78.1521L59.7773 76.3759L58.5887 75.7902L58.4872 75.7404L57.1962 75.105L54.0629 73.5632C54.3835 73.2052 54.6419 72.7899 54.8199 72.3353C54.9979 71.8807 55.0955 71.3869 55.0965 70.871V70.8634C55.0965 68.6306 53.281 66.8142 51.0482 66.8142C48.8164 66.8142 47 68.6306 47 70.8634C47 72.9105 48.5284 74.6092 50.5046 74.8753C50.6827 74.8992 50.8635 74.9116 51.0482 74.9116C51.3755 74.9116 51.6933 74.8724 51.9986 74.7987C52.4761 74.6839 52.9212 74.4838 53.3164 74.2159L57.8259 86.8984L58.336 88.334H84.5309L85.041 86.8984L89.4616 74.4685C89.8415 74.7662 90.275 74.9968 90.7459 75.1442C91.1268 75.2638 91.5316 75.3279 91.9518 75.3279C92.0379 75.3279 92.1231 75.3251 92.2073 75.3193C94.3204 75.1873 96 73.4254 96 71.2797C96 69.0469 94.1836 67.2315 91.9518 67.2315Z" fill="#A078FA"/>
<defs>
<linearGradient id="paint0_linear_53_2334" x1="50.4264" y1="75.5368" x2="169.437" y2="119.539" gradientUnits="userSpaceOnUse">
<stop stop-color="#FD749B"/>
<stop offset="1" stop-color="#281AC8"/>
</linearGradient>
<linearGradient id="paint1_linear_53_2334" x1="85.7716" y1="75.2216" x2="102.366" y2="6.32447" gradientUnits="userSpaceOnUse">
<stop stop-color="#BB6DF3"/>
<stop offset="1" stop-color="#7A00F4"/>
</linearGradient>
<linearGradient id="paint2_linear_53_2334" x1="133.5" y1="14.9993" x2="57.1228" y2="132.527" gradientUnits="userSpaceOnUse">
<stop stop-color="#907EFF"/>
<stop offset="1" stop-color="#BB6DF3"/>
</linearGradient>
</defs>
</svg>
