<svg width="317" height="168" viewBox="0 0 317 168" fill="none" xmlns="http://www.w3.org/2000/svg">
<rect x="1" y="1" width="315" height="166" rx="11" fill="white" stroke="#F0F0F0" stroke-width="2"/>
<path d="M146.543 64.3462H141.173V69.9976H139.485V57.2007H147.413V58.5894H141.173V62.9663H146.543V64.3462ZM151.245 69.9976H149.558V57.2007H151.245V69.9976ZM156.035 68.6177H162.1V69.9976H154.339V57.2007H156.035V68.6177ZM171.258 64.0825H165.712V68.6177H172.154V69.9976H164.024V57.2007H172.066V58.5894H165.712V62.7026H171.258V64.0825ZM182.49 64.2935C181.043 63.8774 179.988 63.3677 179.326 62.7642C178.67 62.1548 178.342 61.4048 178.342 60.5142C178.342 59.5063 178.743 58.6743 179.546 58.0181C180.354 57.356 181.403 57.0249 182.692 57.0249C183.571 57.0249 184.354 57.1948 185.039 57.5347C185.73 57.8745 186.264 58.3433 186.639 58.9409C187.02 59.5386 187.21 60.1919 187.21 60.9009H185.514C185.514 60.1274 185.268 59.521 184.775 59.0815C184.283 58.6362 183.589 58.4136 182.692 58.4136C181.86 58.4136 181.21 58.5981 180.741 58.9673C180.278 59.3306 180.047 59.8374 180.047 60.4878C180.047 61.0093 180.267 61.4517 180.706 61.8149C181.151 62.1724 181.904 62.5005 182.965 62.7993C184.031 63.0981 184.863 63.4292 185.461 63.7925C186.064 64.1499 186.51 64.5688 186.797 65.0493C187.09 65.5298 187.236 66.0952 187.236 66.7456C187.236 67.7827 186.832 68.6147 186.023 69.2417C185.215 69.8628 184.134 70.1733 182.78 70.1733C181.901 70.1733 181.081 70.0063 180.319 69.6724C179.558 69.3325 178.969 68.8696 178.553 68.2837C178.143 67.6978 177.938 67.0327 177.938 66.2886H179.634C179.634 67.062 179.918 67.6743 180.486 68.1255C181.061 68.5708 181.825 68.7935 182.78 68.7935C183.671 68.7935 184.354 68.6118 184.828 68.2485C185.303 67.8853 185.54 67.3901 185.54 66.7632C185.54 66.1362 185.32 65.6528 184.881 65.313C184.441 64.9673 183.645 64.6274 182.49 64.2935ZM198.249 58.5894H194.136V69.9976H192.457V58.5894H188.353V57.2007H198.249V58.5894ZM209.745 64.0122C209.745 65.2661 209.534 66.3618 209.112 67.2993C208.69 68.231 208.093 68.9429 207.319 69.4351C206.546 69.9272 205.644 70.1733 204.612 70.1733C203.604 70.1733 202.711 69.9272 201.932 69.4351C201.152 68.937 200.546 68.231 200.112 67.3169C199.685 66.397 199.465 65.3335 199.453 64.1265V63.2036C199.453 61.9731 199.667 60.8862 200.095 59.9429C200.522 58.9995 201.126 58.2788 201.905 57.7808C202.69 57.2769 203.587 57.0249 204.595 57.0249C205.62 57.0249 206.522 57.2739 207.302 57.772C208.087 58.2642 208.69 58.9819 209.112 59.9253C209.534 60.8628 209.745 61.9556 209.745 63.2036V64.0122ZM208.066 63.186C208.066 61.6685 207.762 60.5054 207.152 59.6968C206.543 58.8823 205.69 58.4751 204.595 58.4751C203.528 58.4751 202.688 58.8823 202.072 59.6968C201.463 60.5054 201.149 61.6304 201.132 63.0718V64.0122C201.132 65.4829 201.439 66.6401 202.055 67.4839C202.676 68.3218 203.528 68.7407 204.612 68.7407C205.702 68.7407 206.546 68.3452 207.144 67.5542C207.741 66.7573 208.049 65.6177 208.066 64.1353V63.186ZM216.97 64.8208H213.964V69.9976H212.268V57.2007H216.504C217.945 57.2007 219.053 57.5288 219.826 58.1851C220.605 58.8413 220.995 59.7964 220.995 61.0503C220.995 61.8472 220.778 62.5415 220.345 63.1333C219.917 63.7251 219.319 64.1675 218.552 64.4604L221.558 69.8921V69.9976H219.747L216.97 64.8208ZM213.964 63.4409H216.557C217.395 63.4409 218.06 63.2241 218.552 62.7905C219.05 62.3569 219.299 61.7769 219.299 61.0503C219.299 60.2593 219.062 59.6528 218.587 59.231C218.118 58.8091 217.438 58.5952 216.548 58.5894H213.964V63.4409ZM230.602 64.0825H225.056V68.6177H231.498V69.9976H223.368V57.2007H231.41V58.5894H225.056V62.7026H230.602V64.0825ZM233.599 69.9976V57.2007H237.211C238.324 57.2007 239.309 57.4468 240.164 57.939C241.02 58.4312 241.679 59.1313 242.142 60.0396C242.61 60.9478 242.848 61.9907 242.854 63.1685V63.9858C242.854 65.1929 242.619 66.2505 242.15 67.1587C241.688 68.0669 241.022 68.7642 240.155 69.2505C239.294 69.7368 238.289 69.9858 237.141 69.9976H233.599ZM235.286 58.5894V68.6177H237.062C238.362 68.6177 239.373 68.2134 240.094 67.4048C240.82 66.5962 241.184 65.4448 241.184 63.9507V63.2036C241.184 61.7505 240.841 60.6226 240.155 59.8198C239.476 59.0112 238.509 58.6011 237.255 58.5894H235.286ZM258.366 58.5894H254.253V69.9976H252.574V58.5894H248.47V57.2007H258.366V58.5894ZM269.862 64.0122C269.862 65.2661 269.651 66.3618 269.229 67.2993C268.808 68.231 268.21 68.9429 267.437 69.4351C266.663 69.9272 265.761 70.1733 264.729 70.1733C263.722 70.1733 262.828 69.9272 262.049 69.4351C261.27 68.937 260.663 68.231 260.229 67.3169C259.802 66.397 259.582 65.3335 259.57 64.1265V63.2036C259.57 61.9731 259.784 60.8862 260.212 59.9429C260.64 58.9995 261.243 58.2788 262.022 57.7808C262.808 57.2769 263.704 57.0249 264.712 57.0249C265.737 57.0249 266.64 57.2739 267.419 57.772C268.204 58.2642 268.808 58.9819 269.229 59.9253C269.651 60.8628 269.862 61.9556 269.862 63.2036V64.0122ZM268.184 63.186C268.184 61.6685 267.879 60.5054 267.27 59.6968C266.66 58.8823 265.808 58.4751 264.712 58.4751C263.646 58.4751 262.805 58.8823 262.189 59.6968C261.58 60.5054 261.267 61.6304 261.249 63.0718V64.0122C261.249 65.4829 261.557 66.6401 262.172 67.4839C262.793 68.3218 263.646 68.7407 264.729 68.7407C265.819 68.7407 266.663 68.3452 267.261 67.5542C267.858 66.7573 268.166 65.6177 268.184 64.1353V63.186ZM280.989 58.5894H276.876V69.9976H275.197V58.5894H271.093V57.2007H280.989V58.5894ZM289.251 66.6577H283.89L282.686 69.9976H280.945L285.832 57.2007H287.309L292.204 69.9976H290.473L289.251 66.6577ZM284.399 65.269H288.75L286.57 59.2837L284.399 65.269ZM295.623 68.6177H301.688V69.9976H293.927V57.2007H295.623V68.6177ZM303.305 69.145C303.305 68.8638 303.387 68.6294 303.551 68.4419C303.721 68.2544 303.973 68.1606 304.307 68.1606C304.641 68.1606 304.893 68.2544 305.062 68.4419C305.238 68.6294 305.326 68.8638 305.326 69.145C305.326 69.4146 305.238 69.6401 305.062 69.8218C304.893 70.0034 304.641 70.0942 304.307 70.0942C303.973 70.0942 303.721 70.0034 303.551 69.8218C303.387 69.6401 303.305 69.4146 303.305 69.145ZM303.313 61.3843C303.313 61.103 303.396 60.8687 303.56 60.6812C303.729 60.4937 303.981 60.3999 304.315 60.3999C304.649 60.3999 304.901 60.4937 305.071 60.6812C305.247 60.8687 305.335 61.103 305.335 61.3843C305.335 61.6538 305.247 61.8794 305.071 62.061C304.901 62.2427 304.649 62.3335 304.315 62.3335C303.981 62.3335 303.729 62.2427 303.56 62.061C303.396 61.8794 303.313 61.6538 303.313 61.3843Z" fill="#3B668D"/>
<path d="M144.789 98.9958H142.609V84.5466L138.238 86.1521V84.1833L144.449 81.8513H144.789V98.9958ZM168.273 98.9958H157.094V97.4373L163 90.8748C163.875 89.8826 164.477 89.0779 164.805 88.4607C165.141 87.8357 165.309 87.1912 165.309 86.5271C165.309 85.6365 165.039 84.906 164.5 84.3357C163.961 83.7654 163.242 83.4802 162.344 83.4802C161.266 83.4802 160.426 83.7888 159.824 84.406C159.23 85.0154 158.934 85.8669 158.934 86.9607H156.766C156.766 85.3904 157.27 84.1208 158.277 83.1521C159.293 82.1833 160.648 81.699 162.344 81.699C163.93 81.699 165.184 82.1169 166.105 82.9529C167.027 83.781 167.488 84.8865 167.488 86.2693C167.488 87.949 166.418 89.949 164.277 92.2693L159.707 97.2263H168.273V98.9958ZM173.723 89.4099H175.352C176.375 89.3943 177.18 89.1248 177.766 88.6013C178.352 88.0779 178.645 87.3708 178.645 86.4802C178.645 84.4802 177.648 83.4802 175.656 83.4802C174.719 83.4802 173.969 83.7498 173.406 84.2888C172.852 84.8201 172.574 85.5271 172.574 86.4099H170.406C170.406 85.0583 170.898 83.9373 171.883 83.0466C172.875 82.1482 174.133 81.699 175.656 81.699C177.266 81.699 178.527 82.1248 179.441 82.9763C180.355 83.8279 180.812 85.0115 180.812 86.5271C180.812 87.2693 180.57 87.988 180.086 88.6833C179.609 89.3787 178.957 89.8982 178.129 90.2419C179.066 90.5388 179.789 91.031 180.297 91.7185C180.812 92.406 181.07 93.2458 181.07 94.238C181.07 95.7693 180.57 96.9841 179.57 97.8826C178.57 98.781 177.27 99.2302 175.668 99.2302C174.066 99.2302 172.762 98.7966 171.754 97.9294C170.754 97.0623 170.254 95.9177 170.254 94.4958H172.434C172.434 95.3943 172.727 96.113 173.312 96.6521C173.898 97.1912 174.684 97.4607 175.668 97.4607C176.715 97.4607 177.516 97.1873 178.07 96.6404C178.625 96.0935 178.902 95.3083 178.902 94.2849C178.902 93.2927 178.598 92.531 177.988 91.9998C177.379 91.4685 176.5 91.1951 175.352 91.1794H173.723V89.4099ZM192.355 91.4958C191.902 92.0349 191.359 92.4685 190.727 92.7966C190.102 93.1248 189.414 93.2888 188.664 93.2888C187.68 93.2888 186.82 93.0466 186.086 92.5623C185.359 92.0779 184.797 91.3982 184.398 90.5232C184 89.6404 183.801 88.6677 183.801 87.6052C183.801 86.4646 184.016 85.4373 184.445 84.5232C184.883 83.6091 185.5 82.9099 186.297 82.4255C187.094 81.9412 188.023 81.699 189.086 81.699C190.773 81.699 192.102 82.3318 193.07 83.5974C194.047 84.8552 194.535 86.574 194.535 88.7537V89.3865C194.535 92.7068 193.879 95.1326 192.566 96.6638C191.254 98.1873 189.273 98.9685 186.625 99.0076H186.203V97.1794H186.66C188.449 97.1482 189.824 96.6833 190.785 95.7849C191.746 94.8787 192.27 93.449 192.355 91.4958ZM189.016 91.4958C189.742 91.4958 190.41 91.2732 191.02 90.8279C191.637 90.3826 192.086 89.8318 192.367 89.1755V88.3083C192.367 86.8865 192.059 85.7302 191.441 84.8396C190.824 83.949 190.043 83.5037 189.098 83.5037C188.145 83.5037 187.379 83.8708 186.801 84.6052C186.223 85.3318 185.934 86.2927 185.934 87.488C185.934 88.6521 186.211 89.613 186.766 90.3708C187.328 91.1208 188.078 91.4958 189.016 91.4958ZM206.629 89.4099H208.258C209.281 89.3943 210.086 89.1248 210.672 88.6013C211.258 88.0779 211.551 87.3708 211.551 86.4802C211.551 84.4802 210.555 83.4802 208.562 83.4802C207.625 83.4802 206.875 83.7498 206.312 84.2888C205.758 84.8201 205.48 85.5271 205.48 86.4099H203.312C203.312 85.0583 203.805 83.9373 204.789 83.0466C205.781 82.1482 207.039 81.699 208.562 81.699C210.172 81.699 211.434 82.1248 212.348 82.9763C213.262 83.8279 213.719 85.0115 213.719 86.5271C213.719 87.2693 213.477 87.988 212.992 88.6833C212.516 89.3787 211.863 89.8982 211.035 90.2419C211.973 90.5388 212.695 91.031 213.203 91.7185C213.719 92.406 213.977 93.2458 213.977 94.238C213.977 95.7693 213.477 96.9841 212.477 97.8826C211.477 98.781 210.176 99.2302 208.574 99.2302C206.973 99.2302 205.668 98.7966 204.66 97.9294C203.66 97.0623 203.16 95.9177 203.16 94.4958H205.34C205.34 95.3943 205.633 96.113 206.219 96.6521C206.805 97.1912 207.59 97.4607 208.574 97.4607C209.621 97.4607 210.422 97.1873 210.977 96.6404C211.531 96.0935 211.809 95.3083 211.809 94.2849C211.809 93.2927 211.504 92.531 210.895 91.9998C210.285 91.4685 209.406 91.1951 208.258 91.1794H206.629V89.4099ZM226.105 93.2654H228.473V95.0349H226.105V98.9958H223.926V95.0349H216.156V93.7576L223.797 81.9333H226.105V93.2654ZM218.617 93.2654H223.926V84.8982L223.668 85.3669L218.617 93.2654ZM231.426 90.4412L232.293 81.9333H241.035V83.9373H234.133L233.617 88.5896C234.453 88.0974 235.402 87.8513 236.465 87.8513C238.02 87.8513 239.254 88.3669 240.168 89.3982C241.082 90.4216 241.539 91.8083 241.539 93.5583C241.539 95.3162 241.062 96.7029 240.109 97.7185C239.164 98.7263 237.84 99.2302 236.137 99.2302C234.629 99.2302 233.398 98.8123 232.445 97.9763C231.492 97.1404 230.949 95.9841 230.816 94.5076H232.867C233 95.4841 233.348 96.2224 233.91 96.7224C234.473 97.2146 235.215 97.4607 236.137 97.4607C237.145 97.4607 237.934 97.1169 238.504 96.4294C239.082 95.7419 239.371 94.7927 239.371 93.5818C239.371 92.4412 239.059 91.5271 238.434 90.8396C237.816 90.1443 236.992 89.7966 235.961 89.7966C235.016 89.7966 234.273 90.0037 233.734 90.4177L233.16 90.8865L231.426 90.4412ZM263.02 96.7576C262.441 97.5857 261.633 98.2068 260.594 98.6208C259.562 99.0271 258.359 99.2302 256.984 99.2302C255.594 99.2302 254.359 98.906 253.281 98.2576C252.203 97.6013 251.367 96.6716 250.773 95.4685C250.188 94.2654 249.887 92.8708 249.871 91.2849V89.7966C249.871 87.2263 250.469 85.2341 251.664 83.8201C252.867 82.406 254.555 81.699 256.727 81.699C258.508 81.699 259.941 82.156 261.027 83.0701C262.113 83.9763 262.777 85.2654 263.02 86.9373H260.77C260.348 84.6794 259.004 83.5505 256.738 83.5505C255.23 83.5505 254.086 84.0818 253.305 85.1443C252.531 86.199 252.141 87.7302 252.133 89.738V91.1326C252.133 93.0466 252.57 94.5701 253.445 95.7029C254.32 96.8279 255.504 97.3904 256.996 97.3904C257.84 97.3904 258.578 97.2966 259.211 97.1091C259.844 96.9216 260.367 96.6052 260.781 96.1599V92.3279H256.832V90.4998H263.02V96.7576ZM266.781 98.9958V81.9333H272.359C274.211 81.9333 275.602 82.3162 276.531 83.0818C277.469 83.8474 277.938 84.9802 277.938 86.4802C277.938 87.2771 277.711 87.9841 277.258 88.6013C276.805 89.2107 276.188 89.6833 275.406 90.0193C276.328 90.2771 277.055 90.7693 277.586 91.4958C278.125 92.2146 278.395 93.074 278.395 94.074C278.395 95.6052 277.898 96.8083 276.906 97.6833C275.914 98.5583 274.512 98.9958 272.699 98.9958H266.781ZM269.031 91.0154V97.156H272.746C273.793 97.156 274.617 96.8865 275.219 96.3474C275.828 95.8005 276.133 95.0505 276.133 94.0974C276.133 92.0427 275.016 91.0154 272.781 91.0154H269.031ZM269.031 89.2107H272.43C273.414 89.2107 274.199 88.9646 274.785 88.4724C275.379 87.9802 275.676 87.3123 275.676 86.4685C275.676 85.531 275.402 84.8513 274.855 84.4294C274.309 83.9998 273.477 83.7849 272.359 83.7849H269.031V89.2107Z" fill="#F36DD4"/>
<path opacity="0.253397" fill-rule="evenodd" clip-rule="evenodd" d="M47.3638 113.617C47.3638 113.617 47.935 110.462 50.1812 117.882C52.4274 125.301 77.8263 141.539 86.3284 128.388C94.8304 115.238 106.851 129.995 115.154 126.048C123.457 122.101 124.772 116.892 118.583 104.341C112.394 91.7901 127.618 76.4962 112.443 66.6637C97.2669 56.8313 109.015 59.2468 109.015 59.2468L108.938 99.3895L88.6239 117.806L47.3638 113.617Z" fill="url(#paint0_linear_53_2544)"/>
<path opacity="0.518059" fill-rule="evenodd" clip-rule="evenodd" d="M107.593 74.5454C107.593 74.5454 105.829 74.4428 109.736 72.6925C113.644 70.9422 120.816 55.7459 113.049 51.9215C105.282 48.0972 112.545 40.4251 109.826 36.0859C107.108 31.7467 104.17 31.3707 97.7202 35.6574C91.2709 39.944 78.8289 28.4948 74.4724 37.5833C70.1158 46.6718 77.5159 35.6373 77.5159 35.6373L95.6612 41.3456L107.105 51.3665L107.593 74.5454Z" fill="url(#paint1_linear_53_2544)"/>
<circle cx="71.8541" cy="78.824" r="39.8541" stroke="url(#paint2_linear_53_2544)" stroke-width="10" stroke-linecap="round"/>
<g clip-path="url(#clip0_53_2544)">
<path d="M94 70.1797C94 69.6652 93.9002 69.1649 93.7035 68.6929C93.7033 68.6925 93.7032 68.6921 93.703 68.6918L89.4057 58.3796C88.8033 56.9341 87.4021 56 85.836 56H58.164C56.5979 56 55.1967 56.9341 54.5943 58.3796L50.2965 68.6928C50.0998 69.1649 50 69.6652 50 70.1797V75.5078C50 76.4976 50.3742 77.4012 50.9879 78.0859C50.3742 78.7707 50 79.6743 50 80.6641V85.8203C50 86.8101 50.3742 87.7137 50.9879 88.3984C50.3742 89.0832 50 89.9868 50 90.9766V96.1328C50 98.2652 51.7348 100 53.8672 100H90.1328C92.2652 100 94 98.2652 94 96.1328V90.9766C94 89.9868 93.6258 89.0832 93.0121 88.3984C93.6259 87.7137 94 86.8101 94 85.8203V80.6641C94 79.6743 93.6258 78.7707 93.0121 78.0859C93.6259 77.4012 94 76.4976 94 75.5078V70.1797ZM56.9741 59.3713C57.1749 58.8895 57.642 58.5781 58.164 58.5781H85.836C86.358 58.5781 86.8251 58.8895 87.0259 59.3713L89.9186 66.3125H54.0814L56.9741 59.3713ZM91.4219 96.1328C91.4219 96.8436 90.8436 97.4219 90.1328 97.4219H53.8672C53.1564 97.4219 52.5781 96.8436 52.5781 96.1328V90.9766C52.5781 90.2658 53.1564 89.6875 53.8672 89.6875H90.1328C90.8436 89.6875 91.4219 90.2658 91.4219 90.9766V96.1328ZM91.4219 85.8203C91.4219 86.5311 90.8436 87.1094 90.1328 87.1094H53.8672C53.1564 87.1094 52.5781 86.5311 52.5781 85.8203V80.6641C52.5781 79.9533 53.1564 79.375 53.8672 79.375H90.1328C90.8436 79.375 91.4219 79.9533 91.4219 80.6641V85.8203ZM91.4219 75.5078C91.4219 76.2186 90.8436 76.7969 90.1328 76.7969H53.8672C53.1564 76.7969 52.5781 76.2186 52.5781 75.5078V70.1797C52.5781 69.4628 53.157 68.8906 53.8672 68.8906H90.1328C90.8452 68.8906 91.4219 69.465 91.4219 70.1797V75.5078Z" fill="#B370F5"/>
<path d="M87.5547 92.2656H64.1797C63.4678 92.2656 62.8906 92.8428 62.8906 93.5547C62.8906 94.2666 63.4678 94.8438 64.1797 94.8438H87.5547C88.2666 94.8438 88.8438 94.2666 88.8438 93.5547C88.8438 92.8428 88.2666 92.2656 87.5547 92.2656Z" fill="#B370F5"/>
<path d="M87.5547 71.4688H64.1797C63.4678 71.4688 62.8906 72.0459 62.8906 72.7578C62.8906 73.4697 63.4678 74.0469 64.1797 74.0469H87.5547C88.2666 74.0469 88.8438 73.4697 88.8438 72.7578C88.8438 72.0459 88.2666 71.4688 87.5547 71.4688Z" fill="#B370F5"/>
<path d="M56.4453 71.4688C55.7334 71.4688 55.1562 72.0459 55.1562 72.7578C55.1562 73.4697 55.7334 74.2188 56.4453 74.2188C57.1572 74.2188 57.7344 73.4697 57.7344 72.7578C57.7344 72.0459 57.1572 71.4688 56.4453 71.4688Z" fill="#B370F5"/>
<path d="M87.5547 81.9531H64.1797C63.4678 81.9531 62.8906 82.5303 62.8906 83.2422C62.8906 83.9541 63.4678 84.5312 64.1797 84.5312H87.5547C88.2666 84.5312 88.8438 83.9541 88.8438 83.2422C88.8438 82.5303 88.2666 81.9531 87.5547 81.9531Z" fill="#B370F5"/>
<path d="M56.4453 84.5312C57.1572 84.5312 57.7344 83.9541 57.7344 83.2422C57.7344 82.5303 57.1572 81.9531 56.4453 81.9531C55.7334 81.9531 55.1562 82.5303 55.1562 83.2422C55.1562 83.9541 55.7334 84.5312 56.4453 84.5312Z" fill="#B370F5"/>
<path d="M56.4453 94.8438C57.1572 94.8438 57.7344 94.2666 57.7344 93.5547C57.7344 92.8428 57.1572 92.2656 56.4453 92.2656C55.7334 92.2656 55.1562 92.8428 55.1562 93.5547C55.1562 94.2666 55.7334 94.8438 56.4453 94.8438Z" fill="#B370F5"/>
</g>
<defs>
<linearGradient id="paint0_linear_53_2544" x1="50.4264" y1="75.5368" x2="169.437" y2="119.539" gradientUnits="userSpaceOnUse">
<stop stop-color="#FD749B"/>
<stop offset="1" stop-color="#281AC8"/>
</linearGradient>
<linearGradient id="paint1_linear_53_2544" x1="85.7716" y1="75.2216" x2="102.366" y2="6.32447" gradientUnits="userSpaceOnUse">
<stop stop-color="#BB6DF3"/>
<stop offset="1" stop-color="#7A00F4"/>
</linearGradient>
<linearGradient id="paint2_linear_53_2544" x1="133.5" y1="14.9993" x2="57.1228" y2="132.527" gradientUnits="userSpaceOnUse">
<stop stop-color="#907EFF"/>
<stop offset="1" stop-color="#BB6DF3"/>
</linearGradient>
<clipPath id="clip0_53_2544">
<rect width="44" height="44" fill="white" transform="translate(50 56)"/>
</clipPath>
</defs>
</svg>
